<svg width="368" height="595" viewBox="0 0 368 595" fill="none" xmlns="http://www.w3.org/2000/svg">
<path d="M367.339 568.931C367.766 566.557 368 564.101 368 561.569V452.756C356.467 452.756 347.123 441.074 347.123 426.672C347.123 412.27 356.473 400.588 368 400.588V33.4312C368 14.9652 356.022 0 341.242 0H26.7582C11.978 0 0 14.9652 0 33.4312V400.581C11.5331 400.581 20.8774 412.263 20.8774 426.665C20.8774 441.066 11.5331 452.756 0 452.756V561.569C0 564.101 0.23451 566.565 0.661438 568.931C11.6654 569.359 20.5226 580.425 20.8654 594.174C22.7655 594.707 24.7318 595 26.7582 595H341.242C343.268 595 345.241 594.707 347.135 594.174C347.477 580.425 356.335 569.359 367.339 568.931Z" fill="white"/>
</svg>
