<svg width="29" height="29" viewBox="0 0 29 29" fill="none" xmlns="http://www.w3.org/2000/svg">
<mask id="path-1-inside-1_2022_86" fill="white">
<path d="M25.9623 21.9186H23.6403C23.4817 21.9186 23.3331 21.9894 23.234 22.1142C23.0028 22.4008 22.755 22.6773 22.4941 22.9404C21.4269 24.031 20.1628 24.9002 18.7716 25.4998C17.3304 26.1212 15.7813 26.4401 14.2168 26.4372C12.6347 26.4372 11.1021 26.1202 9.66199 25.4998C8.27086 24.9002 7.00673 24.031 5.93951 22.9404C4.87039 21.8534 4.01789 20.5651 3.42924 19.1468C2.81819 17.6765 2.51101 16.1153 2.51101 14.5C2.51101 12.8848 2.82149 11.3235 3.42924 9.85329C4.01717 8.43364 4.86274 7.15562 5.93951 6.05969C7.01629 4.96376 8.26813 4.10051 9.66199 3.50028C11.1021 2.87981 12.6347 2.56284 14.2168 2.56284C15.7989 2.56284 17.3315 2.87644 18.7716 3.50028C20.1655 4.10051 21.4173 4.96376 22.4941 6.05969C22.755 6.32609 22.9995 6.6026 23.234 6.88585C23.3331 7.01062 23.485 7.08143 23.6403 7.08143H25.9623C26.1703 7.08143 26.2992 6.84539 26.1836 6.66667C23.6502 2.64714 19.2175 -0.0134373 14.1805 5.10489e-05C6.26651 0.0202836 -0.0785371 6.57899 0.000734765 14.6484C0.0800066 22.5897 6.41515 29 14.2168 29C19.2407 29 23.6535 26.3428 26.1836 22.3334C26.2959 22.1547 26.1703 21.9186 25.9623 21.9186ZM28.8986 14.2876L24.2117 10.5108C24.0366 10.3692 23.7823 10.4974 23.7823 10.7233V13.2861H13.4109C13.2656 13.2861 13.1466 13.4075 13.1466 13.5558V15.4442C13.1466 15.5926 13.2656 15.714 13.4109 15.714H23.7823V18.2768C23.7823 18.5027 24.0399 18.6308 24.2117 18.4892L28.8986 14.7125C28.9302 14.6872 28.9557 14.655 28.9733 14.6182C28.9909 14.5814 29 14.541 29 14.5C29 14.4591 28.9909 14.4187 28.9733 14.3819C28.9557 14.3451 28.9302 14.3128 28.8986 14.2876Z"/>
</mask>
<path d="M25.9623 21.9186H23.6403C23.4817 21.9186 23.3331 21.9894 23.234 22.1142C23.0028 22.4008 22.755 22.6773 22.4941 22.9404C21.4269 24.031 20.1628 24.9002 18.7716 25.4998C17.3304 26.1212 15.7813 26.4401 14.2168 26.4372C12.6347 26.4372 11.1021 26.1202 9.66199 25.4998C8.27086 24.9002 7.00673 24.031 5.93951 22.9404C4.87039 21.8534 4.01789 20.5651 3.42924 19.1468C2.81819 17.6765 2.51101 16.1153 2.51101 14.5C2.51101 12.8848 2.82149 11.3235 3.42924 9.85329C4.01717 8.43364 4.86274 7.15562 5.93951 6.05969C7.01629 4.96376 8.26813 4.10051 9.66199 3.50028C11.1021 2.87981 12.6347 2.56284 14.2168 2.56284C15.7989 2.56284 17.3315 2.87644 18.7716 3.50028C20.1655 4.10051 21.4173 4.96376 22.4941 6.05969C22.755 6.32609 22.9995 6.6026 23.234 6.88585C23.3331 7.01062 23.485 7.08143 23.6403 7.08143H25.9623C26.1703 7.08143 26.2992 6.84539 26.1836 6.66667C23.6502 2.64714 19.2175 -0.0134373 14.1805 5.10489e-05C6.26651 0.0202836 -0.0785371 6.57899 0.000734765 14.6484C0.0800066 22.5897 6.41515 29 14.2168 29C19.2407 29 23.6535 26.3428 26.1836 22.3334C26.2959 22.1547 26.1703 21.9186 25.9623 21.9186ZM28.8986 14.2876L24.2117 10.5108C24.0366 10.3692 23.7823 10.4974 23.7823 10.7233V13.2861H13.4109C13.2656 13.2861 13.1466 13.4075 13.1466 13.5558V15.4442C13.1466 15.5926 13.2656 15.714 13.4109 15.714H23.7823V18.2768C23.7823 18.5027 24.0399 18.6308 24.2117 18.4892L28.8986 14.7125C28.9302 14.6872 28.9557 14.655 28.9733 14.6182C28.9909 14.5814 29 14.541 29 14.5C29 14.4591 28.9909 14.4187 28.9733 14.3819C28.9557 14.3451 28.9302 14.3128 28.8986 14.2876Z" fill="white"/>
<path d="M23.234 22.1142L27.1257 25.2534L27.1376 25.2387L27.1494 25.2238L23.234 22.1142ZM22.4941 22.9404L18.9445 19.4189L18.9324 19.4311L18.9204 19.4434L22.4941 22.9404ZM18.7716 25.4998L16.7925 20.9081L16.7918 20.9084L18.7716 25.4998ZM14.2168 26.4372L14.2259 21.4372H14.2168V26.4372ZM9.66199 25.4998L7.68285 30.0914L7.68357 30.0917L9.66199 25.4998ZM5.93951 22.9404L9.51321 19.4434L9.50415 19.4342L5.93951 22.9404ZM3.42924 19.1468L8.04731 17.2301L8.04634 17.2278L3.42924 19.1468ZM3.42924 9.85329L-1.19028 7.94017L-1.19153 7.9432L3.42924 9.85329ZM9.66199 3.50028L11.6395 8.09258L11.6404 8.09221L9.66199 3.50028ZM18.7716 3.50028L16.7842 8.08831L16.7941 8.09258L18.7716 3.50028ZM22.4941 6.05969L26.0661 2.56094L26.0607 2.55546L22.4941 6.05969ZM23.234 6.88585L27.1494 3.77625L27.1178 3.73643L27.0853 3.69725L23.234 6.88585ZM26.1836 6.66667L21.9536 9.33268L21.9693 9.35758L21.9853 9.38229L26.1836 6.66667ZM14.1805 5.10489e-05L14.1933 5.00003L14.1939 5.00003L14.1805 5.10489e-05ZM0.000734765 14.6484L-4.99902 14.6975L-4.99902 14.6983L0.000734765 14.6484ZM26.1836 22.3334L30.412 25.0017L30.4171 24.9936L26.1836 22.3334ZM28.8986 14.2876L25.7614 18.1809L25.7695 18.1874L25.7775 18.1938L28.8986 14.2876ZM24.2117 10.5108L21.0668 14.398L21.0744 14.4042L24.2117 10.5108ZM23.7823 13.2861V18.2861H28.7823V13.2861H23.7823ZM23.7823 15.714H28.7823V10.714H23.7823V15.714ZM24.2117 18.4892L21.0744 14.5959L21.0525 14.6136L21.0307 14.6316L24.2117 18.4892ZM28.8986 14.7125L25.7775 10.8062L25.7695 10.8127L25.7614 10.8192L28.8986 14.7125ZM25.9623 21.9186V16.9186H23.6403V21.9186V26.9186H25.9623V21.9186ZM23.6403 21.9186V16.9186C21.973 16.9186 20.3764 17.6727 19.3186 19.0046L23.234 22.1142L27.1494 25.2238C26.2898 26.3062 24.9904 26.9186 23.6403 26.9186V21.9186ZM23.234 22.1142L19.3423 18.975C19.2198 19.1269 19.0864 19.2759 18.9445 19.4189L22.4941 22.9404L26.0437 26.4618C26.4237 26.0787 26.7858 25.6748 27.1257 25.2534L23.234 22.1142ZM22.4941 22.9404L18.9204 19.4434C18.305 20.0723 17.5815 20.5681 16.7925 20.9081L18.7716 25.4998L20.7508 30.0914C22.7441 29.2322 24.5488 27.9897 26.0678 26.4373L22.4941 22.9404ZM18.7716 25.4998L16.7918 20.9084C15.9766 21.26 15.1043 21.4388 14.2259 21.4372L14.2168 26.4372L14.2077 31.4372C16.4584 31.4413 18.6842 30.9825 20.7515 30.0911L18.7716 25.4998ZM14.2168 26.4372V21.4372C13.3138 21.4372 12.4545 21.2586 11.6404 20.9078L9.66199 25.4998L7.68357 30.0917C9.74967 30.9819 11.9556 31.4372 14.2168 31.4372V26.4372ZM9.66199 25.4998L11.6411 20.9081C10.8522 20.5681 10.1286 20.0723 9.5132 19.4434L5.93951 22.9404L2.36583 26.4373C3.88483 27.9897 5.68956 29.2322 7.68285 30.0914L9.66199 25.4998ZM5.93951 22.9404L9.50415 19.4342C8.88821 18.808 8.39186 18.0603 8.04731 17.2301L3.42924 19.1468L-1.18882 21.0634C-0.356079 23.0699 0.852564 24.8989 2.37488 26.4465L5.93951 22.9404ZM3.42924 19.1468L8.04634 17.2278C7.69342 16.3786 7.51101 15.4707 7.51101 14.5H2.51101H-2.48899C-2.48899 16.7598 -2.05704 18.9744 -1.18786 21.0657L3.42924 19.1468ZM2.51101 14.5H7.51101C7.51101 13.5362 7.69417 12.6242 8.05001 11.7634L3.42924 9.85329L-1.19153 7.9432C-2.05119 10.0228 -2.48899 12.2334 -2.48899 14.5H2.51101ZM3.42924 9.85329L8.04876 11.7664C8.39125 10.9394 8.87945 10.2017 9.50608 9.56392L5.93951 6.05969L2.37295 2.55546C0.846027 4.10955 -0.356901 5.92786 -1.19028 7.94017L3.42924 9.85329ZM5.93951 6.05969L9.50608 9.56392C10.1395 8.91924 10.8548 8.43049 11.6395 8.09258L9.66199 3.50028L7.68443 -1.09203C5.68141 -0.229476 3.89309 1.00829 2.37295 2.55546L5.93951 6.05969ZM9.66199 3.50028L11.6404 8.09221C12.4545 7.74145 13.3138 7.56284 14.2168 7.56284V2.56284V-2.43716C11.9556 -2.43716 9.74966 -1.98183 7.68357 -1.09166L9.66199 3.50028ZM14.2168 2.56284V7.56284C15.1269 7.56284 15.982 7.74081 16.7842 8.0883L18.7716 3.50028L20.7591 -1.08774C18.6811 -1.98793 16.471 -2.43716 14.2168 -2.43716V2.56284ZM18.7716 3.50028L16.7941 8.09258C17.5788 8.43049 18.2941 8.91924 18.9276 9.56392L22.4941 6.05969L26.0607 2.55546C24.5405 1.00829 22.7522 -0.229475 20.7492 -1.09203L18.7716 3.50028ZM22.4941 6.05969L18.9222 9.55844C19.0656 9.70486 19.2165 9.87374 19.3826 10.0745L23.234 6.88585L27.0853 3.69725C26.7825 3.33145 26.4445 2.94731 26.0661 2.56094L22.4941 6.05969ZM23.234 6.88585L19.3186 9.99545C20.387 11.3407 21.9936 12.0814 23.6403 12.0814V7.08143V2.08143C24.9764 2.08143 26.2792 2.68056 27.1494 3.77625L23.234 6.88585ZM23.6403 7.08143V12.0814H25.9623V7.08143V2.08143H23.6403V7.08143ZM25.9623 7.08143V12.0814C30.1989 12.0814 32.6132 7.40072 30.3818 3.95104L26.1836 6.66667L21.9853 9.38229C19.9851 6.29006 22.1418 2.08143 25.9623 2.08143V7.08143ZM26.1836 6.66667L30.4135 4.00066C27.0166 -1.38883 21.0263 -5.0183 14.1671 -4.99993L14.1805 5.10489e-05L14.1939 5.00003C17.4088 4.99142 20.2837 6.68311 21.9536 9.33268L26.1836 6.66667ZM14.1805 5.10489e-05L14.1677 -4.99993C3.38248 -4.97236 -5.10461 3.94921 -4.99902 14.6975L0.000734765 14.6484L5.00049 14.5993C4.94754 9.20877 9.15054 5.01293 14.1933 5.00003L14.1805 5.10489e-05ZM0.000734765 14.6484L-4.99902 14.6983C-4.89332 25.2862 3.57901 34 14.2168 34V29V24C9.25129 24 5.05334 19.8931 5.00049 14.5985L0.000734765 14.6484ZM14.2168 29V34C21.0589 34 27.0218 30.3742 30.412 25.0017L26.1836 22.3334L21.9551 19.6651C20.2851 22.3114 17.4225 24 14.2168 24V29ZM26.1836 22.3334L30.4171 24.9936C32.5092 21.6642 30.3126 16.9186 25.9623 16.9186V21.9186V26.9186C22.028 26.9186 20.0825 22.6452 21.95 19.6732L26.1836 22.3334ZM28.8986 14.2876L32.0358 10.3943L27.3489 6.61754L24.2117 10.5108L21.0744 14.4042L25.7614 18.1809L28.8986 14.2876ZM24.2117 10.5108L27.3565 6.62368C23.71 3.67358 18.7823 6.5541 18.7823 10.7233H23.7823H28.7823C28.7823 14.4406 24.3632 17.0649 21.0668 14.398L24.2117 10.5108ZM23.7823 10.7233H18.7823V13.2861H23.7823H28.7823V10.7233H23.7823ZM23.7823 13.2861V8.28607H13.4109V13.2861V18.2861H23.7823V13.2861ZM13.4109 13.2861V8.28607C10.407 8.28607 8.14664 10.7441 8.14664 13.5558H13.1466H18.1466C18.1466 16.0708 16.1241 18.2861 13.4109 18.2861V13.2861ZM13.1466 13.5558H8.14664V15.4442H13.1466H18.1466V13.5558H13.1466ZM13.1466 15.4442H8.14664C8.14664 18.2559 10.4071 20.714 13.4109 20.714V15.714V10.714C16.124 10.714 18.1466 12.9292 18.1466 15.4442H13.1466ZM13.4109 15.714V20.714H23.7823V15.714V10.714H13.4109V15.714ZM23.7823 15.714H18.7823V18.2768H23.7823H28.7823V15.714H23.7823ZM23.7823 18.2768H18.7823C18.7823 22.4219 23.7242 25.3718 27.3926 22.3468L24.2117 18.4892L21.0307 14.6316C24.3556 11.8899 28.7823 14.5835 28.7823 18.2768H23.7823ZM24.2117 18.4892L27.3489 22.3825L32.0358 18.6058L28.8986 14.7125L25.7614 10.8192L21.0744 14.5959L24.2117 18.4892ZM28.8986 14.7125L32.0197 18.6187C32.647 18.1175 33.1458 17.484 33.4858 16.7717L28.9733 14.6182L24.4608 12.4647C24.7657 11.8259 25.2134 11.257 25.7775 10.8062L28.8986 14.7125ZM28.9733 14.6182L33.4858 16.7717C33.8256 16.0597 34 15.2832 34 14.5H29H24C24 13.7987 24.1562 13.103 24.4608 12.4647L28.9733 14.6182ZM29 14.5H34C34 13.7169 33.8256 12.9404 33.4858 12.2284L28.9733 14.3819L24.4608 16.5354C24.1562 15.897 24 15.2013 24 14.5H29ZM28.9733 14.3819L33.4858 12.2284C33.1458 11.5159 32.6469 10.8825 32.0197 10.3813L28.8986 14.2876L25.7775 18.1938C25.2135 17.7432 24.7657 17.1742 24.4608 16.5354L28.9733 14.3819Z" fill="white" mask="url(#path-1-inside-1_2022_86)"/>
</svg>
