<svg width="42" height="42" viewBox="0 0 42 42" fill="none" xmlns="http://www.w3.org/2000/svg">
<path d="M28.7 29.68V27.86H23.24V22.4H28.7V26.04H32.34V29.68H30.52V33.32H26.88V36.9599H23.24V31.5H26.88V29.68H28.7ZM37.8 36.9599H30.52V33.32H34.16V29.68H37.8V36.9599ZM5.04004 4.19995H19.6V18.76H5.04004V4.19995ZM23.24 4.19995H37.8V18.76H23.24V4.19995ZM5.04004 22.4H19.6V36.9599H5.04004V22.4ZM32.34 22.4H37.8V26.04H32.34V22.4ZM10.5 9.65995V13.3H14.14V9.65995H10.5ZM10.5 27.86V31.5H14.14V27.86H10.5ZM28.7 9.65995V13.3H32.34V9.65995H28.7Z" fill="#0B9C86"/>
<rect x="0.5" y="0.5" width="41" height="41" rx="9.5" stroke="#0B9C86"/>
</svg>
