<svg width="81" height="81" viewBox="0 0 81 81" fill="none" xmlns="http://www.w3.org/2000/svg">
<rect x="1" y="1" width="79" height="79" rx="10" stroke="#157844"/>
<path d="M60.1133 45.469C60.5757 45.4688 61.0282 45.6025 61.416 45.8538C61.8039 46.1051 62.1109 46.4639 62.2979 46.886C62.4846 47.308 62.5436 47.7756 62.4678 48.2307C62.3919 48.6858 62.1844 49.1092 61.8711 49.4485L61.8701 49.4475L48.043 64.4348C47.7179 64.7873 47.2938 65.0335 46.8262 65.1418C46.3585 65.2501 45.8686 65.2163 45.4209 65.0432C44.9732 64.8701 44.5881 64.566 44.3164 64.1711C44.0447 63.7762 43.8992 63.3084 43.8994 62.8293V50.2161H19.8857C19.2541 50.2161 18.6478 49.9664 18.2002 49.5217C17.7524 49.0769 17.5 48.4726 17.5 47.842C17.5001 47.2117 17.7525 46.6081 18.2002 46.1633C18.6478 45.7186 19.2541 45.469 19.8857 45.469H60.1133Z" fill="#157844" fill-opacity="0.5" stroke="#157844"/>
<path d="M33.0615 21.3781C33.6264 21.2473 34.218 21.2892 34.7588 21.4982C35.3 21.7074 35.7667 22.0747 36.0957 22.5529C36.4246 23.0309 36.6007 23.5975 36.6006 24.1779V36.2921H60.1143C60.8774 36.2921 61.6107 36.593 62.1523 37.131C62.6942 37.6693 62.9999 38.4011 63 39.1652C63 39.9293 62.6942 40.661 62.1523 41.1993C61.6107 41.7375 60.8775 42.0392 60.1143 42.0392H19.8867C19.3279 42.0394 18.7805 41.8773 18.3115 41.5734C17.8425 41.2694 17.4715 40.8355 17.2451 40.3243C17.0188 39.8131 16.9472 39.247 17.0391 38.6954C17.1309 38.1438 17.3824 37.6316 17.7617 37.2208L31.5889 22.2345C31.9823 21.8079 32.4963 21.5089 33.0615 21.3781Z" fill="#157844" stroke="#157844" stroke-width="2"/>
<path d="M54 6.47119L46.5 18.3038M46.5 18.3038L54 30.1364M46.5 18.3038H42" stroke="#157844" stroke-width="3" stroke-linecap="round" stroke-linejoin="round"/>
<line x1="42.5" y1="9.00012" x2="42.5" y2="35.0001" stroke="#157844" stroke-width="3"/>
<line x1="39" y1="21.5001" x2="54" y2="21.5001" stroke="#157844" stroke-width="3"/>
</svg>
