<svg width="79" height="79" viewBox="0 0 79 79" fill="none" xmlns="http://www.w3.org/2000/svg">
<path d="M10 0.5H69C74.2467 0.5 78.5 4.7533 78.5 10V69C78.5 74.2467 74.2467 78.5 69 78.5H10C4.75329 78.5 0.5 74.2467 0.5 69V10C0.5 4.75329 4.7533 0.5 10 0.5Z" stroke="#157844"/>
<path d="M73.9761 17.937C73.8803 17.2074 73.5664 16.5311 73.0818 16.0101C72.5971 15.489 71.968 15.1515 71.2894 15.0484L71.2443 15H7.75515L7.71036 15.0484C7.03167 15.1515 6.40255 15.489 5.91788 16.01C5.43321 16.531 5.11929 17.2074 5.02345 17.937L4.97852 17.9852V62.0148L5.02345 62.0633C5.11929 62.7929 5.43321 63.4692 5.91788 63.9903C6.40255 64.5113 7.03167 64.8488 7.71036 64.9519L7.75515 65H71.2442L71.2892 64.9516C71.9679 64.8486 72.5971 64.5112 73.0817 63.9901C73.5664 63.4691 73.8802 62.7928 73.976 62.0631L74.0211 62.0147V17.9852L73.9761 17.937Z" fill="#157844"/>
<path d="M65.2257 59H13.7742C10.5852 59 8 59.6716 8 60.5C8 61.3284 10.5852 62 13.7742 62H65.2258C68.4148 62 71 61.3284 71 60.5C70.9999 59.6716 68.4147 59 65.2257 59Z" fill="white"/>
<path d="M72.5 20.5V28.5H6.5V20.5H72.5Z" fill="white" stroke="white"/>
</svg>
