<svg width="27" height="26" viewBox="0 0 27 26" fill="none" xmlns="http://www.w3.org/2000/svg">
<path opacity="0.2" d="M25.0565 4V9H1.16113V4C1.16113 3.73478 1.27557 3.48043 1.47926 3.29289C1.68295 3.10536 1.95922 3 2.24729 3H23.9703C24.2584 3 24.5347 3.10536 24.7384 3.29289C24.9421 3.48043 25.0565 3.73478 25.0565 4Z" fill="white"/>
<path d="M23.9706 2H20.7121V1C20.7121 0.734784 20.5977 0.48043 20.394 0.292893C20.1903 0.105357 19.914 0 19.626 0C19.3379 0 19.0616 0.105357 18.8579 0.292893C18.6542 0.48043 18.5398 0.734784 18.5398 1V2H7.67827V1C7.67827 0.734784 7.56383 0.48043 7.36014 0.292893C7.15645 0.105357 6.88018 0 6.59211 0C6.30405 0 6.02778 0.105357 5.82409 0.292893C5.62039 0.48043 5.50596 0.734784 5.50596 1V2H2.2475C1.67137 2 1.11884 2.21071 0.711449 2.58579C0.304063 2.96086 0.0751953 3.46957 0.0751953 4V24C0.0751953 24.5304 0.304063 25.0391 0.711449 25.4142C1.11884 25.7893 1.67137 26 2.2475 26H23.9706C24.5467 26 25.0992 25.7893 25.5066 25.4142C25.914 25.0391 26.1429 24.5304 26.1429 24V4C26.1429 3.46957 25.914 2.96086 25.5066 2.58579C25.0992 2.21071 24.5467 2 23.9706 2ZM5.50596 4V5C5.50596 5.26522 5.62039 5.51957 5.82409 5.70711C6.02778 5.89464 6.30405 6 6.59211 6C6.88018 6 7.15645 5.89464 7.36014 5.70711C7.56383 5.51957 7.67827 5.26522 7.67827 5V4H18.5398V5C18.5398 5.26522 18.6542 5.51957 18.8579 5.70711C19.0616 5.89464 19.3379 6 19.626 6C19.914 6 20.1903 5.89464 20.394 5.70711C20.5977 5.51957 20.7121 5.26522 20.7121 5V4H23.9706V8H2.2475V4H5.50596ZM23.9706 24H2.2475V10H23.9706V24ZM10.9367 13V21C10.9367 21.2652 10.8223 21.5196 10.6186 21.7071C10.4149 21.8946 10.1386 22 9.85057 22C9.56251 22 9.28624 21.8946 9.08255 21.7071C8.87885 21.5196 8.76442 21.2652 8.76442 21V14.6175L8.16432 14.895C7.9065 15.0137 7.60803 15.0332 7.33458 14.9493C7.06112 14.8654 6.83507 14.6849 6.70616 14.4475C6.57725 14.2101 6.55604 13.9353 6.64719 13.6836C6.73834 13.4318 6.93439 13.2237 7.19221 13.105L9.36452 12.105C9.53017 12.0287 9.71428 11.9926 9.89933 12.0003C10.0844 12.0079 10.2642 12.059 10.4218 12.1487C10.5793 12.2384 10.7094 12.3637 10.7995 12.5127C10.8896 12.6617 10.9369 12.8295 10.9367 13ZM18.9688 16.8062L16.3675 20H18.5398C18.8279 20 19.1041 20.1054 19.3078 20.2929C19.5115 20.4804 19.626 20.7348 19.626 21C19.626 21.2652 19.5115 21.5196 19.3078 21.7071C19.1041 21.8946 18.8279 22 18.5398 22H14.1952C13.9935 22 13.7957 21.9483 13.6242 21.8507C13.4526 21.753 13.3139 21.6133 13.2237 21.4472C13.1335 21.2811 13.0953 21.0952 13.1134 20.9102C13.1315 20.7252 13.2052 20.5486 13.3263 20.4L17.2337 15.6038C17.3226 15.4948 17.3863 15.3703 17.4211 15.2379C17.4558 15.1054 17.4608 14.9678 17.4357 14.8336C17.4106 14.6993 17.356 14.5712 17.2751 14.457C17.1943 14.3429 17.089 14.2452 16.9657 14.1699C16.8424 14.0945 16.7037 14.0432 16.558 14.019C16.4124 13.9949 16.2629 13.9983 16.1188 14.0292C15.9747 14.0602 15.8389 14.1179 15.7199 14.1988C15.6009 14.2798 15.5011 14.3823 15.4266 14.5C15.3574 14.6174 15.2634 14.7208 15.15 14.8041C15.0367 14.8875 14.9064 14.9491 14.7668 14.9853C14.6272 15.0215 14.4811 15.0316 14.3372 15.0151C14.1933 14.9985 14.0544 14.9555 13.9288 14.8887C13.8032 14.8219 13.6934 14.7327 13.6059 14.6262C13.5184 14.5197 13.455 14.3981 13.4193 14.2687C13.3836 14.1392 13.3765 14.0045 13.3983 13.8725C13.4201 13.7405 13.4704 13.6138 13.5462 13.5C13.905 12.9284 14.4586 12.4817 15.1212 12.2291C15.7837 11.9766 16.5183 11.9323 17.2109 12.1032C17.9036 12.2741 18.5157 12.6506 18.9523 13.1743C19.3889 13.6981 19.6257 14.3398 19.626 15C19.6283 15.6522 19.3973 16.2869 18.9688 16.8062Z" fill="white"/>
</svg>
