<svg width="32" height="32" viewBox="0 0 32 32" fill="none" xmlns="http://www.w3.org/2000/svg">
<path d="M15.5127 6.26843C20.0522 6.26862 23.7738 9.67641 24.4814 14.5048L24.541 14.9764C24.5865 15.4162 24.6482 17.007 24.6465 17.4227C24.6464 17.435 24.6447 17.4554 24.6348 17.4911L24.6074 17.5878L24.624 17.6874C24.6386 17.7721 24.6475 17.848 24.6475 17.9198V22.246C24.6475 22.7672 24.36 23.1998 23.9707 23.3973L23.8936 23.4374L23.8359 23.5028C23.8169 23.5246 23.799 23.5362 23.7842 23.5428L17.668 26.1239L16.6797 26.1288C16.6732 26.1288 16.667 26.1295 16.6611 26.1298H14.8584C14.8045 26.1297 14.7062 26.0726 14.7061 25.9325V25.2841C14.7061 25.1438 14.8044 25.0859 14.8584 25.0858H16.666C16.7199 25.0858 16.8193 25.1437 16.8193 25.2841V26.0682L17.4443 25.8046L21.3125 24.1708L22.1465 23.8192L21.3633 23.3671C21.0003 23.1575 20.7383 22.7412 20.7383 22.246V17.9198C20.7384 17.1879 21.2855 16.6483 21.8896 16.6483H23.4961C23.5745 16.6484 23.6569 16.6607 23.748 16.6835L24.332 16.83L24.3066 16.2284C24.286 15.7415 24.2602 15.2365 24.2383 15.0272C23.738 10.2125 20.0863 6.66415 15.5127 6.66394C10.7433 6.66394 6.92335 10.6233 6.66504 15.785V15.7889C6.66245 15.8499 6.65517 15.99 6.64551 16.2147L6.62109 16.7997L7.19238 16.6737C7.26712 16.6572 7.34296 16.6483 7.41895 16.6483H9.04395C9.64792 16.6483 10.1952 17.1881 10.1953 17.9198V22.2665C10.1951 22.9982 9.64809 23.537 9.04395 23.537H7.41895C6.81502 23.5368 6.26876 22.9981 6.26855 22.2665V17.9198C6.26855 17.8278 6.2792 17.7347 6.29883 17.6395L6.30762 17.5956L6.30859 17.5507L6.30957 17.2606C6.31253 16.7518 6.35409 15.8889 6.36035 15.7606C6.633 10.3116 10.637 6.26843 15.5127 6.26843ZM16.6055 26.1346C16.6028 26.1351 16.6005 26.1355 16.5996 26.1356C16.6002 26.1355 16.6015 26.1348 16.6025 26.1346C16.6038 26.1344 16.6054 26.134 16.6074 26.1337L16.6055 26.1346ZM7.41895 17.0448C6.92181 17.0448 6.57378 17.4684 6.57324 17.9198V22.2665C6.57329 22.7185 6.92181 23.1415 7.41895 23.1415H9.04395C9.54013 23.1415 9.8896 22.7193 9.88965 22.2665V17.9198C9.88957 17.4673 9.54064 17.0448 9.04395 17.0448H7.41895ZM21.8896 17.0448C21.3926 17.0448 21.044 17.4677 21.0439 17.9198V22.246C21.0439 22.6981 21.3925 23.1219 21.8896 23.1219H23.4951C23.9913 23.1219 24.3418 22.6988 24.3418 22.246V17.9198C24.3417 17.4673 23.9918 17.0448 23.4951 17.0448H21.8896Z" fill="white" stroke="white" stroke-width="0.9"/>
<path d="M13.7295 1.67871C17.2573 1.1195 20.8679 1.88211 23.8682 3.82031C24.2475 4.06534 24.7171 4.12705 25.1465 3.9873L28.8467 2.78223C28.8579 2.7786 28.8703 2.77786 28.8818 2.78027C28.8933 2.78274 28.9043 2.78811 28.9131 2.7959C28.9219 2.80376 28.9288 2.81402 28.9326 2.8252C28.9363 2.83638 28.9368 2.84877 28.9346 2.86035L28.082 7.20898C28.0087 7.58329 28.0805 7.97181 28.2832 8.29492C30.1812 11.3207 30.8961 14.9409 30.29 18.4609C29.6839 21.9809 27.7997 25.1535 24.999 27.3701C22.1982 29.5868 18.6775 30.6913 15.1123 30.4727C11.5471 30.2539 8.18758 28.727 5.67871 26.1846C3.16994 23.6421 1.68788 20.263 1.5166 16.6953C1.34533 13.1275 2.49718 9.62169 4.75098 6.85059C7.00469 4.0797 10.2019 2.23798 13.7295 1.67871Z" stroke="white" stroke-width="3" stroke-linecap="round" stroke-linejoin="round"/>
<mask id="path-3-inside-1_2033_96" fill="white">
<path d="M13.4636 11.7693C13.4636 11.9933 13.4116 12.1753 13.3076 12.3153C13.2076 12.4553 13.0796 12.5653 12.9236 12.6453C12.7716 12.7213 12.6136 12.7793 12.4496 12.8193V12.8433C12.5176 12.8833 12.5936 12.9533 12.6776 13.0533C12.7656 13.1493 12.8776 13.2933 13.0136 13.4853C13.1496 13.6733 13.3276 13.9253 13.5476 14.2413C13.6436 14.3733 13.7356 14.4573 13.8236 14.4933C13.9156 14.5293 14.0296 14.5473 14.1656 14.5473V14.7273H13.1756C13.0116 14.4793 12.8736 14.2733 12.7616 14.1093C12.6536 13.9413 12.5616 13.8013 12.4856 13.6893C12.4096 13.5733 12.3416 13.4713 12.2816 13.3833C12.2216 13.2953 12.1616 13.2073 12.1016 13.1193C12.0416 13.0273 11.9856 12.9713 11.9336 12.9513C11.8856 12.9313 11.8076 12.9213 11.6996 12.9213H11.5316V13.9833C11.5316 14.1473 11.5456 14.2713 11.5736 14.3553C11.6016 14.4353 11.6576 14.4873 11.7416 14.5113C11.8256 14.5353 11.9536 14.5473 12.1256 14.5473V14.7273H10.4396V14.5473C10.5916 14.5473 10.7056 14.5353 10.7816 14.5113C10.8576 14.4873 10.9076 14.4353 10.9316 14.3553C10.9596 14.2753 10.9736 14.1513 10.9736 13.9833V11.4093C10.9736 11.2973 10.9616 11.2093 10.9376 11.1453C10.9176 11.0813 10.8696 11.0353 10.7936 11.0073C10.7176 10.9793 10.5996 10.9653 10.4396 10.9653V10.7853H11.9156C12.2156 10.7853 12.4816 10.8153 12.7136 10.8753C12.9496 10.9313 13.1336 11.0313 13.2656 11.1753C13.3976 11.3153 13.4636 11.5133 13.4636 11.7693ZM11.5316 11.0373V12.6873L11.7596 12.6933C12.0916 12.6773 12.3576 12.6033 12.5576 12.4713C12.7576 12.3353 12.8576 12.1093 12.8576 11.7933C12.8576 11.5533 12.7836 11.3653 12.6356 11.2293C12.4876 11.0893 12.2516 11.0193 11.9276 11.0193C11.7916 11.0193 11.6596 11.0253 11.5316 11.0373ZM14.3467 10.7853H15.9967C16.3087 10.7853 16.5987 10.8193 16.8667 10.8873C17.1387 10.9513 17.3747 11.0593 17.5747 11.2113C17.7747 11.3633 17.9307 11.5633 18.0427 11.8113C18.1587 12.0593 18.2167 12.3673 18.2167 12.7353C18.2167 13.1953 18.1267 13.5733 17.9467 13.8693C17.7707 14.1613 17.5207 14.3773 17.1967 14.5173C16.8727 14.6573 16.4947 14.7273 16.0627 14.7273H14.3467V14.5473C14.5227 14.5473 14.6527 14.5353 14.7367 14.5113C14.8207 14.4833 14.8747 14.4293 14.8987 14.3493C14.9227 14.2653 14.9347 14.1433 14.9347 13.9833V11.4693C14.9347 11.3213 14.9167 11.2133 14.8807 11.1453C14.8447 11.0733 14.7847 11.0253 14.7007 11.0013C14.6167 10.9773 14.4987 10.9653 14.3467 10.9653V10.7853ZM15.4867 11.0433V14.4813C15.6067 14.4933 15.7247 14.4993 15.8407 14.4993C16.2047 14.4993 16.5167 14.4513 16.7767 14.3553C17.0367 14.2553 17.2367 14.0813 17.3767 13.8333C17.5167 13.5853 17.5867 13.2373 17.5867 12.7893C17.5867 12.2173 17.4407 11.7813 17.1487 11.4813C16.8567 11.1813 16.4007 11.0313 15.7807 11.0313C15.7327 11.0313 15.6847 11.0313 15.6367 11.0313C15.5927 11.0313 15.5427 11.0353 15.4867 11.0433ZM20.9735 12.6273V12.6513C21.1455 12.6793 21.3095 12.7313 21.4655 12.8073C21.6255 12.8833 21.7575 12.9913 21.8615 13.1313C21.9655 13.2673 22.0175 13.4453 22.0175 13.6653C22.0175 14.0053 21.8895 14.2673 21.6335 14.4513C21.3815 14.6353 21.0315 14.7273 20.5835 14.7273H18.7355V14.5473C18.8995 14.5473 19.0215 14.5333 19.1015 14.5053C19.1855 14.4773 19.2415 14.4213 19.2695 14.3373C19.3015 14.2533 19.3175 14.1293 19.3175 13.9653V11.5113C19.3175 11.3513 19.3015 11.2333 19.2695 11.1573C19.2415 11.0773 19.1855 11.0253 19.1015 11.0013C19.0215 10.9773 18.8995 10.9653 18.7355 10.9653V10.7853H20.3555C20.8915 10.7853 21.2695 10.8673 21.4895 11.0313C21.7135 11.1953 21.8255 11.4253 21.8255 11.7213C21.8255 11.9893 21.7455 12.1913 21.5855 12.3273C21.4255 12.4593 21.2215 12.5593 20.9735 12.6273ZM19.8695 12.8073V14.4873C20.0135 14.4993 20.1575 14.5053 20.3015 14.5053C20.4295 14.5053 20.5575 14.4973 20.6855 14.4813C20.8135 14.4653 20.9295 14.4313 21.0335 14.3793C21.1415 14.3233 21.2275 14.2413 21.2915 14.1333C21.3555 14.0213 21.3875 13.8693 21.3875 13.6773C21.3875 13.4493 21.3335 13.2733 21.2255 13.1493C21.1215 13.0213 20.9855 12.9333 20.8175 12.8853C20.6535 12.8333 20.4775 12.8073 20.2895 12.8073H19.8695ZM19.8695 12.5553H20.2775C20.6415 12.5553 20.8915 12.4933 21.0275 12.3693C21.1635 12.2413 21.2315 12.0413 21.2315 11.7693C21.2315 11.5333 21.1555 11.3493 21.0035 11.2173C20.8555 11.0853 20.5975 11.0193 20.2295 11.0193C20.1095 11.0193 19.9895 11.0253 19.8695 11.0373V12.5553Z"/>
</mask>
<path d="M13.4636 11.7693C13.4636 11.9933 13.4116 12.1753 13.3076 12.3153C13.2076 12.4553 13.0796 12.5653 12.9236 12.6453C12.7716 12.7213 12.6136 12.7793 12.4496 12.8193V12.8433C12.5176 12.8833 12.5936 12.9533 12.6776 13.0533C12.7656 13.1493 12.8776 13.2933 13.0136 13.4853C13.1496 13.6733 13.3276 13.9253 13.5476 14.2413C13.6436 14.3733 13.7356 14.4573 13.8236 14.4933C13.9156 14.5293 14.0296 14.5473 14.1656 14.5473V14.7273H13.1756C13.0116 14.4793 12.8736 14.2733 12.7616 14.1093C12.6536 13.9413 12.5616 13.8013 12.4856 13.6893C12.4096 13.5733 12.3416 13.4713 12.2816 13.3833C12.2216 13.2953 12.1616 13.2073 12.1016 13.1193C12.0416 13.0273 11.9856 12.9713 11.9336 12.9513C11.8856 12.9313 11.8076 12.9213 11.6996 12.9213H11.5316V13.9833C11.5316 14.1473 11.5456 14.2713 11.5736 14.3553C11.6016 14.4353 11.6576 14.4873 11.7416 14.5113C11.8256 14.5353 11.9536 14.5473 12.1256 14.5473V14.7273H10.4396V14.5473C10.5916 14.5473 10.7056 14.5353 10.7816 14.5113C10.8576 14.4873 10.9076 14.4353 10.9316 14.3553C10.9596 14.2753 10.9736 14.1513 10.9736 13.9833V11.4093C10.9736 11.2973 10.9616 11.2093 10.9376 11.1453C10.9176 11.0813 10.8696 11.0353 10.7936 11.0073C10.7176 10.9793 10.5996 10.9653 10.4396 10.9653V10.7853H11.9156C12.2156 10.7853 12.4816 10.8153 12.7136 10.8753C12.9496 10.9313 13.1336 11.0313 13.2656 11.1753C13.3976 11.3153 13.4636 11.5133 13.4636 11.7693ZM11.5316 11.0373V12.6873L11.7596 12.6933C12.0916 12.6773 12.3576 12.6033 12.5576 12.4713C12.7576 12.3353 12.8576 12.1093 12.8576 11.7933C12.8576 11.5533 12.7836 11.3653 12.6356 11.2293C12.4876 11.0893 12.2516 11.0193 11.9276 11.0193C11.7916 11.0193 11.6596 11.0253 11.5316 11.0373ZM14.3467 10.7853H15.9967C16.3087 10.7853 16.5987 10.8193 16.8667 10.8873C17.1387 10.9513 17.3747 11.0593 17.5747 11.2113C17.7747 11.3633 17.9307 11.5633 18.0427 11.8113C18.1587 12.0593 18.2167 12.3673 18.2167 12.7353C18.2167 13.1953 18.1267 13.5733 17.9467 13.8693C17.7707 14.1613 17.5207 14.3773 17.1967 14.5173C16.8727 14.6573 16.4947 14.7273 16.0627 14.7273H14.3467V14.5473C14.5227 14.5473 14.6527 14.5353 14.7367 14.5113C14.8207 14.4833 14.8747 14.4293 14.8987 14.3493C14.9227 14.2653 14.9347 14.1433 14.9347 13.9833V11.4693C14.9347 11.3213 14.9167 11.2133 14.8807 11.1453C14.8447 11.0733 14.7847 11.0253 14.7007 11.0013C14.6167 10.9773 14.4987 10.9653 14.3467 10.9653V10.7853ZM15.4867 11.0433V14.4813C15.6067 14.4933 15.7247 14.4993 15.8407 14.4993C16.2047 14.4993 16.5167 14.4513 16.7767 14.3553C17.0367 14.2553 17.2367 14.0813 17.3767 13.8333C17.5167 13.5853 17.5867 13.2373 17.5867 12.7893C17.5867 12.2173 17.4407 11.7813 17.1487 11.4813C16.8567 11.1813 16.4007 11.0313 15.7807 11.0313C15.7327 11.0313 15.6847 11.0313 15.6367 11.0313C15.5927 11.0313 15.5427 11.0353 15.4867 11.0433ZM20.9735 12.6273V12.6513C21.1455 12.6793 21.3095 12.7313 21.4655 12.8073C21.6255 12.8833 21.7575 12.9913 21.8615 13.1313C21.9655 13.2673 22.0175 13.4453 22.0175 13.6653C22.0175 14.0053 21.8895 14.2673 21.6335 14.4513C21.3815 14.6353 21.0315 14.7273 20.5835 14.7273H18.7355V14.5473C18.8995 14.5473 19.0215 14.5333 19.1015 14.5053C19.1855 14.4773 19.2415 14.4213 19.2695 14.3373C19.3015 14.2533 19.3175 14.1293 19.3175 13.9653V11.5113C19.3175 11.3513 19.3015 11.2333 19.2695 11.1573C19.2415 11.0773 19.1855 11.0253 19.1015 11.0013C19.0215 10.9773 18.8995 10.9653 18.7355 10.9653V10.7853H20.3555C20.8915 10.7853 21.2695 10.8673 21.4895 11.0313C21.7135 11.1953 21.8255 11.4253 21.8255 11.7213C21.8255 11.9893 21.7455 12.1913 21.5855 12.3273C21.4255 12.4593 21.2215 12.5593 20.9735 12.6273ZM19.8695 12.8073V14.4873C20.0135 14.4993 20.1575 14.5053 20.3015 14.5053C20.4295 14.5053 20.5575 14.4973 20.6855 14.4813C20.8135 14.4653 20.9295 14.4313 21.0335 14.3793C21.1415 14.3233 21.2275 14.2413 21.2915 14.1333C21.3555 14.0213 21.3875 13.8693 21.3875 13.6773C21.3875 13.4493 21.3335 13.2733 21.2255 13.1493C21.1215 13.0213 20.9855 12.9333 20.8175 12.8853C20.6535 12.8333 20.4775 12.8073 20.2895 12.8073H19.8695ZM19.8695 12.5553H20.2775C20.6415 12.5553 20.8915 12.4933 21.0275 12.3693C21.1635 12.2413 21.2315 12.0413 21.2315 11.7693C21.2315 11.5333 21.1555 11.3493 21.0035 11.2173C20.8555 11.0853 20.5975 11.0193 20.2295 11.0193C20.1095 11.0193 19.9895 11.0253 19.8695 11.0373V12.5553Z" fill="white"/>
<path d="M13.3076 12.3153L12.9062 12.0171L12.9008 12.0247L13.3076 12.3153ZM12.9236 12.6453L13.1473 13.0925L13.1518 13.0902L12.9236 12.6453ZM12.4496 12.8193L12.3312 12.3335L11.9496 12.4266V12.8193H12.4496ZM12.4496 12.8433H11.9496V13.1293L12.1961 13.2743L12.4496 12.8433ZM12.6776 13.0533L12.2948 13.3749L12.3017 13.3832L12.3091 13.3912L12.6776 13.0533ZM13.0136 13.4853L12.6056 13.7743L12.6085 13.7784L13.0136 13.4853ZM13.5476 14.2413L13.1372 14.527L13.1433 14.5354L13.5476 14.2413ZM13.8236 14.4933L13.6343 14.9561L13.6414 14.9589L13.8236 14.4933ZM14.1656 14.5473H14.6656V14.0473H14.1656V14.5473ZM14.1656 14.7273V15.2273H14.6656V14.7273H14.1656ZM13.1756 14.7273L12.7586 15.0031L12.9068 15.2273H13.1756V14.7273ZM12.7616 14.1093L12.3409 14.3798L12.3487 14.3913L12.7616 14.1093ZM12.4856 13.6893L12.0674 13.9633L12.0719 13.97L12.4856 13.6893ZM12.2816 13.3833L12.6948 13.1016L12.6948 13.1016L12.2816 13.3833ZM12.1016 13.1193L11.6827 13.3925L11.6885 13.401L12.1016 13.1193ZM11.9336 12.9513L11.7413 13.413L11.7542 13.418L11.9336 12.9513ZM11.5316 12.9213V12.4213H11.0316V12.9213H11.5316ZM11.5736 14.3553L11.0992 14.5134L11.1017 14.5205L11.5736 14.3553ZM11.7416 14.5113L11.879 14.0305H11.879L11.7416 14.5113ZM12.1256 14.5473H12.6256V14.0473H12.1256V14.5473ZM12.1256 14.7273V15.2273H12.6256V14.7273H12.1256ZM10.4396 14.7273H9.93964V15.2273H10.4396V14.7273ZM10.4396 14.5473V14.0473H9.93964V14.5473H10.4396ZM10.9316 14.3553L10.4597 14.1901L10.456 14.2008L10.4527 14.2116L10.9316 14.3553ZM10.9376 11.1453L10.4604 11.2944L10.4646 11.3078L10.4695 11.3209L10.9376 11.1453ZM10.7936 11.0073L10.6208 11.4765L10.6208 11.4765L10.7936 11.0073ZM10.4396 10.9653H9.93964V11.4653H10.4396V10.9653ZM10.4396 10.7853V10.2853H9.93964V10.7853H10.4396ZM12.7136 10.8753L12.5884 11.3595L12.5982 11.3618L12.7136 10.8753ZM13.2656 11.1753L12.897 11.5132L12.9018 11.5183L13.2656 11.1753ZM11.5316 11.0373L11.485 10.5395L11.0316 10.582V11.0373H11.5316ZM11.5316 12.6873H11.0316V13.1743L11.5185 13.1871L11.5316 12.6873ZM11.7596 12.6933L11.7465 13.1931L11.7651 13.1936L11.7837 13.1927L11.7596 12.6933ZM12.5576 12.4713L12.8331 12.8886L12.8388 12.8848L12.5576 12.4713ZM12.6356 11.2293L12.292 11.5926L12.2973 11.5975L12.6356 11.2293ZM13.4636 11.7693H12.9636C12.9636 11.9166 12.9301 11.9851 12.9063 12.0171L13.3076 12.3153L13.709 12.6135C13.8932 12.3655 13.9636 12.07 13.9636 11.7693H13.4636ZM13.3076 12.3153L12.9008 12.0247C12.8481 12.0984 12.7819 12.1561 12.6955 12.2004L12.9236 12.6453L13.1518 13.0902C13.3774 12.9745 13.5672 12.8121 13.7145 12.6059L13.3076 12.3153ZM12.9236 12.6453L12.7 12.1981C12.5813 12.2575 12.4585 12.3025 12.3312 12.3335L12.4496 12.8193L12.5681 13.3051C12.7687 13.2561 12.962 13.1851 13.1472 13.0925L12.9236 12.6453ZM12.4496 12.8193H11.9496V12.8433H12.4496H12.9496V12.8193H12.4496ZM12.4496 12.8433L12.1961 13.2743C12.1918 13.2717 12.1995 13.2757 12.2189 13.2936C12.2378 13.311 12.2631 13.3372 12.2948 13.3749L12.6776 13.0533L13.0605 12.7317C12.9606 12.6128 12.8418 12.4939 12.7032 12.4123L12.4496 12.8433ZM12.6776 13.0533L12.3091 13.3912C12.3759 13.4641 12.4738 13.5881 12.6056 13.7743L13.0136 13.4853L13.4217 13.1963C13.2815 12.9985 13.1554 12.8345 13.0462 12.7154L12.6776 13.0533ZM13.0136 13.4853L12.6085 13.7784C12.742 13.9629 12.9181 14.2121 13.1373 14.527L13.5476 14.2413L13.958 13.9556C13.7372 13.6385 13.5573 13.3837 13.4188 13.1922L13.0136 13.4853ZM13.5476 14.2413L13.1433 14.5354C13.2594 14.6951 13.4187 14.8679 13.6343 14.9561L13.8236 14.4933L14.013 14.0305C14.0373 14.0405 14.0411 14.0481 14.0258 14.0341C14.0109 14.0205 13.9859 13.9938 13.952 13.9472L13.5476 14.2413ZM13.8236 14.4933L13.6414 14.9589C13.8089 15.0244 13.9892 15.0473 14.1656 15.0473V14.5473V14.0473C14.0701 14.0473 14.0224 14.0342 14.0058 14.0277L13.8236 14.4933ZM14.1656 14.5473H13.6656V14.7273H14.1656H14.6656V14.5473H14.1656ZM14.1656 14.7273V14.2273H13.1756V14.7273V15.2273H14.1656V14.7273ZM13.1756 14.7273L13.5927 14.4515C13.4279 14.2023 13.2884 13.9941 13.1745 13.8273L12.7616 14.1093L12.3487 14.3913C12.4588 14.5525 12.5954 14.7563 12.7586 15.0031L13.1756 14.7273ZM12.7616 14.1093L13.1822 13.8389C13.0729 13.6689 12.9785 13.5252 12.8994 13.4085L12.4856 13.6893L12.0719 13.97C12.1448 14.0774 12.2343 14.2137 12.3411 14.3797L12.7616 14.1093ZM12.4856 13.6893L12.9039 13.4153C12.8267 13.2974 12.7569 13.1928 12.6948 13.1016L12.2816 13.3833L11.8685 13.665C11.9264 13.7498 11.9926 13.8492 12.0674 13.9633L12.4856 13.6893ZM12.2816 13.3833L12.6948 13.1016C12.6348 13.0136 12.5748 12.9256 12.5148 12.8376L12.1016 13.1193L11.6885 13.401C11.7485 13.489 11.8085 13.577 11.8685 13.665L12.2816 13.3833ZM12.1016 13.1193L12.5204 12.8462C12.4498 12.7379 12.3208 12.5645 12.1131 12.4846L11.9336 12.9513L11.7542 13.418C11.7225 13.4058 11.6997 13.3919 11.6856 13.3819C11.6716 13.372 11.6635 13.3643 11.6611 13.3618C11.6573 13.358 11.6651 13.3652 11.6828 13.3924L12.1016 13.1193ZM11.9336 12.9513L12.1259 12.4898C11.9809 12.4293 11.8179 12.4213 11.6996 12.4213V12.9213V13.4213C11.7396 13.4213 11.7638 13.4232 11.7756 13.4247C11.7811 13.4254 11.7809 13.4257 11.7762 13.4246C11.7719 13.4235 11.7593 13.4203 11.7413 13.4128L11.9336 12.9513ZM11.6996 12.9213V12.4213H11.5316V12.9213V13.4213H11.6996V12.9213ZM11.5316 12.9213H11.0316V13.9833H11.5316H12.0316V12.9213H11.5316ZM11.5316 13.9833H11.0316C11.0316 14.1634 11.0455 14.352 11.0993 14.5134L11.5736 14.3553L12.048 14.1972C12.0485 14.1987 12.0435 14.1834 12.039 14.1432C12.0346 14.1045 12.0316 14.052 12.0316 13.9833H11.5316ZM11.5736 14.3553L11.1017 14.5205C11.1853 14.7593 11.3698 14.9251 11.6043 14.9921L11.7416 14.5113L11.879 14.0305C11.9018 14.037 11.9394 14.0531 11.9769 14.0879C12.0148 14.1231 12.0357 14.1619 12.0456 14.1901L11.5736 14.3553ZM11.7416 14.5113L11.6043 14.9921C11.7577 15.0359 11.9429 15.0473 12.1256 15.0473V14.5473V14.0473C12.0504 14.0473 11.9916 14.0446 11.9473 14.0405C11.9254 14.0384 11.9087 14.0362 11.8966 14.0341C11.8842 14.032 11.8789 14.0305 11.879 14.0305L11.7416 14.5113ZM12.1256 14.5473H11.6256V14.7273H12.1256H12.6256V14.5473H12.1256ZM12.1256 14.7273V14.2273H10.4396V14.7273V15.2273H12.1256V14.7273ZM10.4396 14.7273H10.9396V14.5473H10.4396H9.93964V14.7273H10.4396ZM10.4396 14.5473V15.0473C10.6053 15.0473 10.7814 15.0357 10.9322 14.9881L10.7816 14.5113L10.6311 14.0345C10.6356 14.0331 10.6236 14.0372 10.5868 14.041C10.5517 14.0447 10.5034 14.0473 10.4396 14.0473V14.5473ZM10.7816 14.5113L10.9322 14.9881C11.1749 14.9115 11.3417 14.7285 11.4106 14.499L10.9316 14.3553L10.4527 14.2116C10.4599 14.1876 10.4776 14.1474 10.5157 14.1077C10.5546 14.0673 10.5979 14.045 10.6311 14.0345L10.7816 14.5113ZM10.9316 14.3553L11.4036 14.5205C11.4606 14.3576 11.4736 14.1635 11.4736 13.9833H10.9736H10.4736C10.4736 14.0545 10.4706 14.1079 10.4663 14.1462C10.4617 14.1867 10.457 14.1977 10.4597 14.1901L10.9316 14.3553ZM10.9736 13.9833H11.4736V11.4093H10.9736H10.4736V13.9833H10.9736ZM10.9736 11.4093H11.4736C11.4736 11.2706 11.46 11.1143 11.4058 10.9697L10.9376 11.1453L10.4695 11.3209C10.4652 11.3094 10.4668 11.3094 10.4692 11.3269C10.4715 11.3436 10.4736 11.3704 10.4736 11.4093H10.9736ZM10.9376 11.1453L11.4149 10.9962C11.3388 10.7527 11.1543 10.6073 10.9665 10.5381L10.7936 11.0073L10.6208 11.4765C10.608 11.4718 10.5759 11.4576 10.5407 11.4238C10.5032 11.3879 10.4754 11.3423 10.4604 11.2944L10.9376 11.1453ZM10.7936 11.0073L10.9665 10.5381C10.8041 10.4783 10.6126 10.4653 10.4396 10.4653V10.9653V11.4653C10.5062 11.4653 10.5551 11.4683 10.5892 11.4723C10.6256 11.4766 10.6323 11.4807 10.6208 11.4765L10.7936 11.0073ZM10.4396 10.9653H10.9396V10.7853H10.4396H9.93964V10.9653H10.4396ZM10.4396 10.7853V11.2853H11.9156V10.7853V10.2853H10.4396V10.7853ZM11.9156 10.7853V11.2853C12.1835 11.2853 12.4061 11.3122 12.5884 11.3594L12.7136 10.8753L12.8388 10.3912C12.5572 10.3184 12.2478 10.2853 11.9156 10.2853V10.7853ZM12.7136 10.8753L12.5982 11.3618C12.7605 11.4003 12.8474 11.459 12.8971 11.5132L13.2656 11.1753L13.6342 10.8374C13.4199 10.6036 13.1388 10.4623 12.8291 10.3888L12.7136 10.8753ZM13.2656 11.1753L12.9018 11.5183C12.9207 11.5383 12.9636 11.5976 12.9636 11.7693H13.4636H13.9636C13.9636 11.429 13.8746 11.0923 13.6294 10.8323L13.2656 11.1753ZM11.5316 11.0373H11.0316V12.6873H11.5316H12.0316V11.0373H11.5316ZM11.5316 12.6873L11.5185 13.1871L11.7465 13.1931L11.7596 12.6933L11.7728 12.1935L11.5448 12.1875L11.5316 12.6873ZM11.7596 12.6933L11.7837 13.1927C12.1722 13.174 12.5346 13.0856 12.8331 12.8886L12.5576 12.4713L12.2822 12.054C12.1807 12.121 12.0111 12.1806 11.7356 12.1939L11.7596 12.6933ZM12.5576 12.4713L12.8388 12.8848C13.2166 12.6279 13.3576 12.2184 13.3576 11.7933H12.8576H12.3576C12.3576 12.0002 12.2987 12.0427 12.2765 12.0578L12.5576 12.4713ZM12.8576 11.7933H13.3576C13.3576 11.4429 13.2449 11.1101 12.974 10.8611L12.6356 11.2293L12.2973 11.5975C12.3224 11.6205 12.3576 11.6637 12.3576 11.7933H12.8576ZM12.6356 11.2293L12.9792 10.8661C12.6967 10.5988 12.3072 10.5193 11.9276 10.5193V11.0193V11.5193C12.196 11.5193 12.2786 11.5798 12.292 11.5925L12.6356 11.2293ZM11.9276 11.0193V10.5193C11.7769 10.5193 11.6293 10.5259 11.485 10.5395L11.5316 11.0373L11.5783 11.5351C11.6899 11.5246 11.8063 11.5193 11.9276 11.5193V11.0193ZM14.3467 10.7853V10.2853H13.8467V10.7853H14.3467ZM16.8667 10.8873L16.7437 11.372L16.7522 11.374L16.8667 10.8873ZM18.0427 11.8113L17.587 12.0171L17.5898 12.0231L18.0427 11.8113ZM17.9467 13.8693L17.5195 13.6095L17.5185 13.6112L17.9467 13.8693ZM17.1967 14.5173L17.395 14.9763L17.1967 14.5173ZM14.3467 14.7273H13.8467V15.2273H14.3467V14.7273ZM14.3467 14.5473V14.0473H13.8467V14.5473H14.3467ZM14.7367 14.5113L14.8741 14.9921L14.8845 14.9891L14.8948 14.9856L14.7367 14.5113ZM14.8987 14.3493L15.3777 14.493L15.3795 14.4867L14.8987 14.3493ZM14.8807 11.1453L14.4334 11.369L14.4388 11.3792L14.8807 11.1453ZM14.7007 11.0013L14.8381 10.5205L14.8381 10.5205L14.7007 11.0013ZM14.3467 10.9653H13.8467V11.4653H14.3467V10.9653ZM15.4867 11.0433L15.416 10.5483L14.9867 10.6096V11.0433H15.4867ZM15.4867 14.4813H14.9867V14.9338L15.437 14.9788L15.4867 14.4813ZM16.7767 14.3553L16.9499 14.8244L16.9562 14.822L16.7767 14.3553ZM17.3767 13.8333L17.8121 14.0791L17.3767 13.8333ZM17.1487 11.4813L16.7904 11.83V11.83L17.1487 11.4813ZM14.3467 10.7853V11.2853H15.9967V10.7853V10.2853H14.3467V10.7853ZM15.9967 10.7853V11.2853C16.2725 11.2853 16.5207 11.3153 16.7438 11.3719L16.8667 10.8873L16.9897 10.4027C16.6767 10.3232 16.345 10.2853 15.9967 10.2853V10.7853ZM16.8667 10.8873L16.7522 11.374C16.9637 11.4238 17.1339 11.5043 17.2722 11.6094L17.5747 11.2113L17.8773 10.8132C17.6155 10.6143 17.3137 10.4788 16.9812 10.4006L16.8667 10.8873ZM17.5747 11.2113L17.2722 11.6094C17.4005 11.7069 17.5064 11.8385 17.587 12.0171L18.0427 11.8113L18.4984 11.6055C18.3551 11.2881 18.149 11.0197 17.8773 10.8132L17.5747 11.2113ZM18.0427 11.8113L17.5898 12.0231C17.6661 12.1861 17.7167 12.4166 17.7167 12.7353H18.2167H18.7167C18.7167 12.318 18.6514 11.9325 18.4956 11.5995L18.0427 11.8113ZM18.2167 12.7353H17.7167C17.7167 13.1329 17.6387 13.4135 17.5195 13.6095L17.9467 13.8693L18.3739 14.1291C18.6147 13.7331 18.7167 13.2577 18.7167 12.7353H18.2167ZM17.9467 13.8693L17.5185 13.6112C17.3983 13.8106 17.2303 13.9581 16.9984 14.0583L17.1967 14.5173L17.395 14.9763C17.8111 14.7965 18.1431 14.512 18.3749 14.1274L17.9467 13.8693ZM17.1967 14.5173L16.9984 14.0583C16.7494 14.1659 16.4414 14.2273 16.0627 14.2273V14.7273V15.2273C16.548 15.2273 16.9961 15.1487 17.395 14.9763L17.1967 14.5173ZM16.0627 14.7273V14.2273H14.3467V14.7273V15.2273H16.0627V14.7273ZM14.3467 14.7273H14.8467V14.5473H14.3467H13.8467V14.7273H14.3467ZM14.3467 14.5473V15.0473C14.5321 15.0473 14.7201 15.0361 14.8741 14.9921L14.7367 14.5113L14.5994 14.0305C14.5999 14.0304 14.5947 14.0319 14.5821 14.034C14.5698 14.036 14.5528 14.0383 14.5303 14.0404C14.4847 14.0446 14.4243 14.0473 14.3467 14.0473V14.5473ZM14.7367 14.5113L14.8948 14.9856C15.1223 14.9098 15.3037 14.7396 15.3776 14.493L14.8987 14.3493L14.4198 14.2056C14.4293 14.174 14.4498 14.1331 14.4867 14.0962C14.5227 14.0602 14.5587 14.0436 14.5786 14.037L14.7367 14.5113ZM14.8987 14.3493L15.3795 14.4867C15.4227 14.3353 15.4347 14.158 15.4347 13.9833H14.9347H14.4347C14.4347 14.1286 14.4227 14.1953 14.418 14.2119L14.8987 14.3493ZM14.9347 13.9833H15.4347V11.4693H14.9347H14.4347V13.9833H14.9347ZM14.9347 11.4693H15.4347C15.4347 11.3019 15.4179 11.0914 15.3226 10.9114L14.8807 11.1453L14.4388 11.3792C14.4305 11.3636 14.4271 11.353 14.4263 11.3505C14.4255 11.3478 14.4265 11.3503 14.428 11.3595C14.4312 11.3788 14.4347 11.4139 14.4347 11.4693H14.9347ZM14.8807 11.1453L15.3279 10.9217C15.2235 10.7129 15.044 10.5794 14.8381 10.5205L14.7007 11.0013L14.5634 11.4821C14.5503 11.4783 14.5248 11.4684 14.4964 11.4457C14.4672 11.4224 14.4463 11.3945 14.4335 11.3689L14.8807 11.1453ZM14.7007 11.0013L14.8381 10.5205C14.6882 10.4777 14.5163 10.4653 14.3467 10.4653V10.9653V11.4653C14.4811 11.4653 14.5452 11.4769 14.5634 11.4821L14.7007 11.0013ZM14.3467 10.9653H14.8467V10.7853H14.3467H13.8467V10.9653H14.3467ZM15.4867 11.0433H14.9867V14.4813H15.4867H15.9867V11.0433H15.4867ZM15.4867 14.4813L15.437 14.9788C15.5728 14.9924 15.7075 14.9993 15.8407 14.9993V14.4993V13.9993C15.742 13.9993 15.6406 13.9942 15.5365 13.9838L15.4867 14.4813ZM15.8407 14.4993V14.9993C16.2463 14.9993 16.6201 14.9461 16.9499 14.8243L16.7767 14.3553L16.6035 13.8862C16.4133 13.9565 16.1631 13.9993 15.8407 13.9993V14.4993ZM16.7767 14.3553L16.9562 14.822C17.3272 14.6793 17.6164 14.4257 17.8121 14.0791L17.3767 13.8333L16.9413 13.5875C16.857 13.7369 16.7463 13.8313 16.5972 13.8886L16.7767 14.3553ZM17.3767 13.8333L17.8121 14.0791C18.0121 13.7249 18.0867 13.2787 18.0867 12.7893H17.5867H17.0867C17.0867 13.1959 17.0214 13.4457 16.9413 13.5875L17.3767 13.8333ZM17.5867 12.7893H18.0867C18.0867 12.1357 17.9189 11.5558 17.507 11.1326L17.1487 11.4813L16.7904 11.83C16.9625 12.0068 17.0867 12.2989 17.0867 12.7893H17.5867ZM17.1487 11.4813L17.507 11.1326C17.0837 10.6976 16.4709 10.5313 15.7807 10.5313V11.0313V11.5313C16.3305 11.5313 16.6297 11.6649 16.7904 11.83L17.1487 11.4813ZM15.7807 11.0313V10.5313C15.7806 10.5313 15.7805 10.5313 15.7804 10.5313C15.7803 10.5313 15.7803 10.5313 15.7802 10.5313C15.7801 10.5313 15.78 10.5313 15.7799 10.5313C15.7798 10.5313 15.7797 10.5313 15.7796 10.5313C15.7795 10.5313 15.7794 10.5313 15.7793 10.5313C15.7792 10.5313 15.7791 10.5313 15.779 10.5313C15.7789 10.5313 15.7788 10.5313 15.7787 10.5313C15.7787 10.5313 15.7786 10.5313 15.7785 10.5313C15.7784 10.5313 15.7783 10.5313 15.7782 10.5313C15.7781 10.5313 15.778 10.5313 15.7779 10.5313C15.7778 10.5313 15.7777 10.5313 15.7776 10.5313C15.7775 10.5313 15.7774 10.5313 15.7773 10.5313C15.7773 10.5313 15.7772 10.5313 15.7771 10.5313C15.777 10.5313 15.7769 10.5313 15.7768 10.5313C15.7767 10.5313 15.7766 10.5313 15.7765 10.5313C15.7764 10.5313 15.7763 10.5313 15.7762 10.5313C15.7761 10.5313 15.776 10.5313 15.7759 10.5313C15.7758 10.5313 15.7758 10.5313 15.7757 10.5313C15.7756 10.5313 15.7755 10.5313 15.7754 10.5313C15.7753 10.5313 15.7752 10.5313 15.7751 10.5313C15.775 10.5313 15.7749 10.5313 15.7748 10.5313C15.7747 10.5313 15.7746 10.5313 15.7745 10.5313C15.7744 10.5313 15.7743 10.5313 15.7743 10.5313C15.7742 10.5313 15.7741 10.5313 15.774 10.5313C15.7739 10.5313 15.7738 10.5313 15.7737 10.5313C15.7736 10.5313 15.7735 10.5313 15.7734 10.5313C15.7733 10.5313 15.7732 10.5313 15.7731 10.5313C15.773 10.5313 15.7729 10.5313 15.7728 10.5313C15.7727 10.5313 15.7727 10.5313 15.7726 10.5313C15.7725 10.5313 15.7724 10.5313 15.7723 10.5313C15.7722 10.5313 15.7721 10.5313 15.772 10.5313C15.7719 10.5313 15.7718 10.5313 15.7717 10.5313C15.7716 10.5313 15.7715 10.5313 15.7714 10.5313C15.7713 10.5313 15.7713 10.5313 15.7712 10.5313C15.7711 10.5313 15.771 10.5313 15.7709 10.5313C15.7708 10.5313 15.7707 10.5313 15.7706 10.5313C15.7705 10.5313 15.7704 10.5313 15.7703 10.5313C15.7702 10.5313 15.7701 10.5313 15.77 10.5313C15.7699 10.5313 15.7698 10.5313 15.7698 10.5313C15.7697 10.5313 15.7696 10.5313 15.7695 10.5313C15.7694 10.5313 15.7693 10.5313 15.7692 10.5313C15.7691 10.5313 15.769 10.5313 15.7689 10.5313C15.7688 10.5313 15.7687 10.5313 15.7686 10.5313C15.7685 10.5313 15.7684 10.5313 15.7683 10.5313C15.7682 10.5313 15.7682 10.5313 15.7681 10.5313C15.768 10.5313 15.7679 10.5313 15.7678 10.5313C15.7677 10.5313 15.7676 10.5313 15.7675 10.5313C15.7674 10.5313 15.7673 10.5313 15.7672 10.5313C15.7671 10.5313 15.767 10.5313 15.7669 10.5313C15.7668 10.5313 15.7668 10.5313 15.7667 10.5313C15.7666 10.5313 15.7665 10.5313 15.7664 10.5313C15.7663 10.5313 15.7662 10.5313 15.7661 10.5313C15.766 10.5313 15.7659 10.5313 15.7658 10.5313C15.7657 10.5313 15.7656 10.5313 15.7655 10.5313C15.7654 10.5313 15.7653 10.5313 15.7653 10.5313C15.7652 10.5313 15.7651 10.5313 15.765 10.5313C15.7649 10.5313 15.7648 10.5313 15.7647 10.5313C15.7646 10.5313 15.7645 10.5313 15.7644 10.5313C15.7643 10.5313 15.7642 10.5313 15.7641 10.5313C15.764 10.5313 15.7639 10.5313 15.7638 10.5313C15.7638 10.5313 15.7637 10.5313 15.7636 10.5313C15.7635 10.5313 15.7634 10.5313 15.7633 10.5313C15.7632 10.5313 15.7631 10.5313 15.763 10.5313C15.7629 10.5313 15.7628 10.5313 15.7627 10.5313C15.7626 10.5313 15.7625 10.5313 15.7624 10.5313C15.7623 10.5313 15.7622 10.5313 15.7622 10.5313C15.7621 10.5313 15.762 10.5313 15.7619 10.5313C15.7618 10.5313 15.7617 10.5313 15.7616 10.5313C15.7615 10.5313 15.7614 10.5313 15.7613 10.5313C15.7612 10.5313 15.7611 10.5313 15.761 10.5313C15.7609 10.5313 15.7608 10.5313 15.7608 10.5313C15.7607 10.5313 15.7606 10.5313 15.7605 10.5313C15.7604 10.5313 15.7603 10.5313 15.7602 10.5313C15.7601 10.5313 15.76 10.5313 15.7599 10.5313C15.7598 10.5313 15.7597 10.5313 15.7596 10.5313C15.7595 10.5313 15.7594 10.5313 15.7593 10.5313C15.7593 10.5313 15.7592 10.5313 15.7591 10.5313C15.759 10.5313 15.7589 10.5313 15.7588 10.5313C15.7587 10.5313 15.7586 10.5313 15.7585 10.5313C15.7584 10.5313 15.7583 10.5313 15.7582 10.5313C15.7581 10.5313 15.758 10.5313 15.7579 10.5313C15.7578 10.5313 15.7578 10.5313 15.7577 10.5313C15.7576 10.5313 15.7575 10.5313 15.7574 10.5313C15.7573 10.5313 15.7572 10.5313 15.7571 10.5313C15.757 10.5313 15.7569 10.5313 15.7568 10.5313C15.7567 10.5313 15.7566 10.5313 15.7565 10.5313C15.7564 10.5313 15.7563 10.5313 15.7562 10.5313C15.7562 10.5313 15.7561 10.5313 15.756 10.5313C15.7559 10.5313 15.7558 10.5313 15.7557 10.5313C15.7556 10.5313 15.7555 10.5313 15.7554 10.5313C15.7553 10.5313 15.7552 10.5313 15.7551 10.5313C15.755 10.5313 15.7549 10.5313 15.7548 10.5313C15.7548 10.5313 15.7547 10.5313 15.7546 10.5313C15.7545 10.5313 15.7544 10.5313 15.7543 10.5313C15.7542 10.5313 15.7541 10.5313 15.754 10.5313C15.7539 10.5313 15.7538 10.5313 15.7537 10.5313C15.7536 10.5313 15.7535 10.5313 15.7534 10.5313C15.7533 10.5313 15.7533 10.5313 15.7532 10.5313C15.7531 10.5313 15.753 10.5313 15.7529 10.5313C15.7528 10.5313 15.7527 10.5313 15.7526 10.5313C15.7525 10.5313 15.7524 10.5313 15.7523 10.5313C15.7522 10.5313 15.7521 10.5313 15.752 10.5313C15.7519 10.5313 15.7518 10.5313 15.7517 10.5313C15.7517 10.5313 15.7516 10.5313 15.7515 10.5313C15.7514 10.5313 15.7513 10.5313 15.7512 10.5313C15.7511 10.5313 15.751 10.5313 15.7509 10.5313C15.7508 10.5313 15.7507 10.5313 15.7506 10.5313C15.7505 10.5313 15.7504 10.5313 15.7503 10.5313C15.7503 10.5313 15.7502 10.5313 15.7501 10.5313C15.75 10.5313 15.7499 10.5313 15.7498 10.5313C15.7497 10.5313 15.7496 10.5313 15.7495 10.5313C15.7494 10.5313 15.7493 10.5313 15.7492 10.5313C15.7491 10.5313 15.749 10.5313 15.7489 10.5313C15.7488 10.5313 15.7488 10.5313 15.7487 10.5313C15.7486 10.5313 15.7485 10.5313 15.7484 10.5313C15.7483 10.5313 15.7482 10.5313 15.7481 10.5313C15.748 10.5313 15.7479 10.5313 15.7478 10.5313C15.7477 10.5313 15.7476 10.5313 15.7475 10.5313C15.7474 10.5313 15.7473 10.5313 15.7473 10.5313C15.7472 10.5313 15.7471 10.5313 15.747 10.5313C15.7469 10.5313 15.7468 10.5313 15.7467 10.5313C15.7466 10.5313 15.7465 10.5313 15.7464 10.5313C15.7463 10.5313 15.7462 10.5313 15.7461 10.5313C15.746 10.5313 15.7459 10.5313 15.7458 10.5313C15.7457 10.5313 15.7457 10.5313 15.7456 10.5313C15.7455 10.5313 15.7454 10.5313 15.7453 10.5313C15.7452 10.5313 15.7451 10.5313 15.745 10.5313C15.7449 10.5313 15.7448 10.5313 15.7447 10.5313C15.7446 10.5313 15.7445 10.5313 15.7444 10.5313C15.7443 10.5313 15.7443 10.5313 15.7442 10.5313C15.7441 10.5313 15.744 10.5313 15.7439 10.5313C15.7438 10.5313 15.7437 10.5313 15.7436 10.5313C15.7435 10.5313 15.7434 10.5313 15.7433 10.5313C15.7432 10.5313 15.7431 10.5313 15.743 10.5313C15.7429 10.5313 15.7428 10.5313 15.7428 10.5313C15.7427 10.5313 15.7426 10.5313 15.7425 10.5313C15.7424 10.5313 15.7423 10.5313 15.7422 10.5313C15.7421 10.5313 15.742 10.5313 15.7419 10.5313C15.7418 10.5313 15.7417 10.5313 15.7416 10.5313C15.7415 10.5313 15.7414 10.5313 15.7413 10.5313C15.7413 10.5313 15.7412 10.5313 15.7411 10.5313C15.741 10.5313 15.7409 10.5313 15.7408 10.5313C15.7407 10.5313 15.7406 10.5313 15.7405 10.5313C15.7404 10.5313 15.7403 10.5313 15.7402 10.5313C15.7401 10.5313 15.74 10.5313 15.7399 10.5313C15.7398 10.5313 15.7397 10.5313 15.7397 10.5313C15.7396 10.5313 15.7395 10.5313 15.7394 10.5313C15.7393 10.5313 15.7392 10.5313 15.7391 10.5313C15.739 10.5313 15.7389 10.5313 15.7388 10.5313C15.7387 10.5313 15.7386 10.5313 15.7385 10.5313C15.7384 10.5313 15.7383 10.5313 15.7383 10.5313C15.7382 10.5313 15.7381 10.5313 15.738 10.5313C15.7379 10.5313 15.7378 10.5313 15.7377 10.5313C15.7376 10.5313 15.7375 10.5313 15.7374 10.5313C15.7373 10.5313 15.7372 10.5313 15.7371 10.5313C15.737 10.5313 15.7369 10.5313 15.7368 10.5313C15.7368 10.5313 15.7367 10.5313 15.7366 10.5313C15.7365 10.5313 15.7364 10.5313 15.7363 10.5313C15.7362 10.5313 15.7361 10.5313 15.736 10.5313C15.7359 10.5313 15.7358 10.5313 15.7357 10.5313C15.7356 10.5313 15.7355 10.5313 15.7354 10.5313C15.7353 10.5313 15.7352 10.5313 15.7352 10.5313C15.7351 10.5313 15.735 10.5313 15.7349 10.5313C15.7348 10.5313 15.7347 10.5313 15.7346 10.5313C15.7345 10.5313 15.7344 10.5313 15.7343 10.5313C15.7342 10.5313 15.7341 10.5313 15.734 10.5313C15.7339 10.5313 15.7338 10.5313 15.7338 10.5313C15.7337 10.5313 15.7336 10.5313 15.7335 10.5313C15.7334 10.5313 15.7333 10.5313 15.7332 10.5313C15.7331 10.5313 15.733 10.5313 15.7329 10.5313C15.7328 10.5313 15.7327 10.5313 15.7326 10.5313C15.7325 10.5313 15.7324 10.5313 15.7323 10.5313C15.7323 10.5313 15.7322 10.5313 15.7321 10.5313C15.732 10.5313 15.7319 10.5313 15.7318 10.5313C15.7317 10.5313 15.7316 10.5313 15.7315 10.5313C15.7314 10.5313 15.7313 10.5313 15.7312 10.5313C15.7311 10.5313 15.731 10.5313 15.7309 10.5313C15.7308 10.5313 15.7308 10.5313 15.7307 10.5313C15.7306 10.5313 15.7305 10.5313 15.7304 10.5313C15.7303 10.5313 15.7302 10.5313 15.7301 10.5313C15.73 10.5313 15.7299 10.5313 15.7298 10.5313C15.7297 10.5313 15.7296 10.5313 15.7295 10.5313C15.7294 10.5313 15.7293 10.5313 15.7292 10.5313C15.7292 10.5313 15.7291 10.5313 15.729 10.5313C15.7289 10.5313 15.7288 10.5313 15.7287 10.5313C15.7286 10.5313 15.7285 10.5313 15.7284 10.5313C15.7283 10.5313 15.7282 10.5313 15.7281 10.5313C15.728 10.5313 15.7279 10.5313 15.7278 10.5313C15.7278 10.5313 15.7277 10.5313 15.7276 10.5313C15.7275 10.5313 15.7274 10.5313 15.7273 10.5313C15.7272 10.5313 15.7271 10.5313 15.727 10.5313C15.7269 10.5313 15.7268 10.5313 15.7267 10.5313C15.7266 10.5313 15.7265 10.5313 15.7264 10.5313C15.7263 10.5313 15.7263 10.5313 15.7262 10.5313C15.7261 10.5313 15.726 10.5313 15.7259 10.5313C15.7258 10.5313 15.7257 10.5313 15.7256 10.5313C15.7255 10.5313 15.7254 10.5313 15.7253 10.5313C15.7252 10.5313 15.7251 10.5313 15.725 10.5313C15.7249 10.5313 15.7248 10.5313 15.7248 10.5313C15.7247 10.5313 15.7246 10.5313 15.7245 10.5313C15.7244 10.5313 15.7243 10.5313 15.7242 10.5313C15.7241 10.5313 15.724 10.5313 15.7239 10.5313C15.7238 10.5313 15.7237 10.5313 15.7236 10.5313C15.7235 10.5313 15.7234 10.5313 15.7233 10.5313C15.7232 10.5313 15.7232 10.5313 15.7231 10.5313C15.723 10.5313 15.7229 10.5313 15.7228 10.5313C15.7227 10.5313 15.7226 10.5313 15.7225 10.5313C15.7224 10.5313 15.7223 10.5313 15.7222 10.5313C15.7221 10.5313 15.722 10.5313 15.7219 10.5313C15.7218 10.5313 15.7218 10.5313 15.7217 10.5313C15.7216 10.5313 15.7215 10.5313 15.7214 10.5313C15.7213 10.5313 15.7212 10.5313 15.7211 10.5313C15.721 10.5313 15.7209 10.5313 15.7208 10.5313C15.7207 10.5313 15.7206 10.5313 15.7205 10.5313C15.7204 10.5313 15.7203 10.5313 15.7203 10.5313C15.7202 10.5313 15.7201 10.5313 15.72 10.5313C15.7199 10.5313 15.7198 10.5313 15.7197 10.5313C15.7196 10.5313 15.7195 10.5313 15.7194 10.5313C15.7193 10.5313 15.7192 10.5313 15.7191 10.5313C15.719 10.5313 15.7189 10.5313 15.7188 10.5313C15.7188 10.5313 15.7187 10.5313 15.7186 10.5313C15.7185 10.5313 15.7184 10.5313 15.7183 10.5313C15.7182 10.5313 15.7181 10.5313 15.718 10.5313C15.7179 10.5313 15.7178 10.5313 15.7177 10.5313C15.7176 10.5313 15.7175 10.5313 15.7174 10.5313C15.7173 10.5313 15.7172 10.5313 15.7172 10.5313C15.7171 10.5313 15.717 10.5313 15.7169 10.5313C15.7168 10.5313 15.7167 10.5313 15.7166 10.5313C15.7165 10.5313 15.7164 10.5313 15.7163 10.5313C15.7162 10.5313 15.7161 10.5313 15.716 10.5313C15.7159 10.5313 15.7158 10.5313 15.7158 10.5313C15.7157 10.5313 15.7156 10.5313 15.7155 10.5313C15.7154 10.5313 15.7153 10.5313 15.7152 10.5313C15.7151 10.5313 15.715 10.5313 15.7149 10.5313C15.7148 10.5313 15.7147 10.5313 15.7146 10.5313C15.7145 10.5313 15.7144 10.5313 15.7143 10.5313C15.7143 10.5313 15.7142 10.5313 15.7141 10.5313C15.714 10.5313 15.7139 10.5313 15.7138 10.5313C15.7137 10.5313 15.7136 10.5313 15.7135 10.5313C15.7134 10.5313 15.7133 10.5313 15.7132 10.5313C15.7131 10.5313 15.713 10.5313 15.7129 10.5313C15.7128 10.5313 15.7127 10.5313 15.7127 10.5313C15.7126 10.5313 15.7125 10.5313 15.7124 10.5313C15.7123 10.5313 15.7122 10.5313 15.7121 10.5313C15.712 10.5313 15.7119 10.5313 15.7118 10.5313C15.7117 10.5313 15.7116 10.5313 15.7115 10.5313C15.7114 10.5313 15.7113 10.5313 15.7113 10.5313C15.7112 10.5313 15.7111 10.5313 15.711 10.5313C15.7109 10.5313 15.7108 10.5313 15.7107 10.5313C15.7106 10.5313 15.7105 10.5313 15.7104 10.5313C15.7103 10.5313 15.7102 10.5313 15.7101 10.5313C15.71 10.5313 15.7099 10.5313 15.7098 10.5313C15.7098 10.5313 15.7097 10.5313 15.7096 10.5313C15.7095 10.5313 15.7094 10.5313 15.7093 10.5313C15.7092 10.5313 15.7091 10.5313 15.709 10.5313C15.7089 10.5313 15.7088 10.5313 15.7087 10.5313C15.7086 10.5313 15.7085 10.5313 15.7084 10.5313C15.7083 10.5313 15.7083 10.5313 15.7082 10.5313C15.7081 10.5313 15.708 10.5313 15.7079 10.5313C15.7078 10.5313 15.7077 10.5313 15.7076 10.5313C15.7075 10.5313 15.7074 10.5313 15.7073 10.5313C15.7072 10.5313 15.7071 10.5313 15.707 10.5313C15.7069 10.5313 15.7068 10.5313 15.7067 10.5313C15.7067 10.5313 15.7066 10.5313 15.7065 10.5313C15.7064 10.5313 15.7063 10.5313 15.7062 10.5313C15.7061 10.5313 15.706 10.5313 15.7059 10.5313C15.7058 10.5313 15.7057 10.5313 15.7056 10.5313C15.7055 10.5313 15.7054 10.5313 15.7053 10.5313C15.7053 10.5313 15.7052 10.5313 15.7051 10.5313C15.705 10.5313 15.7049 10.5313 15.7048 10.5313C15.7047 10.5313 15.7046 10.5313 15.7045 10.5313C15.7044 10.5313 15.7043 10.5313 15.7042 10.5313C15.7041 10.5313 15.704 10.5313 15.7039 10.5313C15.7038 10.5313 15.7038 10.5313 15.7037 10.5313C15.7036 10.5313 15.7035 10.5313 15.7034 10.5313C15.7033 10.5313 15.7032 10.5313 15.7031 10.5313C15.703 10.5313 15.7029 10.5313 15.7028 10.5313C15.7027 10.5313 15.7026 10.5313 15.7025 10.5313C15.7024 10.5313 15.7023 10.5313 15.7023 10.5313C15.7022 10.5313 15.7021 10.5313 15.702 10.5313C15.7019 10.5313 15.7018 10.5313 15.7017 10.5313C15.7016 10.5313 15.7015 10.5313 15.7014 10.5313C15.7013 10.5313 15.7012 10.5313 15.7011 10.5313C15.701 10.5313 15.7009 10.5313 15.7008 10.5313C15.7007 10.5313 15.7007 10.5313 15.7006 10.5313C15.7005 10.5313 15.7004 10.5313 15.7003 10.5313C15.7002 10.5313 15.7001 10.5313 15.7 10.5313C15.6999 10.5313 15.6998 10.5313 15.6997 10.5313C15.6996 10.5313 15.6995 10.5313 15.6994 10.5313C15.6993 10.5313 15.6993 10.5313 15.6992 10.5313C15.6991 10.5313 15.699 10.5313 15.6989 10.5313C15.6988 10.5313 15.6987 10.5313 15.6986 10.5313C15.6985 10.5313 15.6984 10.5313 15.6983 10.5313C15.6982 10.5313 15.6981 10.5313 15.698 10.5313C15.6979 10.5313 15.6978 10.5313 15.6978 10.5313C15.6977 10.5313 15.6976 10.5313 15.6975 10.5313C15.6974 10.5313 15.6973 10.5313 15.6972 10.5313C15.6971 10.5313 15.697 10.5313 15.6969 10.5313C15.6968 10.5313 15.6967 10.5313 15.6966 10.5313C15.6965 10.5313 15.6964 10.5313 15.6963 10.5313C15.6962 10.5313 15.6962 10.5313 15.6961 10.5313C15.696 10.5313 15.6959 10.5313 15.6958 10.5313C15.6957 10.5313 15.6956 10.5313 15.6955 10.5313C15.6954 10.5313 15.6953 10.5313 15.6952 10.5313C15.6951 10.5313 15.695 10.5313 15.6949 10.5313C15.6948 10.5313 15.6948 10.5313 15.6947 10.5313C15.6946 10.5313 15.6945 10.5313 15.6944 10.5313C15.6943 10.5313 15.6942 10.5313 15.6941 10.5313C15.694 10.5313 15.6939 10.5313 15.6938 10.5313C15.6937 10.5313 15.6936 10.5313 15.6935 10.5313C15.6934 10.5313 15.6933 10.5313 15.6933 10.5313C15.6932 10.5313 15.6931 10.5313 15.693 10.5313C15.6929 10.5313 15.6928 10.5313 15.6927 10.5313C15.6926 10.5313 15.6925 10.5313 15.6924 10.5313C15.6923 10.5313 15.6922 10.5313 15.6921 10.5313C15.692 10.5313 15.6919 10.5313 15.6918 10.5313C15.6918 10.5313 15.6917 10.5313 15.6916 10.5313C15.6915 10.5313 15.6914 10.5313 15.6913 10.5313C15.6912 10.5313 15.6911 10.5313 15.691 10.5313C15.6909 10.5313 15.6908 10.5313 15.6907 10.5313C15.6906 10.5313 15.6905 10.5313 15.6904 10.5313C15.6903 10.5313 15.6902 10.5313 15.6902 10.5313C15.6901 10.5313 15.69 10.5313 15.6899 10.5313C15.6898 10.5313 15.6897 10.5313 15.6896 10.5313C15.6895 10.5313 15.6894 10.5313 15.6893 10.5313C15.6892 10.5313 15.6891 10.5313 15.689 10.5313C15.6889 10.5313 15.6888 10.5313 15.6888 10.5313C15.6887 10.5313 15.6886 10.5313 15.6885 10.5313C15.6884 10.5313 15.6883 10.5313 15.6882 10.5313C15.6881 10.5313 15.688 10.5313 15.6879 10.5313C15.6878 10.5313 15.6877 10.5313 15.6876 10.5313C15.6875 10.5313 15.6874 10.5313 15.6873 10.5313C15.6873 10.5313 15.6872 10.5313 15.6871 10.5313C15.687 10.5313 15.6869 10.5313 15.6868 10.5313C15.6867 10.5313 15.6866 10.5313 15.6865 10.5313C15.6864 10.5313 15.6863 10.5313 15.6862 10.5313C15.6861 10.5313 15.686 10.5313 15.6859 10.5313C15.6858 10.5313 15.6858 10.5313 15.6857 10.5313C15.6856 10.5313 15.6855 10.5313 15.6854 10.5313C15.6853 10.5313 15.6852 10.5313 15.6851 10.5313C15.685 10.5313 15.6849 10.5313 15.6848 10.5313C15.6847 10.5313 15.6846 10.5313 15.6845 10.5313C15.6844 10.5313 15.6843 10.5313 15.6842 10.5313C15.6842 10.5313 15.6841 10.5313 15.684 10.5313C15.6839 10.5313 15.6838 10.5313 15.6837 10.5313C15.6836 10.5313 15.6835 10.5313 15.6834 10.5313C15.6833 10.5313 15.6832 10.5313 15.6831 10.5313C15.683 10.5313 15.6829 10.5313 15.6828 10.5313C15.6828 10.5313 15.6827 10.5313 15.6826 10.5313C15.6825 10.5313 15.6824 10.5313 15.6823 10.5313C15.6822 10.5313 15.6821 10.5313 15.682 10.5313C15.6819 10.5313 15.6818 10.5313 15.6817 10.5313C15.6816 10.5313 15.6815 10.5313 15.6814 10.5313C15.6813 10.5313 15.6813 10.5313 15.6812 10.5313C15.6811 10.5313 15.681 10.5313 15.6809 10.5313C15.6808 10.5313 15.6807 10.5313 15.6806 10.5313C15.6805 10.5313 15.6804 10.5313 15.6803 10.5313C15.6802 10.5313 15.6801 10.5313 15.68 10.5313C15.6799 10.5313 15.6798 10.5313 15.6797 10.5313C15.6797 10.5313 15.6796 10.5313 15.6795 10.5313C15.6794 10.5313 15.6793 10.5313 15.6792 10.5313C15.6791 10.5313 15.679 10.5313 15.6789 10.5313C15.6788 10.5313 15.6787 10.5313 15.6786 10.5313C15.6785 10.5313 15.6784 10.5313 15.6783 10.5313C15.6782 10.5313 15.6782 10.5313 15.6781 10.5313C15.678 10.5313 15.6779 10.5313 15.6778 10.5313C15.6777 10.5313 15.6776 10.5313 15.6775 10.5313C15.6774 10.5313 15.6773 10.5313 15.6772 10.5313C15.6771 10.5313 15.677 10.5313 15.6769 10.5313C15.6768 10.5313 15.6768 10.5313 15.6767 10.5313C15.6766 10.5313 15.6765 10.5313 15.6764 10.5313C15.6763 10.5313 15.6762 10.5313 15.6761 10.5313C15.676 10.5313 15.6759 10.5313 15.6758 10.5313C15.6757 10.5313 15.6756 10.5313 15.6755 10.5313C15.6754 10.5313 15.6753 10.5313 15.6753 10.5313C15.6752 10.5313 15.6751 10.5313 15.675 10.5313C15.6749 10.5313 15.6748 10.5313 15.6747 10.5313C15.6746 10.5313 15.6745 10.5313 15.6744 10.5313C15.6743 10.5313 15.6742 10.5313 15.6741 10.5313C15.674 10.5313 15.6739 10.5313 15.6738 10.5313C15.6737 10.5313 15.6737 10.5313 15.6736 10.5313C15.6735 10.5313 15.6734 10.5313 15.6733 10.5313C15.6732 10.5313 15.6731 10.5313 15.673 10.5313C15.6729 10.5313 15.6728 10.5313 15.6727 10.5313C15.6726 10.5313 15.6725 10.5313 15.6724 10.5313C15.6723 10.5313 15.6723 10.5313 15.6722 10.5313C15.6721 10.5313 15.672 10.5313 15.6719 10.5313C15.6718 10.5313 15.6717 10.5313 15.6716 10.5313C15.6715 10.5313 15.6714 10.5313 15.6713 10.5313C15.6712 10.5313 15.6711 10.5313 15.671 10.5313C15.6709 10.5313 15.6708 10.5313 15.6708 10.5313C15.6707 10.5313 15.6706 10.5313 15.6705 10.5313C15.6704 10.5313 15.6703 10.5313 15.6702 10.5313C15.6701 10.5313 15.67 10.5313 15.6699 10.5313C15.6698 10.5313 15.6697 10.5313 15.6696 10.5313C15.6695 10.5313 15.6694 10.5313 15.6693 10.5313C15.6693 10.5313 15.6692 10.5313 15.6691 10.5313C15.669 10.5313 15.6689 10.5313 15.6688 10.5313C15.6687 10.5313 15.6686 10.5313 15.6685 10.5313C15.6684 10.5313 15.6683 10.5313 15.6682 10.5313C15.6681 10.5313 15.668 10.5313 15.6679 10.5313C15.6678 10.5313 15.6677 10.5313 15.6677 10.5313C15.6676 10.5313 15.6675 10.5313 15.6674 10.5313C15.6673 10.5313 15.6672 10.5313 15.6671 10.5313C15.667 10.5313 15.6669 10.5313 15.6668 10.5313C15.6667 10.5313 15.6666 10.5313 15.6665 10.5313C15.6664 10.5313 15.6663 10.5313 15.6663 10.5313C15.6662 10.5313 15.6661 10.5313 15.666 10.5313C15.6659 10.5313 15.6658 10.5313 15.6657 10.5313C15.6656 10.5313 15.6655 10.5313 15.6654 10.5313C15.6653 10.5313 15.6652 10.5313 15.6651 10.5313C15.665 10.5313 15.6649 10.5313 15.6648 10.5313C15.6648 10.5313 15.6647 10.5313 15.6646 10.5313C15.6645 10.5313 15.6644 10.5313 15.6643 10.5313C15.6642 10.5313 15.6641 10.5313 15.664 10.5313C15.6639 10.5313 15.6638 10.5313 15.6637 10.5313C15.6636 10.5313 15.6635 10.5313 15.6634 10.5313C15.6633 10.5313 15.6632 10.5313 15.6632 10.5313C15.6631 10.5313 15.663 10.5313 15.6629 10.5313C15.6628 10.5313 15.6627 10.5313 15.6626 10.5313C15.6625 10.5313 15.6624 10.5313 15.6623 10.5313C15.6622 10.5313 15.6621 10.5313 15.662 10.5313C15.6619 10.5313 15.6618 10.5313 15.6617 10.5313C15.6617 10.5313 15.6616 10.5313 15.6615 10.5313C15.6614 10.5313 15.6613 10.5313 15.6612 10.5313C15.6611 10.5313 15.661 10.5313 15.6609 10.5313C15.6608 10.5313 15.6607 10.5313 15.6606 10.5313C15.6605 10.5313 15.6604 10.5313 15.6603 10.5313C15.6603 10.5313 15.6602 10.5313 15.6601 10.5313C15.66 10.5313 15.6599 10.5313 15.6598 10.5313C15.6597 10.5313 15.6596 10.5313 15.6595 10.5313C15.6594 10.5313 15.6593 10.5313 15.6592 10.5313C15.6591 10.5313 15.659 10.5313 15.6589 10.5313C15.6588 10.5313 15.6588 10.5313 15.6587 10.5313C15.6586 10.5313 15.6585 10.5313 15.6584 10.5313C15.6583 10.5313 15.6582 10.5313 15.6581 10.5313C15.658 10.5313 15.6579 10.5313 15.6578 10.5313C15.6577 10.5313 15.6576 10.5313 15.6575 10.5313C15.6574 10.5313 15.6573 10.5313 15.6572 10.5313C15.6572 10.5313 15.6571 10.5313 15.657 10.5313C15.6569 10.5313 15.6568 10.5313 15.6567 10.5313C15.6566 10.5313 15.6565 10.5313 15.6564 10.5313C15.6563 10.5313 15.6562 10.5313 15.6561 10.5313C15.656 10.5313 15.6559 10.5313 15.6558 10.5313C15.6557 10.5313 15.6557 10.5313 15.6556 10.5313C15.6555 10.5313 15.6554 10.5313 15.6553 10.5313C15.6552 10.5313 15.6551 10.5313 15.655 10.5313C15.6549 10.5313 15.6548 10.5313 15.6547 10.5313C15.6546 10.5313 15.6545 10.5313 15.6544 10.5313C15.6543 10.5313 15.6543 10.5313 15.6542 10.5313C15.6541 10.5313 15.654 10.5313 15.6539 10.5313C15.6538 10.5313 15.6537 10.5313 15.6536 10.5313C15.6535 10.5313 15.6534 10.5313 15.6533 10.5313C15.6532 10.5313 15.6531 10.5313 15.653 10.5313C15.6529 10.5313 15.6528 10.5313 15.6528 10.5313C15.6527 10.5313 15.6526 10.5313 15.6525 10.5313C15.6524 10.5313 15.6523 10.5313 15.6522 10.5313C15.6521 10.5313 15.652 10.5313 15.6519 10.5313C15.6518 10.5313 15.6517 10.5313 15.6516 10.5313C15.6515 10.5313 15.6514 10.5313 15.6513 10.5313C15.6512 10.5313 15.6512 10.5313 15.6511 10.5313C15.651 10.5313 15.6509 10.5313 15.6508 10.5313C15.6507 10.5313 15.6506 10.5313 15.6505 10.5313C15.6504 10.5313 15.6503 10.5313 15.6502 10.5313C15.6501 10.5313 15.65 10.5313 15.6499 10.5313C15.6498 10.5313 15.6498 10.5313 15.6497 10.5313C15.6496 10.5313 15.6495 10.5313 15.6494 10.5313C15.6493 10.5313 15.6492 10.5313 15.6491 10.5313C15.649 10.5313 15.6489 10.5313 15.6488 10.5313C15.6487 10.5313 15.6486 10.5313 15.6485 10.5313C15.6484 10.5313 15.6483 10.5313 15.6483 10.5313C15.6482 10.5313 15.6481 10.5313 15.648 10.5313C15.6479 10.5313 15.6478 10.5313 15.6477 10.5313C15.6476 10.5313 15.6475 10.5313 15.6474 10.5313C15.6473 10.5313 15.6472 10.5313 15.6471 10.5313C15.647 10.5313 15.6469 10.5313 15.6468 10.5313C15.6467 10.5313 15.6467 10.5313 15.6466 10.5313C15.6465 10.5313 15.6464 10.5313 15.6463 10.5313C15.6462 10.5313 15.6461 10.5313 15.646 10.5313C15.6459 10.5313 15.6458 10.5313 15.6457 10.5313C15.6456 10.5313 15.6455 10.5313 15.6454 10.5313C15.6453 10.5313 15.6452 10.5313 15.6452 10.5313C15.6451 10.5313 15.645 10.5313 15.6449 10.5313C15.6448 10.5313 15.6447 10.5313 15.6446 10.5313C15.6445 10.5313 15.6444 10.5313 15.6443 10.5313C15.6442 10.5313 15.6441 10.5313 15.644 10.5313C15.6439 10.5313 15.6438 10.5313 15.6438 10.5313C15.6437 10.5313 15.6436 10.5313 15.6435 10.5313C15.6434 10.5313 15.6433 10.5313 15.6432 10.5313C15.6431 10.5313 15.643 10.5313 15.6429 10.5313C15.6428 10.5313 15.6427 10.5313 15.6426 10.5313C15.6425 10.5313 15.6424 10.5313 15.6423 10.5313C15.6423 10.5313 15.6422 10.5313 15.6421 10.5313C15.642 10.5313 15.6419 10.5313 15.6418 10.5313C15.6417 10.5313 15.6416 10.5313 15.6415 10.5313C15.6414 10.5313 15.6413 10.5313 15.6412 10.5313C15.6411 10.5313 15.641 10.5313 15.6409 10.5313C15.6408 10.5313 15.6407 10.5313 15.6407 10.5313C15.6406 10.5313 15.6405 10.5313 15.6404 10.5313C15.6403 10.5313 15.6402 10.5313 15.6401 10.5313C15.64 10.5313 15.6399 10.5313 15.6398 10.5313C15.6397 10.5313 15.6396 10.5313 15.6395 10.5313C15.6394 10.5313 15.6393 10.5313 15.6392 10.5313C15.6392 10.5313 15.6391 10.5313 15.639 10.5313C15.6389 10.5313 15.6388 10.5313 15.6387 10.5313C15.6386 10.5313 15.6385 10.5313 15.6384 10.5313C15.6383 10.5313 15.6382 10.5313 15.6381 10.5313C15.638 10.5313 15.6379 10.5313 15.6378 10.5313C15.6378 10.5313 15.6377 10.5313 15.6376 10.5313C15.6375 10.5313 15.6374 10.5313 15.6373 10.5313C15.6372 10.5313 15.6371 10.5313 15.637 10.5313C15.6369 10.5313 15.6368 10.5313 15.6367 10.5313V11.0313V11.5313C15.6368 11.5313 15.6369 11.5313 15.637 11.5313C15.6371 11.5313 15.6372 11.5313 15.6373 11.5313C15.6374 11.5313 15.6375 11.5313 15.6376 11.5313C15.6377 11.5313 15.6378 11.5313 15.6378 11.5313C15.6379 11.5313 15.638 11.5313 15.6381 11.5313C15.6382 11.5313 15.6383 11.5313 15.6384 11.5313C15.6385 11.5313 15.6386 11.5313 15.6387 11.5313C15.6388 11.5313 15.6389 11.5313 15.639 11.5313C15.6391 11.5313 15.6392 11.5313 15.6392 11.5313C15.6393 11.5313 15.6394 11.5313 15.6395 11.5313C15.6396 11.5313 15.6397 11.5313 15.6398 11.5313C15.6399 11.5313 15.64 11.5313 15.6401 11.5313C15.6402 11.5313 15.6403 11.5313 15.6404 11.5313C15.6405 11.5313 15.6406 11.5313 15.6407 11.5313C15.6407 11.5313 15.6408 11.5313 15.6409 11.5313C15.641 11.5313 15.6411 11.5313 15.6412 11.5313C15.6413 11.5313 15.6414 11.5313 15.6415 11.5313C15.6416 11.5313 15.6417 11.5313 15.6418 11.5313C15.6419 11.5313 15.642 11.5313 15.6421 11.5313C15.6422 11.5313 15.6423 11.5313 15.6423 11.5313C15.6424 11.5313 15.6425 11.5313 15.6426 11.5313C15.6427 11.5313 15.6428 11.5313 15.6429 11.5313C15.643 11.5313 15.6431 11.5313 15.6432 11.5313C15.6433 11.5313 15.6434 11.5313 15.6435 11.5313C15.6436 11.5313 15.6437 11.5313 15.6438 11.5313C15.6438 11.5313 15.6439 11.5313 15.644 11.5313C15.6441 11.5313 15.6442 11.5313 15.6443 11.5313C15.6444 11.5313 15.6445 11.5313 15.6446 11.5313C15.6447 11.5313 15.6448 11.5313 15.6449 11.5313C15.645 11.5313 15.6451 11.5313 15.6452 11.5313C15.6452 11.5313 15.6453 11.5313 15.6454 11.5313C15.6455 11.5313 15.6456 11.5313 15.6457 11.5313C15.6458 11.5313 15.6459 11.5313 15.646 11.5313C15.6461 11.5313 15.6462 11.5313 15.6463 11.5313C15.6464 11.5313 15.6465 11.5313 15.6466 11.5313C15.6467 11.5313 15.6467 11.5313 15.6468 11.5313C15.6469 11.5313 15.647 11.5313 15.6471 11.5313C15.6472 11.5313 15.6473 11.5313 15.6474 11.5313C15.6475 11.5313 15.6476 11.5313 15.6477 11.5313C15.6478 11.5313 15.6479 11.5313 15.648 11.5313C15.6481 11.5313 15.6482 11.5313 15.6483 11.5313C15.6483 11.5313 15.6484 11.5313 15.6485 11.5313C15.6486 11.5313 15.6487 11.5313 15.6488 11.5313C15.6489 11.5313 15.649 11.5313 15.6491 11.5313C15.6492 11.5313 15.6493 11.5313 15.6494 11.5313C15.6495 11.5313 15.6496 11.5313 15.6497 11.5313C15.6498 11.5313 15.6498 11.5313 15.6499 11.5313C15.65 11.5313 15.6501 11.5313 15.6502 11.5313C15.6503 11.5313 15.6504 11.5313 15.6505 11.5313C15.6506 11.5313 15.6507 11.5313 15.6508 11.5313C15.6509 11.5313 15.651 11.5313 15.6511 11.5313C15.6512 11.5313 15.6512 11.5313 15.6513 11.5313C15.6514 11.5313 15.6515 11.5313 15.6516 11.5313C15.6517 11.5313 15.6518 11.5313 15.6519 11.5313C15.652 11.5313 15.6521 11.5313 15.6522 11.5313C15.6523 11.5313 15.6524 11.5313 15.6525 11.5313C15.6526 11.5313 15.6527 11.5313 15.6528 11.5313C15.6528 11.5313 15.6529 11.5313 15.653 11.5313C15.6531 11.5313 15.6532 11.5313 15.6533 11.5313C15.6534 11.5313 15.6535 11.5313 15.6536 11.5313C15.6537 11.5313 15.6538 11.5313 15.6539 11.5313C15.654 11.5313 15.6541 11.5313 15.6542 11.5313C15.6543 11.5313 15.6543 11.5313 15.6544 11.5313C15.6545 11.5313 15.6546 11.5313 15.6547 11.5313C15.6548 11.5313 15.6549 11.5313 15.655 11.5313C15.6551 11.5313 15.6552 11.5313 15.6553 11.5313C15.6554 11.5313 15.6555 11.5313 15.6556 11.5313C15.6557 11.5313 15.6557 11.5313 15.6558 11.5313C15.6559 11.5313 15.656 11.5313 15.6561 11.5313C15.6562 11.5313 15.6563 11.5313 15.6564 11.5313C15.6565 11.5313 15.6566 11.5313 15.6567 11.5313C15.6568 11.5313 15.6569 11.5313 15.657 11.5313C15.6571 11.5313 15.6572 11.5313 15.6572 11.5313C15.6573 11.5313 15.6574 11.5313 15.6575 11.5313C15.6576 11.5313 15.6577 11.5313 15.6578 11.5313C15.6579 11.5313 15.658 11.5313 15.6581 11.5313C15.6582 11.5313 15.6583 11.5313 15.6584 11.5313C15.6585 11.5313 15.6586 11.5313 15.6587 11.5313C15.6588 11.5313 15.6588 11.5313 15.6589 11.5313C15.659 11.5313 15.6591 11.5313 15.6592 11.5313C15.6593 11.5313 15.6594 11.5313 15.6595 11.5313C15.6596 11.5313 15.6597 11.5313 15.6598 11.5313C15.6599 11.5313 15.66 11.5313 15.6601 11.5313C15.6602 11.5313 15.6603 11.5313 15.6603 11.5313C15.6604 11.5313 15.6605 11.5313 15.6606 11.5313C15.6607 11.5313 15.6608 11.5313 15.6609 11.5313C15.661 11.5313 15.6611 11.5313 15.6612 11.5313C15.6613 11.5313 15.6614 11.5313 15.6615 11.5313C15.6616 11.5313 15.6617 11.5313 15.6617 11.5313C15.6618 11.5313 15.6619 11.5313 15.662 11.5313C15.6621 11.5313 15.6622 11.5313 15.6623 11.5313C15.6624 11.5313 15.6625 11.5313 15.6626 11.5313C15.6627 11.5313 15.6628 11.5313 15.6629 11.5313C15.663 11.5313 15.6631 11.5313 15.6632 11.5313C15.6632 11.5313 15.6633 11.5313 15.6634 11.5313C15.6635 11.5313 15.6636 11.5313 15.6637 11.5313C15.6638 11.5313 15.6639 11.5313 15.664 11.5313C15.6641 11.5313 15.6642 11.5313 15.6643 11.5313C15.6644 11.5313 15.6645 11.5313 15.6646 11.5313C15.6647 11.5313 15.6648 11.5313 15.6648 11.5313C15.6649 11.5313 15.665 11.5313 15.6651 11.5313C15.6652 11.5313 15.6653 11.5313 15.6654 11.5313C15.6655 11.5313 15.6656 11.5313 15.6657 11.5313C15.6658 11.5313 15.6659 11.5313 15.666 11.5313C15.6661 11.5313 15.6662 11.5313 15.6663 11.5313C15.6663 11.5313 15.6664 11.5313 15.6665 11.5313C15.6666 11.5313 15.6667 11.5313 15.6668 11.5313C15.6669 11.5313 15.667 11.5313 15.6671 11.5313C15.6672 11.5313 15.6673 11.5313 15.6674 11.5313C15.6675 11.5313 15.6676 11.5313 15.6677 11.5313C15.6677 11.5313 15.6678 11.5313 15.6679 11.5313C15.668 11.5313 15.6681 11.5313 15.6682 11.5313C15.6683 11.5313 15.6684 11.5313 15.6685 11.5313C15.6686 11.5313 15.6687 11.5313 15.6688 11.5313C15.6689 11.5313 15.669 11.5313 15.6691 11.5313C15.6692 11.5313 15.6693 11.5313 15.6693 11.5313C15.6694 11.5313 15.6695 11.5313 15.6696 11.5313C15.6697 11.5313 15.6698 11.5313 15.6699 11.5313C15.67 11.5313 15.6701 11.5313 15.6702 11.5313C15.6703 11.5313 15.6704 11.5313 15.6705 11.5313C15.6706 11.5313 15.6707 11.5313 15.6708 11.5313C15.6708 11.5313 15.6709 11.5313 15.671 11.5313C15.6711 11.5313 15.6712 11.5313 15.6713 11.5313C15.6714 11.5313 15.6715 11.5313 15.6716 11.5313C15.6717 11.5313 15.6718 11.5313 15.6719 11.5313C15.672 11.5313 15.6721 11.5313 15.6722 11.5313C15.6723 11.5313 15.6723 11.5313 15.6724 11.5313C15.6725 11.5313 15.6726 11.5313 15.6727 11.5313C15.6728 11.5313 15.6729 11.5313 15.673 11.5313C15.6731 11.5313 15.6732 11.5313 15.6733 11.5313C15.6734 11.5313 15.6735 11.5313 15.6736 11.5313C15.6737 11.5313 15.6737 11.5313 15.6738 11.5313C15.6739 11.5313 15.674 11.5313 15.6741 11.5313C15.6742 11.5313 15.6743 11.5313 15.6744 11.5313C15.6745 11.5313 15.6746 11.5313 15.6747 11.5313C15.6748 11.5313 15.6749 11.5313 15.675 11.5313C15.6751 11.5313 15.6752 11.5313 15.6753 11.5313C15.6753 11.5313 15.6754 11.5313 15.6755 11.5313C15.6756 11.5313 15.6757 11.5313 15.6758 11.5313C15.6759 11.5313 15.676 11.5313 15.6761 11.5313C15.6762 11.5313 15.6763 11.5313 15.6764 11.5313C15.6765 11.5313 15.6766 11.5313 15.6767 11.5313C15.6768 11.5313 15.6768 11.5313 15.6769 11.5313C15.677 11.5313 15.6771 11.5313 15.6772 11.5313C15.6773 11.5313 15.6774 11.5313 15.6775 11.5313C15.6776 11.5313 15.6777 11.5313 15.6778 11.5313C15.6779 11.5313 15.678 11.5313 15.6781 11.5313C15.6782 11.5313 15.6782 11.5313 15.6783 11.5313C15.6784 11.5313 15.6785 11.5313 15.6786 11.5313C15.6787 11.5313 15.6788 11.5313 15.6789 11.5313C15.679 11.5313 15.6791 11.5313 15.6792 11.5313C15.6793 11.5313 15.6794 11.5313 15.6795 11.5313C15.6796 11.5313 15.6797 11.5313 15.6797 11.5313C15.6798 11.5313 15.6799 11.5313 15.68 11.5313C15.6801 11.5313 15.6802 11.5313 15.6803 11.5313C15.6804 11.5313 15.6805 11.5313 15.6806 11.5313C15.6807 11.5313 15.6808 11.5313 15.6809 11.5313C15.681 11.5313 15.6811 11.5313 15.6812 11.5313C15.6813 11.5313 15.6813 11.5313 15.6814 11.5313C15.6815 11.5313 15.6816 11.5313 15.6817 11.5313C15.6818 11.5313 15.6819 11.5313 15.682 11.5313C15.6821 11.5313 15.6822 11.5313 15.6823 11.5313C15.6824 11.5313 15.6825 11.5313 15.6826 11.5313C15.6827 11.5313 15.6828 11.5313 15.6828 11.5313C15.6829 11.5313 15.683 11.5313 15.6831 11.5313C15.6832 11.5313 15.6833 11.5313 15.6834 11.5313C15.6835 11.5313 15.6836 11.5313 15.6837 11.5313C15.6838 11.5313 15.6839 11.5313 15.684 11.5313C15.6841 11.5313 15.6842 11.5313 15.6842 11.5313C15.6843 11.5313 15.6844 11.5313 15.6845 11.5313C15.6846 11.5313 15.6847 11.5313 15.6848 11.5313C15.6849 11.5313 15.685 11.5313 15.6851 11.5313C15.6852 11.5313 15.6853 11.5313 15.6854 11.5313C15.6855 11.5313 15.6856 11.5313 15.6857 11.5313C15.6858 11.5313 15.6858 11.5313 15.6859 11.5313C15.686 11.5313 15.6861 11.5313 15.6862 11.5313C15.6863 11.5313 15.6864 11.5313 15.6865 11.5313C15.6866 11.5313 15.6867 11.5313 15.6868 11.5313C15.6869 11.5313 15.687 11.5313 15.6871 11.5313C15.6872 11.5313 15.6873 11.5313 15.6873 11.5313C15.6874 11.5313 15.6875 11.5313 15.6876 11.5313C15.6877 11.5313 15.6878 11.5313 15.6879 11.5313C15.688 11.5313 15.6881 11.5313 15.6882 11.5313C15.6883 11.5313 15.6884 11.5313 15.6885 11.5313C15.6886 11.5313 15.6887 11.5313 15.6888 11.5313C15.6888 11.5313 15.6889 11.5313 15.689 11.5313C15.6891 11.5313 15.6892 11.5313 15.6893 11.5313C15.6894 11.5313 15.6895 11.5313 15.6896 11.5313C15.6897 11.5313 15.6898 11.5313 15.6899 11.5313C15.69 11.5313 15.6901 11.5313 15.6902 11.5313C15.6902 11.5313 15.6903 11.5313 15.6904 11.5313C15.6905 11.5313 15.6906 11.5313 15.6907 11.5313C15.6908 11.5313 15.6909 11.5313 15.691 11.5313C15.6911 11.5313 15.6912 11.5313 15.6913 11.5313C15.6914 11.5313 15.6915 11.5313 15.6916 11.5313C15.6917 11.5313 15.6918 11.5313 15.6918 11.5313C15.6919 11.5313 15.692 11.5313 15.6921 11.5313C15.6922 11.5313 15.6923 11.5313 15.6924 11.5313C15.6925 11.5313 15.6926 11.5313 15.6927 11.5313C15.6928 11.5313 15.6929 11.5313 15.693 11.5313C15.6931 11.5313 15.6932 11.5313 15.6933 11.5313C15.6933 11.5313 15.6934 11.5313 15.6935 11.5313C15.6936 11.5313 15.6937 11.5313 15.6938 11.5313C15.6939 11.5313 15.694 11.5313 15.6941 11.5313C15.6942 11.5313 15.6943 11.5313 15.6944 11.5313C15.6945 11.5313 15.6946 11.5313 15.6947 11.5313C15.6948 11.5313 15.6948 11.5313 15.6949 11.5313C15.695 11.5313 15.6951 11.5313 15.6952 11.5313C15.6953 11.5313 15.6954 11.5313 15.6955 11.5313C15.6956 11.5313 15.6957 11.5313 15.6958 11.5313C15.6959 11.5313 15.696 11.5313 15.6961 11.5313C15.6962 11.5313 15.6962 11.5313 15.6963 11.5313C15.6964 11.5313 15.6965 11.5313 15.6966 11.5313C15.6967 11.5313 15.6968 11.5313 15.6969 11.5313C15.697 11.5313 15.6971 11.5313 15.6972 11.5313C15.6973 11.5313 15.6974 11.5313 15.6975 11.5313C15.6976 11.5313 15.6977 11.5313 15.6978 11.5313C15.6978 11.5313 15.6979 11.5313 15.698 11.5313C15.6981 11.5313 15.6982 11.5313 15.6983 11.5313C15.6984 11.5313 15.6985 11.5313 15.6986 11.5313C15.6987 11.5313 15.6988 11.5313 15.6989 11.5313C15.699 11.5313 15.6991 11.5313 15.6992 11.5313C15.6993 11.5313 15.6993 11.5313 15.6994 11.5313C15.6995 11.5313 15.6996 11.5313 15.6997 11.5313C15.6998 11.5313 15.6999 11.5313 15.7 11.5313C15.7001 11.5313 15.7002 11.5313 15.7003 11.5313C15.7004 11.5313 15.7005 11.5313 15.7006 11.5313C15.7007 11.5313 15.7007 11.5313 15.7008 11.5313C15.7009 11.5313 15.701 11.5313 15.7011 11.5313C15.7012 11.5313 15.7013 11.5313 15.7014 11.5313C15.7015 11.5313 15.7016 11.5313 15.7017 11.5313C15.7018 11.5313 15.7019 11.5313 15.702 11.5313C15.7021 11.5313 15.7022 11.5313 15.7023 11.5313C15.7023 11.5313 15.7024 11.5313 15.7025 11.5313C15.7026 11.5313 15.7027 11.5313 15.7028 11.5313C15.7029 11.5313 15.703 11.5313 15.7031 11.5313C15.7032 11.5313 15.7033 11.5313 15.7034 11.5313C15.7035 11.5313 15.7036 11.5313 15.7037 11.5313C15.7038 11.5313 15.7038 11.5313 15.7039 11.5313C15.704 11.5313 15.7041 11.5313 15.7042 11.5313C15.7043 11.5313 15.7044 11.5313 15.7045 11.5313C15.7046 11.5313 15.7047 11.5313 15.7048 11.5313C15.7049 11.5313 15.705 11.5313 15.7051 11.5313C15.7052 11.5313 15.7053 11.5313 15.7053 11.5313C15.7054 11.5313 15.7055 11.5313 15.7056 11.5313C15.7057 11.5313 15.7058 11.5313 15.7059 11.5313C15.706 11.5313 15.7061 11.5313 15.7062 11.5313C15.7063 11.5313 15.7064 11.5313 15.7065 11.5313C15.7066 11.5313 15.7067 11.5313 15.7067 11.5313C15.7068 11.5313 15.7069 11.5313 15.707 11.5313C15.7071 11.5313 15.7072 11.5313 15.7073 11.5313C15.7074 11.5313 15.7075 11.5313 15.7076 11.5313C15.7077 11.5313 15.7078 11.5313 15.7079 11.5313C15.708 11.5313 15.7081 11.5313 15.7082 11.5313C15.7083 11.5313 15.7083 11.5313 15.7084 11.5313C15.7085 11.5313 15.7086 11.5313 15.7087 11.5313C15.7088 11.5313 15.7089 11.5313 15.709 11.5313C15.7091 11.5313 15.7092 11.5313 15.7093 11.5313C15.7094 11.5313 15.7095 11.5313 15.7096 11.5313C15.7097 11.5313 15.7098 11.5313 15.7098 11.5313C15.7099 11.5313 15.71 11.5313 15.7101 11.5313C15.7102 11.5313 15.7103 11.5313 15.7104 11.5313C15.7105 11.5313 15.7106 11.5313 15.7107 11.5313C15.7108 11.5313 15.7109 11.5313 15.711 11.5313C15.7111 11.5313 15.7112 11.5313 15.7113 11.5313C15.7113 11.5313 15.7114 11.5313 15.7115 11.5313C15.7116 11.5313 15.7117 11.5313 15.7118 11.5313C15.7119 11.5313 15.712 11.5313 15.7121 11.5313C15.7122 11.5313 15.7123 11.5313 15.7124 11.5313C15.7125 11.5313 15.7126 11.5313 15.7127 11.5313C15.7127 11.5313 15.7128 11.5313 15.7129 11.5313C15.713 11.5313 15.7131 11.5313 15.7132 11.5313C15.7133 11.5313 15.7134 11.5313 15.7135 11.5313C15.7136 11.5313 15.7137 11.5313 15.7138 11.5313C15.7139 11.5313 15.714 11.5313 15.7141 11.5313C15.7142 11.5313 15.7143 11.5313 15.7143 11.5313C15.7144 11.5313 15.7145 11.5313 15.7146 11.5313C15.7147 11.5313 15.7148 11.5313 15.7149 11.5313C15.715 11.5313 15.7151 11.5313 15.7152 11.5313C15.7153 11.5313 15.7154 11.5313 15.7155 11.5313C15.7156 11.5313 15.7157 11.5313 15.7158 11.5313C15.7158 11.5313 15.7159 11.5313 15.716 11.5313C15.7161 11.5313 15.7162 11.5313 15.7163 11.5313C15.7164 11.5313 15.7165 11.5313 15.7166 11.5313C15.7167 11.5313 15.7168 11.5313 15.7169 11.5313C15.717 11.5313 15.7171 11.5313 15.7172 11.5313C15.7172 11.5313 15.7173 11.5313 15.7174 11.5313C15.7175 11.5313 15.7176 11.5313 15.7177 11.5313C15.7178 11.5313 15.7179 11.5313 15.718 11.5313C15.7181 11.5313 15.7182 11.5313 15.7183 11.5313C15.7184 11.5313 15.7185 11.5313 15.7186 11.5313C15.7187 11.5313 15.7188 11.5313 15.7188 11.5313C15.7189 11.5313 15.719 11.5313 15.7191 11.5313C15.7192 11.5313 15.7193 11.5313 15.7194 11.5313C15.7195 11.5313 15.7196 11.5313 15.7197 11.5313C15.7198 11.5313 15.7199 11.5313 15.72 11.5313C15.7201 11.5313 15.7202 11.5313 15.7203 11.5313C15.7203 11.5313 15.7204 11.5313 15.7205 11.5313C15.7206 11.5313 15.7207 11.5313 15.7208 11.5313C15.7209 11.5313 15.721 11.5313 15.7211 11.5313C15.7212 11.5313 15.7213 11.5313 15.7214 11.5313C15.7215 11.5313 15.7216 11.5313 15.7217 11.5313C15.7218 11.5313 15.7218 11.5313 15.7219 11.5313C15.722 11.5313 15.7221 11.5313 15.7222 11.5313C15.7223 11.5313 15.7224 11.5313 15.7225 11.5313C15.7226 11.5313 15.7227 11.5313 15.7228 11.5313C15.7229 11.5313 15.723 11.5313 15.7231 11.5313C15.7232 11.5313 15.7232 11.5313 15.7233 11.5313C15.7234 11.5313 15.7235 11.5313 15.7236 11.5313C15.7237 11.5313 15.7238 11.5313 15.7239 11.5313C15.724 11.5313 15.7241 11.5313 15.7242 11.5313C15.7243 11.5313 15.7244 11.5313 15.7245 11.5313C15.7246 11.5313 15.7247 11.5313 15.7248 11.5313C15.7248 11.5313 15.7249 11.5313 15.725 11.5313C15.7251 11.5313 15.7252 11.5313 15.7253 11.5313C15.7254 11.5313 15.7255 11.5313 15.7256 11.5313C15.7257 11.5313 15.7258 11.5313 15.7259 11.5313C15.726 11.5313 15.7261 11.5313 15.7262 11.5313C15.7263 11.5313 15.7263 11.5313 15.7264 11.5313C15.7265 11.5313 15.7266 11.5313 15.7267 11.5313C15.7268 11.5313 15.7269 11.5313 15.727 11.5313C15.7271 11.5313 15.7272 11.5313 15.7273 11.5313C15.7274 11.5313 15.7275 11.5313 15.7276 11.5313C15.7277 11.5313 15.7278 11.5313 15.7278 11.5313C15.7279 11.5313 15.728 11.5313 15.7281 11.5313C15.7282 11.5313 15.7283 11.5313 15.7284 11.5313C15.7285 11.5313 15.7286 11.5313 15.7287 11.5313C15.7288 11.5313 15.7289 11.5313 15.729 11.5313C15.7291 11.5313 15.7292 11.5313 15.7292 11.5313C15.7293 11.5313 15.7294 11.5313 15.7295 11.5313C15.7296 11.5313 15.7297 11.5313 15.7298 11.5313C15.7299 11.5313 15.73 11.5313 15.7301 11.5313C15.7302 11.5313 15.7303 11.5313 15.7304 11.5313C15.7305 11.5313 15.7306 11.5313 15.7307 11.5313C15.7308 11.5313 15.7308 11.5313 15.7309 11.5313C15.731 11.5313 15.7311 11.5313 15.7312 11.5313C15.7313 11.5313 15.7314 11.5313 15.7315 11.5313C15.7316 11.5313 15.7317 11.5313 15.7318 11.5313C15.7319 11.5313 15.732 11.5313 15.7321 11.5313C15.7322 11.5313 15.7323 11.5313 15.7323 11.5313C15.7324 11.5313 15.7325 11.5313 15.7326 11.5313C15.7327 11.5313 15.7328 11.5313 15.7329 11.5313C15.733 11.5313 15.7331 11.5313 15.7332 11.5313C15.7333 11.5313 15.7334 11.5313 15.7335 11.5313C15.7336 11.5313 15.7337 11.5313 15.7338 11.5313C15.7338 11.5313 15.7339 11.5313 15.734 11.5313C15.7341 11.5313 15.7342 11.5313 15.7343 11.5313C15.7344 11.5313 15.7345 11.5313 15.7346 11.5313C15.7347 11.5313 15.7348 11.5313 15.7349 11.5313C15.735 11.5313 15.7351 11.5313 15.7352 11.5313C15.7352 11.5313 15.7353 11.5313 15.7354 11.5313C15.7355 11.5313 15.7356 11.5313 15.7357 11.5313C15.7358 11.5313 15.7359 11.5313 15.736 11.5313C15.7361 11.5313 15.7362 11.5313 15.7363 11.5313C15.7364 11.5313 15.7365 11.5313 15.7366 11.5313C15.7367 11.5313 15.7368 11.5313 15.7368 11.5313C15.7369 11.5313 15.737 11.5313 15.7371 11.5313C15.7372 11.5313 15.7373 11.5313 15.7374 11.5313C15.7375 11.5313 15.7376 11.5313 15.7377 11.5313C15.7378 11.5313 15.7379 11.5313 15.738 11.5313C15.7381 11.5313 15.7382 11.5313 15.7383 11.5313C15.7383 11.5313 15.7384 11.5313 15.7385 11.5313C15.7386 11.5313 15.7387 11.5313 15.7388 11.5313C15.7389 11.5313 15.739 11.5313 15.7391 11.5313C15.7392 11.5313 15.7393 11.5313 15.7394 11.5313C15.7395 11.5313 15.7396 11.5313 15.7397 11.5313C15.7397 11.5313 15.7398 11.5313 15.7399 11.5313C15.74 11.5313 15.7401 11.5313 15.7402 11.5313C15.7403 11.5313 15.7404 11.5313 15.7405 11.5313C15.7406 11.5313 15.7407 11.5313 15.7408 11.5313C15.7409 11.5313 15.741 11.5313 15.7411 11.5313C15.7412 11.5313 15.7413 11.5313 15.7413 11.5313C15.7414 11.5313 15.7415 11.5313 15.7416 11.5313C15.7417 11.5313 15.7418 11.5313 15.7419 11.5313C15.742 11.5313 15.7421 11.5313 15.7422 11.5313C15.7423 11.5313 15.7424 11.5313 15.7425 11.5313C15.7426 11.5313 15.7427 11.5313 15.7428 11.5313C15.7428 11.5313 15.7429 11.5313 15.743 11.5313C15.7431 11.5313 15.7432 11.5313 15.7433 11.5313C15.7434 11.5313 15.7435 11.5313 15.7436 11.5313C15.7437 11.5313 15.7438 11.5313 15.7439 11.5313C15.744 11.5313 15.7441 11.5313 15.7442 11.5313C15.7443 11.5313 15.7443 11.5313 15.7444 11.5313C15.7445 11.5313 15.7446 11.5313 15.7447 11.5313C15.7448 11.5313 15.7449 11.5313 15.745 11.5313C15.7451 11.5313 15.7452 11.5313 15.7453 11.5313C15.7454 11.5313 15.7455 11.5313 15.7456 11.5313C15.7457 11.5313 15.7457 11.5313 15.7458 11.5313C15.7459 11.5313 15.746 11.5313 15.7461 11.5313C15.7462 11.5313 15.7463 11.5313 15.7464 11.5313C15.7465 11.5313 15.7466 11.5313 15.7467 11.5313C15.7468 11.5313 15.7469 11.5313 15.747 11.5313C15.7471 11.5313 15.7472 11.5313 15.7473 11.5313C15.7473 11.5313 15.7474 11.5313 15.7475 11.5313C15.7476 11.5313 15.7477 11.5313 15.7478 11.5313C15.7479 11.5313 15.748 11.5313 15.7481 11.5313C15.7482 11.5313 15.7483 11.5313 15.7484 11.5313C15.7485 11.5313 15.7486 11.5313 15.7487 11.5313C15.7488 11.5313 15.7488 11.5313 15.7489 11.5313C15.749 11.5313 15.7491 11.5313 15.7492 11.5313C15.7493 11.5313 15.7494 11.5313 15.7495 11.5313C15.7496 11.5313 15.7497 11.5313 15.7498 11.5313C15.7499 11.5313 15.75 11.5313 15.7501 11.5313C15.7502 11.5313 15.7503 11.5313 15.7503 11.5313C15.7504 11.5313 15.7505 11.5313 15.7506 11.5313C15.7507 11.5313 15.7508 11.5313 15.7509 11.5313C15.751 11.5313 15.7511 11.5313 15.7512 11.5313C15.7513 11.5313 15.7514 11.5313 15.7515 11.5313C15.7516 11.5313 15.7517 11.5313 15.7517 11.5313C15.7518 11.5313 15.7519 11.5313 15.752 11.5313C15.7521 11.5313 15.7522 11.5313 15.7523 11.5313C15.7524 11.5313 15.7525 11.5313 15.7526 11.5313C15.7527 11.5313 15.7528 11.5313 15.7529 11.5313C15.753 11.5313 15.7531 11.5313 15.7532 11.5313C15.7533 11.5313 15.7533 11.5313 15.7534 11.5313C15.7535 11.5313 15.7536 11.5313 15.7537 11.5313C15.7538 11.5313 15.7539 11.5313 15.754 11.5313C15.7541 11.5313 15.7542 11.5313 15.7543 11.5313C15.7544 11.5313 15.7545 11.5313 15.7546 11.5313C15.7547 11.5313 15.7548 11.5313 15.7548 11.5313C15.7549 11.5313 15.755 11.5313 15.7551 11.5313C15.7552 11.5313 15.7553 11.5313 15.7554 11.5313C15.7555 11.5313 15.7556 11.5313 15.7557 11.5313C15.7558 11.5313 15.7559 11.5313 15.756 11.5313C15.7561 11.5313 15.7562 11.5313 15.7562 11.5313C15.7563 11.5313 15.7564 11.5313 15.7565 11.5313C15.7566 11.5313 15.7567 11.5313 15.7568 11.5313C15.7569 11.5313 15.757 11.5313 15.7571 11.5313C15.7572 11.5313 15.7573 11.5313 15.7574 11.5313C15.7575 11.5313 15.7576 11.5313 15.7577 11.5313C15.7578 11.5313 15.7578 11.5313 15.7579 11.5313C15.758 11.5313 15.7581 11.5313 15.7582 11.5313C15.7583 11.5313 15.7584 11.5313 15.7585 11.5313C15.7586 11.5313 15.7587 11.5313 15.7588 11.5313C15.7589 11.5313 15.759 11.5313 15.7591 11.5313C15.7592 11.5313 15.7593 11.5313 15.7593 11.5313C15.7594 11.5313 15.7595 11.5313 15.7596 11.5313C15.7597 11.5313 15.7598 11.5313 15.7599 11.5313C15.76 11.5313 15.7601 11.5313 15.7602 11.5313C15.7603 11.5313 15.7604 11.5313 15.7605 11.5313C15.7606 11.5313 15.7607 11.5313 15.7608 11.5313C15.7608 11.5313 15.7609 11.5313 15.761 11.5313C15.7611 11.5313 15.7612 11.5313 15.7613 11.5313C15.7614 11.5313 15.7615 11.5313 15.7616 11.5313C15.7617 11.5313 15.7618 11.5313 15.7619 11.5313C15.762 11.5313 15.7621 11.5313 15.7622 11.5313C15.7622 11.5313 15.7623 11.5313 15.7624 11.5313C15.7625 11.5313 15.7626 11.5313 15.7627 11.5313C15.7628 11.5313 15.7629 11.5313 15.763 11.5313C15.7631 11.5313 15.7632 11.5313 15.7633 11.5313C15.7634 11.5313 15.7635 11.5313 15.7636 11.5313C15.7637 11.5313 15.7638 11.5313 15.7638 11.5313C15.7639 11.5313 15.764 11.5313 15.7641 11.5313C15.7642 11.5313 15.7643 11.5313 15.7644 11.5313C15.7645 11.5313 15.7646 11.5313 15.7647 11.5313C15.7648 11.5313 15.7649 11.5313 15.765 11.5313C15.7651 11.5313 15.7652 11.5313 15.7653 11.5313C15.7653 11.5313 15.7654 11.5313 15.7655 11.5313C15.7656 11.5313 15.7657 11.5313 15.7658 11.5313C15.7659 11.5313 15.766 11.5313 15.7661 11.5313C15.7662 11.5313 15.7663 11.5313 15.7664 11.5313C15.7665 11.5313 15.7666 11.5313 15.7667 11.5313C15.7668 11.5313 15.7668 11.5313 15.7669 11.5313C15.767 11.5313 15.7671 11.5313 15.7672 11.5313C15.7673 11.5313 15.7674 11.5313 15.7675 11.5313C15.7676 11.5313 15.7677 11.5313 15.7678 11.5313C15.7679 11.5313 15.768 11.5313 15.7681 11.5313C15.7682 11.5313 15.7682 11.5313 15.7683 11.5313C15.7684 11.5313 15.7685 11.5313 15.7686 11.5313C15.7687 11.5313 15.7688 11.5313 15.7689 11.5313C15.769 11.5313 15.7691 11.5313 15.7692 11.5313C15.7693 11.5313 15.7694 11.5313 15.7695 11.5313C15.7696 11.5313 15.7697 11.5313 15.7698 11.5313C15.7698 11.5313 15.7699 11.5313 15.77 11.5313C15.7701 11.5313 15.7702 11.5313 15.7703 11.5313C15.7704 11.5313 15.7705 11.5313 15.7706 11.5313C15.7707 11.5313 15.7708 11.5313 15.7709 11.5313C15.771 11.5313 15.7711 11.5313 15.7712 11.5313C15.7713 11.5313 15.7713 11.5313 15.7714 11.5313C15.7715 11.5313 15.7716 11.5313 15.7717 11.5313C15.7718 11.5313 15.7719 11.5313 15.772 11.5313C15.7721 11.5313 15.7722 11.5313 15.7723 11.5313C15.7724 11.5313 15.7725 11.5313 15.7726 11.5313C15.7727 11.5313 15.7727 11.5313 15.7728 11.5313C15.7729 11.5313 15.773 11.5313 15.7731 11.5313C15.7732 11.5313 15.7733 11.5313 15.7734 11.5313C15.7735 11.5313 15.7736 11.5313 15.7737 11.5313C15.7738 11.5313 15.7739 11.5313 15.774 11.5313C15.7741 11.5313 15.7742 11.5313 15.7743 11.5313C15.7743 11.5313 15.7744 11.5313 15.7745 11.5313C15.7746 11.5313 15.7747 11.5313 15.7748 11.5313C15.7749 11.5313 15.775 11.5313 15.7751 11.5313C15.7752 11.5313 15.7753 11.5313 15.7754 11.5313C15.7755 11.5313 15.7756 11.5313 15.7757 11.5313C15.7758 11.5313 15.7758 11.5313 15.7759 11.5313C15.776 11.5313 15.7761 11.5313 15.7762 11.5313C15.7763 11.5313 15.7764 11.5313 15.7765 11.5313C15.7766 11.5313 15.7767 11.5313 15.7768 11.5313C15.7769 11.5313 15.777 11.5313 15.7771 11.5313C15.7772 11.5313 15.7773 11.5313 15.7773 11.5313C15.7774 11.5313 15.7775 11.5313 15.7776 11.5313C15.7777 11.5313 15.7778 11.5313 15.7779 11.5313C15.778 11.5313 15.7781 11.5313 15.7782 11.5313C15.7783 11.5313 15.7784 11.5313 15.7785 11.5313C15.7786 11.5313 15.7787 11.5313 15.7787 11.5313C15.7788 11.5313 15.7789 11.5313 15.779 11.5313C15.7791 11.5313 15.7792 11.5313 15.7793 11.5313C15.7794 11.5313 15.7795 11.5313 15.7796 11.5313C15.7797 11.5313 15.7798 11.5313 15.7799 11.5313C15.78 11.5313 15.7801 11.5313 15.7802 11.5313C15.7803 11.5313 15.7803 11.5313 15.7804 11.5313C15.7805 11.5313 15.7806 11.5313 15.7807 11.5313V11.0313ZM15.6367 11.0313V10.5313C15.5635 10.5313 15.4892 10.5379 15.416 10.5483L15.4867 11.0433L15.5574 11.5383C15.5963 11.5327 15.6219 11.5313 15.6367 11.5313V11.0313ZM20.9735 12.6273L20.8413 12.1451L20.4735 12.2459V12.6273H20.9735ZM20.9735 12.6513H20.4735V13.0765L20.8932 13.1448L20.9735 12.6513ZM21.4655 12.8073L21.2465 13.2568L21.251 13.2589L21.4655 12.8073ZM21.8615 13.1313L21.4601 13.4295L21.4644 13.435L21.8615 13.1313ZM21.6335 14.4513L21.3417 14.0453L21.3387 14.0475L21.6335 14.4513ZM18.7355 14.7273H18.2355V15.2273H18.7355V14.7273ZM18.7355 14.5473V14.0473H18.2355V14.5473H18.7355ZM19.1015 14.5053L18.9434 14.0309L18.9364 14.0334L19.1015 14.5053ZM19.2695 14.3373L18.8023 14.1593L18.7985 14.1692L18.7952 14.1792L19.2695 14.3373ZM19.2695 11.1573L18.7976 11.3225L18.8027 11.3371L18.8087 11.3513L19.2695 11.1573ZM19.1015 11.0013L18.9578 11.4802L18.9642 11.4821L19.1015 11.0013ZM18.7355 10.9653H18.2355V11.4653H18.7355V10.9653ZM18.7355 10.7853V10.2853H18.2355V10.7853H18.7355ZM21.4895 11.0313L21.1907 11.4322L21.1942 11.4347L21.4895 11.0313ZM21.5855 12.3273L21.9038 12.713L21.9094 12.7083L21.5855 12.3273ZM19.8695 12.8073V12.3073H19.3695V12.8073H19.8695ZM19.8695 14.4873H19.3695V14.9474L19.828 14.9856L19.8695 14.4873ZM20.6855 14.4813L20.7475 14.9774L20.6855 14.4813ZM21.0335 14.3793L21.2572 14.8266L21.2637 14.8232L21.0335 14.3793ZM21.2915 14.1333L21.7217 14.3882L21.7257 14.3814L21.2915 14.1333ZM21.2255 13.1493L20.8375 13.4646L20.8429 13.4712L20.8485 13.4777L21.2255 13.1493ZM20.8175 12.8853L20.6664 13.3619L20.6733 13.3641L20.6802 13.3661L20.8175 12.8853ZM19.8695 12.5553H19.3695V13.0553H19.8695V12.5553ZM21.0275 12.3693L21.3645 12.7388L21.3702 12.7334L21.0275 12.3693ZM21.0035 11.2173L20.6707 11.5905L20.6757 11.5948L21.0035 11.2173ZM19.8695 11.0373L19.8198 10.5398L19.3695 10.5848V11.0373H19.8695ZM20.9735 12.6273H20.4735V12.6513H20.9735H21.4735V12.6273H20.9735ZM20.9735 12.6513L20.8932 13.1448C21.0173 13.165 21.1346 13.2022 21.2465 13.2568L21.4655 12.8073L21.6845 12.3578C21.4845 12.2604 21.2738 12.1936 21.0539 12.1578L20.9735 12.6513ZM21.4655 12.8073L21.251 13.2589C21.3383 13.3004 21.4057 13.3562 21.4602 13.4295L21.8615 13.1313L22.2629 12.8331C22.1093 12.6264 21.9128 12.4662 21.6801 12.3557L21.4655 12.8073ZM21.8615 13.1313L21.4644 13.435C21.4848 13.4617 21.5175 13.5235 21.5175 13.6653H22.0175H22.5175C22.5175 13.3671 22.4463 13.0729 22.2587 12.8276L21.8615 13.1313ZM22.0175 13.6653H21.5175C21.5175 13.8591 21.4555 13.9635 21.3417 14.0453L21.6335 14.4513L21.9254 14.8573C22.3236 14.5711 22.5175 14.1515 22.5175 13.6653H22.0175ZM21.6335 14.4513L21.3387 14.0475C21.2023 14.147 20.97 14.2273 20.5835 14.2273V14.7273V15.2273C21.093 15.2273 21.5607 15.1236 21.9284 14.8551L21.6335 14.4513ZM20.5835 14.7273V14.2273H18.7355V14.7273V15.2273H20.5835V14.7273ZM18.7355 14.7273H19.2355V14.5473H18.7355H18.2355V14.7273H18.7355ZM18.7355 14.5473V15.0473C18.9134 15.0473 19.1046 15.034 19.2667 14.9772L19.1015 14.5053L18.9364 14.0334C18.9432 14.031 18.932 14.0356 18.893 14.0401C18.856 14.0443 18.8044 14.0473 18.7355 14.0473V14.5473ZM19.1015 14.5053L19.2596 14.9796C19.4929 14.9019 19.6661 14.7287 19.7439 14.4954L19.2695 14.3373L18.7952 14.1792C18.8028 14.1563 18.8199 14.1218 18.853 14.0887C18.8861 14.0557 18.9206 14.0386 18.9434 14.031L19.1015 14.5053ZM19.2695 14.3373L19.7368 14.5153C19.8015 14.3454 19.8175 14.1485 19.8175 13.9653H19.3175H18.8175C18.8175 14.0321 18.8142 14.0819 18.8096 14.1173C18.8049 14.1542 18.8 14.1652 18.8023 14.1593L19.2695 14.3373ZM19.3175 13.9653H19.8175V11.5113H19.3175H18.8175V13.9653H19.3175ZM19.3175 11.5113H19.8175C19.8175 11.3355 19.8025 11.1346 19.7303 10.9633L19.2695 11.1573L18.8087 11.3513C18.8019 11.3352 18.8056 11.3371 18.8101 11.37C18.8142 11.4006 18.8175 11.4467 18.8175 11.5113H19.3175ZM19.2695 11.1573L19.7415 10.9921C19.6579 10.7533 19.4734 10.5875 19.2389 10.5205L19.1015 11.0013L18.9642 11.4821C18.9414 11.4755 18.9037 11.4595 18.8663 11.4247C18.8284 11.3895 18.8075 11.3507 18.7976 11.3225L19.2695 11.1573ZM19.1015 11.0013L19.2452 10.5224C19.0928 10.4767 18.9109 10.4653 18.7355 10.4653V10.9653V11.4653C18.8063 11.4653 18.8607 11.4679 18.9011 11.4719C18.9434 11.4761 18.9594 11.4807 18.9579 11.4802L19.1015 11.0013ZM18.7355 10.9653H19.2355V10.7853H18.7355H18.2355V10.9653H18.7355ZM18.7355 10.7853V11.2853H20.3555V10.7853V10.2853H18.7355V10.7853ZM20.3555 10.7853V11.2853C20.8707 11.2853 21.1073 11.37 21.1907 11.4322L21.4895 11.0313L21.7884 10.6304C21.4317 10.3646 20.9124 10.2853 20.3555 10.2853V10.7853ZM21.4895 11.0313L21.1942 11.4347C21.2799 11.4975 21.3255 11.5724 21.3255 11.7213H21.8255H22.3255C22.3255 11.2782 22.1472 10.8931 21.7849 10.6279L21.4895 11.0313ZM21.8255 11.7213H21.3255C21.3255 11.8863 21.2805 11.9304 21.2617 11.9463L21.5855 12.3273L21.9094 12.7083C22.2106 12.4522 22.3255 12.0923 22.3255 11.7213H21.8255ZM21.5855 12.3273L21.2673 11.9416C21.1732 12.0192 21.0371 12.0914 20.8413 12.1451L20.9735 12.6273L21.1057 13.1095C21.406 13.0272 21.6778 12.8993 21.9037 12.713L21.5855 12.3273ZM19.8695 12.8073H19.3695V14.4873H19.8695H20.3695V12.8073H19.8695ZM19.8695 14.4873L19.828 14.9856C19.9858 14.9987 20.1436 15.0053 20.3015 15.0053V14.5053V14.0053C20.1714 14.0053 20.0413 13.9999 19.9111 13.989L19.8695 14.4873ZM20.3015 14.5053V15.0053C20.4504 15.0053 20.5991 14.996 20.7475 14.9774L20.6855 14.4813L20.6235 13.9852C20.5159 13.9986 20.4086 14.0053 20.3015 14.0053V14.5053ZM20.6855 14.4813L20.7475 14.9774C20.9257 14.9552 21.0972 14.9065 21.2571 14.8265L21.0335 14.3793L20.8099 13.9321C20.7619 13.9561 20.7014 13.9754 20.6235 13.9852L20.6855 14.4813ZM21.0335 14.3793L21.2637 14.8232C21.4575 14.7227 21.6116 14.5739 21.7217 14.3882L21.2915 14.1333L20.8614 13.8784C20.8435 13.9086 20.8256 13.9239 20.8034 13.9354L21.0335 14.3793ZM21.2915 14.1333L21.7257 14.3814C21.8489 14.1657 21.8875 13.9169 21.8875 13.6773H21.3875H20.8875C20.8875 13.8217 20.8622 13.8769 20.8574 13.8852L21.2915 14.1333ZM21.3875 13.6773H21.8875C21.8875 13.3752 21.8159 13.0658 21.6026 12.8209L21.2255 13.1493L20.8485 13.4777C20.8512 13.4808 20.8875 13.5234 20.8875 13.6773H21.3875ZM21.2255 13.1493L21.6136 12.834C21.441 12.6216 21.2152 12.4789 20.9549 12.4045L20.8175 12.8853L20.6802 13.3661C20.7558 13.3877 20.8021 13.421 20.8375 13.4646L21.2255 13.1493ZM20.8175 12.8853L20.9687 12.4087C20.7515 12.3398 20.5241 12.3073 20.2895 12.3073V12.8073V13.3073C20.431 13.3073 20.5556 13.3268 20.6664 13.3619L20.8175 12.8853ZM20.2895 12.8073V12.3073H19.8695V12.8073V13.3073H20.2895V12.8073ZM19.8695 12.5553V13.0553H20.2775V12.5553V12.0553H19.8695V12.5553ZM20.2775 12.5553V13.0553C20.6612 13.0553 21.0805 12.9976 21.3644 12.7388L21.0275 12.3693L20.6907 11.9998C20.7037 11.9879 20.6925 12.0049 20.6177 12.0235C20.5445 12.0416 20.4342 12.0553 20.2775 12.0553V12.5553ZM21.0275 12.3693L21.3702 12.7334C21.645 12.4748 21.7315 12.1157 21.7315 11.7693H21.2315H20.7315C20.7315 11.8655 20.7193 11.9266 20.7071 11.9623C20.696 11.9952 20.6859 12.0042 20.6848 12.0052L21.0275 12.3693ZM21.2315 11.7693H21.7315C21.7315 11.416 21.6119 11.0834 21.3314 10.8398L21.0035 11.2173L20.6757 11.5948C20.6991 11.6152 20.7315 11.6506 20.7315 11.7693H21.2315ZM21.0035 11.2173L21.3363 10.8441C21.0453 10.5846 20.6272 10.5193 20.2295 10.5193V11.0193V11.5193C20.3864 11.5193 20.4987 11.5336 20.5751 11.5532C20.652 11.5729 20.6734 11.5928 20.6707 11.5904L21.0035 11.2173ZM20.2295 11.0193V10.5193C20.0928 10.5193 19.9562 10.5261 19.8198 10.5398L19.8695 11.0373L19.9193 11.5348C20.0228 11.5245 20.1262 11.5193 20.2295 11.5193V11.0193ZM19.8695 11.0373H19.3695V12.5553H19.8695H20.3695V11.0373H19.8695Z" fill="white" mask="url(#path-3-inside-1_2033_96)"/>
</svg>
