<svg width="49" height="49" viewBox="0 0 49 49" fill="none" xmlns="http://www.w3.org/2000/svg">
<rect x="1" y="1" width="47" height="47" rx="13" stroke="#01BD88" stroke-width="2"/>
<mask id="path-2-outside-1_2014_7433" maskUnits="userSpaceOnUse" x="7" y="15" width="34" height="15" fill="black">
<rect fill="white" x="7" y="15" width="34" height="15"/>
<path d="M18.8992 26.169L19.3552 26.568C18.8485 27.3407 18.1835 27.974 17.3602 28.468C16.5368 28.962 15.5045 29.209 14.2632 29.209C12.9585 29.209 11.8628 28.9303 10.9762 28.373C10.0895 27.8157 9.41817 27.0493 8.96217 26.074C8.51883 25.0987 8.29717 23.9967 8.29717 22.768C8.29717 21.3873 8.56317 20.2157 9.09517 19.253C9.62717 18.2903 10.3618 17.5557 11.2992 17.049C12.2365 16.5423 13.3132 16.289 14.5292 16.289C15.2005 16.289 15.7388 16.346 16.1442 16.46C16.5495 16.574 16.8725 16.688 17.1132 16.802C17.3538 16.916 17.5502 16.973 17.7022 16.973C17.8542 16.973 17.9682 16.9097 18.0442 16.783C18.1328 16.6437 18.2342 16.479 18.3482 16.289H18.9182V20.64H18.2722C18.0695 19.3987 17.6388 18.4993 16.9802 17.942C16.3342 17.3847 15.5235 17.106 14.5482 17.106C13.1802 17.106 12.1225 17.5937 11.3752 18.569C10.6405 19.5443 10.2732 20.8807 10.2732 22.578C10.2732 23.8447 10.4632 24.877 10.8432 25.675C11.2358 26.473 11.7742 27.062 12.4582 27.442C13.1422 27.822 13.9275 28.012 14.8142 28.012C15.6882 28.012 16.4545 27.8537 17.1132 27.537C17.7718 27.2077 18.3672 26.7517 18.8992 26.169ZM24.9777 19.785C26.2824 19.785 27.3084 20.1903 28.0557 21.001C28.8157 21.8117 29.1957 22.92 29.1957 24.326C29.1957 25.39 29.012 26.283 28.6447 27.005C28.29 27.727 27.796 28.2717 27.1627 28.639C26.5294 29.0063 25.801 29.19 24.9777 29.19C23.6477 29.19 22.6027 28.7783 21.8427 27.955C21.0954 27.119 20.7217 25.9347 20.7217 24.402C20.7217 23.4773 20.899 22.673 21.2537 21.989C21.6084 21.2923 22.1024 20.754 22.7357 20.374C23.3817 19.9813 24.129 19.785 24.9777 19.785ZM24.9017 20.507C24.1797 20.507 23.597 20.811 23.1537 21.419C22.7104 22.027 22.4887 22.939 22.4887 24.155C22.4887 25.6623 22.7104 26.758 23.1537 27.442C23.6097 28.1133 24.243 28.4427 25.0537 28.43C25.573 28.43 26.01 28.3097 26.3647 28.069C26.7194 27.8283 26.9854 27.4167 27.1627 26.834C27.3527 26.2513 27.4477 25.447 27.4477 24.421C27.4477 23.2557 27.2324 22.312 26.8017 21.59C26.3837 20.868 25.7504 20.507 24.9017 20.507ZM30.7474 16.517H35.4784C36.0864 16.517 36.6691 16.5677 37.2264 16.669C37.7964 16.7577 38.2968 16.916 38.7274 17.144C39.1708 17.372 39.5191 17.695 39.7724 18.113C40.0384 18.5183 40.1714 19.0377 40.1714 19.671C40.1714 20.4057 40.0321 21.0263 39.7534 21.533C39.4748 22.027 39.0948 22.426 38.6134 22.73C38.1448 23.034 37.6128 23.2493 37.0174 23.376C36.4221 23.5027 35.8141 23.566 35.1934 23.566C35.0034 23.566 34.8008 23.5533 34.5854 23.528C34.3701 23.5027 34.2118 23.4647 34.1104 23.414V26.663C34.1104 27.1823 34.1611 27.5687 34.2624 27.822C34.3764 28.0753 34.5728 28.24 34.8514 28.316C35.1301 28.392 35.5228 28.43 36.0294 28.43V29H30.6714V28.43C31.1654 28.43 31.5328 28.3857 31.7734 28.297C32.0141 28.2083 32.1724 28.0373 32.2484 27.784C32.3244 27.518 32.3624 27.119 32.3624 26.587V18.417C32.3624 17.8597 32.2421 17.4987 32.0014 17.334C31.7734 17.1693 31.3554 17.087 30.7474 17.087V16.517ZM34.1104 17.334V22.711C34.2118 22.7237 34.3574 22.7427 34.5474 22.768C34.7501 22.7807 34.9464 22.787 35.1364 22.787C36.1624 22.787 36.9414 22.5907 37.4734 22.198C38.0181 21.7927 38.2904 21.039 38.2904 19.937C38.2904 19.0757 38.0371 18.417 37.5304 17.961C37.0364 17.4923 36.2764 17.258 35.2504 17.258C35.0604 17.258 34.8704 17.2643 34.6804 17.277C34.5031 17.2897 34.3131 17.3087 34.1104 17.334Z"/>
</mask>
<path d="M18.8992 26.169L19.3552 26.568C18.8485 27.3407 18.1835 27.974 17.3602 28.468C16.5368 28.962 15.5045 29.209 14.2632 29.209C12.9585 29.209 11.8628 28.9303 10.9762 28.373C10.0895 27.8157 9.41817 27.0493 8.96217 26.074C8.51883 25.0987 8.29717 23.9967 8.29717 22.768C8.29717 21.3873 8.56317 20.2157 9.09517 19.253C9.62717 18.2903 10.3618 17.5557 11.2992 17.049C12.2365 16.5423 13.3132 16.289 14.5292 16.289C15.2005 16.289 15.7388 16.346 16.1442 16.46C16.5495 16.574 16.8725 16.688 17.1132 16.802C17.3538 16.916 17.5502 16.973 17.7022 16.973C17.8542 16.973 17.9682 16.9097 18.0442 16.783C18.1328 16.6437 18.2342 16.479 18.3482 16.289H18.9182V20.64H18.2722C18.0695 19.3987 17.6388 18.4993 16.9802 17.942C16.3342 17.3847 15.5235 17.106 14.5482 17.106C13.1802 17.106 12.1225 17.5937 11.3752 18.569C10.6405 19.5443 10.2732 20.8807 10.2732 22.578C10.2732 23.8447 10.4632 24.877 10.8432 25.675C11.2358 26.473 11.7742 27.062 12.4582 27.442C13.1422 27.822 13.9275 28.012 14.8142 28.012C15.6882 28.012 16.4545 27.8537 17.1132 27.537C17.7718 27.2077 18.3672 26.7517 18.8992 26.169ZM24.9777 19.785C26.2824 19.785 27.3084 20.1903 28.0557 21.001C28.8157 21.8117 29.1957 22.92 29.1957 24.326C29.1957 25.39 29.012 26.283 28.6447 27.005C28.29 27.727 27.796 28.2717 27.1627 28.639C26.5294 29.0063 25.801 29.19 24.9777 29.19C23.6477 29.19 22.6027 28.7783 21.8427 27.955C21.0954 27.119 20.7217 25.9347 20.7217 24.402C20.7217 23.4773 20.899 22.673 21.2537 21.989C21.6084 21.2923 22.1024 20.754 22.7357 20.374C23.3817 19.9813 24.129 19.785 24.9777 19.785ZM24.9017 20.507C24.1797 20.507 23.597 20.811 23.1537 21.419C22.7104 22.027 22.4887 22.939 22.4887 24.155C22.4887 25.6623 22.7104 26.758 23.1537 27.442C23.6097 28.1133 24.243 28.4427 25.0537 28.43C25.573 28.43 26.01 28.3097 26.3647 28.069C26.7194 27.8283 26.9854 27.4167 27.1627 26.834C27.3527 26.2513 27.4477 25.447 27.4477 24.421C27.4477 23.2557 27.2324 22.312 26.8017 21.59C26.3837 20.868 25.7504 20.507 24.9017 20.507ZM30.7474 16.517H35.4784C36.0864 16.517 36.6691 16.5677 37.2264 16.669C37.7964 16.7577 38.2968 16.916 38.7274 17.144C39.1708 17.372 39.5191 17.695 39.7724 18.113C40.0384 18.5183 40.1714 19.0377 40.1714 19.671C40.1714 20.4057 40.0321 21.0263 39.7534 21.533C39.4748 22.027 39.0948 22.426 38.6134 22.73C38.1448 23.034 37.6128 23.2493 37.0174 23.376C36.4221 23.5027 35.8141 23.566 35.1934 23.566C35.0034 23.566 34.8008 23.5533 34.5854 23.528C34.3701 23.5027 34.2118 23.4647 34.1104 23.414V26.663C34.1104 27.1823 34.1611 27.5687 34.2624 27.822C34.3764 28.0753 34.5728 28.24 34.8514 28.316C35.1301 28.392 35.5228 28.43 36.0294 28.43V29H30.6714V28.43C31.1654 28.43 31.5328 28.3857 31.7734 28.297C32.0141 28.2083 32.1724 28.0373 32.2484 27.784C32.3244 27.518 32.3624 27.119 32.3624 26.587V18.417C32.3624 17.8597 32.2421 17.4987 32.0014 17.334C31.7734 17.1693 31.3554 17.087 30.7474 17.087V16.517ZM34.1104 17.334V22.711C34.2118 22.7237 34.3574 22.7427 34.5474 22.768C34.7501 22.7807 34.9464 22.787 35.1364 22.787C36.1624 22.787 36.9414 22.5907 37.4734 22.198C38.0181 21.7927 38.2904 21.039 38.2904 19.937C38.2904 19.0757 38.0371 18.417 37.5304 17.961C37.0364 17.4923 36.2764 17.258 35.2504 17.258C35.0604 17.258 34.8704 17.2643 34.6804 17.277C34.5031 17.2897 34.3131 17.3087 34.1104 17.334Z" fill="#01BD88"/>
<path d="M18.8992 26.169L19.2284 25.7927L18.86 25.4703L18.5299 25.8319L18.8992 26.169ZM19.3552 26.568L19.7733 26.8422L20.0119 26.4783L19.6844 26.1917L19.3552 26.568ZM17.3602 28.468L17.1029 28.0393L17.3602 28.468ZM10.9762 28.373L11.2423 27.9497L10.9762 28.373ZM8.96217 26.074L8.50696 26.2809L8.50923 26.2858L8.96217 26.074ZM9.09517 19.253L9.53279 19.4948L9.09517 19.253ZM11.2992 17.049L11.5369 17.4889V17.4889L11.2992 17.049ZM17.1132 16.802L16.8991 17.2539L16.8991 17.2539L17.1132 16.802ZM18.0442 16.783L17.6222 16.5145L17.6154 16.5258L18.0442 16.783ZM18.3482 16.289V15.789H18.0651L17.9194 16.0318L18.3482 16.289ZM18.9182 16.289H19.4182V15.789H18.9182V16.289ZM18.9182 20.64V21.14H19.4182V20.64H18.9182ZM18.2722 20.64L17.7787 20.7206L17.8472 21.14H18.2722V20.64ZM16.9802 17.942L16.6535 18.3206L16.6572 18.3237L16.9802 17.942ZM11.3752 18.569L10.9783 18.2649L10.9758 18.2682L11.3752 18.569ZM10.8432 25.675L10.3917 25.89L10.3945 25.8958L10.8432 25.675ZM12.4582 27.442L12.701 27.0049L12.4582 27.442ZM17.1132 27.537L17.3298 27.9877L17.3368 27.9842L17.1132 27.537ZM18.8992 26.169L18.5699 26.5453L19.0259 26.9443L19.3552 26.568L19.6844 26.1917L19.2284 25.7927L18.8992 26.169ZM19.3552 26.568L18.937 26.2938C18.4733 27.001 17.8643 27.5824 17.1029 28.0393L17.3602 28.468L17.6174 28.8967C18.5027 28.3656 19.2237 27.6803 19.7733 26.8422L19.3552 26.568ZM17.3602 28.468L17.1029 28.0393C16.3769 28.4748 15.4399 28.709 14.2632 28.709V29.209V29.709C15.5691 29.709 16.6967 29.4492 17.6174 28.8967L17.3602 28.468ZM14.2632 29.209V28.709C13.0296 28.709 12.0317 28.4459 11.2423 27.9497L10.9762 28.373L10.7101 28.7963C11.694 29.4148 12.8874 29.709 14.2632 29.709V29.209ZM10.9762 28.373L11.2423 27.9497C10.4393 27.445 9.83164 26.7531 9.41511 25.8622L8.96217 26.074L8.50923 26.2858C9.0047 27.3455 9.73973 28.1864 10.7101 28.7963L10.9762 28.373ZM8.96217 26.074L9.41735 25.8671C9.00759 24.9656 8.79717 23.9357 8.79717 22.768H8.29717H7.79717C7.79717 24.0576 8.03008 25.2317 8.50698 26.2809L8.96217 26.074ZM8.29717 22.768H8.79717C8.79717 21.4507 9.05087 20.3669 9.53279 19.4948L9.09517 19.253L8.65755 19.0112C8.07546 20.0645 7.79717 21.324 7.79717 22.768H8.29717ZM9.09517 19.253L9.53279 19.4948C10.0201 18.6131 10.6866 17.9485 11.5369 17.4889L11.2992 17.049L11.0614 16.6091C10.0371 17.1629 9.23427 17.9676 8.65755 19.0112L9.09517 19.253ZM11.2992 17.049L11.5369 17.4889C12.3915 17.0269 13.3843 16.789 14.5292 16.789V16.289V15.789C13.242 15.789 12.0815 16.0577 11.0614 16.6091L11.2992 17.049ZM14.5292 16.289V16.789C15.1784 16.789 15.6656 16.8448 16.0088 16.9413L16.1442 16.46L16.2795 15.9787C15.812 15.8472 15.2226 15.789 14.5292 15.789V16.289ZM16.1442 16.46L16.0088 16.9413C16.4007 17.0516 16.694 17.1567 16.8991 17.2539L17.1132 16.802L17.3272 16.3501C17.051 16.2193 16.6983 16.0964 16.2795 15.9787L16.1442 16.46ZM17.1132 16.802L16.8991 17.2539C17.1637 17.3792 17.44 17.473 17.7022 17.473V16.973V16.473C17.6604 16.473 17.544 16.4528 17.3272 16.3501L17.1132 16.802ZM17.7022 16.973V17.473C18.0236 17.473 18.3034 17.3228 18.4729 17.0402L18.0442 16.783L17.6154 16.5258C17.6154 16.5258 17.6186 16.5204 17.6265 16.5126C17.6346 16.5045 17.6455 16.4958 17.6588 16.4884C17.6876 16.4725 17.7074 16.473 17.7022 16.473V16.973ZM18.0442 16.783L18.466 17.0514C18.5577 16.9074 18.6614 16.7388 18.7769 16.5462L18.3482 16.289L17.9194 16.0318C17.807 16.2192 17.708 16.3799 17.6223 16.5146L18.0442 16.783ZM18.3482 16.289V16.789H18.9182V16.289V15.789H18.3482V16.289ZM18.9182 16.289H18.4182V20.64H18.9182H19.4182V16.289H18.9182ZM18.9182 20.64V20.14H18.2722V20.64V21.14H18.9182V20.64ZM18.2722 20.64L18.7656 20.5594C18.5524 19.2532 18.0864 18.2231 17.3031 17.5603L16.9802 17.942L16.6572 18.3237C17.1913 18.7756 17.5866 19.5442 17.7787 20.7206L18.2722 20.64ZM16.9802 17.942L17.3068 17.5634C16.5571 16.9166 15.6252 16.606 14.5482 16.606V17.106V17.606C15.4218 17.606 16.1113 17.8527 16.6536 18.3206L16.9802 17.942ZM14.5482 17.106V16.606C13.0448 16.606 11.8319 17.1509 10.9783 18.2649L11.3752 18.569L11.7721 18.8731C12.4131 18.0365 13.3155 17.606 14.5482 17.606V17.106ZM11.3752 18.569L10.9758 18.2682C10.1546 19.3583 9.77317 20.8136 9.77317 22.578H10.2732H10.7732C10.7732 20.9478 11.1264 19.7304 11.7745 18.8698L11.3752 18.569ZM10.2732 22.578H9.77317C9.77317 23.8891 9.969 25.0022 10.3917 25.89L10.8432 25.675L11.2946 25.46C10.9573 24.7518 10.7732 23.8002 10.7732 22.578H10.2732ZM10.8432 25.675L10.3945 25.8958C10.8258 26.7722 11.4305 27.443 12.2153 27.8791L12.4582 27.442L12.701 27.0049C12.1178 26.681 11.6459 26.1738 11.2918 25.4542L10.8432 25.675ZM12.4582 27.442L12.2153 27.8791C12.9831 28.3056 13.854 28.512 14.8142 28.512V28.012V27.512C14.001 27.512 13.3013 27.3384 12.701 27.0049L12.4582 27.442ZM14.8142 28.012V28.512C15.7487 28.512 16.5916 28.3425 17.3298 27.9876L17.1132 27.537L16.8965 27.0864C16.3174 27.3648 15.6277 27.512 14.8142 27.512V28.012ZM17.1132 27.537L17.3368 27.9842C18.0541 27.6255 18.698 27.1309 19.2684 26.5061L18.8992 26.169L18.5299 25.8319C18.0363 26.3725 17.4895 26.7898 16.8896 27.0898L17.1132 27.537ZM28.0557 21.001L27.688 21.3399L27.6909 21.343L28.0557 21.001ZM28.6447 27.005L28.199 26.7782L28.1959 26.7845L28.6447 27.005ZM27.1627 28.639L27.4135 29.0715V29.0715L27.1627 28.639ZM21.8427 27.955L21.4699 28.2883L21.4753 28.2941L21.8427 27.955ZM21.2537 21.989L21.6976 22.2192L21.6993 22.2158L21.2537 21.989ZM22.7357 20.374L22.9929 20.8028L22.9954 20.8013L22.7357 20.374ZM23.1537 21.419L22.7497 21.1244L23.1537 21.419ZM23.1537 27.442L22.734 27.714L22.7401 27.7229L23.1537 27.442ZM25.0537 28.43V27.9299L25.0459 27.9301L25.0537 28.43ZM26.3647 28.069L26.6454 28.4827L26.3647 28.069ZM27.1627 26.834L26.6872 26.679L26.6843 26.6884L27.1627 26.834ZM26.8017 21.59L26.3689 21.8405L26.3723 21.8461L26.8017 21.59ZM24.9777 19.785V20.285C26.1706 20.285 27.0528 20.6508 27.6881 21.3399L28.0557 21.001L28.4233 20.6621C27.5639 19.7299 26.3941 19.285 24.9777 19.285V19.785ZM28.0557 21.001L27.6909 21.343C28.3427 22.0382 28.6957 23.0119 28.6957 24.326H29.1957H29.6957C29.6957 22.8281 29.2887 21.5851 28.4205 20.659L28.0557 21.001ZM29.1957 24.326H28.6957C28.6957 25.335 28.5212 26.145 28.199 26.7783L28.6447 27.005L29.0903 27.2317C29.5028 26.421 29.6957 25.445 29.6957 24.326H29.1957ZM28.6447 27.005L28.1959 26.7845C27.8803 27.427 27.4513 27.8936 26.9118 28.2065L27.1627 28.639L27.4135 29.0715C28.1407 28.6497 28.6997 28.027 29.0935 27.2255L28.6447 27.005ZM27.1627 28.639L26.9118 28.2065C26.3638 28.5243 25.7241 28.69 24.9777 28.69V29.19V29.69C25.8779 29.69 26.6949 29.4884 27.4135 29.0715L27.1627 28.639ZM24.9777 29.19V28.69C23.7588 28.69 22.8578 28.3175 22.2101 27.6159L21.8427 27.955L21.4753 28.2941C22.3476 29.2392 23.5365 29.69 24.9777 29.69V29.19ZM21.8427 27.955L22.2155 27.6218C21.576 26.9064 21.2217 25.8571 21.2217 24.402H20.7217H20.2217C20.2217 26.0122 20.6147 27.3316 21.4699 28.2882L21.8427 27.955ZM20.7217 24.402H21.2217C21.2217 23.5415 21.3865 22.8191 21.6976 22.2192L21.2537 21.989L20.8098 21.7588C20.4116 22.5269 20.2217 23.4131 20.2217 24.402H20.7217ZM21.2537 21.989L21.6993 22.2158C22.014 21.5977 22.4449 21.1316 22.9929 20.8027L22.7357 20.374L22.4784 19.9453C21.7598 20.3764 21.2027 20.987 20.8081 21.7622L21.2537 21.989ZM22.7357 20.374L22.9954 20.8013C23.5538 20.4618 24.2091 20.285 24.9777 20.285V19.785V19.285C24.0489 19.285 23.2095 19.5008 22.476 19.9467L22.7357 20.374ZM24.9017 20.507V20.007C24.0122 20.007 23.2825 20.3937 22.7497 21.1244L23.1537 21.419L23.5577 21.7136C23.9116 21.2283 24.3472 21.007 24.9017 21.007V20.507ZM23.1537 21.419L22.7497 21.1244C22.2161 21.8562 21.9887 22.8931 21.9887 24.155H22.4887H22.9887C22.9887 22.9849 23.2046 22.1978 23.5577 21.7136L23.1537 21.419ZM22.4887 24.155H21.9887C21.9887 25.6887 22.21 26.9054 22.7341 27.7139L23.1537 27.442L23.5733 27.1701C23.2107 26.6106 22.9887 25.6359 22.9887 24.155H22.4887ZM23.1537 27.442L22.7401 27.7229C23.2906 28.5334 24.0822 28.9452 25.0615 28.9299L25.0537 28.43L25.0459 27.9301C24.4038 27.9401 23.9288 27.6932 23.5673 27.1611L23.1537 27.442ZM25.0537 28.43V28.93C25.6516 28.93 26.1918 28.7906 26.6454 28.4827L26.3647 28.069L26.0839 27.6553C25.8283 27.8288 25.4944 27.93 25.0537 27.93V28.43ZM26.3647 28.069L26.6454 28.4827C27.1274 28.1557 27.4441 27.6265 27.641 26.9796L27.1627 26.834L26.6843 26.6884C26.5266 27.2068 26.3113 27.501 26.0839 27.6553L26.3647 28.069ZM27.1627 26.834L27.638 26.989C27.8517 26.3338 27.9477 25.4692 27.9477 24.421H27.4477H26.9477C26.9477 25.4248 26.8537 26.1688 26.6873 26.679L27.1627 26.834ZM27.4477 24.421H27.9477C27.9477 23.1988 27.7225 22.1576 27.2311 21.3339L26.8017 21.59L26.3723 21.8461C26.7422 22.4664 26.9477 23.3125 26.9477 24.421H27.4477ZM26.8017 21.59L27.2344 21.3395C26.7251 20.4598 25.925 20.007 24.9017 20.007V20.507V21.007C25.5757 21.007 26.0423 21.2762 26.369 21.8405L26.8017 21.59ZM30.7474 16.517V16.017H30.2474V16.517H30.7474ZM37.2264 16.669L37.137 17.1611L37.1496 17.1631L37.2264 16.669ZM38.7275 17.144L38.4935 17.5859L38.4988 17.5886L38.7275 17.144ZM39.7724 18.113L39.3448 18.3722L39.3495 18.3798L39.3544 18.3873L39.7724 18.113ZM39.7534 21.533L40.189 21.7787L40.1916 21.774L39.7534 21.533ZM38.6134 22.73L38.3464 22.3072L38.3414 22.3105L38.6134 22.73ZM37.0174 23.376L37.1215 23.8651L37.0174 23.376ZM34.5854 23.528L34.527 24.0246L34.5854 23.528ZM34.1105 23.414L34.3341 22.9668L33.6104 22.605V23.414H34.1105ZM34.2625 27.822L33.7982 28.0077L33.8021 28.0175L33.8065 28.0272L34.2625 27.822ZM34.8514 28.316L34.7199 28.7984L34.8514 28.316ZM36.0294 28.43H36.5294V27.93H36.0294V28.43ZM36.0294 29V29.5H36.5294V29H36.0294ZM30.6714 29H30.1714V29.5H30.6714V29ZM30.6714 28.43V27.93H30.1714V28.43H30.6714ZM31.7734 28.297L31.9463 28.7662L31.7734 28.297ZM32.2484 27.784L32.7274 27.9277L32.7292 27.9214L32.2484 27.784ZM32.0014 17.334L31.7086 17.7395L31.7191 17.7467L32.0014 17.334ZM30.7474 17.087H30.2474V17.587H30.7474V17.087ZM34.1105 17.334L34.0484 16.8379L33.6104 16.8926V17.334H34.1105ZM34.1105 22.711H33.6104V23.1524L34.0484 23.2071L34.1105 22.711ZM34.5475 22.768L34.4814 23.2636L34.4988 23.2659L34.5163 23.267L34.5475 22.768ZM37.4734 22.198L37.7704 22.6003L37.772 22.5991L37.4734 22.198ZM37.5304 17.961L37.1862 18.3239L37.196 18.3326L37.5304 17.961ZM34.6805 17.277L34.6472 16.7781L34.6448 16.7783L34.6805 17.277ZM30.7474 16.517V17.017H35.4785V16.517V16.017H30.7474V16.517ZM35.4785 16.517V17.017C36.0586 17.017 36.6112 17.0653 37.137 17.1609L37.2264 16.669L37.3159 16.1771C36.727 16.07 36.1143 16.017 35.4785 16.017V16.517ZM37.2264 16.669L37.1496 17.1631C37.6745 17.2447 38.12 17.3882 38.4935 17.5859L38.7275 17.144L38.9614 16.7021C38.4735 16.4438 37.9184 16.2706 37.3033 16.1749L37.2264 16.669ZM38.7275 17.144L38.4988 17.5886C38.8617 17.7753 39.1404 18.0348 39.3448 18.3722L39.7724 18.113L40.2 17.8538C39.8978 17.3552 39.4799 16.9687 38.9561 16.6994L38.7275 17.144ZM39.7724 18.113L39.3544 18.3873C39.5528 18.6896 39.6715 19.1057 39.6715 19.671H40.1715H40.6715C40.6715 18.9696 40.5241 18.347 40.1905 17.8387L39.7724 18.113ZM40.1715 19.671H39.6715C39.6715 20.3437 39.5439 20.8765 39.3153 21.292L39.7534 21.533L40.1916 21.774C40.5204 21.1761 40.6715 20.4676 40.6715 19.671H40.1715ZM39.7534 21.533L39.318 21.2873C39.0801 21.709 38.7581 22.0473 38.3465 22.3073L38.6134 22.73L38.8804 23.1527C39.4315 22.8047 39.8695 22.345 40.1889 21.7787L39.7534 21.533ZM38.6134 22.73L38.3414 22.3105C37.9284 22.5784 37.4543 22.7719 36.9134 22.8869L37.0174 23.376L37.1215 23.8651C37.7713 23.7268 38.3612 23.4896 38.8855 23.1495L38.6134 22.73ZM37.0174 23.376L36.9134 22.8869C36.3529 23.0062 35.7798 23.066 35.1935 23.066V23.566V24.066C35.8484 24.066 36.4913 23.9991 37.1215 23.8651L37.0174 23.376ZM35.1935 23.566V23.066C35.0255 23.066 34.8425 23.0548 34.6439 23.0314L34.5854 23.528L34.527 24.0246C34.7591 24.0519 34.9814 24.066 35.1935 24.066V23.566ZM34.5854 23.528L34.6439 23.0314C34.4434 23.0078 34.3556 22.9776 34.3341 22.9668L34.1105 23.414L33.8868 23.8612C34.0679 23.9518 34.2968 23.9975 34.527 24.0246L34.5854 23.528ZM34.1105 23.414H33.6104V26.663H34.1105H34.6105V23.414H34.1105ZM34.1105 26.663H33.6104C33.6104 27.199 33.6605 27.6635 33.7982 28.0077L34.2625 27.822L34.7267 27.6363C34.6617 27.4739 34.6105 27.1656 34.6105 26.663H34.1105ZM34.2625 27.822L33.8065 28.0272C33.9845 28.4229 34.3037 28.6849 34.7199 28.7984L34.8514 28.316L34.983 27.8336C34.8419 27.7951 34.7684 27.7278 34.7184 27.6168L34.2625 27.822ZM34.8514 28.316L34.7199 28.7984C35.062 28.8917 35.5064 28.93 36.0294 28.93V28.43V27.93C35.5392 27.93 35.1983 27.8923 34.983 27.8336L34.8514 28.316ZM36.0294 28.43H35.5294V29H36.0294H36.5294V28.43H36.0294ZM36.0294 29V28.5H30.6714V29V29.5H36.0294V29ZM30.6714 29H31.1714V28.43H30.6714H30.1714V29H30.6714ZM30.6714 28.43V28.93C31.1802 28.93 31.6201 28.8863 31.9463 28.7662L31.7734 28.297L31.6006 27.8278C31.4454 27.885 31.1507 27.93 30.6714 27.93V28.43ZM31.7734 28.297L31.9463 28.7662C32.3398 28.6212 32.6078 28.3261 32.7274 27.9277L32.2484 27.784L31.7695 27.6403C31.7371 27.7486 31.6884 27.7955 31.6006 27.8278L31.7734 28.297ZM32.2484 27.784L32.7292 27.9214C32.8249 27.5866 32.8624 27.131 32.8624 26.587H32.3624H31.8624C31.8624 27.107 31.824 27.4494 31.7677 27.6466L32.2484 27.784ZM32.3624 26.587H32.8624V18.417H32.3624H31.8624V26.587H32.3624ZM32.3624 18.417H32.8624C32.8624 17.8365 32.7462 17.2378 32.2838 16.9213L32.0014 17.334L31.7191 17.7467C31.738 17.7596 31.8624 17.8828 31.8624 18.417H32.3624ZM32.0014 17.334L32.2942 16.9287C32.0995 16.788 31.8603 16.7068 31.6136 16.6582C31.3625 16.6087 31.0714 16.587 30.7474 16.587V17.087V17.587C31.0315 17.587 31.2534 17.6065 31.4203 17.6393C31.5916 17.6731 31.6754 17.7153 31.7087 17.7393L32.0014 17.334ZM30.7474 17.087H31.2474V16.517H30.7474H30.2474V17.087H30.7474ZM34.1105 17.334H33.6104V22.711H34.1105H34.6105V17.334H34.1105ZM34.1105 22.711L34.0484 23.2071C34.1477 23.2195 34.2918 23.2383 34.4814 23.2636L34.5475 22.768L34.6135 22.2724C34.4231 22.247 34.2759 22.2278 34.1725 22.2149L34.1105 22.711ZM34.5475 22.768L34.5163 23.267C34.7286 23.2803 34.9354 23.287 35.1364 23.287V22.787V22.287C34.9575 22.287 34.7716 22.281 34.5786 22.269L34.5475 22.768ZM35.1364 22.787V23.287C36.2141 23.287 37.1166 23.0828 37.7704 22.6003L37.4734 22.198L37.1765 21.7957C36.7663 22.0985 36.1108 22.287 35.1364 22.287V22.787ZM37.4734 22.198L37.772 22.5991C38.5059 22.0529 38.7905 21.0982 38.7905 19.937H38.2905H37.7905C37.7905 20.9798 37.5303 21.5324 37.1749 21.7969L37.4734 22.198ZM38.2905 19.937H38.7905C38.7905 18.9739 38.5034 18.164 37.8649 17.5894L37.5304 17.961L37.196 18.3326C37.5708 18.67 37.7905 19.1774 37.7905 19.937H38.2905ZM37.5304 17.961L37.8746 17.5983C37.2501 17.0058 36.341 16.758 35.2505 16.758V17.258V17.758C36.2119 17.758 36.8228 17.9789 37.1863 18.3237L37.5304 17.961ZM35.2505 17.258V16.758C35.0493 16.758 34.8482 16.7647 34.6472 16.7781L34.6805 17.277L34.7137 17.7759C34.8927 17.764 35.0716 17.758 35.2505 17.758V17.258ZM34.6805 17.277L34.6448 16.7783C34.4575 16.7917 34.2586 16.8116 34.0484 16.8379L34.1105 17.334L34.1725 17.8301C34.3676 17.8057 34.5487 17.7877 34.7161 17.7757L34.6805 17.277Z" fill="#01BD88" mask="url(#path-2-outside-1_2014_7433)"/>
</svg>
