<svg width="27" height="27" viewBox="0 0 27 27" fill="none" xmlns="http://www.w3.org/2000/svg">
<path d="M12.13 15.889H13.4805V10.4872M18.8822 10.1496V8.12394M9.42915 19.6027C11.4548 21.6283 15.5061 21.6283 17.5318 19.6027M8.07871 10.1496V8.12394M7.40349 25.5257C5.4278 25.3312 4.09897 24.891 3.1064 23.8998C2.11382 22.9072 1.67493 21.577 1.48047 19.6027M7.40349 1.5257C5.4278 1.72016 4.09897 2.1604 3.1064 3.15162C2.11382 4.1442 1.67493 5.47438 1.48047 7.44872M19.5574 1.5257C21.5331 1.72016 22.862 2.1604 23.8545 3.15162C24.8471 4.1442 25.286 5.47438 25.4805 7.44872M19.5574 25.5257C21.5331 25.3312 22.862 24.891 23.8545 23.8998C24.8471 22.9072 25.286 21.577 25.4805 19.6027" stroke="url(#paint0_linear_2014_5426)" stroke-width="1.5" stroke-linecap="round" stroke-linejoin="round"/>
<defs>
<linearGradient id="paint0_linear_2014_5426" x1="13.4805" y1="1.5257" x2="13.4805" y2="25.5257" gradientUnits="userSpaceOnUse">
<stop stop-color="#01BD88"/>
<stop offset="1" stop-color="#00573F"/>
</linearGradient>
</defs>
</svg>
