<svg width="37" height="38" viewBox="0 0 37 38" fill="none" xmlns="http://www.w3.org/2000/svg">
<path d="M27.2266 7.42578L26.8145 7.35254L26.8125 7.35156C26.8113 7.35135 26.8096 7.35094 26.8076 7.35059C26.8031 7.34979 26.7965 7.34911 26.7881 7.34766C26.7712 7.34471 26.7466 7.34031 26.7148 7.33496C26.6512 7.32424 26.5586 7.30917 26.4414 7.29102C26.2071 7.2547 25.8739 7.20646 25.4766 7.1582C24.6838 7.06194 23.6248 6.96387 22.5801 6.96387C20.3748 6.96391 18.4912 7.65787 17.1602 9.0332C15.8304 10.4072 15.1084 12.4038 15.1084 14.9014V18.6084H10.4072V25.1455H15.1084V37.4004C6.79684 35.7574 0.5 28.1887 0.5 19.1084C0.50009 8.81039 8.55774 0.50026 18.4863 0.5H18.5137C28.4423 0.500261 36.4999 8.81039 36.5 19.1084C36.5 28.2148 30.2036 35.7585 21.8916 37.4004V25.1455H26.1279L26.1914 24.7188L27.0098 19.1816L27.0947 18.6084H21.8916V15.5254C21.8917 14.8337 22.0552 14.218 22.4189 13.7832C22.7691 13.3647 23.367 13.0401 24.4023 13.04H27.2266V7.42578Z" fill="#157843" stroke="#157843"/>
</svg>
