<svg width="50" height="50" viewBox="0 0 50 50" fill="none" xmlns="http://www.w3.org/2000/svg">
<rect x="1" y="1" width="48" height="48" rx="9" stroke="#01BD88" stroke-width="2"/>
<path d="M24.6676 5C23.1164 5.02641 22.0024 5.28171 21.2633 5.73948L11.1335 10.326L5.50125 16.8044C4.31442 18.3537 5.1577 21.3469 8.86396 19.4277L12.9242 14.9028C18.0776 11.1447 28.5925 12.8693 23.6057 20.4137C21.1592 24.7802 22.3044 26.9106 25.4588 27.8085L26.8955 23.7238C29.3837 18.9876 34.027 18.1337 33.8396 14.313L45 14.9909L44.8959 5.12325L24.6676 5ZM19.0354 14.1017C17.2239 14.0753 15.4436 14.7092 14.1527 15.6247L10.082 20.1496C11.196 20.8979 12.3204 20.4929 13.4343 19.5862C14.7461 20.1496 15.7663 19.2781 16.5992 17.535C16.9428 16.3466 17.4529 15.5103 19.0354 14.1017ZM10.7483 22.5529C10.7067 22.5529 10.6546 22.5529 10.613 22.5617C10.2694 22.6233 9.8634 22.9315 9.59272 23.6357C9.31162 24.34 9.24916 25.3436 9.49902 26.4176C9.74888 27.4828 10.2694 28.3895 10.8524 28.9529C11.4146 29.5075 11.9352 29.666 12.2787 29.6044C12.6327 29.5515 13.0283 29.2346 13.299 28.5392C13.5801 27.8349 13.6529 26.8225 13.4031 25.7573C13.1428 24.6833 12.6223 23.7766 12.0497 23.222C11.55 22.729 11.0919 22.5529 10.7483 22.5529ZM19.3477 31.9548C18.5252 31.9636 17.4945 32.1837 16.4847 32.5975C15.3291 33.0817 14.4233 33.7507 13.934 34.367C13.4447 34.9744 13.4031 35.4322 13.5592 35.7051C13.7154 35.9692 14.1735 36.2245 15.048 36.2597C15.9225 36.3037 17.0989 36.1012 18.2545 35.617C19.4101 35.1328 20.3159 34.4726 20.8052 33.8564C21.2945 33.2489 21.3361 32.7824 21.18 32.5183C21.0238 32.2454 20.5657 31.9989 19.6912 31.9636C19.5767 31.9548 19.4726 31.9548 19.3477 31.9548ZM9.18669 40.3708C8.69738 40.3796 8.24972 40.4412 7.8541 40.5381C6.96918 40.7582 6.45905 41.1543 6.29248 41.6209C6.11549 42.0963 6.29248 42.6597 6.8859 43.2671C7.48973 43.8657 8.49958 44.4379 9.74888 44.7549C10.9878 45.0718 12.1954 45.063 13.0908 44.8341C13.9861 44.614 14.4962 44.2179 14.6628 43.7513C14.8294 43.2759 14.6628 42.7125 14.059 42.1051C13.4655 41.5064 12.4557 40.9342 11.2064 40.6173C10.4985 40.4412 9.81134 40.362 9.18669 40.3708Z" fill="#01BD88"/>
</svg>
