<svg width="50" height="50" viewBox="0 0 50 50" fill="none" xmlns="http://www.w3.org/2000/svg">
<rect x="0.5" y="0.5" width="49" height="49" rx="9.5" stroke="#01BD88"/>
<path d="M9.12683 20.6117L10.1104 21.2042L10.6953 20.1313C12.0139 17.9391 16.0494 12.8239 24.9797 12.8239C34.1313 12.8239 38.0306 18.3791 39.3118 20.2072L39.9612 21.2105L42 19.9338L41.3204 18.8784C40.6137 17.8633 39.1304 15.7555 36.4836 13.8935C33.2678 11.6247 29.3963 10.4736 24.9797 10.4736C14.7881 10.4736 10.1232 16.4073 8.58649 18.9463L8 19.9338L8.90481 20.4758C8.94596 20.5077 8.9893 20.5367 9.03452 20.5627C9.06441 20.5806 9.09522 20.5969 9.12683 20.6117Z" fill="#01BD88"/>
<path d="M34.622 18.4706C31.8124 16.1671 28.4462 14.9473 24.8809 14.9473C17.1715 14.9473 12.0495 20.2025 10.3878 25.4155C8.86601 30.2296 10.7159 37.2055 10.7934 37.5041L11.1396 38.6037L13.5057 38.0917L13.131 36.8973C13.1144 36.8376 11.3839 30.2941 12.7033 26.1313C13.4148 23.8955 14.8955 21.7201 16.7628 20.1762C19.0158 18.317 21.8254 17.3304 24.8809 17.3304C32.0416 17.3304 36.1011 22.9527 37.249 25.9386C38.1399 28.2421 37.9344 30.861 36.7525 32.4678C36.3153 33.0562 35.5445 33.7474 34.3714 33.6877C31.6985 33.5507 31.2361 32.2202 30.5934 29.6865C30.285 28.4667 29.9688 27.2038 29.1807 26.1831C28.2209 24.929 26.8248 24.323 24.8896 24.323C22.8081 24.323 21.2317 25.0142 20.1953 26.371C17.9344 29.3394 19.4048 34.4075 19.4672 34.6209L19.4846 34.6885C19.5961 34.9959 22.3369 42.3842 29.6771 44.218L30.8447 44.4736L31.4843 42.1876L30.2771 41.9145C24.4097 40.447 21.9598 34.3987 21.7717 33.921C21.5596 33.1457 21.4245 32.3511 21.3685 31.549C21.2831 30.3976 21.3432 28.8107 22.114 27.7955C22.6792 27.0534 23.5875 26.695 24.8809 26.695C27.2359 26.695 27.6304 27.8552 28.247 30.2614C28.8462 32.6072 29.67 35.8232 34.2425 36.0541C35.9983 36.1393 37.5834 35.3542 38.6964 33.8525C40.3669 31.6007 40.6839 28.1538 39.502 25.0827C38.5787 22.6653 36.7976 20.2622 34.622 18.4706Z" fill="#01BD88"/>
<path d="M16.8762 31.941C16.5993 29.699 16.9887 26.3121 18.9945 24.1098C20.386 22.5805 22.4085 21.8107 24.9936 21.8107C27.9847 21.8107 30.249 23.1362 31.7362 25.7437C32.4682 27.0521 32.9518 28.4831 33.1628 29.9653L33.2769 31.13L35.6705 30.9555C35.6727 30.5419 35.6461 30.1287 35.5907 29.7188C35.5819 29.6173 35.3058 27.1454 33.9152 24.6647C31.9955 21.247 28.9182 19.4378 24.9999 19.4378C21.6889 19.4378 19.0519 20.4827 17.1762 22.5385C14.635 25.3243 14.1164 29.3763 14.4707 32.2383V32.2644C15.1066 36.5875 16.782 40.0449 19.7461 43.1368L20.6716 44.0263L22.3431 42.2988L21.5181 41.5227C18.9075 38.805 17.4291 35.7638 16.8762 31.941ZM15.1441 10.492C16.0281 9.95921 19.1549 8.36966 24.9999 8.36966C31.9844 8.36966 35.088 10.6466 35.1223 10.6632L36.2313 11.3656L37.5263 9.36699L36.4715 8.68836C36.43 8.65824 36.3869 8.62811 36.3438 8.59957C35.3322 7.94551 31.745 6 24.9999 6C18.002 6 14.4084 8.09932 13.5579 8.67251L12.4736 9.37096L13.7662 11.3696L15.1441 10.492Z" fill="#01BD88"/>
<path d="M35.9028 37.5406C33.2014 37.8387 31.0093 37.3283 29.3693 36.0418C26.5975 33.8607 26.2381 30.0696 26.2292 29.9988L26.1296 28.8157L23.6582 28.993L23.7642 30.1857C23.7821 30.3813 24.1852 35.016 27.781 37.8618C29.5708 39.2843 31.8075 39.9999 34.4384 39.9999C35.0217 39.9988 35.6044 39.9645 36.1837 39.8973L37.5266 39.7311L37.0328 37.3688L35.9028 37.5406Z" fill="#01BD88"/>
</svg>
