<svg width="45" height="45" viewBox="0 0 45 45" fill="none" xmlns="http://www.w3.org/2000/svg">
<path d="M1.40625 22.5C1.40625 26.6484 2.60156 30.5156 4.64062 33.75H40.2891C42.3281 30.5156 43.5234 26.6484 43.5234 22.5C43.5234 18.3516 42.3281 14.4844 40.2891 11.25H4.64062C2.60156 14.4844 1.40625 18.3516 1.40625 22.5Z" fill="#2A5F9E"/>
<path d="M40.3594 11.25C36.6328 5.34375 30.0234 1.40625 22.5 1.40625C14.9766 1.40625 8.36719 5.34375 4.64062 11.25H40.3594ZM4.64062 33.75C8.36719 39.6562 14.9766 43.5938 22.5 43.5938C30.0234 43.5938 36.6328 39.6562 40.3594 33.75H4.64062Z" fill="#ED4C5C"/>
<path d="M22.5 29.5312C26.3833 29.5312 29.5312 26.3833 29.5312 22.5C29.5312 18.6167 26.3833 15.4688 22.5 15.4688C18.6167 15.4688 15.4688 18.6167 15.4688 22.5C15.4688 26.3833 18.6167 29.5312 22.5 29.5312Z" fill="white"/>
</svg>
