<svg width="37" height="32" viewBox="0 0 37 32" fill="none" xmlns="http://www.w3.org/2000/svg">
<path d="M24.624 21.1326V21.2205H6.73145V21.1326H24.624ZM21.4102 13.4119V13.4998H6.73145V13.4119H21.4102Z" fill="url(#paint0_linear_2014_4199)" stroke="url(#paint1_linear_2014_4199)" stroke-width="3"/>
<mask id="path-2-inside-1_2014_4199" fill="white">
<path d="M33.5924 0H2.58403C1.89871 0 1.24145 0.280951 0.756846 0.781048C0.272246 1.28115 0 1.95942 0 2.66667V29.3333C0 30.0406 0.272246 30.7189 0.756846 31.219C1.24145 31.719 1.89871 32 2.58403 32H33.5924C34.2778 32 34.935 31.719 35.4196 31.219C35.9042 30.7189 36.1765 30.0406 36.1765 29.3333V2.66667C36.1765 1.95942 35.9042 1.28115 35.4196 0.781048C34.935 0.280951 34.2778 0 33.5924 0ZM33.5924 2.66667V5.33333H2.58403V2.66667H33.5924ZM2.58403 29.3333V8H33.5924V29.3333H2.58403Z"/>
</mask>
<path d="M33.5924 0H2.58403C1.89871 0 1.24145 0.280951 0.756846 0.781048C0.272246 1.28115 0 1.95942 0 2.66667V29.3333C0 30.0406 0.272246 30.7189 0.756846 31.219C1.24145 31.719 1.89871 32 2.58403 32H33.5924C34.2778 32 34.935 31.719 35.4196 31.219C35.9042 30.7189 36.1765 30.0406 36.1765 29.3333V2.66667C36.1765 1.95942 35.9042 1.28115 35.4196 0.781048C34.935 0.280951 34.2778 0 33.5924 0ZM33.5924 2.66667V5.33333H2.58403V2.66667H33.5924ZM2.58403 29.3333V8H33.5924V29.3333H2.58403Z" fill="url(#paint2_linear_2014_4199)"/>
<path d="M33.5924 0V-3V0ZM2.58403 0V-3V0ZM0 2.66667H-3H0ZM0 29.3333H-3H0ZM33.5924 2.66667H36.5924V-0.333333H33.5924V2.66667ZM33.5924 5.33333V8.33333H36.5924V5.33333H33.5924ZM2.58403 5.33333H-0.415966V8.33333H2.58403V5.33333ZM2.58403 2.66667V-0.333333H-0.415966V2.66667H2.58403ZM2.58403 29.3333H-0.415966V32.3333H2.58403V29.3333ZM2.58403 8V5H-0.415966V8H2.58403ZM33.5924 8H36.5924V5H33.5924V8ZM33.5924 29.3333V32.3333H36.5924V29.3333H33.5924ZM33.5924 0V-3H2.58403V0V3H33.5924V0ZM2.58403 0V-3C1.07204 -3 -0.358184 -2.37928 -1.39759 -1.30663L0.756846 0.781048L2.91128 2.86873C2.84108 2.94118 2.72537 3 2.58403 3V0ZM0.756846 0.781048L-1.39759 -1.30663C-2.43389 -0.237193 -3 1.19371 -3 2.66667H0H3C3 2.72513 2.97838 2.79948 2.91128 2.86873L0.756846 0.781048ZM0 2.66667H-3V29.3333H0H3V2.66667H0ZM0 29.3333H-3C-3 30.8063 -2.43389 32.2372 -1.39759 33.3066L0.756846 31.219L2.91128 29.1313C2.97838 29.2005 3 29.2749 3 29.3333H0ZM0.756846 31.219L-1.39759 33.3066C-0.358185 34.3793 1.07204 35 2.58403 35V32V29C2.72537 29 2.84108 29.0588 2.91128 29.1313L0.756846 31.219ZM2.58403 32V35H33.5924V32V29H2.58403V32ZM33.5924 32V35C35.1044 35 36.5347 34.3793 37.5741 33.3066L35.4196 31.219L33.2652 29.1313C33.3354 29.0588 33.4511 29 33.5924 29V32ZM35.4196 31.219L37.5741 33.3066C38.6104 32.2372 39.1765 30.8063 39.1765 29.3333H36.1765H33.1765C33.1765 29.2749 33.1981 29.2005 33.2652 29.1313L35.4196 31.219ZM36.1765 29.3333H39.1765V2.66667H36.1765H33.1765V29.3333H36.1765ZM36.1765 2.66667H39.1765C39.1765 1.19371 38.6104 -0.237196 37.5741 -1.30663L35.4196 0.781048L33.2652 2.86873C33.1981 2.79949 33.1765 2.72514 33.1765 2.66667H36.1765ZM35.4196 0.781048L37.5741 -1.30663C36.5347 -2.37927 35.1044 -3 33.5924 -3V0V3C33.4511 3 33.3354 2.94118 33.2652 2.86873L35.4196 0.781048ZM33.5924 2.66667H30.5924V5.33333H33.5924H36.5924V2.66667H33.5924ZM33.5924 5.33333V2.33333H2.58403V5.33333V8.33333H33.5924V5.33333ZM2.58403 5.33333H5.58403V2.66667H2.58403H-0.415966V5.33333H2.58403ZM2.58403 2.66667V5.66667H33.5924V2.66667V-0.333333H2.58403V2.66667ZM2.58403 29.3333H5.58403V8H2.58403H-0.415966V29.3333H2.58403ZM2.58403 8V11H33.5924V8V5H2.58403V8ZM33.5924 8H30.5924V29.3333H33.5924H36.5924V8H33.5924ZM33.5924 29.3333V26.3333H2.58403V29.3333V32.3333H33.5924V29.3333Z" fill="url(#paint3_linear_2014_4199)" mask="url(#path-2-inside-1_2014_4199)"/>
<defs>
<linearGradient id="paint0_linear_2014_4199" x1="15.6779" y1="11.9119" x2="15.6779" y2="22.7207" gradientUnits="userSpaceOnUse">
<stop stop-color="#01BD88"/>
<stop offset="1" stop-color="#295C51"/>
</linearGradient>
<linearGradient id="paint1_linear_2014_4199" x1="15.6779" y1="11.9119" x2="15.6779" y2="22.7207" gradientUnits="userSpaceOnUse">
<stop stop-color="#01BD88"/>
<stop offset="1" stop-color="#295C51"/>
</linearGradient>
<linearGradient id="paint2_linear_2014_4199" x1="18.0882" y1="0" x2="18.0882" y2="32" gradientUnits="userSpaceOnUse">
<stop stop-color="#01BD88"/>
<stop offset="1" stop-color="#295C51"/>
</linearGradient>
<linearGradient id="paint3_linear_2014_4199" x1="18.0882" y1="0" x2="18.0882" y2="32" gradientUnits="userSpaceOnUse">
<stop stop-color="#01BD88"/>
<stop offset="1" stop-color="#295C51"/>
</linearGradient>
</defs>
</svg>
