<svg width="29" height="28" viewBox="0 0 29 28" fill="none" xmlns="http://www.w3.org/2000/svg">
<path d="M27.6351 14.0083C27.6351 6.83347 21.7993 1.01654 14.6012 1.01654C7.40316 1.01654 1.56738 6.83347 1.56738 14.0083C1.56738 21.1831 7.40316 27 14.6012 27C21.7993 27 27.6351 21.1831 27.6351 14.0083Z" stroke="white" stroke-width="2" stroke-miterlimit="10"/>
<path d="M26.48 8.77034C25.4736 8.77659 25.5726 10.6273 24.3187 9.75409C23.8531 9.43055 23.5668 8.96022 22.9821 8.81719C22.4714 8.69227 21.9482 8.82218 21.4438 8.909C20.8704 9.00769 20.1905 9.05204 19.7556 9.48489C19.3352 9.9015 19.1127 10.4605 18.6653 10.8796C17.7999 11.6916 17.4346 12.5779 17.9948 13.7259C18.5337 14.8296 19.661 15.4286 20.8773 15.3499C22.0723 15.2706 23.3136 14.5798 23.2792 16.3105C23.2666 16.9227 23.3951 17.3474 23.5837 17.9164C23.7585 18.4411 23.7466 18.9495 23.7867 19.491C23.8607 20.5029 24.0474 21.6372 24.5512 22.531L25.4911 21.2093C25.6071 21.0457 25.8496 20.8164 25.9072 20.6234C26.0094 20.2818 25.8082 19.6946 25.785 19.3118C25.7618 18.9289 25.7731 18.541 25.7142 18.1581C25.6315 17.6216 25.3132 17.1188 25.2693 16.5885C25.1885 15.601 25.3696 14.8127 24.6063 13.987C23.8694 13.1907 22.7891 12.9995 21.7571 13.1613C21.237 13.2425 19.1434 13.576 19.9837 12.3912C20.1498 12.1582 20.4399 11.9671 20.6266 11.7453C20.7889 11.5523 20.9299 11.1975 21.1204 11.047C21.3109 10.8965 22.1857 10.7235 22.4363 10.8003C22.687 10.8771 22.9483 11.2375 23.1657 11.3974C23.5675 11.699 24.0363 11.8996 24.5324 11.982C25.3884 12.107 27.178 11.611 27.1642 10.5167C27.1617 9.99206 26.673 9.26128 26.48 8.77034ZM16.5717 17.7746C16.2377 16.373 14.3272 15.9046 13.297 15.1444C12.7048 14.7072 12.1778 14.032 11.4002 13.977C11.0418 13.9514 10.7416 14.0289 10.3863 13.9371C10.0605 13.8534 9.80479 13.6785 9.45764 13.7241C8.80908 13.809 8.3999 14.4998 7.70309 14.4061C7.042 14.3174 6.36085 13.5467 6.21046 12.919C6.01746 12.112 6.65787 11.8503 7.34403 11.7784C7.6304 11.7484 7.95186 11.716 8.22695 11.8203C8.58914 11.9546 8.76021 12.3081 9.08543 12.4867C9.69513 12.8196 9.81858 12.2875 9.72521 11.7478C9.58547 10.9396 9.42255 10.6098 10.1457 10.0539C10.647 9.67039 11.0756 9.39307 10.9954 8.70413C10.9478 8.29939 10.7253 8.11638 10.9327 7.71351C11.09 7.40683 11.5218 7.13013 11.8031 6.94712C12.5294 6.47493 14.9143 6.5099 13.9399 5.18824C13.6535 4.80037 13.1253 4.10706 12.624 4.01212C11.9974 3.89407 11.7191 4.59112 11.2824 4.89843C10.8312 5.21635 9.95268 5.57737 9.50088 5.08581C8.89305 4.42435 9.9038 4.20699 10.1275 3.74541C10.3512 3.28383 9.60929 2.41126 9.21201 2.19015L7.34403 4.2782C7.29037 4.62789 7.30905 4.98482 7.39892 5.32705C7.4888 5.66927 7.64797 5.98955 7.86664 6.26818C8.23823 6.74475 8.82976 6.89778 8.85671 7.54862C8.88303 8.17322 8.78527 8.49302 8.37546 8.93211C8.19812 9.11949 8.0728 9.38557 7.89233 9.56109C7.67113 9.77533 7.75322 9.70974 7.40795 9.76846C6.75876 9.87776 6.20608 10.0464 5.57882 10.2188C4.53361 10.5067 4.43711 8.80469 3.96087 8.13699L2.39431 9.39807C2.37739 9.60481 2.65122 9.98519 2.72579 10.2101C3.15378 11.4949 4.01727 12.4886 4.57497 13.7178C5.16212 15.0195 6.73871 14.6585 7.43489 15.799C8.05275 16.8109 7.39291 18.0919 7.85536 19.1512C8.19123 19.9201 8.98329 20.0881 9.52971 20.6503C10.088 21.218 10.0761 21.9951 10.1613 22.734C10.2575 23.6031 10.4134 24.4646 10.6282 25.3123C10.704 25.6053 10.7736 25.9925 10.9747 26.2342C11.1126 26.4004 11.5857 26.5434 11.3945 26.5984C11.6615 26.6421 12.1371 26.8907 12.3596 26.7083C12.6528 26.4685 12.5745 25.7302 12.6252 25.3966C12.7775 24.4035 13.2763 23.4323 13.9493 22.689C14.6142 21.9557 15.5253 21.4591 16.0867 20.6278C16.6338 19.8171 16.7986 18.7234 16.5717 17.7746ZM14.4794 19.4186C14.1035 20.0875 13.2663 20.5354 12.728 21.0669C12.582 21.2112 12.2712 21.7109 12.0882 21.6028C11.9573 21.5254 11.9128 20.877 11.8645 20.7284C11.6156 19.9798 11.1404 19.3264 10.5041 18.8577C10.308 18.7096 9.82171 18.5173 9.70955 18.3143C9.58422 18.0938 9.69701 17.5735 9.7014 17.3336C9.70829 16.9839 9.5485 16.4024 9.63498 16.0844C9.73524 15.7178 9.54224 15.9389 9.87122 15.8665C10.0448 15.8277 10.7617 15.9533 10.9778 15.9982C11.3212 16.0694 11.5105 16.2824 11.7812 16.4979C12.493 17.0669 13.2769 17.5073 14.0746 17.9433C14.6925 18.2843 14.8742 18.7159 14.4794 19.4186ZM10.1181 2.20889C10.4151 2.49808 10.6946 2.84036 11.1376 2.86909C11.5568 2.8972 11.9522 2.67109 12.3182 2.95529C12.7242 3.26759 13.0169 3.66296 13.5558 3.7604C14.0771 3.85472 14.6292 3.55116 14.7583 3.01962C14.8836 2.51307 14.6135 1.96217 14.5972 1.45374C14.5972 1.38316 14.6355 1.06961 14.5866 1.01652C14.5502 0.976547 14.247 1.02152 14.2006 1.02277C13.8609 1.03276 13.5222 1.05608 13.1842 1.09272C11.9521 1.22565 10.7455 1.53379 9.60114 2.00777C9.75341 2.1127 9.94453 2.15455 10.1181 2.20889ZM20.8923 5.71791C21.4243 5.71791 21.9645 5.48056 21.7928 4.8672C21.6487 4.35315 21.403 3.79538 20.8052 4.0727C20.4249 4.24884 19.886 4.69731 19.8415 5.14202C19.7907 5.6467 20.5377 5.71791 20.8923 5.71791ZM20.4675 8.40183C21.0108 8.72599 21.8166 8.57359 22.2264 8.11076C22.5466 7.74849 22.7352 7.11952 23.3111 7.12014C23.5646 7.11961 23.8082 7.21856 23.9891 7.39559C24.2272 7.64106 24.1802 7.87154 24.231 8.17884C24.3444 8.86903 25.087 8.21819 25.2806 7.95086C25.4059 7.7766 25.5757 7.51801 25.5187 7.29128C25.4661 7.07954 25.2179 6.85406 25.1076 6.65981C24.7856 6.09767 24.5205 5.44371 24.038 4.98962C23.5737 4.5524 23.0028 4.60299 22.5623 5.05708C22.2014 5.43184 21.7821 5.72853 21.5352 6.18449C21.361 6.50491 21.1649 6.65793 20.8121 6.74101C20.6179 6.7866 20.396 6.80347 20.2331 6.93338C19.7794 7.28941 20.0376 8.14449 20.4675 8.40183Z" fill="white"/>
</svg>
