<svg width="49" height="49" viewBox="0 0 49 49" fill="none" xmlns="http://www.w3.org/2000/svg">
<rect x="1" y="1" width="47" height="47" rx="13" stroke="#01BD88" stroke-width="2"/>
<mask id="path-2-outside-1_2014_7444" maskUnits="userSpaceOnUse" x="10" y="16" width="29" height="14" fill="black">
<rect fill="white" x="10" y="16" width="29" height="14"/>
<path d="M12.7492 26.511V19.025C12.7492 18.531 12.7175 18.1447 12.6542 17.866C12.5908 17.5747 12.4262 17.372 12.1602 17.258C11.9068 17.144 11.4762 17.087 10.8682 17.087V16.517H16.3402V17.087C15.7448 17.087 15.3142 17.144 15.0482 17.258C14.7822 17.372 14.6175 17.5747 14.5542 17.866C14.5035 18.1447 14.4782 18.531 14.4782 19.025V26.511C14.4782 27.0557 14.5162 27.4673 14.5922 27.746C14.6682 28.012 14.8392 28.1957 15.1052 28.297C15.3712 28.3857 15.7828 28.43 16.3402 28.43V29H10.8682V28.43C11.4382 28.43 11.8562 28.3857 12.1222 28.297C12.3882 28.1957 12.5592 28.012 12.6352 27.746C12.7112 27.4673 12.7492 27.0557 12.7492 26.511ZM26.1522 23.167V27.081C26.1522 27.4357 26.1775 27.7143 26.2282 27.917C26.2915 28.1197 26.4245 28.2653 26.6272 28.354C26.8299 28.43 27.1402 28.468 27.5582 28.468V29H23.1692V28.468C23.6252 28.468 23.9482 28.43 24.1382 28.354C24.3409 28.2653 24.4612 28.1197 24.4992 27.917C24.5499 27.7143 24.5752 27.4357 24.5752 27.081V23.642C24.5752 22.882 24.4865 22.312 24.3092 21.932C24.1445 21.552 23.9292 21.305 23.6632 21.191C23.3972 21.0643 23.1185 21.001 22.8272 21.001C22.3205 21.001 21.8835 21.1403 21.5162 21.419C21.1489 21.685 20.8195 21.9447 20.5282 22.198V27.081C20.5282 27.4357 20.5535 27.7143 20.6042 27.917C20.6549 28.1197 20.7815 28.2653 20.9842 28.354C21.1869 28.43 21.5162 28.468 21.9722 28.468V29H17.6212V28.468C18.0519 28.468 18.3559 28.43 18.5332 28.354C18.7232 28.2653 18.8372 28.1197 18.8752 27.917C18.9259 27.7143 18.9512 27.4357 18.9512 27.081V21.742C18.9512 21.4 18.8815 21.1783 18.7422 21.077C18.6029 20.963 18.4065 20.906 18.1532 20.906C17.9885 20.906 17.8619 20.9123 17.7732 20.925C17.6845 20.9377 17.6402 20.944 17.6402 20.944V20.393L20.0532 19.842H20.4902L20.4712 21.381H20.5472C21.0665 20.925 21.5542 20.545 22.0102 20.241C22.4789 19.937 23.0109 19.785 23.6062 19.785C24.4675 19.785 25.1072 20.0763 25.5252 20.659C25.9432 21.2417 26.1522 22.0777 26.1522 23.167ZM28.8724 16.517H33.6034C34.2114 16.517 34.7941 16.5677 35.3514 16.669C35.9214 16.7577 36.4218 16.916 36.8524 17.144C37.2958 17.372 37.6441 17.695 37.8974 18.113C38.1634 18.5183 38.2964 19.0377 38.2964 19.671C38.2964 20.4057 38.1571 21.0263 37.8784 21.533C37.5998 22.027 37.2198 22.426 36.7384 22.73C36.2698 23.034 35.7378 23.2493 35.1424 23.376C34.5471 23.5027 33.9391 23.566 33.3184 23.566C33.1284 23.566 32.9258 23.5533 32.7104 23.528C32.4951 23.5027 32.3368 23.4647 32.2354 23.414V26.663C32.2354 27.1823 32.2861 27.5687 32.3874 27.822C32.5014 28.0753 32.6978 28.24 32.9764 28.316C33.2551 28.392 33.6478 28.43 34.1544 28.43V29H28.7964V28.43C29.2904 28.43 29.6578 28.3857 29.8984 28.297C30.1391 28.2083 30.2974 28.0373 30.3734 27.784C30.4494 27.518 30.4874 27.119 30.4874 26.587V18.417C30.4874 17.8597 30.3671 17.4987 30.1264 17.334C29.8984 17.1693 29.4804 17.087 28.8724 17.087V16.517ZM32.2354 17.334V22.711C32.3368 22.7237 32.4824 22.7427 32.6724 22.768C32.8751 22.7807 33.0714 22.787 33.2614 22.787C34.2874 22.787 35.0664 22.5907 35.5984 22.198C36.1431 21.7927 36.4154 21.039 36.4154 19.937C36.4154 19.0757 36.1621 18.417 35.6554 17.961C35.1614 17.4923 34.4014 17.258 33.3754 17.258C33.1854 17.258 32.9954 17.2643 32.8054 17.277C32.6281 17.2897 32.4381 17.3087 32.2354 17.334Z"/>
</mask>
<path d="M12.7492 26.511V19.025C12.7492 18.531 12.7175 18.1447 12.6542 17.866C12.5908 17.5747 12.4262 17.372 12.1602 17.258C11.9068 17.144 11.4762 17.087 10.8682 17.087V16.517H16.3402V17.087C15.7448 17.087 15.3142 17.144 15.0482 17.258C14.7822 17.372 14.6175 17.5747 14.5542 17.866C14.5035 18.1447 14.4782 18.531 14.4782 19.025V26.511C14.4782 27.0557 14.5162 27.4673 14.5922 27.746C14.6682 28.012 14.8392 28.1957 15.1052 28.297C15.3712 28.3857 15.7828 28.43 16.3402 28.43V29H10.8682V28.43C11.4382 28.43 11.8562 28.3857 12.1222 28.297C12.3882 28.1957 12.5592 28.012 12.6352 27.746C12.7112 27.4673 12.7492 27.0557 12.7492 26.511ZM26.1522 23.167V27.081C26.1522 27.4357 26.1775 27.7143 26.2282 27.917C26.2915 28.1197 26.4245 28.2653 26.6272 28.354C26.8299 28.43 27.1402 28.468 27.5582 28.468V29H23.1692V28.468C23.6252 28.468 23.9482 28.43 24.1382 28.354C24.3409 28.2653 24.4612 28.1197 24.4992 27.917C24.5499 27.7143 24.5752 27.4357 24.5752 27.081V23.642C24.5752 22.882 24.4865 22.312 24.3092 21.932C24.1445 21.552 23.9292 21.305 23.6632 21.191C23.3972 21.0643 23.1185 21.001 22.8272 21.001C22.3205 21.001 21.8835 21.1403 21.5162 21.419C21.1489 21.685 20.8195 21.9447 20.5282 22.198V27.081C20.5282 27.4357 20.5535 27.7143 20.6042 27.917C20.6549 28.1197 20.7815 28.2653 20.9842 28.354C21.1869 28.43 21.5162 28.468 21.9722 28.468V29H17.6212V28.468C18.0519 28.468 18.3559 28.43 18.5332 28.354C18.7232 28.2653 18.8372 28.1197 18.8752 27.917C18.9259 27.7143 18.9512 27.4357 18.9512 27.081V21.742C18.9512 21.4 18.8815 21.1783 18.7422 21.077C18.6029 20.963 18.4065 20.906 18.1532 20.906C17.9885 20.906 17.8619 20.9123 17.7732 20.925C17.6845 20.9377 17.6402 20.944 17.6402 20.944V20.393L20.0532 19.842H20.4902L20.4712 21.381H20.5472C21.0665 20.925 21.5542 20.545 22.0102 20.241C22.4789 19.937 23.0109 19.785 23.6062 19.785C24.4675 19.785 25.1072 20.0763 25.5252 20.659C25.9432 21.2417 26.1522 22.0777 26.1522 23.167ZM28.8724 16.517H33.6034C34.2114 16.517 34.7941 16.5677 35.3514 16.669C35.9214 16.7577 36.4218 16.916 36.8524 17.144C37.2958 17.372 37.6441 17.695 37.8974 18.113C38.1634 18.5183 38.2964 19.0377 38.2964 19.671C38.2964 20.4057 38.1571 21.0263 37.8784 21.533C37.5998 22.027 37.2198 22.426 36.7384 22.73C36.2698 23.034 35.7378 23.2493 35.1424 23.376C34.5471 23.5027 33.9391 23.566 33.3184 23.566C33.1284 23.566 32.9258 23.5533 32.7104 23.528C32.4951 23.5027 32.3368 23.4647 32.2354 23.414V26.663C32.2354 27.1823 32.2861 27.5687 32.3874 27.822C32.5014 28.0753 32.6978 28.24 32.9764 28.316C33.2551 28.392 33.6478 28.43 34.1544 28.43V29H28.7964V28.43C29.2904 28.43 29.6578 28.3857 29.8984 28.297C30.1391 28.2083 30.2974 28.0373 30.3734 27.784C30.4494 27.518 30.4874 27.119 30.4874 26.587V18.417C30.4874 17.8597 30.3671 17.4987 30.1264 17.334C29.8984 17.1693 29.4804 17.087 28.8724 17.087V16.517ZM32.2354 17.334V22.711C32.3368 22.7237 32.4824 22.7427 32.6724 22.768C32.8751 22.7807 33.0714 22.787 33.2614 22.787C34.2874 22.787 35.0664 22.5907 35.5984 22.198C36.1431 21.7927 36.4154 21.039 36.4154 19.937C36.4154 19.0757 36.1621 18.417 35.6554 17.961C35.1614 17.4923 34.4014 17.258 33.3754 17.258C33.1854 17.258 32.9954 17.2643 32.8054 17.277C32.6281 17.2897 32.4381 17.3087 32.2354 17.334Z" fill="#01BD88"/>
<path d="M12.6542 17.866L12.1656 17.9722L12.1666 17.9768L12.6542 17.866ZM12.1602 17.258L11.955 17.714L11.9632 17.7176L12.1602 17.258ZM10.8682 17.087H10.3682V17.587H10.8682V17.087ZM10.8682 16.517V16.017H10.3682V16.517H10.8682ZM16.3402 16.517H16.8402V16.017H16.3402V16.517ZM16.3402 17.087V17.587H16.8402V17.087H16.3402ZM14.5542 17.866L14.0656 17.7598L14.0638 17.7681L14.0622 17.7766L14.5542 17.866ZM14.5922 27.746L14.1098 27.8776L14.1114 27.8834L14.5922 27.746ZM15.1052 28.297L14.9272 28.7642L14.937 28.768L14.9471 28.7713L15.1052 28.297ZM16.3402 28.43H16.8402V27.93H16.3402V28.43ZM16.3402 29V29.5H16.8402V29H16.3402ZM10.8682 29H10.3682V29.5H10.8682V29ZM10.8682 28.43V27.93H10.3682V28.43H10.8682ZM12.1222 28.297L12.2803 28.7713L12.2903 28.768L12.3002 28.7642L12.1222 28.297ZM12.6352 27.746L13.116 27.8834L13.1175 27.8776L12.6352 27.746ZM12.7492 26.511H13.2492V19.025H12.7492H12.2492V26.511H12.7492ZM12.7492 19.025H13.2492C13.2492 18.5165 13.2172 18.0872 13.1417 17.7552L12.6542 17.866L12.1666 17.9768C12.2178 18.2021 12.2492 18.5455 12.2492 19.025H12.7492ZM12.6542 17.866L13.1428 17.7598C13.0463 17.3161 12.777 16.9784 12.3571 16.7984L12.1602 17.258L11.9632 17.7176C12.0753 17.7656 12.1354 17.8332 12.1656 17.9722L12.6542 17.866ZM12.1602 17.258L12.3654 16.802C12.0071 16.6408 11.4824 16.587 10.8682 16.587V17.087V17.587C11.4699 17.587 11.8065 17.6472 11.955 17.714L12.1602 17.258ZM10.8682 17.087H11.3682V16.517H10.8682H10.3682V17.087H10.8682ZM10.8682 16.517V17.017H16.3402V16.517V16.017H10.8682V16.517ZM16.3402 16.517H15.8402V17.087H16.3402H16.8402V16.517H16.3402ZM16.3402 17.087V16.587C15.7336 16.587 15.2161 16.6421 14.8512 16.7984L15.0482 17.258L15.2451 17.7176C15.4122 17.6459 15.756 17.587 16.3402 17.587V17.087ZM15.0482 17.258L14.8512 16.7984C14.4313 16.9784 14.162 17.3161 14.0656 17.7598L14.5542 17.866L15.0428 17.9722C15.073 17.8332 15.133 17.7656 15.2451 17.7176L15.0482 17.258ZM14.5542 17.866L14.0622 17.7766C14.0037 18.0987 13.9782 18.5196 13.9782 19.025H14.4782H14.9782C14.9782 18.5424 15.0033 18.1907 15.0461 17.9554L14.5542 17.866ZM14.4782 19.025H13.9782V26.511H14.4782H14.9782V19.025H14.4782ZM14.4782 26.511H13.9782C13.9782 27.0682 14.0159 27.5335 14.1098 27.8776L14.5922 27.746L15.0745 27.6144C15.0164 27.4012 14.9782 27.0431 14.9782 26.511H14.4782ZM14.5922 27.746L14.1114 27.8834C14.2322 28.306 14.5189 28.6087 14.9272 28.7642L15.1052 28.297L15.2832 27.8298C15.1594 27.7826 15.1042 27.718 15.0729 27.6086L14.5922 27.746ZM15.1052 28.297L14.9471 28.7713C15.2927 28.8866 15.7713 28.93 16.3402 28.93V28.43V27.93C15.7944 27.93 15.4496 27.8848 15.2633 27.8227L15.1052 28.297ZM16.3402 28.43H15.8402V29H16.3402H16.8402V28.43H16.3402ZM16.3402 29V28.5H10.8682V29V29.5H16.3402V29ZM10.8682 29H11.3682V28.43H10.8682H10.3682V29H10.8682ZM10.8682 28.43V28.93C11.4483 28.93 11.934 28.8868 12.2803 28.7713L12.1222 28.297L11.9641 27.8227C11.7784 27.8846 11.428 27.93 10.8682 27.93V28.43ZM12.1222 28.297L12.3002 28.7642C12.7084 28.6087 12.9952 28.306 13.1159 27.8834L12.6352 27.746L12.1544 27.6086C12.1232 27.718 12.0679 27.7826 11.9442 27.8298L12.1222 28.297ZM12.6352 27.746L13.1175 27.8776C13.2114 27.5335 13.2492 27.0682 13.2492 26.511H12.7492H12.2492C12.2492 27.0431 12.2109 27.4012 12.1528 27.6144L12.6352 27.746ZM26.2282 27.917L25.7431 28.0383L25.7466 28.0523L25.7509 28.0661L26.2282 27.917ZM26.6272 28.354L26.4268 28.8121L26.4391 28.8175L26.4516 28.8222L26.6272 28.354ZM27.5582 28.468H28.0582V27.968H27.5582V28.468ZM27.5582 29V29.5H28.0582V29H27.5582ZM23.1692 29H22.6692V29.5H23.1692V29ZM23.1692 28.468V27.968H22.6692V28.468H23.1692ZM24.1382 28.354L24.3239 28.8182L24.3313 28.8153L24.3386 28.8121L24.1382 28.354ZM24.4992 27.917L24.0141 27.7957L24.0105 27.8102L24.0077 27.8249L24.4992 27.917ZM24.3092 21.932L23.8502 22.1309L23.8561 22.1434L24.3092 21.932ZM23.6632 21.191L23.4482 21.6424L23.4571 21.6467L23.4662 21.6506L23.6632 21.191ZM21.5162 21.419L21.8095 21.8241L21.8184 21.8173L21.5162 21.419ZM20.5282 22.198L20.2001 21.8207L20.0282 21.9702V22.198H20.5282ZM20.6042 27.917L21.0893 27.7957V27.7957L20.6042 27.917ZM20.9842 28.354L20.7838 28.8121L20.7961 28.8175L20.8086 28.8222L20.9842 28.354ZM21.9722 28.468H22.4722V27.968H21.9722V28.468ZM21.9722 29V29.5H22.4722V29H21.9722ZM17.6212 29H17.1212V29.5H17.6212V29ZM17.6212 28.468V27.968H17.1212V28.468H17.6212ZM18.5332 28.354L18.7301 28.8136L18.7374 28.8104L18.7446 28.8071L18.5332 28.354ZM18.8752 27.917L18.3901 27.7957L18.3865 27.8102L18.3837 27.8249L18.8752 27.917ZM18.7422 21.077L18.4256 21.464L18.4366 21.473L18.4481 21.4814L18.7422 21.077ZM17.7732 20.925L17.8439 21.42L17.8439 21.42L17.7732 20.925ZM17.6402 20.944H17.1402V21.5205L17.7109 21.439L17.6402 20.944ZM17.6402 20.393L17.5289 19.9055L17.1402 19.9943V20.393H17.6402ZM20.0532 19.842V19.342H19.9968L19.9419 19.3545L20.0532 19.842ZM20.4902 19.842L20.9901 19.8482L20.9964 19.342H20.4902V19.842ZM20.4712 21.381L19.9712 21.3748L19.965 21.881H20.4712V21.381ZM20.5472 21.381V21.881H20.7355L20.8771 21.7567L20.5472 21.381ZM22.0102 20.241L21.7381 19.8215L21.7328 19.825L22.0102 20.241ZM25.5252 20.659L25.1189 20.9505L25.5252 20.659ZM26.1522 23.167H25.6522V27.081H26.1522H26.6522V23.167H26.1522ZM26.1522 27.081H25.6522C25.6522 27.4524 25.678 27.7779 25.7431 28.0383L26.2282 27.917L26.7133 27.7957C26.677 27.6508 26.6522 27.4189 26.6522 27.081H26.1522ZM26.2282 27.917L25.7509 28.0661C25.8595 28.4135 26.0978 28.6681 26.4268 28.8121L26.6272 28.354L26.8276 27.8959C26.7513 27.8625 26.7235 27.8259 26.7054 27.7679L26.2282 27.917ZM26.6272 28.354L26.4516 28.8222C26.7411 28.9307 27.1254 28.968 27.5582 28.968V28.468V27.968C27.155 27.968 26.9186 27.9293 26.8027 27.8858L26.6272 28.354ZM27.5582 28.468H27.0582V29H27.5582H28.0582V28.468H27.5582ZM27.5582 29V28.5H23.1692V29V29.5H27.5582V29ZM23.1692 29H23.6692V28.468H23.1692H22.6692V29H23.1692ZM23.1692 28.468V28.968C23.6298 28.968 24.0375 28.9328 24.3239 28.8182L24.1382 28.354L23.9525 27.8898C23.8589 27.9272 23.6206 27.968 23.1692 27.968V28.468ZM24.1382 28.354L24.3386 28.8121C24.6798 28.6628 24.9196 28.388 24.9906 28.0091L24.4992 27.917L24.0077 27.8249C24.0029 27.8508 23.9964 27.8581 23.995 27.8598C23.9925 27.8627 23.9796 27.8776 23.9378 27.8959L24.1382 28.354ZM24.4992 27.917L24.9843 28.0383C25.0494 27.7779 25.0752 27.4524 25.0752 27.081H24.5752H24.0752C24.0752 27.4189 24.0504 27.6508 24.0141 27.7957L24.4992 27.917ZM24.5752 27.081H25.0752V23.642H24.5752H24.0752V27.081H24.5752ZM24.5752 23.642H25.0752C25.0752 22.8589 24.9863 22.2006 24.7623 21.7206L24.3092 21.932L23.8561 22.1434C23.9867 22.4234 24.0752 22.9051 24.0752 23.642H24.5752ZM24.3092 21.932L24.768 21.7332C24.5744 21.2864 24.2858 20.9138 23.8601 20.7314L23.6632 21.191L23.4662 21.6506C23.5726 21.6962 23.7147 21.8176 23.8504 22.1308L24.3092 21.932ZM23.6632 21.191L23.8782 20.7396C23.5458 20.5813 23.1938 20.501 22.8272 20.501V21.001V21.501C23.0433 21.501 23.2486 21.5474 23.4482 21.6424L23.6632 21.191ZM22.8272 21.001V20.501C22.2228 20.501 21.6769 20.6695 21.214 21.0207L21.5162 21.419L21.8184 21.8173C22.0901 21.6112 22.4182 21.501 22.8272 21.501V21.001ZM21.5162 21.419L21.2229 21.014C20.8456 21.2873 20.5044 21.5561 20.2001 21.8207L20.5282 22.198L20.8563 22.5753C21.1347 22.3332 21.4521 22.0827 21.8094 21.824L21.5162 21.419ZM20.5282 22.198H20.0282V27.081H20.5282H21.0282V22.198H20.5282ZM20.5282 27.081H20.0282C20.0282 27.4524 20.054 27.7779 20.1191 28.0383L20.6042 27.917L21.0893 27.7957C21.053 27.6508 21.0282 27.4189 21.0282 27.081H20.5282ZM20.6042 27.917L20.1191 28.0383C20.2099 28.4012 20.4489 28.6656 20.7838 28.8121L20.9842 28.354L21.1846 27.8959C21.1142 27.8651 21.0998 27.8381 21.0893 27.7957L20.6042 27.917ZM20.9842 28.354L20.8086 28.8222C21.101 28.9318 21.5077 28.968 21.9722 28.968V28.468V27.968C21.5247 27.968 21.2727 27.9282 21.1597 27.8858L20.9842 28.354ZM21.9722 28.468H21.4722V29H21.9722H22.4722V28.468H21.9722ZM21.9722 29V28.5H17.6212V29V29.5H21.9722V29ZM17.6212 29H18.1212V28.468H17.6212H17.1212V29H17.6212ZM17.6212 28.468V28.968C18.0564 28.968 18.4511 28.9332 18.7301 28.8136L18.5332 28.354L18.3362 27.8944C18.2606 27.9268 18.0473 27.968 17.6212 27.968V28.468ZM18.5332 28.354L18.7446 28.8071C19.0778 28.6516 19.2983 28.3734 19.3666 28.0091L18.8752 27.917L18.3837 27.8249C18.3778 27.8566 18.3696 27.8674 18.3674 27.8701C18.3651 27.8731 18.355 27.8854 18.3217 27.9009L18.5332 28.354ZM18.8752 27.917L19.3603 28.0383C19.4254 27.7779 19.4512 27.4524 19.4512 27.081H18.9512H18.4512C18.4512 27.4189 18.4263 27.6508 18.3901 27.7957L18.8752 27.917ZM18.9512 27.081H19.4512V21.742H18.9512H18.4512V27.081H18.9512ZM18.9512 21.742H19.4512C19.4512 21.3843 19.3888 20.929 19.0363 20.6726L18.7422 21.077L18.4481 21.4814C18.4054 21.4503 18.4082 21.4254 18.4219 21.4692C18.4362 21.5144 18.4512 21.6002 18.4512 21.742H18.9512ZM18.7422 21.077L19.0588 20.69C18.7999 20.4782 18.4757 20.406 18.1532 20.406V20.906V21.406C18.3374 21.406 18.4058 21.4478 18.4256 21.464L18.7422 21.077ZM18.1532 20.906V20.406C17.981 20.406 17.8264 20.4123 17.7025 20.43L17.7732 20.925L17.8439 21.42C17.8973 21.4123 17.9961 21.406 18.1532 21.406V20.906ZM17.7732 20.925L17.7025 20.43C17.6587 20.4363 17.6244 20.4412 17.6027 20.4443C17.5912 20.4459 17.5983 20.4449 17.5882 20.4464C17.5866 20.4466 17.5837 20.447 17.5825 20.4472C17.5823 20.4472 17.58 20.4475 17.58 20.4475C17.5794 20.4476 17.5783 20.4478 17.5778 20.4478C17.5776 20.4479 17.577 20.448 17.5768 20.448C17.5762 20.4481 17.5764 20.448 17.5758 20.4481C17.5749 20.4482 17.575 20.4482 17.5742 20.4484C17.5741 20.4484 17.5741 20.4484 17.5741 20.4484C17.574 20.4484 17.574 20.4484 17.574 20.4484C17.5739 20.4484 17.5738 20.4484 17.5738 20.4484C17.5736 20.4484 17.5736 20.4484 17.5734 20.4485C17.5732 20.4485 17.5729 20.4485 17.5727 20.4486C17.572 20.4487 17.5722 20.4486 17.5716 20.4487C17.5711 20.4488 17.5701 20.4489 17.57 20.449C17.57 20.449 17.5699 20.449 17.5699 20.449C17.5699 20.449 17.5699 20.449 17.5698 20.449C17.5698 20.449 17.5698 20.449 17.5698 20.449C17.5698 20.449 17.5698 20.449 17.5698 20.449C17.5698 20.449 17.5698 20.449 17.5698 20.449C17.5698 20.449 17.5697 20.449 17.5697 20.449C17.5697 20.449 17.5697 20.449 17.5697 20.449C17.5697 20.449 17.5697 20.449 17.5697 20.449C17.5697 20.449 17.5696 20.449 17.5696 20.449C17.5696 20.449 17.5696 20.449 17.5696 20.449C17.5696 20.449 17.5696 20.449 17.5696 20.449C17.5696 20.449 17.5696 20.449 17.5695 20.449C17.5695 20.449 17.5695 20.449 17.5695 20.449C17.5695 20.449 17.5695 20.449 17.5695 20.449C17.5695 20.449 17.5695 20.449 17.5695 20.449C17.5695 20.449 17.5695 20.449 17.5695 20.449C17.5695 20.449 17.5695 20.449 17.5695 20.449C17.5695 20.449 17.5695 20.449 17.5695 20.449C17.5695 20.449 17.5695 20.449 17.5695 20.449C17.5695 20.449 17.5695 20.449 17.6402 20.944C17.7109 21.439 17.7109 21.439 17.7109 21.439C17.7109 21.439 17.7109 21.439 17.7109 21.439H17.7109C17.7109 21.439 17.7109 21.439 17.7109 21.439C17.7109 21.439 17.7109 21.439 17.7109 21.439C17.7109 21.439 17.7109 21.439 17.7109 21.439C17.7109 21.439 17.7109 21.439 17.7109 21.439C17.7109 21.439 17.7109 21.439 17.7109 21.439C17.7109 21.439 17.7109 21.439 17.7109 21.439C17.7109 21.439 17.7109 21.439 17.7109 21.439C17.7109 21.439 17.711 21.439 17.711 21.439C17.711 21.439 17.711 21.439 17.711 21.439C17.711 21.439 17.711 21.439 17.711 21.439C17.711 21.439 17.711 21.439 17.711 21.439C17.711 21.439 17.711 21.439 17.711 21.439C17.711 21.439 17.7111 21.4389 17.7111 21.4389C17.7111 21.4389 17.7111 21.4389 17.7112 21.4389C17.7112 21.4389 17.7113 21.4389 17.7114 21.4389C17.7115 21.4389 17.7125 21.4387 17.713 21.4387C17.7136 21.4386 17.7146 21.4384 17.7156 21.4383C17.7158 21.4383 17.7169 21.4381 17.7173 21.4381C17.7175 21.438 17.7189 21.4378 17.7192 21.4378C17.7194 21.4378 17.7211 21.4375 17.7214 21.4375C17.722 21.4374 17.722 21.4374 17.7226 21.4373C17.7228 21.4373 17.7236 21.4372 17.7239 21.4371C17.7244 21.437 17.7288 21.4364 17.7296 21.4363C17.7334 21.4358 17.739 21.435 17.7441 21.4342C17.7443 21.4342 17.7445 21.4342 17.7447 21.4341C17.7448 21.4341 17.7448 21.4341 17.7449 21.4341C17.745 21.4341 17.7451 21.4341 17.7452 21.4341C17.7453 21.4341 17.7454 21.434 17.7455 21.434C17.7455 21.434 17.7456 21.434 17.7457 21.434C17.7458 21.434 17.7462 21.4339 17.7463 21.4339C17.7467 21.4339 17.748 21.4337 17.7484 21.4336C17.7485 21.4336 17.7486 21.4336 17.7487 21.4336C17.7488 21.4336 17.7489 21.4335 17.749 21.4335C17.7491 21.4335 17.7492 21.4335 17.7493 21.4335C17.7494 21.4335 17.7494 21.4335 17.7495 21.4335C17.7496 21.4334 17.75 21.4334 17.7501 21.4334C17.7502 21.4334 17.7503 21.4333 17.7504 21.4333C17.7505 21.4333 17.7506 21.4333 17.7507 21.4333C17.7508 21.4333 17.7509 21.4333 17.751 21.4333C17.751 21.4332 17.7511 21.4332 17.7512 21.4332C17.7513 21.4332 17.7514 21.4332 17.7515 21.4332C17.7516 21.4332 17.7517 21.4331 17.7518 21.4331C17.7523 21.4331 17.7525 21.433 17.753 21.433C17.7533 21.4329 17.7538 21.4328 17.7542 21.4328C17.7543 21.4328 17.7544 21.4328 17.7544 21.4328C17.7545 21.4327 17.7546 21.4327 17.7547 21.4327C17.7548 21.4327 17.7549 21.4327 17.755 21.4327C17.7551 21.4327 17.7552 21.4326 17.7553 21.4326C17.7554 21.4326 17.7555 21.4326 17.7556 21.4326C17.7557 21.4326 17.7558 21.4326 17.7559 21.4325C17.7561 21.4325 17.7562 21.4325 17.7563 21.4325C17.7564 21.4325 17.7565 21.4325 17.7566 21.4325C17.7567 21.4324 17.7568 21.4324 17.7569 21.4324C17.757 21.4324 17.7571 21.4324 17.7572 21.4324C17.7573 21.4323 17.7577 21.4323 17.7578 21.4323C17.7586 21.4322 17.7594 21.432 17.7603 21.4319C17.7604 21.4319 17.7608 21.4319 17.7609 21.4318C17.761 21.4318 17.7611 21.4318 17.7612 21.4318C17.7613 21.4318 17.7614 21.4318 17.7616 21.4317C17.7617 21.4317 17.7627 21.4316 17.7628 21.4316C17.7652 21.4312 17.782 21.4288 17.7857 21.4283C17.7881 21.4279 17.8089 21.425 17.8127 21.4244C17.8182 21.4236 17.822 21.4231 17.8278 21.4223C17.8286 21.4222 17.8348 21.4213 17.8357 21.4211C17.836 21.4211 17.8364 21.421 17.8367 21.421C17.8369 21.421 17.8371 21.421 17.8372 21.4209C17.8374 21.4209 17.8376 21.4209 17.8377 21.4209C17.8379 21.4208 17.8386 21.4207 17.8387 21.4207C17.8389 21.4207 17.8391 21.4207 17.8393 21.4206C17.8394 21.4206 17.8396 21.4206 17.8398 21.4206C17.84 21.4205 17.8437 21.42 17.8439 21.42L17.7732 20.925ZM17.6402 20.944H18.1402V20.393H17.6402H17.1402V20.944H17.6402ZM17.6402 20.393L17.7515 20.8805L20.1645 20.3295L20.0532 19.842L19.9419 19.3545L17.5289 19.9055L17.6402 20.393ZM20.0532 19.842V20.342H20.4902V19.842V19.342H20.0532V19.842ZM20.4902 19.842L19.9902 19.8358L19.9712 21.3748L20.4712 21.381L20.9711 21.3872L20.9901 19.8482L20.4902 19.842ZM20.4712 21.381V21.881H20.5472V21.381V20.881H20.4712V21.381ZM20.5472 21.381L20.8771 21.7567C21.3839 21.3117 21.8539 20.9461 22.2875 20.657L22.0102 20.241L21.7328 19.825C21.2544 20.1439 20.7492 20.5383 20.2173 21.0053L20.5472 21.381ZM22.0102 20.241L22.2823 20.6605C22.6645 20.4125 23.1008 20.285 23.6062 20.285V19.785V19.285C22.9209 19.285 22.2932 19.4615 21.7381 19.8215L22.0102 20.241ZM23.6062 19.785V20.285C24.3431 20.285 24.8144 20.5259 25.1189 20.9505L25.5252 20.659L25.9315 20.3675C25.4 19.6267 24.5919 19.285 23.6062 19.285V19.785ZM25.5252 20.659L25.1189 20.9505C25.4517 21.4144 25.6522 22.1312 25.6522 23.167H26.1522H26.6522C26.6522 22.0242 26.4346 21.0689 25.9315 20.3675L25.5252 20.659ZM28.8724 16.517V16.017H28.3724V16.517H28.8724ZM35.3514 16.669L35.262 17.1611L35.2746 17.1631L35.3514 16.669ZM36.8525 17.144L36.6185 17.5859L36.6238 17.5886L36.8525 17.144ZM37.8974 18.113L37.4698 18.3722L37.4745 18.3798L37.4794 18.3873L37.8974 18.113ZM37.8784 21.533L38.314 21.7787L38.3166 21.774L37.8784 21.533ZM36.7384 22.73L36.4714 22.3072L36.4664 22.3105L36.7384 22.73ZM35.1424 23.376L35.2465 23.8651L35.1424 23.376ZM32.7104 23.528L32.652 24.0246L32.7104 23.528ZM32.2355 23.414L32.4591 22.9668L31.7354 22.605V23.414H32.2355ZM32.3875 27.822L31.9232 28.0077L31.9271 28.0175L31.9315 28.0272L32.3875 27.822ZM32.9764 28.316L32.8449 28.7984L32.9764 28.316ZM34.1544 28.43H34.6544V27.93H34.1544V28.43ZM34.1544 29V29.5H34.6544V29H34.1544ZM28.7964 29H28.2964V29.5H28.7964V29ZM28.7964 28.43V27.93H28.2964V28.43H28.7964ZM29.8984 28.297L30.0713 28.7662L29.8984 28.297ZM30.3734 27.784L30.8524 27.9277L30.8542 27.9214L30.3734 27.784ZM30.1264 17.334L29.8336 17.7395L29.8441 17.7467L30.1264 17.334ZM28.8724 17.087H28.3724V17.587H28.8724V17.087ZM32.2355 17.334L32.1734 16.8379L31.7354 16.8926V17.334H32.2355ZM32.2355 22.711H31.7354V23.1524L32.1734 23.2071L32.2355 22.711ZM32.6725 22.768L32.6064 23.2636L32.6238 23.2659L32.6413 23.267L32.6725 22.768ZM35.5984 22.198L35.8954 22.6003L35.897 22.5991L35.5984 22.198ZM35.6554 17.961L35.3112 18.3239L35.321 18.3326L35.6554 17.961ZM32.8055 17.277L32.7722 16.7781L32.7698 16.7783L32.8055 17.277ZM28.8724 16.517V17.017H33.6035V16.517V16.017H28.8724V16.517ZM33.6035 16.517V17.017C34.1836 17.017 34.7362 17.0653 35.262 17.1609L35.3514 16.669L35.4409 16.1771C34.852 16.07 34.2393 16.017 33.6035 16.017V16.517ZM35.3514 16.669L35.2746 17.1631C35.7995 17.2447 36.245 17.3882 36.6185 17.5859L36.8525 17.144L37.0864 16.7021C36.5985 16.4438 36.0434 16.2706 35.4283 16.1749L35.3514 16.669ZM36.8525 17.144L36.6238 17.5886C36.9867 17.7753 37.2654 18.0348 37.4698 18.3722L37.8974 18.113L38.325 17.8538C38.0228 17.3552 37.6049 16.9687 37.0811 16.6994L36.8525 17.144ZM37.8974 18.113L37.4794 18.3873C37.6778 18.6896 37.7965 19.1057 37.7965 19.671H38.2965H38.7965C38.7965 18.9696 38.6491 18.347 38.3155 17.8387L37.8974 18.113ZM38.2965 19.671H37.7965C37.7965 20.3437 37.6689 20.8765 37.4403 21.292L37.8784 21.533L38.3166 21.774C38.6454 21.1761 38.7965 20.4676 38.7965 19.671H38.2965ZM37.8784 21.533L37.443 21.2873C37.2051 21.709 36.8831 22.0473 36.4715 22.3073L36.7384 22.73L37.0054 23.1527C37.5565 22.8047 37.9945 22.345 38.3139 21.7787L37.8784 21.533ZM36.7384 22.73L36.4664 22.3105C36.0534 22.5784 35.5793 22.7719 35.0384 22.8869L35.1424 23.376L35.2465 23.8651C35.8963 23.7268 36.4862 23.4896 37.0105 23.1495L36.7384 22.73ZM35.1424 23.376L35.0384 22.8869C34.4779 23.0062 33.9048 23.066 33.3185 23.066V23.566V24.066C33.9734 24.066 34.6163 23.9991 35.2465 23.8651L35.1424 23.376ZM33.3185 23.566V23.066C33.1505 23.066 32.9675 23.0548 32.7689 23.0314L32.7104 23.528L32.652 24.0246C32.8841 24.0519 33.1064 24.066 33.3185 24.066V23.566ZM32.7104 23.528L32.7689 23.0314C32.5684 23.0078 32.4806 22.9776 32.4591 22.9668L32.2355 23.414L32.0118 23.8612C32.1929 23.9518 32.4218 23.9975 32.652 24.0246L32.7104 23.528ZM32.2355 23.414H31.7354V26.663H32.2355H32.7355V23.414H32.2355ZM32.2355 26.663H31.7354C31.7354 27.199 31.7855 27.6635 31.9232 28.0077L32.3875 27.822L32.8517 27.6363C32.7867 27.4739 32.7355 27.1656 32.7355 26.663H32.2355ZM32.3875 27.822L31.9315 28.0272C32.1095 28.4229 32.4287 28.6849 32.8449 28.7984L32.9764 28.316L33.108 27.8336C32.9669 27.7951 32.8934 27.7278 32.8434 27.6168L32.3875 27.822ZM32.9764 28.316L32.8449 28.7984C33.187 28.8917 33.6314 28.93 34.1544 28.93V28.43V27.93C33.6642 27.93 33.3233 27.8923 33.108 27.8336L32.9764 28.316ZM34.1544 28.43H33.6544V29H34.1544H34.6544V28.43H34.1544ZM34.1544 29V28.5H28.7964V29V29.5H34.1544V29ZM28.7964 29H29.2964V28.43H28.7964H28.2964V29H28.7964ZM28.7964 28.43V28.93C29.3052 28.93 29.7451 28.8863 30.0713 28.7662L29.8984 28.297L29.7256 27.8278C29.5704 27.885 29.2757 27.93 28.7964 27.93V28.43ZM29.8984 28.297L30.0713 28.7662C30.4648 28.6212 30.7328 28.3261 30.8524 27.9277L30.3734 27.784L29.8945 27.6403C29.8621 27.7486 29.8134 27.7955 29.7256 27.8278L29.8984 28.297ZM30.3734 27.784L30.8542 27.9214C30.9499 27.5866 30.9874 27.131 30.9874 26.587H30.4874H29.9874C29.9874 27.107 29.949 27.4494 29.8927 27.6466L30.3734 27.784ZM30.4874 26.587H30.9874V18.417H30.4874H29.9874V26.587H30.4874ZM30.4874 18.417H30.9874C30.9874 17.8365 30.8712 17.2378 30.4088 16.9213L30.1264 17.334L29.8441 17.7467C29.863 17.7596 29.9874 17.8828 29.9874 18.417H30.4874ZM30.1264 17.334L30.4192 16.9287C30.2245 16.788 29.9853 16.7068 29.7386 16.6582C29.4875 16.6087 29.1964 16.587 28.8724 16.587V17.087V17.587C29.1565 17.587 29.3784 17.6065 29.5453 17.6393C29.7166 17.6731 29.8004 17.7153 29.8337 17.7393L30.1264 17.334ZM28.8724 17.087H29.3724V16.517H28.8724H28.3724V17.087H28.8724ZM32.2355 17.334H31.7354V22.711H32.2355H32.7355V17.334H32.2355ZM32.2355 22.711L32.1734 23.2071C32.2727 23.2195 32.4168 23.2383 32.6064 23.2636L32.6725 22.768L32.7385 22.2724C32.5481 22.247 32.4009 22.2278 32.2975 22.2149L32.2355 22.711ZM32.6725 22.768L32.6413 23.267C32.8536 23.2803 33.0604 23.287 33.2614 23.287V22.787V22.287C33.0825 22.287 32.8966 22.281 32.7036 22.269L32.6725 22.768ZM33.2614 22.787V23.287C34.3391 23.287 35.2416 23.0828 35.8954 22.6003L35.5984 22.198L35.3015 21.7957C34.8913 22.0985 34.2358 22.287 33.2614 22.287V22.787ZM35.5984 22.198L35.897 22.5991C36.6309 22.0529 36.9155 21.0982 36.9155 19.937H36.4155H35.9155C35.9155 20.9798 35.6553 21.5324 35.2999 21.7969L35.5984 22.198ZM36.4155 19.937H36.9155C36.9155 18.9739 36.6284 18.164 35.9899 17.5894L35.6554 17.961L35.321 18.3326C35.6958 18.67 35.9155 19.1774 35.9155 19.937H36.4155ZM35.6554 17.961L35.9996 17.5983C35.3751 17.0058 34.466 16.758 33.3755 16.758V17.258V17.758C34.3369 17.758 34.9478 17.9789 35.3113 18.3237L35.6554 17.961ZM33.3755 17.258V16.758C33.1743 16.758 32.9732 16.7647 32.7722 16.7781L32.8055 17.277L32.8387 17.7759C33.0177 17.764 33.1966 17.758 33.3755 17.758V17.258ZM32.8055 17.277L32.7698 16.7783C32.5825 16.7917 32.3836 16.8116 32.1734 16.8379L32.2355 17.334L32.2975 17.8301C32.4926 17.8057 32.6737 17.7877 32.8411 17.7757L32.8055 17.277Z" fill="#01BD88" mask="url(#path-2-outside-1_2014_7444)"/>
</svg>
