<svg width="50" height="50" viewBox="0 0 50 50" fill="none" xmlns="http://www.w3.org/2000/svg">
<rect x="0.5" y="0.5" width="49" height="49" rx="9.5" stroke="#01BD88"/>
<path d="M21.8526 40.3846H14.6175C13.6581 40.3846 12.738 40.0172 12.0596 39.3632C11.3811 38.7093 11 37.8223 11 36.8974V12.4872C11 11.5623 11.3811 10.6753 12.0596 10.0214C12.738 9.3674 13.6581 9 14.6175 9H29.0877C30.0471 9 30.9673 9.3674 31.6457 10.0214C32.3241 10.6753 32.7052 11.5623 32.7052 12.4872V23.8205M20.2247 13.1846H24.5658M21.8526 33.4103V33.4277M34.5158 40.3846C33.5564 40.3846 32.6362 40.0172 31.9578 39.3632C31.2794 38.7093 30.8983 37.8223 30.8983 36.8974C30.8983 35.9726 31.2794 35.0856 31.9578 34.4316C32.6362 33.7777 33.5564 33.4103 34.5158 33.4103M34.5158 40.3846C35.4752 40.3846 36.3954 40.0172 37.0738 39.3632C37.7522 38.7093 38.1333 37.8223 38.1333 36.8974C38.1333 35.9726 37.7522 35.0856 37.0738 34.4316C36.3954 33.7777 35.4752 33.4103 34.5158 33.4103M34.5158 40.3846V43M34.5158 33.4103V30.7949M39.9982 33.8462L37.6486 35.1538M31.3848 38.641L29.0334 39.9487M29.0334 33.8462L31.3848 35.1538M37.6486 38.641L40 39.9487" stroke="#01BD88" stroke-width="3.5" stroke-linecap="round" stroke-linejoin="round"/>
</svg>
