<svg width="50" height="50" viewBox="0 0 50 50" fill="none" xmlns="http://www.w3.org/2000/svg">
<rect x="0.5" y="0.5" width="49" height="49" rx="9.5" stroke="#01BD88"/>
<path d="M33.4 19.6999C35.5539 19.6999 37.3 17.9538 37.3 15.7999C37.3 13.646 35.5539 11.8999 33.4 11.8999C31.2461 11.8999 29.5 13.646 29.5 15.7999C29.5 17.9538 31.2461 19.6999 33.4 19.6999Z" fill="#01BD88" stroke="#444444" stroke-linecap="round" stroke-linejoin="round"/>
<path d="M20.4004 21.3999C19.6358 18.9216 19.7337 16.2574 20.6781 13.8419C21.6225 11.4265 23.3576 9.40236 25.6004 8.09988C27.8564 6.80247 30.4909 6.3228 33.0595 6.74179C35.628 7.16078 37.9735 8.45278 39.7004 10.3999C41.4208 12.3283 42.4296 14.7872 42.5592 17.3682C42.6888 19.9493 41.9313 22.4969 40.4127 24.5879C38.8941 26.6789 36.7058 28.1874 34.2113 28.8626C31.7168 29.5379 29.0664 29.3393 26.7004 28.2999" fill="#01BD88"/>
<path d="M20.5 21L6.5 37.1V42.5H12.6L13.3 38.3L19.8 37.9L20.3 32.4L25.8 32.3L27.5 28" fill="#01BD88"/>
<circle cx="32" cy="17" r="5" fill="white"/>
</svg>
