<svg width="79" height="79" viewBox="0 0 79 79" fill="none" xmlns="http://www.w3.org/2000/svg">
<path d="M34 58.5358H16.5C15.1193 58.5358 14 57.4492 14 56.109V12.4268C14 11.0865 15.1193 10 16.5 10H51.5C52.8807 10 54 11.0865 54 12.4268V23.3473V34.2679" fill="#01BD88"/>
<path d="M34 58.5358H16.5C15.1193 58.5358 14 57.4492 14 56.109V12.4268C14 11.0865 15.1193 10 16.5 10H51.5C52.8807 10 54 11.0865 54 12.4268V23.3473V34.2679" stroke="#01BD88" stroke-width="4" stroke-linecap="round" stroke-linejoin="round"/>
<path d="M19 22.1343H39Z" fill="#01BD88"/>
<path d="M19 22.1343H39" stroke="white" stroke-width="4" stroke-linecap="round"/>
<path d="M19 34.2681H31.5Z" fill="#01BD88"/>
<path d="M19 34.2681H31.5M19 46.402H25.25" stroke="white" stroke-width="4" stroke-linecap="round"/>
<path d="M36.5 66.3014H27.5C26.1193 66.3014 25 65.2148 25 63.8746V20.1924C25 18.8521 26.1193 17.7656 27.5 17.7656H62.5C63.8807 17.7656 65 18.8521 65 20.1924V26.2594" stroke="white" stroke-width="4" stroke-linecap="round" stroke-linejoin="round"/>
<path d="M46.75 67.9999H29.25C27.8693 67.9999 26.75 66.9133 26.75 65.5731V21.8909C26.75 20.5506 27.8693 19.4641 29.25 19.4641H64.25C65.6307 19.4641 66.75 20.5506 66.75 21.8909V32.8115V43.732" fill="white"/>
<path d="M46.75 67.9999H29.25C27.8693 67.9999 26.75 66.9133 26.75 65.5731V21.8909C26.75 20.5506 27.8693 19.4641 29.25 19.4641H64.25C65.6307 19.4641 66.75 20.5506 66.75 21.8909V32.8115V43.732" stroke="#01BD88" stroke-width="4" stroke-linecap="round" stroke-linejoin="round"/>
<path d="M36.75 31.5984H56.75Z" fill="white"/>
<path d="M36.75 31.5984H56.75" stroke="#01BD88" stroke-width="4" stroke-linecap="round"/>
<path d="M36.75 43.7322H49.25Z" fill="white"/>
<path d="M36.75 43.7322H49.25M36.75 55.8661H43" stroke="#01BD88" stroke-width="4" stroke-linecap="round"/>
<path d="M52.1875 47.5C56.4332 47.5 59.8758 50.9418 59.876 55.1875C59.876 59.4333 56.4333 62.876 52.1875 62.876C47.9418 62.8758 44.5 59.4332 44.5 55.1875C44.5001 50.9419 47.9419 47.5001 52.1875 47.5Z" stroke="#01BD88" stroke-width="3" stroke-linecap="round" stroke-linejoin="round"/>
<path d="M58.6846 61.6841L64.0004 66.9999" stroke="#01BD88" stroke-width="3" stroke-linecap="round" stroke-linejoin="round"/>
<path d="M14 0.5H65C72.4558 0.5 78.5 6.54416 78.5 14V65C78.5 72.4558 72.4558 78.5 65 78.5H14C6.54416 78.5 0.5 72.4558 0.5 65V14C0.500001 6.54416 6.54416 0.5 14 0.5Z" stroke="#01BD88"/>
</svg>
