<svg width="50" height="50" viewBox="0 0 50 50" fill="none" xmlns="http://www.w3.org/2000/svg">
<rect x="1" y="1" width="48" height="48" rx="9" stroke="#01BD88" stroke-width="2"/>
<path fill-rule="evenodd" clip-rule="evenodd" d="M24.3162 28.8235C25.9495 28.8235 27.5158 28.2038 28.6706 27.1006C29.8255 25.9975 30.4743 24.5013 30.4743 22.9412C30.4743 21.3811 29.8255 19.8849 28.6706 18.7817C27.5158 17.6786 25.9495 17.0588 24.3162 17.0588C22.683 17.0588 21.1167 17.6786 19.9619 18.7817C18.807 19.8849 18.1582 21.3811 18.1582 22.9412C18.1582 24.5013 18.807 25.9975 19.9619 27.1006C21.1167 28.2038 22.683 28.8235 24.3162 28.8235ZM24.3162 21.7647C24.6429 21.7647 24.9562 21.8887 25.1871 22.1093C25.4181 22.3299 25.5479 22.6292 25.5479 22.9412C25.5479 23.2532 25.4181 23.5524 25.1871 23.7731C24.9562 23.9937 24.6429 24.1176 24.3162 24.1176C23.9896 24.1176 23.6763 23.9937 23.4454 23.7731C23.2144 23.5524 23.0846 23.2532 23.0846 22.9412C23.0846 22.6292 23.2144 22.3299 23.4454 22.1093C23.6763 21.8887 23.9896 21.7647 24.3162 21.7647Z" fill="#01BD88"/>
<path fill-rule="evenodd" clip-rule="evenodd" d="M12 22.4376C12 29.2918 18.9093 40.5882 24.3161 40.5882C29.7228 40.5882 36.6322 29.2918 36.6322 22.4376C36.6322 15.6 31.1564 10 24.3161 10C17.4757 10 12 15.6024 12 22.4376ZM31.7057 22.4376C31.7057 27.0353 26.294 35.8824 24.3161 35.8824C22.3381 35.8824 16.9264 27.0353 16.9264 22.4376C16.9264 18.1318 20.2764 14.7059 24.3161 14.7059C28.3558 14.7059 31.7057 18.1318 31.7057 22.4376Z" fill="#01BD88"/>
</svg>
