<svg width="27" height="26" viewBox="0 0 27 26" fill="none" xmlns="http://www.w3.org/2000/svg">
<path d="M13.0997 0C5.89902 0 0.0751953 5.85 0.0751953 13.0743C0.0751953 19.5929 4.83845 25.0157 11.0716 26V16.8629H7.75967V13.0743H11.0716V10.1957C11.0716 6.90857 13.0253 5.10714 15.9837 5.10714C17.4164 5.10714 18.905 5.36714 18.905 5.36714V8.58H17.2676C15.6488 8.58 15.1464 9.58286 15.1464 10.6229V13.0743H18.7561L18.1793 16.8629H15.1464V26C21.3796 25.0157 26.1429 19.6114 26.1429 13.0743C26.1429 5.85 20.319 0 13.1183 0H13.0997Z" fill="white"/>
</svg>
