<svg width="40" height="40" viewBox="0 0 40 40" fill="none" xmlns="http://www.w3.org/2000/svg">
<path d="M10.7147 4.79107C10.9249 4.54028 11.0283 4.21711 11.0028 3.89092C10.9773 3.56473 10.825 3.26154 10.5784 3.04643C10.3319 2.83132 10.0109 2.72144 9.68424 2.74038C9.35761 2.75932 9.05142 2.90557 8.83141 3.14774L6.67808 5.6144C5.45705 7.01368 4.76681 8.79769 4.72808 10.6544L4.63308 15.1861C4.62623 15.5176 4.75135 15.8383 4.98093 16.0775C5.21051 16.3168 5.52573 16.4551 5.85725 16.4619C6.18877 16.4688 6.50943 16.3436 6.7487 16.1141C6.98796 15.8845 7.12623 15.5693 7.13308 15.2377L7.22641 10.7077C7.25315 9.43728 7.7257 8.21667 8.56141 7.2594L10.7147 4.79107Z" fill="white"/>
<path fill-rule="evenodd" clip-rule="evenodd" d="M10.3166 10.2354C10.4256 8.50199 11.1925 6.87517 12.461 5.68616C13.7296 4.49714 15.4045 3.83533 17.1447 3.83544H18.049V2.62025C18.049 2.19054 18.22 1.77842 18.5245 1.47456C18.8289 1.1707 19.2418 1 19.6724 1C20.103 1 20.5159 1.1707 20.8203 1.47456C21.1248 1.77842 21.2958 2.19054 21.2958 2.62025V3.83544H22.2001C23.9403 3.83533 25.6152 4.49714 26.8838 5.68616C28.1523 6.87517 28.9192 8.50199 29.0282 10.2354L29.387 15.9614C29.5237 18.1446 30.2582 20.2485 31.5104 22.0438C31.7691 22.415 31.9272 22.8466 31.9693 23.2968C32.0113 23.747 31.936 24.2004 31.7505 24.6129C31.565 25.0254 31.2757 25.3829 30.9108 25.6508C30.5458 25.9186 30.1176 26.0877 29.6678 26.1415L24.1368 26.8025V28.5443C24.1368 29.726 23.6665 30.8594 22.8292 31.695C21.992 32.5306 20.8564 33 19.6724 33C18.4884 33 17.3528 32.5306 16.5156 31.695C15.6784 30.8594 15.208 29.726 15.208 28.5443V26.8025L9.67699 26.1398C9.22746 26.0859 8.79955 25.9168 8.43483 25.6491C8.0701 25.3813 7.78097 25.024 7.59553 24.6117C7.41008 24.1995 7.33462 23.7464 7.37648 23.2964C7.41834 22.8465 7.57609 22.415 7.83441 22.0438C9.08656 20.2485 9.82104 18.1446 9.95785 15.9614L10.3166 10.2354ZM17.6431 28.5443C17.6431 29.0815 17.8569 29.5966 18.2375 29.9764C18.6181 30.3562 19.1342 30.5696 19.6724 30.5696C20.2106 30.5696 20.7268 30.3562 21.1073 29.9764C21.4879 29.5966 21.7017 29.0815 21.7017 28.5443V27.3291H17.6431V28.5443Z" fill="white"/>
<path d="M29.4045 3.02771C29.1549 3.24566 29.002 3.55386 28.9794 3.88453C28.9569 4.2152 29.0667 4.54127 29.2845 4.79104L31.4379 7.25771C32.2733 8.21564 32.7453 9.43689 32.7712 10.7077L32.8662 15.236C32.8696 15.4002 32.9053 15.5621 32.9712 15.7124C33.0372 15.8628 33.1321 15.9987 33.2506 16.1124C33.3691 16.226 33.5088 16.3153 33.6617 16.3749C33.8147 16.4346 33.9779 16.4636 34.142 16.4602C34.3062 16.4568 34.4681 16.4211 34.6184 16.3552C34.7688 16.2892 34.9047 16.1943 35.0184 16.0758C35.132 15.9574 35.2213 15.8176 35.2809 15.6647C35.3406 15.5117 35.3696 15.3485 35.3662 15.1844L35.2712 10.6544C35.2325 8.79766 34.5422 7.01365 33.3212 5.61437L31.1679 3.14771C30.9499 2.89802 30.6417 2.74512 30.3111 2.72261C29.9804 2.70011 29.6543 2.80985 29.4045 3.02771Z" fill="white"/>
</svg>
