<svg width="79" height="79" viewBox="0 0 79 79" fill="none" xmlns="http://www.w3.org/2000/svg">
<rect x="0.5" y="0.5" width="78" height="78" rx="9.5" stroke="#157844"/>
<path d="M40.7287 9.22974C40.5615 9.03718 40.354 8.88259 40.1205 8.7766C39.8869 8.6706 39.6328 8.61572 39.3757 8.61572C39.1186 8.61572 38.8646 8.6706 38.631 8.7766C38.3975 8.88259 38.19 9.03718 38.0227 9.22974C33.3232 14.6497 18 33.3876 18 47.2676C18 60.2021 26.2591 68.3445 39.375 68.3445C52.4909 68.3445 60.75 60.2021 60.75 47.2676C60.75 33.3876 45.4268 14.6497 40.7287 9.22974ZM41.75 60.7334C41.4647 60.734 41.1834 60.667 40.9299 60.5381C40.6763 60.4092 40.4578 60.2221 40.2928 59.9926C40.1279 59.7631 40.0212 59.4979 39.9819 59.2192C39.9425 58.9406 39.9716 58.6567 40.0667 58.3915C40.1882 58.0454 40.4173 57.746 40.7214 57.5357C41.0254 57.3255 41.389 57.2152 41.7604 57.2206C44.1182 57.2155 46.3779 56.2898 48.0451 54.6458C49.7123 53.0019 50.6512 50.7737 50.6562 48.4488C50.6508 48.0826 50.7627 47.7241 50.9759 47.4242C51.1891 47.1244 51.4928 46.8985 51.8438 46.7787C52.1127 46.685 52.4006 46.6563 52.6832 46.6951C52.9658 46.7339 53.2347 46.839 53.4675 47.0017C53.7003 47.1644 53.89 47.3798 54.0207 47.6298C54.1515 47.8799 54.2194 48.1572 54.2188 48.4385C54.2152 51.6983 52.9004 54.8235 50.5628 57.1285C48.2253 59.4334 45.0558 60.7299 41.75 60.7334Z" fill="#157844"/>
</svg>
