<svg width="50" height="50" viewBox="0 0 50 50" fill="none" xmlns="http://www.w3.org/2000/svg">
<rect x="1" y="1" width="48" height="48" rx="9" stroke="#01BD88" stroke-width="2"/>
<path d="M7 7V39.375C7 40.6016 7.43313 41.778 8.20412 42.6454C8.9751 43.5127 10.0208 44 11.1111 44H39.8889C40.9792 44 42.0249 43.5127 42.7959 42.6454C43.5669 41.778 44 40.6016 44 39.375V16.25H35.7778" fill="#01BD88"/>
<path d="M7 7V39.375C7 40.6016 7.43313 41.778 8.20412 42.6454C8.9751 43.5127 10.0208 44 11.1111 44H39.8889C40.9792 44 42.0249 43.5127 42.7959 42.6454C43.5669 41.778 44 40.6016 44 39.375V16.25H35.7778" stroke="white" stroke-width="3" stroke-linecap="round" stroke-linejoin="round"/>
<path d="M7 7H35.7778V39.375C35.7778 40.6016 36.2109 41.778 36.9819 42.6454C37.7529 43.5127 38.7985 44 39.8889 44M31.42 28.5834H21.3889H15.2222M31.42 35.9834H19.3333H31.42Z" fill="#01BD88"/>
<path d="M7 7H35.7778V39.375C35.7778 40.6016 36.2109 41.778 36.9819 42.6454C37.7529 43.5127 38.7986 44 39.8889 44M31.42 28.5834H21.3889H15.2222M31.42 35.9834H19.3333M31.42 20.8134H21.3889H10.33" stroke="white" stroke-width="3" stroke-linecap="round" stroke-linejoin="round"/>
<path d="M15.7789 15.8049H13.0509V15.4609C13.2535 15.4609 13.4082 15.4449 13.5149 15.4129C13.6215 15.3809 13.6935 15.3115 13.7309 15.2049C13.7735 15.0982 13.7949 14.9355 13.7949 14.7169V11.5169C13.7949 11.3569 13.7762 11.2315 13.7389 11.1409C13.7069 11.0502 13.6375 10.9862 13.5309 10.9489C13.4242 10.9115 13.2642 10.8929 13.0509 10.8929V10.5489H15.6589C16.0322 10.5489 16.3762 10.5915 16.6909 10.6769C17.0109 10.7569 17.2669 10.8955 17.4589 11.0929C17.6562 11.2849 17.7549 11.5515 17.7549 11.8929C17.7549 12.1862 17.6962 12.4235 17.5789 12.6049C17.4615 12.7862 17.3069 12.9275 17.1149 13.0289C16.9229 13.1302 16.7149 13.2075 16.4909 13.2609V13.3009C16.5762 13.3542 16.6669 13.4422 16.7629 13.5649C16.8589 13.6822 16.9895 13.8582 17.1549 14.0929C17.3202 14.3275 17.5469 14.6475 17.8349 15.0529C17.9575 15.2289 18.0829 15.3409 18.2109 15.3889C18.3442 15.4369 18.5015 15.4609 18.6829 15.4609V15.8049H16.8669C16.6855 15.4849 16.5362 15.2209 16.4189 15.0129C16.3015 14.8049 16.2002 14.6342 16.1149 14.5009C16.0349 14.3622 15.9602 14.2369 15.8909 14.1249C15.8269 14.0129 15.7549 13.8929 15.6749 13.7649C15.6055 13.6422 15.5335 13.5649 15.4589 13.5329C15.3895 13.5009 15.2855 13.4849 15.1469 13.4849H14.9869V14.7249C14.9869 14.9382 15.0055 15.0982 15.0429 15.2049C15.0802 15.3115 15.1549 15.3809 15.2669 15.4129C15.3789 15.4449 15.5495 15.4609 15.7789 15.4609V15.8049ZM14.9869 13.0929L15.2909 13.1009C15.5575 13.0849 15.7815 13.0422 15.9629 12.9729C16.1442 12.9035 16.2802 12.7889 16.3709 12.6289C16.4669 12.4635 16.5149 12.2369 16.5149 11.9489C16.5149 11.6449 16.4322 11.4022 16.2669 11.2209C16.1069 11.0342 15.8402 10.9409 15.4669 10.9409C15.3815 10.9409 15.2989 10.9435 15.2189 10.9489C15.1389 10.9489 15.0615 10.9542 14.9869 10.9649V13.0929ZM21.2228 15.8049H18.8868V15.4609C19.1055 15.4609 19.2681 15.4449 19.3748 15.4129C19.4815 15.3755 19.5508 15.3035 19.5828 15.1969C19.6148 15.0902 19.6308 14.9275 19.6308 14.7089V11.5729C19.6308 11.3755 19.6068 11.2315 19.5588 11.1409C19.5161 11.0449 19.4388 10.9835 19.3268 10.9569C19.2201 10.9302 19.0735 10.9169 18.8868 10.9169V10.5489H21.1908C21.5908 10.5489 21.9801 10.5835 22.3588 10.6529C22.7375 10.7222 23.0788 10.8475 23.3828 11.0289C23.6868 11.2102 23.9268 11.4662 24.1028 11.7969C24.2841 12.1275 24.3748 12.5569 24.3748 13.0849C24.3748 13.6075 24.2921 14.0449 24.1268 14.3969C23.9668 14.7435 23.7401 15.0209 23.4468 15.2289C23.1588 15.4369 22.8228 15.5862 22.4388 15.6769C22.0601 15.7622 21.6548 15.8049 21.2228 15.8049ZM21.1828 15.3489C21.5828 15.3489 21.9268 15.2902 22.2148 15.1729C22.5028 15.0555 22.7241 14.8422 22.8788 14.5329C23.0335 14.2182 23.1108 13.7649 23.1108 13.1729C23.1108 12.4742 22.9481 11.9382 22.6228 11.5649C22.3028 11.1915 21.8041 11.0049 21.1268 11.0049C21.0788 11.0049 21.0308 11.0049 20.9828 11.0049C20.9401 11.0049 20.8841 11.0075 20.8148 11.0129V15.3409C20.8788 15.3462 20.9428 15.3489 21.0068 15.3489C21.0708 15.3489 21.1295 15.3489 21.1828 15.3489ZM27.8438 15.8049H25.0118V15.4609C25.2251 15.4609 25.3851 15.4449 25.4918 15.4129C25.5985 15.3755 25.6678 15.3062 25.6998 15.2049C25.7371 15.0982 25.7558 14.9409 25.7558 14.7329V11.5889C25.7558 11.3862 25.7371 11.2369 25.6998 11.1409C25.6625 11.0395 25.5905 10.9755 25.4838 10.9489C25.3771 10.9169 25.2198 10.9009 25.0118 10.9009V10.5489H27.6838C28.1745 10.5489 28.5611 10.5995 28.8438 10.7009C29.1265 10.7969 29.3265 10.9355 29.4438 11.1169C29.5611 11.2929 29.6198 11.5009 29.6198 11.7409C29.6198 12.0982 29.5105 12.3702 29.2918 12.5569C29.0731 12.7435 28.7931 12.8822 28.4518 12.9729V13.0209C28.6811 13.0529 28.9025 13.1142 29.1158 13.2049C29.3345 13.2955 29.5131 13.4342 29.6518 13.6209C29.7958 13.8075 29.8678 14.0635 29.8678 14.3889C29.8678 14.8582 29.6918 15.2129 29.3398 15.4529C28.9931 15.6875 28.4945 15.8049 27.8438 15.8049ZM27.3958 15.4049C27.5611 15.4049 27.7131 15.3969 27.8518 15.3809C27.9905 15.3595 28.1105 15.3169 28.2118 15.2529C28.3131 15.1835 28.3905 15.0795 28.4438 14.9409C28.5025 14.8022 28.5318 14.6155 28.5318 14.3809C28.5318 14.0555 28.4785 13.8155 28.3718 13.6609C28.2651 13.5009 28.1265 13.3969 27.9558 13.3489C27.7905 13.2955 27.6091 13.2689 27.4118 13.2689H26.9478V15.3809C27.0225 15.3862 27.0945 15.3915 27.1638 15.3969C27.2331 15.4022 27.3105 15.4049 27.3958 15.4049ZM26.9478 11.0129V12.8449H27.3398C27.7345 12.8449 27.9985 12.7755 28.1318 12.6369C28.2705 12.4929 28.3398 12.2475 28.3398 11.9009C28.3398 11.5862 28.2705 11.3569 28.1318 11.2129C27.9931 11.0635 27.7238 10.9889 27.3238 10.9889C27.2651 10.9889 27.2065 10.9915 27.1478 10.9969C27.0891 10.9969 27.0225 11.0022 26.9478 11.0129Z" fill="white"/>
<path d="M16.7874 32.0108L16.2681 32.465L12.5001 31.6475L12.3375 31.7897L12.0085 31.6869C11.8914 31.6564 11.7959 31.6443 11.7217 31.6507C11.648 31.6514 11.5818 31.6669 11.523 31.697C11.4643 31.727 11.4034 31.7697 11.3401 31.825L11.1703 31.6308L12.2542 30.6828L15.6999 31.4235L15.7225 31.4038L14.5414 30.0534C14.4387 29.936 14.3417 29.8402 14.2502 29.7661C14.1618 29.6893 14.0664 29.6531 13.9641 29.6576C13.8648 29.6595 13.7443 29.7223 13.6028 29.8461L13.433 29.6519L14.5711 28.6564L14.7409 28.8506C14.6115 28.9639 14.5392 29.0696 14.5241 29.1678C14.509 29.266 14.5322 29.3654 14.5935 29.4658C14.6578 29.5637 14.7413 29.6713 14.844 29.7888L16.7874 32.0108ZM14.8991 33.6066L13.7655 34.5981L13.5956 34.4039C13.7161 34.2985 13.7708 34.1789 13.76 34.0449C13.7491 33.9109 13.6975 33.77 13.6054 33.6221C13.5106 33.4712 13.3974 33.3205 13.2657 33.1699L11.895 31.6028L12.1931 31.3421L13.8482 33.2344C13.9798 33.3849 14.0905 33.4901 14.18 33.55C14.2669 33.6068 14.3523 33.6225 14.4362 33.5969C14.5202 33.5713 14.6178 33.5098 14.7292 33.4124L14.8991 33.6066ZM19.9931 29.1512L17.4053 31.4146L17.2354 31.2204C17.3378 31.1309 17.4125 31.0523 17.4595 30.9845C17.507 30.9112 17.5219 30.837 17.5042 30.7622C17.4839 30.6843 17.425 30.5896 17.3276 30.4782L15.7594 28.6852C15.6593 28.5708 15.5753 28.4929 15.5072 28.4515C15.4391 28.4101 15.3657 28.4052 15.287 28.4368C15.2084 28.4684 15.1073 28.5382 14.9839 28.6461L14.8101 28.4474L17.3483 26.2275L18.0903 27.0212L17.86 27.2227C17.7204 27.1056 17.5968 27.0251 17.4892 26.981C17.3846 26.9343 17.277 26.9328 17.1663 26.9764C17.0531 27.0171 16.9121 27.1111 16.7435 27.2586L16.1474 27.78L17.0559 28.8187L17.4578 28.4672C17.6084 28.3355 17.7117 28.2319 17.7678 28.1562C17.8239 28.0806 17.8372 28.0078 17.8079 27.9378C17.7816 27.8652 17.7171 27.7701 17.6144 27.6527L17.8266 27.4671L18.7391 28.5103L18.5268 28.696C18.4162 28.5695 18.3254 28.4869 18.2543 28.4481C18.1835 28.4037 18.1069 28.4043 18.0245 28.4498C17.9395 28.4923 17.8217 28.5794 17.6711 28.711L17.2692 29.0626L18.2527 30.1872L18.7857 29.7211C18.9332 29.592 19.0472 29.4763 19.1278 29.374C19.2083 29.2717 19.2575 29.1729 19.2752 29.0777C19.2959 28.9799 19.2916 28.8747 19.2623 28.7622C19.2303 28.6467 19.1784 28.5114 19.1066 28.3563L19.3233 28.1667L19.9931 29.1512ZM23.7423 25.9359L23.3178 26.3072L21.0857 25.0948L20.9057 24.9893L20.3775 24.686C20.2191 24.5961 20.0955 24.5368 20.0067 24.5082C19.9183 24.4739 19.8421 24.4688 19.7781 24.4929C19.7171 24.5143 19.6445 24.5619 19.5602 24.6356L19.3903 24.4414L20.7994 23.209L20.9693 23.4032C20.7465 23.5981 20.6864 23.7542 20.7891 23.8717C20.8181 23.9048 20.8585 23.9358 20.9105 23.9648C20.9624 23.9938 21.0182 24.0273 21.0781 24.0653L22.5183 24.8462L22.9512 25.1133L22.9828 25.0857L22.2077 23.2607C22.2077 23.2607 22.1977 23.2402 22.1778 23.1992C22.1608 23.1555 22.1358 23.1056 22.1027 23.0496C22.0726 22.9909 22.0405 22.9419 22.0062 22.9028C21.9167 22.8004 21.8313 22.7635 21.75 22.7921C21.6661 22.8177 21.5805 22.8686 21.4932 22.945L21.3233 22.7508L22.3395 21.862L22.5093 22.0562C22.407 22.1458 22.3513 22.237 22.3422 22.33C22.3362 22.4203 22.3621 22.5411 22.42 22.6923L23.7423 25.9359ZM22.0397 27.425L21.6423 27.7726L18.6105 26.2474C18.405 26.1402 18.2474 26.0814 18.1375 26.0712C18.0306 26.0584 17.9193 26.0921 17.8033 26.1722L17.6335 25.978L19.029 24.7574L19.1989 24.9516C19.0875 25.0491 19.0227 25.1269 19.0047 25.1853C18.984 25.2406 18.9947 25.2923 19.0368 25.3405C19.0868 25.3977 19.1651 25.4568 19.2716 25.5178L20.8597 26.3128L21.2892 26.5669L21.3208 26.5393L20.7178 24.8109L21.3589 25.1429L21.2596 25.2298L22.0397 27.425ZM25.383 24.5408L25.1888 24.7106L24.2949 23.7707L24.5208 23.5731C24.7375 23.7237 24.9205 23.8267 25.0699 23.882C25.2196 23.9317 25.3538 23.9393 25.4723 23.9047C25.5909 23.8701 25.7103 23.8001 25.8308 23.6948C25.9271 23.6105 26.0069 23.5195 26.0702 23.4217C26.1338 23.3182 26.1677 23.2141 26.1718 23.1095C26.1733 23.0019 26.1307 22.8984 26.0438 22.7991C25.9305 22.6696 25.8067 22.5919 25.6724 22.5659C25.5354 22.5369 25.3908 22.5385 25.2384 22.5709C25.0863 22.5976 24.9279 22.6351 24.7631 22.6837C24.564 22.7355 24.3713 22.7765 24.1851 22.8066C23.9962 22.8336 23.8156 22.8215 23.6432 22.7703C23.4683 22.7161 23.3005 22.5972 23.1398 22.4135C22.9924 22.2449 22.9106 22.0693 22.8944 21.8868C22.8783 21.7043 22.9205 21.5186 23.021 21.3298C23.1215 21.1409 23.2741 20.9569 23.4788 20.7779C23.5933 20.6778 23.6945 20.6052 23.7826 20.56C23.8736 20.5123 23.9512 20.4764 24.0151 20.4523C24.0791 20.4282 24.1292 20.4004 24.1653 20.3688C24.1924 20.3451 24.2142 20.3154 24.2308 20.2796C24.2447 20.2409 24.2364 20.195 24.206 20.1419L24.3776 19.9918L25.2342 20.9165L25.0219 21.1022C24.7161 20.8861 24.46 20.7726 24.2538 20.7617C24.0506 20.7481 23.8647 20.815 23.6961 20.9625C23.5365 21.102 23.4411 21.236 23.4099 21.3643C23.3786 21.4926 23.4156 21.617 23.521 21.7374C23.6184 21.8488 23.7303 21.913 23.8568 21.9299C23.9806 21.9439 24.1189 21.9319 24.2716 21.8939C24.4244 21.8559 24.586 21.8129 24.7565 21.7648C24.907 21.7181 25.0583 21.6815 25.2103 21.6548C25.3627 21.6225 25.5138 21.6099 25.6636 21.6171C25.8133 21.6243 25.9597 21.661 26.1027 21.7272C26.243 21.7905 26.3751 21.8929 26.4989 22.0344C26.6621 22.221 26.7522 22.4212 26.7691 22.635C26.7864 22.8431 26.7381 23.0553 26.6245 23.2716C26.5138 23.4853 26.3455 23.6909 26.1197 23.8884C25.9752 24.0148 25.8533 24.1002 25.7539 24.1446C25.6572 24.192 25.5785 24.2236 25.518 24.2394C25.4578 24.2495 25.4111 24.2691 25.378 24.2981C25.3448 24.327 25.3281 24.3656 25.3277 24.4138C25.3277 24.4563 25.3461 24.4986 25.383 24.5408Z" fill="#F1FFCA"/>
</svg>
