<svg width="50" height="50" viewBox="0 0 50 50" fill="none" xmlns="http://www.w3.org/2000/svg">
<rect x="0.5" y="0.5" width="49" height="49" rx="9.5" stroke="#01BD88"/>
<path d="M15.7147 12.7911C15.9249 12.5403 16.0283 12.2171 16.0028 11.8909C15.9773 11.5647 15.825 11.2615 15.5784 11.0464C15.3319 10.8313 15.0109 10.7214 14.6842 10.7404C14.3576 10.7593 14.0514 10.9056 13.8314 11.1477L11.6781 13.6144C10.457 15.0137 9.76681 16.7977 9.72808 18.6544L9.63308 23.1861C9.62623 23.5176 9.75135 23.8383 9.98093 24.0775C10.2105 24.3168 10.5257 24.4551 10.8572 24.4619C11.1888 24.4688 11.5094 24.3436 11.7487 24.1141C11.988 23.8845 12.1262 23.5693 12.1331 23.2377L12.2264 18.7077C12.2532 17.4373 12.7257 16.2167 13.5614 15.2594L15.7147 12.7911Z" fill="#01BD88"/>
<path fill-rule="evenodd" clip-rule="evenodd" d="M15.3166 18.2354C15.4256 16.502 16.1925 14.8752 17.461 13.6862C18.7296 12.4971 20.4045 11.8353 22.1447 11.8354H23.049V10.6203C23.049 10.1905 23.22 9.77842 23.5245 9.47456C23.8289 9.1707 24.2418 9 24.6724 9C25.103 9 25.5159 9.1707 25.8203 9.47456C26.1248 9.77842 26.2958 10.1905 26.2958 10.6203V11.8354H27.2001C28.9403 11.8353 30.6152 12.4971 31.8838 13.6862C33.1523 14.8752 33.9192 16.502 34.0282 18.2354L34.387 23.9614C34.5237 26.1446 35.2582 28.2485 36.5104 30.0438C36.7691 30.415 36.9272 30.8466 36.9693 31.2968C37.0113 31.747 36.936 32.2004 36.7505 32.6129C36.565 33.0254 36.2757 33.3829 35.9108 33.6508C35.5458 33.9186 35.1176 34.0877 34.6678 34.1415L29.1368 34.8025V36.5443C29.1368 37.726 28.6665 38.8594 27.8292 39.695C26.992 40.5306 25.8564 41 24.6724 41C23.4884 41 22.3528 40.5306 21.5156 39.695C20.6784 38.8594 20.208 37.726 20.208 36.5443V34.8025L14.677 34.1398C14.2275 34.0859 13.7995 33.9168 13.4348 33.6491C13.0701 33.3813 12.781 33.024 12.5955 32.6117C12.4101 32.1995 12.3346 31.7464 12.3765 31.2964C12.4183 30.8465 12.5761 30.415 12.8344 30.0438C14.0866 28.2485 14.821 26.1446 14.9578 23.9614L15.3166 18.2354ZM22.6431 36.5443C22.6431 37.0815 22.8569 37.5966 23.2375 37.9764C23.6181 38.3562 24.1342 38.5696 24.6724 38.5696C25.2106 38.5696 25.7268 38.3562 26.1073 37.9764C26.4879 37.5966 26.7017 37.0815 26.7017 36.5443V35.3291H22.6431V36.5443Z" fill="#01BD88"/>
<path d="M34.4045 11.0277C34.1549 11.2457 34.002 11.5539 33.9794 11.8845C33.9569 12.2152 34.0667 12.5413 34.2845 12.791L36.4379 15.2577C37.2733 16.2156 37.7453 17.4369 37.7712 18.7077L37.8662 23.236C37.8696 23.4002 37.9053 23.5621 37.9712 23.7124C38.0372 23.8628 38.1321 23.9987 38.2506 24.1124C38.3691 24.226 38.5088 24.3153 38.6617 24.3749C38.8147 24.4346 38.9779 24.4636 39.142 24.4602C39.3062 24.4568 39.4681 24.4211 39.6184 24.3552C39.7688 24.2892 39.9047 24.1943 40.0184 24.0758C40.132 23.9574 40.2213 23.8176 40.2809 23.6647C40.3406 23.5117 40.3696 23.3485 40.3662 23.1844L40.2712 18.6544C40.2325 16.7977 39.5422 15.0137 38.3212 13.6144L36.1679 11.1477C35.9499 10.898 35.6417 10.7451 35.3111 10.7226C34.9804 10.7001 34.6543 10.8099 34.4045 11.0277Z" fill="#01BD88"/>
</svg>
