<svg width="34" height="34" viewBox="0 0 34 34" fill="none" xmlns="http://www.w3.org/2000/svg">
<path d="M25.2417 14.6923V2M18.8956 8.34615H31.5879M11.9725 2H3.89558C3.28354 2 2.69657 2.24313 2.2638 2.67591C1.83102 3.10868 1.58789 3.69565 1.58789 4.30769V12.3846C1.58789 12.9967 1.83102 13.5836 2.2638 14.0164C2.69657 14.4492 3.28354 14.6923 3.89558 14.6923H11.9725C12.5845 14.6923 13.1715 14.4492 13.6043 14.0164C14.0371 13.5836 14.2802 12.9967 14.2802 12.3846V4.30769C14.2802 3.69565 14.0371 3.10868 13.6043 2.67591C13.1715 2.24313 12.5845 2 11.9725 2ZM29.2802 19.3077H21.2033C20.5912 19.3077 20.0043 19.5508 19.5715 19.9836C19.1387 20.4164 18.8956 21.0033 18.8956 21.6154V29.6923C18.8956 30.3043 19.1387 30.8913 19.5715 31.3241C20.0043 31.7569 20.5912 32 21.2033 32H29.2802C29.8922 32 30.4792 31.7569 30.912 31.3241C31.3448 30.8913 31.5879 30.3043 31.5879 29.6923V21.6154C31.5879 21.0033 31.3448 20.4164 30.912 19.9836C30.4792 19.5508 29.8922 19.3077 29.2802 19.3077ZM11.9725 19.3077H3.89558C3.28354 19.3077 2.69657 19.5508 2.2638 19.9836C1.83102 20.4164 1.58789 21.0033 1.58789 21.6154V29.6923C1.58789 30.3043 1.83102 30.8913 2.2638 31.3241C2.69657 31.7569 3.28354 32 3.89558 32H11.9725C12.5845 32 13.1715 31.7569 13.6043 31.3241C14.0371 30.8913 14.2802 30.3043 14.2802 29.6923V21.6154C14.2802 21.0033 14.0371 20.4164 13.6043 19.9836C13.1715 19.5508 12.5845 19.3077 11.9725 19.3077Z" stroke="white" stroke-width="3" stroke-linecap="round" stroke-linejoin="round"/>
</svg>
