<svg width="79" height="79" viewBox="0 0 79 79" fill="none" xmlns="http://www.w3.org/2000/svg">
<rect x="0.5" y="0.5" width="78" height="78" rx="9.5" stroke="#01BD88"/>
<path d="M37.3125 29.2475C37.2308 29.2475 37.1525 29.2795 37.0948 29.3364C37.0371 29.3933 37.0046 29.4705 37.0046 29.5511V34.4083C37.0046 34.6498 36.9073 34.8815 36.7341 35.0523C36.5609 35.2231 36.326 35.319 36.081 35.319H31.1551C31.0734 35.319 30.9951 35.351 30.9374 35.4079C30.8797 35.4648 30.8472 35.5421 30.8472 35.6226V41.0869C30.8472 41.2545 30.9851 41.3905 31.1551 41.3905H36.081C36.326 41.3905 36.5609 41.4865 36.7341 41.6573C36.9073 41.8281 37.0046 42.0597 37.0046 42.3013V47.1585C37.0046 47.326 37.1426 47.462 37.3125 47.462H42.8542C42.9358 47.462 43.0141 47.4301 43.0719 47.3731C43.1296 47.3162 43.162 47.239 43.162 47.1585V42.3013C43.162 42.0597 43.2593 41.8281 43.4326 41.6573C43.6058 41.4865 43.8407 41.3905 44.0856 41.3905H49.0116C49.0932 41.3905 49.1715 41.3585 49.2293 41.3016C49.287 41.2447 49.3194 41.1675 49.3194 41.0869V35.6226C49.3194 35.5421 49.287 35.4648 49.2293 35.4079C49.1715 35.351 49.0932 35.319 49.0116 35.319H44.0856C43.8407 35.319 43.6058 35.2231 43.4326 35.0523C43.2593 34.8815 43.162 34.6498 43.162 34.4083V29.5511C43.162 29.4705 43.1296 29.3933 43.0719 29.3364C43.0141 29.2795 42.9358 29.2475 42.8542 29.2475H37.3125ZM35.1574 29.5511C35.1574 28.378 36.1229 27.426 37.3125 27.426H42.8542C44.0438 27.426 45.0093 28.378 45.0093 29.5511V33.4975H49.0116C50.2012 33.4975 51.1667 34.4496 51.1667 35.6226V41.0869C51.1667 41.6505 50.9396 42.1911 50.5355 42.5896C50.1313 42.9881 49.5831 43.212 49.0116 43.212H45.0093V47.1585C45.0093 47.7221 44.7822 48.2626 44.378 48.6611C43.9739 49.0596 43.4257 49.2835 42.8542 49.2835H37.3125C36.7409 49.2835 36.1928 49.0596 35.7886 48.6611C35.3845 48.2626 35.1574 47.7221 35.1574 47.1585V43.212H31.1551C30.5835 43.212 30.0354 42.9881 29.6312 42.5896C29.2271 42.1911 29 41.6505 29 41.0869V35.6226C29 34.4496 29.9655 33.4975 31.1551 33.4975H35.1574V29.5511Z" fill="#01BD88"/>
<path d="M42.236 7.03882C49.6675 14.3442 63.372 19.215 71.366 20.4323C71.9301 39.3125 65.657 60.013 42.236 69.753M42.236 69.753C18.5586 59.558 12.2689 38.8591 13.1211 20.4323C20.8421 18.776 34.5467 13.9052 42.236 7.03882" fill="#01BD88"/>
<path d="M42.236 7.03882C49.6675 14.3442 63.372 19.215 71.366 20.4323C71.9301 39.3125 65.657 60.013 42.236 69.753C18.5586 59.558 12.2689 38.8591 13.1211 20.4323C20.8421 18.776 34.5467 13.9052 42.236 7.03882Z" stroke="white" stroke-width="2" stroke-linecap="round" stroke-linejoin="round"/>
<path d="M39.7314 22.0496H45.3066C46.2547 22.0496 46.9746 22.7697 46.9746 23.5974V27.9001H51.502C52.4497 27.9003 53.1698 28.6205 53.1699 29.448V34.7136C53.1699 35.1146 53.0014 35.5058 52.6914 35.7986C52.3805 36.0921 51.9532 36.2614 51.502 36.2615H46.9746V40.5652C46.9745 40.9659 46.8067 41.3565 46.4971 41.6492C46.1861 41.9428 45.758 42.113 45.3066 42.113H39.7314C39.2801 42.113 38.852 41.9428 38.541 41.6492C38.2313 41.3565 38.0636 40.9659 38.0635 40.5652V36.2615H33.5361C33.0849 36.2614 32.6576 36.0921 32.3467 35.7986C32.0367 35.5058 31.8682 35.1146 31.8682 34.7136V29.448C31.8683 28.6205 32.5883 27.9003 33.5361 27.9001H38.0635V23.5974C38.0635 22.8213 38.6962 22.1394 39.5566 22.0574L39.7314 22.0496ZM39.7314 22.8044C39.5513 22.8044 39.3731 22.8633 39.2285 22.9753L39.1689 23.0271C39.0143 23.1732 38.9219 23.3777 38.9219 23.5974V28.2781C38.9219 28.3687 38.8833 28.4616 38.8057 28.5349C38.7271 28.6091 38.6149 28.656 38.4922 28.656H33.5361C33.3304 28.6561 33.1273 28.7325 32.9736 28.8777C32.819 29.0238 32.7266 29.2284 32.7266 29.448V34.7136C32.7266 35.1777 33.1164 35.5065 33.5361 35.5066H38.4922C38.6147 35.5066 38.7271 35.5527 38.8057 35.6267C38.8833 35.7 38.9219 35.7939 38.9219 35.8845V40.5652C38.9221 41.0292 39.3117 41.3572 39.7314 41.3572H45.3066C45.5124 41.3572 45.7154 41.2807 45.8691 41.1355C46.0238 40.9894 46.1161 40.7848 46.1162 40.5652V35.8845C46.1162 35.7939 46.1548 35.7 46.2324 35.6267C46.311 35.5527 46.4234 35.5066 46.5459 35.5066H51.502C51.7077 35.5065 51.9108 35.4291 52.0645 35.2839C52.2189 35.1378 52.3115 34.9331 52.3115 34.7136V29.448C52.3115 29.2558 52.2405 29.0753 52.1191 28.9353L52.0645 28.8777L52.0039 28.8269C51.8594 28.7149 51.682 28.6561 51.502 28.656H46.5459C46.4232 28.656 46.311 28.6091 46.2324 28.5349C46.1548 28.4616 46.1162 28.3687 46.1162 28.2781V23.5974C46.1162 23.4052 46.0452 23.2248 45.9238 23.0847L45.8691 23.0271L45.8096 22.9753C45.6649 22.8633 45.4868 22.8044 45.3066 22.8044H39.7314Z" fill="white" stroke="white"/>
<path d="M11.2218 16.6827C14.5099 13.6402 18.5448 11.4147 22.9669 10.2069L22.9703 10.205C23.1024 10.1699 23.2418 10.1611 23.3795 10.1788C23.483 10.1921 23.5841 10.2205 23.6793 10.2631L23.7723 10.3098L23.8599 10.3662C23.9165 10.4065 23.9687 10.4524 24.0156 10.5031L24.0819 10.5824L24.1392 10.6677C24.191 10.7544 24.227 10.8484 24.2491 10.9457L24.2504 10.9461L25.4842 16.347C25.5535 16.6508 25.5194 16.9651 25.389 17.2448C25.2586 17.5244 25.0384 17.7565 24.7618 17.9091L17.4386 21.9461C17.1618 22.0984 16.84 22.1643 16.5181 22.1339C16.1959 22.1034 15.8887 21.9779 15.6427 21.7712L15.6422 21.7703L11.2716 18.1009L11.2719 18.0996C11.1663 18.0113 11.0795 17.9044 11.0192 17.7834L10.9786 17.6899C10.9434 17.595 10.9238 17.4957 10.9206 17.3956L10.9228 17.2953C10.9304 17.196 10.9546 17.0985 10.9933 17.0069C11.045 16.8851 11.1218 16.7752 11.2192 16.6841L11.2218 16.6827ZM18.0454 14.9837C18.0105 15.003 17.9876 15.0336 17.9787 15.065C17.9701 15.096 17.976 15.1256 17.9899 15.148L18.7066 16.3077L17.4913 16.9776C17.4562 16.9969 17.4325 17.0278 17.4237 17.0594C17.4153 17.0902 17.4206 17.1193 17.4344 17.1415C17.4481 17.1638 17.4723 17.1825 17.5049 17.1907C17.5383 17.199 17.5784 17.1947 17.6135 17.1753L18.8288 16.5054L19.5454 17.6651C19.5593 17.6874 19.5832 17.7061 19.6159 17.7142C19.6494 17.7225 19.6887 17.7187 19.7237 17.6994C19.7587 17.68 19.7816 17.6496 19.7904 17.618C19.799 17.5871 19.7936 17.5583 19.7798 17.5359L19.0631 16.3762L20.2784 15.7063C20.3133 15.687 20.3362 15.6565 20.3451 15.625C20.3537 15.594 20.3491 15.5647 20.3353 15.5424C20.3215 15.52 20.2967 15.5019 20.2639 15.4937C20.2305 15.4854 20.1912 15.4893 20.1562 15.5086L18.9409 16.1785L18.2242 15.0188C18.2104 14.9964 18.186 14.977 18.1532 14.9689C18.1198 14.9607 18.0803 14.9645 18.0454 14.9837ZM16.6956 8.53976L16.6961 8.54059C17.0642 8.32439 17.4965 8.22259 17.932 8.25467C18.3611 8.28631 18.7709 8.44616 19.103 8.71171L20.719 9.86458L21.4689 10.399L20.6121 10.712C17.7924 11.7397 15.1657 13.1889 12.8329 15.0038L12.1335 15.5475L11.9999 14.6801L11.7097 12.7986C11.6255 12.393 11.6794 11.9752 11.8615 11.6045C12.0459 11.2291 12.3523 10.9218 12.7339 10.7248L12.7333 10.724L16.6956 8.53976Z" fill="white" stroke="#01BD88"/>
<path d="M25.2657 63.2026C25.2557 63.1603 25.2412 63.1191 25.2222 63.0796L23.5812 59.5584C23.2028 58.7448 22.2824 58.2188 21.2351 58.2188H12.6441C11.5977 58.2188 10.6764 58.7448 10.2985 59.5584L8.65565 63.0796C8.61829 63.159 8.59921 63.2447 8.59962 63.3312V70.3608C8.59962 70.5303 8.67284 70.6929 8.80318 70.8127C8.93351 70.9326 9.11029 70.9999 9.29461 70.9999H10.6846C10.8689 70.9999 11.0457 70.9326 11.176 70.8127C11.3064 70.6929 11.3796 70.5303 11.3796 70.3608V69.7218H22.4996V70.3608C22.4996 70.5303 22.5728 70.6929 22.7031 70.8127C22.8335 70.9326 23.0102 70.9999 23.1946 70.9999H24.5846C24.7689 70.9999 24.9457 70.9326 25.076 70.8127C25.2063 70.6929 25.2796 70.5303 25.2796 70.3608V63.3312C25.2797 63.288 25.275 63.2449 25.2657 63.2026ZM12.0746 67.1655C11.7997 67.1655 11.5309 67.0906 11.3024 66.9501C11.0738 66.8097 10.8956 66.6101 10.7904 66.3765C10.6852 66.143 10.6577 65.886 10.7113 65.6381C10.765 65.3902 10.8973 65.1624 11.0917 64.9837C11.2861 64.8049 11.5338 64.6832 11.8034 64.6339C12.0731 64.5846 12.3525 64.6099 12.6065 64.7066C12.8605 64.8033 13.0776 64.9672 13.2303 65.1773C13.3831 65.3875 13.4646 65.6346 13.4646 65.8874C13.4646 66.2264 13.3182 66.5515 13.0575 66.7912C12.7968 67.0309 12.4433 67.1655 12.0746 67.1655ZM21.8046 67.1655C21.5297 67.1655 21.2609 67.0906 21.0323 66.9501C20.8038 66.8097 20.6256 66.6101 20.5204 66.3765C20.4152 66.143 20.3877 65.886 20.4413 65.6381C20.4949 65.3902 20.6273 65.1624 20.8217 64.9837C21.0161 64.8049 21.2638 64.6832 21.5334 64.6339C21.803 64.5846 22.0825 64.6099 22.3365 64.7066C22.5905 64.8033 22.8076 64.9672 22.9603 65.1773C23.113 65.3875 23.1946 65.6346 23.1946 65.8874C23.1946 66.2264 23.0481 66.5515 22.7875 66.7912C22.5268 67.0309 22.1732 67.1655 21.8046 67.1655ZM10.3484 62.6921L11.5746 60.062C11.7319 59.7241 12.1615 59.4969 12.6441 59.4969H21.2351C21.7173 59.4969 22.1473 59.7241 22.3045 60.062L23.5308 62.6921H10.3484Z" fill="#01BD88"/>
<path d="M57.5039 55.5703C59.0399 56.5849 60.1813 57.649 60.9453 58.9355C61.7326 60.2613 62.1328 61.8417 62.1328 63.8809C62.1328 65.9848 61.2808 67.4886 59.8389 68.4766C58.3837 69.4735 56.3047 69.96 53.8398 69.96C51.3751 69.9599 49.2955 69.4738 47.8398 68.4805C46.3974 67.4961 45.546 65.9998 45.5459 63.9121C45.5459 61.8715 45.9468 60.2899 46.7354 58.9609C47.5007 57.6712 48.6434 56.6013 50.1816 55.5762C51.2485 56.4147 52.5272 56.8702 53.8438 56.8691C55.1602 56.8681 56.4382 56.4105 57.5039 55.5703ZM50.9834 49.8926H57.0195C57.1289 49.8954 57.238 49.9293 57.3359 49.9932C57.434 50.0572 57.5191 50.1497 57.5801 50.2646C57.6412 50.3798 57.6756 50.5127 57.6787 50.6494C57.6817 50.7839 57.6529 50.9157 57.5986 51.0332L55.958 53.8828C54.6712 54.7359 53.0637 54.7461 51.7695 53.915L50.416 51.1162L50.4082 51.1006L50.3623 51.0068C50.3219 50.91 50.2988 50.8037 50.2959 50.6943C50.2921 50.5487 50.324 50.4058 50.3867 50.2812C50.4495 50.1567 50.5393 50.0563 50.6445 49.9893C50.7494 49.9224 50.8668 49.8901 50.9834 49.8926Z" fill="white" stroke="#01BD88" stroke-width="0.5"/>
<path d="M56.4431 59.6594C56.6718 59.456 56.6991 59.0988 56.5028 58.8619C56.3066 58.6249 55.9618 58.5966 55.733 58.8L52.8108 61.3941V59.2297C52.8108 58.9167 52.5667 58.6638 52.2646 58.6638C51.9625 58.6638 51.7184 58.9167 51.7184 59.2297V62.059H51.1722C50.8701 62.059 50.626 62.3119 50.626 62.6249C50.626 62.9379 50.8701 63.1908 51.1722 63.1908H51.7184V66.0201C51.7184 66.3331 51.9625 66.586 52.2646 66.586C52.5667 66.586 52.8108 66.3331 52.8108 66.0201V63.8557L55.733 66.4498C55.9618 66.6532 56.3066 66.6249 56.5028 66.388C56.6991 66.151 56.6718 65.7938 56.4431 65.5904L53.7411 63.1908H56.6343C56.9364 63.1908 57.1805 62.9379 57.1805 62.6249C57.1805 62.3119 56.9364 62.059 56.6343 62.059H53.7411L56.4431 59.6594Z" fill="#01BD88"/>
</svg>
