<svg width="87" height="78" viewBox="0 0 87 78" fill="none" xmlns="http://www.w3.org/2000/svg">
<path d="M66.9474 3H67.8C75.4353 3 79.2551 3 81.6297 5.37032C84 7.7449 84 11.5647 84 19.2V20.0526M66.9474 75.4737H67.8C75.4353 75.4737 79.2551 75.4737 81.6297 73.1034C84 70.7288 84 66.909 84 59.2737V58.4211M20.0526 3H19.2C11.5647 3 7.74489 3 5.37458 5.37032C3 7.74916 3 11.5689 3 19.2V20.0526M20.0526 75.4737H19.2C11.5647 75.4737 7.74489 75.4737 5.37458 73.1034C3 70.7288 3 66.9047 3 59.2737V58.4211M23.1008 55.3729C25.1173 52.4612 28.0461 50.0013 31.6356 48.2747C35.3436 46.5194 39.3975 45.6163 43.5 45.6316C47.6822 45.6316 51.7748 46.5524 55.3644 48.2747C58.9539 50.0013 61.887 52.4612 63.8992 55.3729" stroke="#01BD88" stroke-width="5" stroke-linecap="round"/>
<path d="M43.4997 37.1053C49.3859 37.1053 54.1576 32.3336 54.1576 26.4474C54.1576 20.5613 49.3859 15.7896 43.4997 15.7896C37.6135 15.7896 32.8418 20.5613 32.8418 26.4474C32.8418 32.3336 37.6135 37.1053 43.4997 37.1053Z" stroke="#01BD88" stroke-width="5" stroke-linecap="round"/>
</svg>
