<svg width="50" height="50" viewBox="0 0 50 50" fill="none" xmlns="http://www.w3.org/2000/svg">
<rect x="0.5" y="0.5" width="49" height="49" rx="9.5" stroke="#01BD88"/>
<path d="M20.3495 43.9231H12.1165C11.0247 43.9231 9.97769 43.4908 9.2057 42.7215C8.4337 41.9521 8 40.9086 8 39.8205V11.1026C8 10.0145 8.4337 8.97099 9.2057 8.20161C9.97769 7.43223 11.0247 7 12.1165 7H28.5825C29.6743 7 30.7214 7.43223 31.4934 8.20161C32.2654 8.97099 32.6991 10.0145 32.6991 11.1026V24.4359M18.4971 11.9231H23.4369M20.3495 35.7179V35.7385" stroke="#01BD88" stroke-width="3.5" stroke-linecap="round" stroke-linejoin="round"/>
<mask id="path-3-inside-1_2014_4025" fill="white">
<path d="M24.8916 32.9561H34.6651V34.5002H24.8916V32.9561ZM24.8916 36.8163H36.4421V38.3605H24.8916V36.8163Z"/>
</mask>
<path d="M24.8916 32.9561H34.6651V34.5002H24.8916V32.9561ZM24.8916 36.8163H36.4421V38.3605H24.8916V36.8163Z" fill="#01BD88"/>
<path d="M24.8916 32.9561V29.9561H21.8916V32.9561H24.8916ZM34.6651 32.9561H37.6651V29.9561H34.6651V32.9561ZM34.6651 34.5002V37.5002H37.6651V34.5002H34.6651ZM24.8916 34.5002H21.8916V37.5002H24.8916V34.5002ZM24.8916 36.8163V33.8163H21.8916V36.8163H24.8916ZM36.4421 36.8163H39.4421V33.8163H36.4421V36.8163ZM36.4421 38.3605V41.3605H39.4421V38.3605H36.4421ZM24.8916 38.3605H21.8916V41.3605H24.8916V38.3605ZM24.8916 32.9561V35.9561H34.6651V32.9561V29.9561H24.8916V32.9561ZM34.6651 32.9561H31.6651V34.5002H34.6651H37.6651V32.9561H34.6651ZM34.6651 34.5002V31.5002H24.8916V34.5002V37.5002H34.6651V34.5002ZM24.8916 34.5002H27.8916V32.9561H24.8916H21.8916V34.5002H24.8916ZM24.8916 36.8163V39.8163H36.4421V36.8163V33.8163H24.8916V36.8163ZM36.4421 36.8163H33.4421V38.3605H36.4421H39.4421V36.8163H36.4421ZM36.4421 38.3605V35.3605H24.8916V38.3605V41.3605H36.4421V38.3605ZM24.8916 38.3605H27.8916V36.8163H24.8916H21.8916V38.3605H24.8916Z" fill="#01BD88" mask="url(#path-3-inside-1_2014_4025)"/>
<mask id="path-5-inside-2_2014_4025" fill="white">
<path d="M40.5714 27H23.4286C23.0497 27 22.6863 27.1405 22.4184 27.3905C22.1505 27.6406 22 27.9797 22 28.3333V41.6667C22 42.0203 22.1505 42.3594 22.4184 42.6095C22.6863 42.8595 23.0497 43 23.4286 43H40.5714C40.9503 43 41.3137 42.8595 41.5816 42.6095C41.8495 42.3594 42 42.0203 42 41.6667V28.3333C42 27.9797 41.8495 27.6406 41.5816 27.3905C41.3137 27.1405 40.9503 27 40.5714 27ZM40.5714 28.3333V29.6667H23.4286V28.3333H40.5714ZM23.4286 41.6667V31H40.5714V41.6667H23.4286Z"/>
</mask>
<path d="M40.5714 27H23.4286C23.0497 27 22.6863 27.1405 22.4184 27.3905C22.1505 27.6406 22 27.9797 22 28.3333V41.6667C22 42.0203 22.1505 42.3594 22.4184 42.6095C22.6863 42.8595 23.0497 43 23.4286 43H40.5714C40.9503 43 41.3137 42.8595 41.5816 42.6095C41.8495 42.3594 42 42.0203 42 41.6667V28.3333C42 27.9797 41.8495 27.6406 41.5816 27.3905C41.3137 27.1405 40.9503 27 40.5714 27ZM40.5714 28.3333V29.6667H23.4286V28.3333H40.5714ZM23.4286 41.6667V31H40.5714V41.6667H23.4286Z" fill="#01BD88"/>
<path d="M40.5714 27V24V27ZM23.4286 27V24V27ZM22 28.3333H19H22ZM22 41.6667H19H22ZM40.5714 28.3333H43.5714V25.3333H40.5714V28.3333ZM40.5714 29.6667V32.6667H43.5714V29.6667H40.5714ZM23.4286 29.6667H20.4286V32.6667H23.4286V29.6667ZM23.4286 28.3333V25.3333H20.4286V28.3333H23.4286ZM23.4286 41.6667H20.4286V44.6667H23.4286V41.6667ZM23.4286 31V28H20.4286V31H23.4286ZM40.5714 31H43.5714V28H40.5714V31ZM40.5714 41.6667V44.6667H43.5714V41.6667H40.5714ZM40.5714 27V24H23.4286V27V30H40.5714V27ZM23.4286 27V24C22.3183 24 21.2153 24.4097 20.3715 25.1974L22.4184 27.3905L24.4654 29.5837C24.1573 29.8712 23.7811 30 23.4286 30V27ZM22.4184 27.3905L20.3715 25.1974C19.5206 25.9915 19 27.1147 19 28.3333H22H25C25 28.8448 24.7804 29.2896 24.4654 29.5837L22.4184 27.3905ZM22 28.3333H19V41.6667H22H25V28.3333H22ZM22 41.6667H19C19 42.8853 19.5206 44.0085 20.3715 44.8026L22.4184 42.6095L24.4654 40.4163C24.7804 40.7104 25 41.1552 25 41.6667H22ZM22.4184 42.6095L20.3715 44.8026C21.2153 45.5903 22.3183 46 23.4286 46V43V40C23.7811 40 24.1573 40.1288 24.4654 40.4163L22.4184 42.6095ZM23.4286 43V46H40.5714V43V40H23.4286V43ZM40.5714 43V46C41.6817 46 42.7847 45.5903 43.6285 44.8026L41.5816 42.6095L39.5346 40.4163C39.8427 40.1288 40.2189 40 40.5714 40V43ZM41.5816 42.6095L43.6285 44.8026C44.4794 44.0085 45 42.8853 45 41.6667H42H39C39 41.1552 39.2196 40.7104 39.5346 40.4163L41.5816 42.6095ZM42 41.6667H45V28.3333H42H39V41.6667H42ZM42 28.3333H45C45 27.1147 44.4794 25.9915 43.6285 25.1974L41.5816 27.3905L39.5346 29.5837C39.2196 29.2896 39 28.8448 39 28.3333H42ZM41.5816 27.3905L43.6285 25.1974C42.7847 24.4097 41.6817 24 40.5714 24V27V30C40.2189 30 39.8427 29.8712 39.5346 29.5837L41.5816 27.3905ZM40.5714 28.3333H37.5714V29.6667H40.5714H43.5714V28.3333H40.5714ZM40.5714 29.6667V26.6667H23.4286V29.6667V32.6667H40.5714V29.6667ZM23.4286 29.6667H26.4286V28.3333H23.4286H20.4286V29.6667H23.4286ZM23.4286 28.3333V31.3333H40.5714V28.3333V25.3333H23.4286V28.3333ZM23.4286 41.6667H26.4286V31H23.4286H20.4286V41.6667H23.4286ZM23.4286 31V34H40.5714V31V28H23.4286V31ZM40.5714 31H37.5714V41.6667H40.5714H43.5714V31H40.5714ZM40.5714 41.6667V38.6667H23.4286V41.6667V44.6667H40.5714V41.6667Z" fill="#01BD88" mask="url(#path-5-inside-2_2014_4025)"/>
</svg>
