<svg width="79" height="79" viewBox="0 0 79 79" fill="none" xmlns="http://www.w3.org/2000/svg">
<rect x="1.5" y="1.5" width="76" height="76" rx="8.5" stroke="#01BD88" stroke-width="3"/>
<path d="M48.2495 31.5032C48.2495 31.5032 49.7949 23.517 48.2495 20.8094C46.7041 18.1063 46.0896 16.3043 42.6915 15.0142C39.2935 13.7241 40.5316 13.9812 38.0608 14.1132C35.5882 14.2452 33.5301 15.9175 33.5301 16.8208C33.5301 16.8208 31.9847 16.9482 31.3702 17.7218C30.752 18.4954 29.723 22.0995 29.723 23.0005C29.723 23.9015 30.2375 29.9628 30.752 31.2484L30.1393 31.5078C29.623 38.9775 32.1938 39.8808 32.1938 39.8808C33.121 46.8387 34.0482 43.8762 34.0482 45.6783C34.0482 47.4803 33.121 46.8387 33.121 46.8387C33.121 46.8387 32.2992 49.6714 30.2411 50.7021C28.183 51.7305 16.7581 57.2686 15.829 58.429C14.8981 59.5894 15.0036 65 15.0036 65H63.9961C63.9961 65 64.1052 59.5916 63.1743 58.429C62.2471 57.2686 50.8203 51.7305 48.7622 50.7021C46.7041 49.6714 45.8823 46.8387 45.8823 46.8387C45.8823 46.8387 44.9551 47.4803 44.9551 45.6783C44.9551 43.8762 45.8823 46.8387 46.8095 39.8808C46.8095 39.8808 49.3785 38.9775 48.864 31.5078H48.2458L48.2495 31.5032Z" fill="#01BD88"/>
</svg>
