<svg width="50" height="50" viewBox="0 0 50 50" fill="none" xmlns="http://www.w3.org/2000/svg">
<rect x="1" y="1" width="48" height="48" rx="9" stroke="#01BD88" stroke-width="2"/>
<path d="M37.8337 13.1667L25.5003 25.5L13.167 37.8333" fill="#01BD88"/>
<path d="M37.8337 13.1667L25.5003 25.5L13.167 37.8333" stroke="#01BD88" stroke-width="3.6"/>
<path d="M17.0208 23.9583C20.0009 23.9583 22.4167 21.5425 22.4167 18.5625C22.4167 15.5825 20.0009 13.1667 17.0208 13.1667C14.0408 13.1667 11.625 15.5825 11.625 18.5625C11.625 21.5425 14.0408 23.9583 17.0208 23.9583Z" fill="#01BD88"/>
<path d="M33.9788 37.8333C36.9589 37.8333 39.3747 35.4175 39.3747 32.4375C39.3747 29.4575 36.9589 27.0417 33.9788 27.0417C30.9988 27.0417 28.583 29.4575 28.583 32.4375C28.583 35.4175 30.9988 37.8333 33.9788 37.8333Z" fill="#01BD88"/>
</svg>
