<svg width="79" height="79" viewBox="0 0 79 79" fill="none" xmlns="http://www.w3.org/2000/svg">
<path d="M10.0068 0.5H68.9932C74.2402 0.500214 78.5 4.7539 78.5 10V69C78.5 74.2467 74.2467 78.5 69 78.5H10C4.75329 78.5 0.5 74.2467 0.5 69V10C0.5 4.7539 4.75984 0.500213 10.0068 0.5Z" stroke="#01BD88"/>
<path d="M63.8887 32.8481C65.9175 34.2999 67.4055 35.8082 68.415 37.5825C69.5182 39.5216 70.0957 41.8588 70.0957 44.936C70.0956 48.0146 68.914 50.1486 66.9541 51.5503C64.945 52.9871 62.0138 53.726 58.4355 53.7261C54.8572 53.7261 51.9244 52.9872 49.9141 51.5552C47.9528 50.1581 46.7725 48.0351 46.7725 44.9829C46.7725 41.9038 47.3517 39.5659 48.457 37.6216C49.4687 35.842 50.9591 34.3255 52.9922 32.8589C54.5996 34.0516 56.4891 34.7033 58.4414 34.7017C60.3942 34.7 62.2826 34.0441 63.8887 32.8481ZM54.1875 23.9097H63.1299L63.1865 23.9194C63.2076 23.9264 63.231 23.9376 63.2559 23.9546C63.307 23.9894 63.3654 24.0504 63.4131 24.144C63.461 24.2382 63.4914 24.3546 63.4941 24.48C63.4966 24.5959 63.4743 24.7058 63.4355 24.8003L61.0938 29.0464C59.4696 30.1085 57.4993 30.1272 55.8643 29.105L53.9355 24.937L53.9199 24.9058L53.9033 24.8745C53.8501 24.778 53.8149 24.6559 53.8115 24.522C53.8081 24.3879 53.8369 24.261 53.8867 24.1577C53.9365 24.0547 54.0002 23.9889 54.0547 23.9526C54.1071 23.9178 54.1528 23.9089 54.1875 23.9097Z" fill="#FFFEFE" stroke="#01BD88" stroke-width="2"/>
<path d="M62.4992 39.1402C62.8382 38.8256 62.8786 38.273 62.5877 37.9065C62.2968 37.5399 61.7858 37.4961 61.4468 37.8107L57.116 41.8237V38.4755C57.116 37.9913 56.7542 37.6001 56.3064 37.6001C55.8587 37.6001 55.4969 37.9913 55.4969 38.4755V42.8523H54.6874C54.2397 42.8523 53.8779 43.2435 53.8779 43.7277C53.8779 44.2119 54.2397 44.603 54.6874 44.603H55.4969V48.9799C55.4969 49.4641 55.8587 49.8553 56.3064 49.8553C56.7542 49.8553 57.116 49.4641 57.116 48.9799V45.6316L61.4468 49.6446C61.7858 49.9592 62.2968 49.9154 62.5877 49.5489C62.8786 49.1823 62.8382 48.6297 62.4992 48.3152L58.4946 44.603H62.7825C63.2303 44.603 63.592 44.2119 63.592 43.7277C63.592 43.2435 63.2303 42.8523 62.7825 42.8523H58.4946L62.4992 39.1402Z" fill="#01BD88"/>
<path d="M50.4084 48.1404L39.5532 43.0282L34.963 40.8663C36.9676 39.6194 38.5959 37.695 39.6614 35.3771C40.55 33.4446 41.0097 31.3469 41.0096 29.2246C41.0096 27.9743 40.8086 26.7869 40.5285 25.6413C39.163 20.0898 34.7716 16 29.5 16C24.3282 16 20.0034 19.944 18.5533 25.3375C18.2185 26.5748 17.9883 27.8614 17.9883 29.2246C17.9883 31.5918 18.5484 33.7989 19.5002 35.7186C20.6002 37.9455 22.2313 39.7816 24.2166 40.9621L19.8204 42.9831L8.61303 48.1363C7.63981 48.5866 7 49.6707 7 50.8813V63.039C7 64.6685 8.14999 65.9893 9.56963 65.9893H26.215V56.6806C26.2173 56.5846 26.2458 56.491 26.2975 56.4096L26.2906 56.4055L29.0168 51.7436L29.0238 51.7477C29.1208 51.5835 29.2934 51.4671 29.5 51.4671C29.7066 51.4671 29.8792 51.5828 29.9762 51.7477L29.979 51.7457L30.0039 51.7888C30.0074 51.7956 30.0123 51.8011 30.015 51.8079L32.7053 56.4075L32.7018 56.4096C32.7535 56.4912 32.782 56.585 32.7843 56.6813V65.99H49.4297C50.8493 65.99 52 64.6692 52 63.0397V50.8813C52.0021 49.6748 51.3727 48.601 50.4084 48.1404ZM32.7039 45.0232L32.7108 45.0273L29.9838 49.6891L29.9769 49.685C29.9296 49.769 29.8606 49.8391 29.777 49.8883C29.6933 49.9375 29.598 49.9639 29.5007 49.9649C29.4034 49.9639 29.308 49.9375 29.2244 49.8883C29.1408 49.8391 29.0718 49.769 29.0245 49.685L29.021 49.6871L28.9933 49.6399C28.9912 49.6351 28.987 49.631 28.985 49.6262L26.2947 45.0252L26.2975 45.0232C26.2458 44.9416 26.2173 44.8477 26.215 44.7515C26.215 44.4469 26.4652 44.1999 26.7737 44.1999H32.2263C32.5347 44.1999 32.785 44.4469 32.785 44.7515C32.7839 44.8477 32.7558 44.9417 32.7039 45.0232Z" fill="#01BD88"/>
</svg>
