<svg width="79" height="79" viewBox="0 0 79 79" fill="none" xmlns="http://www.w3.org/2000/svg">
<path d="M10 0.5H69C74.2467 0.5 78.5 4.7533 78.5 10V69C78.5 74.2467 74.2467 78.5 69 78.5H10C4.7533 78.5 0.5 74.2467 0.5 69V10C0.5 4.7533 4.7533 0.5 10 0.5Z" stroke="#01BD88"/>
<g clip-path="url(#clip0_2182_3)">
<path d="M64.5684 31.1724C66.5927 32.6514 68.0796 34.1892 69.0898 36.0005C70.1961 37.9841 70.7754 40.3748 70.7754 43.52C70.7754 46.6752 69.587 48.8597 67.626 50.2905C65.618 51.7555 62.6902 52.5083 59.1152 52.5083C55.5403 52.5083 52.6107 51.7555 50.6016 50.2954C48.6394 48.8695 47.4521 46.697 47.4521 43.5688C47.4522 40.4216 48.0323 38.0295 49.1406 36.0405C50.153 34.2239 51.6433 32.6782 53.6719 31.1841C55.2774 32.397 57.1668 33.0608 59.1211 33.0591C61.0761 33.0574 62.9641 32.3887 64.5684 31.1724ZM54.8662 22.0493H63.8096L63.8604 22.0591C63.8802 22.0657 63.903 22.0761 63.9277 22.0933C63.979 22.1289 64.04 22.1925 64.0898 22.2925C64.1397 22.3926 64.1709 22.5161 64.1738 22.6499C64.1765 22.7753 64.1517 22.8941 64.1104 22.9956L61.7676 27.3306C60.1456 28.4138 58.1813 28.4328 56.5488 27.3901L54.6182 23.1333L54.6035 23.1021L54.5869 23.0708C54.5316 22.9682 54.4948 22.8379 54.4912 22.6948C54.4877 22.5517 54.5183 22.417 54.5703 22.3071C54.6222 22.1974 54.6877 22.1293 54.7422 22.0923C54.7943 22.0569 54.8363 22.0487 54.8662 22.0493Z" fill="#FFFEFE" stroke="#01BD88" stroke-width="2"/>
<path d="M63.1789 37.6073C63.5178 37.2864 63.5583 36.7227 63.2674 36.3487C62.9765 35.9747 62.4655 35.9301 62.1265 36.251L57.7956 40.3451V36.9292C57.7956 36.4352 57.4339 36.0361 56.9861 36.0361C56.5384 36.0361 56.1766 36.4352 56.1766 36.9292V41.3945H55.3671C54.9194 41.3945 54.5576 41.7935 54.5576 42.2875C54.5576 42.7815 54.9194 43.1806 55.3671 43.1806H56.1766V47.6458C56.1766 48.1398 56.5384 48.5389 56.9861 48.5389C57.4339 48.5389 57.7956 48.1398 57.7956 47.6458V44.2299L62.1265 48.324C62.4655 48.6449 62.9765 48.6003 63.2674 48.2263C63.5583 47.8524 63.5178 47.2886 63.1789 46.9677L59.1743 43.1806H63.4622C63.9099 43.1806 64.2717 42.7815 64.2717 42.2875C64.2717 41.7935 63.9099 41.3945 63.4622 41.3945H59.1743L63.1789 37.6073Z" fill="#01BD88"/>
<path d="M39.1796 16.9847C39.1796 15.4571 35.0487 14.2197 30.8846 14.2197C26.7205 14.2197 22.5896 15.4571 22.5896 16.9847L21.4117 20.9124C21.8997 20.9871 22.4375 21.0659 23.0057 21.1447C25.4887 21.4903 28.5219 21.8235 30.8846 21.8235C33.2487 21.8235 36.2805 21.4889 38.7635 21.1461C39.3317 21.0659 39.8695 20.9871 40.3575 20.9124L39.1796 16.9847ZM41.3736 23.553C40.7266 23.6553 39.9676 23.77 39.1423 23.8848C36.6358 24.2304 33.4464 24.5885 30.8846 24.5885C28.3215 24.5885 25.1334 24.2318 22.6269 23.8834C21.8821 23.7802 21.1383 23.6701 20.3956 23.553C15.8637 24.5581 12.9121 26.1949 12.9121 28.0447C12.9121 31.1 20.9583 33.5747 30.8846 33.5747C40.811 33.5747 48.8571 31.1 48.8571 28.0447C48.8571 26.1949 45.9055 24.5581 41.3736 23.553Z" fill="#01BD88"/>
<path d="M19.8281 32.4053C19.8842 35.3009 21.0739 38.0591 23.1415 40.0871C25.2092 42.1151 27.9898 43.2511 30.8861 43.2511C33.7823 43.2511 36.5629 42.1151 38.6306 40.0871C40.6982 38.0591 41.8879 35.3009 41.944 32.4053C41.0187 32.6256 40.0853 32.8101 39.1458 32.9583C38.9571 35.0187 38.0052 36.9342 36.477 38.3289C34.9487 39.7236 32.9544 40.4968 30.8854 40.4968C28.8163 40.4968 26.822 39.7236 25.2937 38.3289C23.7655 36.9342 22.8136 35.0187 22.6249 32.9583C21.6859 32.8101 20.7529 32.6256 19.8281 32.4053Z" fill="#01BD88"/>
<path fill-rule="evenodd" clip-rule="evenodd" d="M21.4801 54.3121C20.4902 56.0235 18.9234 57.3267 17.0602 57.9882V62.6071C17.0602 63.091 16.9773 63.5569 16.8252 63.9896H55.7702V55.6946C55.7702 48.2056 39.1913 46.0171 30.8852 46.0171C28.1109 46.0315 25.3403 46.2226 22.5902 46.5894V54.3121H21.4801ZM30.8852 55.6946C29.0261 55.6925 27.1724 55.4932 25.3552 55.1001V49.0586C27.3833 48.8678 29.2926 48.7821 30.8852 48.7821C33.1885 48.7821 36.1512 48.9604 39.1802 49.3793V54.3121C39.1622 54.319 35.7101 55.6946 30.8852 55.6946ZM45.6821 50.7065C44.919 50.4881 44.131 50.2918 43.3277 50.1134V54.3121H46.0927C46.4594 54.3121 46.811 54.4577 47.0703 54.717C47.3296 54.9763 47.4752 55.3279 47.4752 55.6946V61.2246H53.0052V55.6946C53.0052 54.995 52.6624 54.1849 51.3946 53.2379C50.0951 52.2674 48.1278 51.4061 45.6821 50.7065Z" fill="#01BD88"/>
<path d="M8.765 40.487C8.765 40.1203 8.61934 39.7687 8.36007 39.5094C8.10081 39.2501 7.74916 39.1045 7.3825 39.1045C7.01584 39.1045 6.66419 39.2501 6.40493 39.5094C6.14566 39.7687 6 40.1203 6 40.487V50.1645C6 51.6311 6.58262 53.0377 7.6197 54.0748C8.65678 55.1119 10.0634 55.6945 11.53 55.6945V62.607C11.53 62.9737 11.6757 63.3253 11.9349 63.5846C12.1942 63.8438 12.5458 63.9895 12.9125 63.9895C13.2792 63.9895 13.6308 63.8438 13.8901 63.5846C14.1493 63.3253 14.295 62.9737 14.295 62.607V55.6945C15.7616 55.6945 17.1682 55.1119 18.2053 54.0748C19.2424 53.0377 19.825 51.6311 19.825 50.1645V40.487C19.825 40.1203 19.6793 39.7687 19.4201 39.5094C19.1608 39.2501 18.8092 39.1045 18.4425 39.1045C18.0758 39.1045 17.7242 39.2501 17.4649 39.5094C17.2057 39.7687 17.06 40.1203 17.06 40.487V50.1645C17.06 50.8978 16.7687 51.6011 16.2501 52.1196C15.7316 52.6382 15.0283 52.9295 14.295 52.9295V40.487C14.295 40.1203 14.1493 39.7687 13.8901 39.5094C13.6308 39.2501 13.2792 39.1045 12.9125 39.1045C12.5458 39.1045 12.1942 39.2501 11.9349 39.5094C11.6757 39.7687 11.53 40.1203 11.53 40.487V52.9295C10.7967 52.9295 10.0934 52.6382 9.57485 52.1196C9.05631 51.6011 8.765 50.8978 8.765 50.1645V40.487Z" fill="#01BD88"/>
</g>
<defs>
<clipPath id="clip0_2182_3">
<rect width="66.36" height="66.36" fill="white" transform="translate(6 6.31982)"/>
</clipPath>
</defs>
</svg>
