<svg width="79" height="79" viewBox="0 0 79 79" fill="none" xmlns="http://www.w3.org/2000/svg">
<rect x="0.5" y="0.5" width="78" height="78" rx="9.5" stroke="#01BD88"/>
<path d="M46.1527 31.3368C47.7248 31.5974 48.6217 33.034 50.4173 35.9104C52.2129 38.7868 53.1098 40.2234 52.6535 41.7503M46.1527 31.3368C44.5806 31.0762 42.9502 32.094 39.6861 34.1317L32.7632 38.4534C29.4991 40.4911 27.8688 41.5089 27.4125 43.0357M52.6535 41.7503C52.1972 43.2771 50.5669 44.2949 47.3028 46.3326L40.3799 50.6543C37.1158 52.692 35.4854 53.7098 33.9133 53.4492M33.9133 53.4492C32.3412 53.1886 31.4443 51.752 29.6487 48.8756C27.8531 45.9992 26.9562 44.5626 27.4125 43.0357M41.7637 41.3126C41.5112 40.9081 41.0867 40.634 40.5836 40.5506C40.0805 40.4672 39.5399 40.5813 39.0809 40.8679C38.6219 41.1544 38.282 41.5899 38.136 42.0786C37.9899 42.5672 38.0498 43.069 38.3023 43.4734C38.5548 43.8779 38.9793 44.152 39.4824 44.2354C39.9855 44.3188 40.5261 44.2047 40.9851 43.9181C41.4441 43.6316 41.784 43.1961 41.93 42.7075C42.076 42.2188 42.0162 41.7171 41.7637 41.3126Z" fill="white"/>
<path d="M46.1527 31.3368C47.7248 31.5974 48.6217 33.034 50.4173 35.9104C52.2129 38.7868 53.1098 40.2234 52.6535 41.7503C52.1972 43.2771 50.5669 44.2949 47.3028 46.3326L40.3799 50.6543C37.1158 52.692 35.4854 53.7098 33.9133 53.4492C32.3412 53.1886 31.4443 51.752 29.6487 48.8756C27.8531 45.9992 26.9562 44.5626 27.4125 43.0357C27.8688 41.5089 29.4991 40.4911 32.7632 38.4534L39.6861 34.1317C42.9502 32.094 44.5806 31.0762 46.1527 31.3368ZM41.7637 41.3126C41.5112 40.9081 41.0867 40.634 40.5836 40.5506C40.0805 40.4672 39.5399 40.5813 39.0809 40.8679C38.6219 41.1544 38.282 41.5899 38.136 42.0786C37.9899 42.5672 38.0498 43.069 38.3023 43.4734C38.5548 43.8779 38.9793 44.152 39.4824 44.2354C39.9855 44.3188 40.5261 44.2047 40.9851 43.9181C41.4441 43.6316 41.784 43.1961 41.93 42.7075C42.076 42.2188 42.0162 41.7171 41.7637 41.3126Z" stroke="#01BD88" stroke-width="2"/>
<path d="M51.3696 37.4357C49.9926 38.2953 48.9729 39.6018 48.5348 41.0677C48.0967 42.5336 48.2762 44.0389 49.0337 45.2523M49.4655 34.3854C48.0884 35.2451 46.4668 35.5875 44.9575 35.3373C43.4481 35.0871 42.1746 34.2648 41.4171 33.0514M30.601 50.4009C31.9781 49.5412 33.5996 49.1988 35.109 49.449C36.6184 49.6992 37.8919 50.5215 38.6494 51.7349M28.6969 47.3506C30.0739 46.491 31.0936 45.1845 31.5317 43.7186C31.9698 42.2527 31.7903 40.7474 31.0328 39.534M15.1717 29.5379L19.0832 27.0961C20.8312 26.0049 22.5008 24.738 24.0098 23.3678C26.7039 20.9218 29.7911 18.9098 33.1221 17.4292C34.7577 16.7049 36.437 16.1122 38.1272 15.8455C39.6527 15.6075 41.5793 15.4072 43.0766 15.598C44.5711 15.7883 46.4281 16.4666 47.804 17.0447C48.9881 17.539 49.3623 18.8166 48.7811 20.0972C48.4463 20.8035 47.894 21.4161 47.2037 21.847C46.5134 22.2779 45.7205 22.505 44.9389 22.4957L40.5119 22.3663C38.7958 22.3143 37.0082 22.3981 35.2934 23.1612C35.0869 23.2541 34.8726 23.354 34.6516 23.4623M34.6516 23.4623C34.5841 23.4954 34.5169 23.5289 34.4498 23.5628L34.6516 23.4623ZM34.6516 23.4623C34.9698 23.3553 35.3023 23.3226 35.6191 23.3669C36.004 23.403 36.3686 23.5128 36.6913 23.6901C37.014 23.8674 37.2883 24.1085 37.498 24.3992C37.7077 24.6898 37.8485 25.0242 37.9122 25.3825C37.9759 25.7408 37.9612 26.1158 37.8689 26.4854C37.7811 26.8468 37.6363 27.1996 37.4395 27.5313C34.1877 33.0987 25.4438 35.8634 19.1181 35.8595M34.6516 23.4623C34.5815 23.4893 34.5139 23.523 34.4498 23.5628L34.6516 23.4623ZM34.4498 23.5628C33.3483 24.122 32.2955 24.7764 31.3065 25.5166L34.4498 23.5628Z" fill="#01BD88"/>
<path d="M51.3696 37.4357C49.9926 38.2953 48.9729 39.6018 48.5348 41.0677C48.0967 42.5336 48.2762 44.0389 49.0337 45.2523M49.4655 34.3854C48.0884 35.2451 46.4668 35.5875 44.9575 35.3373C43.4481 35.0871 42.1746 34.2648 41.4171 33.0514M30.601 50.4009C31.9781 49.5412 33.5996 49.1988 35.109 49.449C36.6184 49.6992 37.8919 50.5215 38.6494 51.7349M28.6969 47.3506C30.0739 46.491 31.0936 45.1845 31.5317 43.7186C31.9698 42.2527 31.7903 40.7474 31.0328 39.534M15.1717 29.5379L19.0832 27.0961C20.8312 26.0049 22.5008 24.738 24.0098 23.3678C26.7039 20.9218 29.7911 18.9098 33.1221 17.4292C34.7577 16.7049 36.437 16.1122 38.1272 15.8455C39.6527 15.6075 41.5793 15.4072 43.0766 15.598C44.5711 15.7883 46.4281 16.4666 47.804 17.0447C48.9881 17.539 49.3623 18.8166 48.7811 20.0972C48.4463 20.8035 47.894 21.4161 47.2037 21.847C46.5134 22.2779 45.7205 22.505 44.9389 22.4957L40.5119 22.3663C38.7958 22.3143 37.0082 22.3981 35.2934 23.1612C35.0869 23.2541 34.8726 23.354 34.6516 23.4623M34.6516 23.4623C34.5841 23.4954 34.5169 23.5289 34.4498 23.5628M34.6516 23.4623C34.9698 23.3553 35.3023 23.3226 35.6191 23.3669C36.004 23.403 36.3686 23.5128 36.6913 23.6901C37.014 23.8674 37.2883 24.1085 37.498 24.3992C37.7077 24.6898 37.8485 25.0242 37.9122 25.3825C37.9759 25.7408 37.9612 26.1158 37.8689 26.4854C37.7811 26.8468 37.6363 27.1996 37.4395 27.5313C34.1877 33.0987 25.4438 35.8634 19.1181 35.8595M34.6516 23.4623C34.5815 23.4893 34.5139 23.523 34.4498 23.5628M34.4498 23.5628C33.3483 24.122 32.2955 24.7764 31.3065 25.5166" stroke="#01BD88" stroke-width="2" stroke-linecap="round"/>
<path d="M19.8255 36.9925C20.6143 38.256 20.0914 40.0058 18.6576 40.9008C17.2238 41.7959 15.4221 41.4973 14.6334 40.2338L9.87299 32.6082C9.08425 31.3448 9.60716 29.595 11.0409 28.6999C12.4747 27.8048 14.2764 28.1035 15.0651 29.3669L19.8255 36.9925Z" fill="white" stroke="#01BD88" stroke-width="2"/>
<rect width="17.7068" height="7.91202" transform="matrix(0.848277 -0.529553 -0.529553 -0.848277 18.9307 34.2578)" fill="#01BD88"/>
<rect width="10.9503" height="0.63686" rx="0.31843" transform="matrix(-0.529091 -0.848565 -0.848507 0.529184 20.3613 34.8013)" fill="white"/>
<path d="M40.0547 21.3632C37.3254 20.3258 31.2501 22.6115 30.3405 22.9657C30.2707 22.9929 30.2298 23.0631 30.2356 23.1365C30.2434 23.2356 30.338 23.2958 30.433 23.2617C31.1004 23.0227 33.483 22.2009 35.6262 21.8541C39.2691 21.2646 40.173 21.6778 40.173 21.6778C40.173 21.6778 43.009 22.4861 40.0547 21.3632Z" fill="white"/>
<path d="M62.2109 61.2115L58.303 63.0691C56.5565 63.8992 54.8694 64.9121 53.3255 66.0481C50.5691 68.076 47.4775 69.6251 44.2001 70.6205C42.5911 71.1066 40.9519 71.4578 39.3299 71.4882C37.8663 71.5131 36.0262 71.4461 34.6256 71.0548C33.2274 70.6644 31.5276 69.7464 30.2746 68.9923C29.196 68.3464 28.95 67.044 29.6084 65.8691C29.985 65.223 30.5594 64.6984 31.2491 64.3706C31.9388 64.0428 32.7083 63.9286 33.4471 64.0445L37.6253 64.7758C39.2448 65.061 40.9435 65.223 42.6307 64.7097C42.834 64.6469 43.0452 64.5784 43.2635 64.5025M43.2635 64.5025C43.3301 64.4793 43.3966 64.4556 43.463 64.4316L43.2635 64.5025ZM43.2635 64.5025C42.9533 64.5638 42.6359 64.5504 42.3399 64.4637C41.9787 64.3759 41.6431 64.2185 41.3527 64.0008C41.0624 63.7831 40.8232 63.5095 40.6494 63.1962C40.4756 62.8828 40.3706 62.5361 40.3406 62.1765C40.3106 61.8168 40.3563 61.4515 40.4749 61.1021C40.5886 60.7601 40.7555 60.4344 40.9698 60.1363C44.5181 55.1273 53.0262 53.6133 59.0117 54.4809M43.2635 64.5025C43.3321 64.4856 43.3989 64.4618 43.463 64.4316L43.2635 64.5025ZM43.463 64.4316C44.5526 64.0343 45.6042 63.5371 46.6028 62.9471L43.463 64.4316Z" fill="#01BD88"/>
<path d="M62.2109 61.2115L58.303 63.0691C56.5565 63.8992 54.8694 64.9121 53.3255 66.0481C50.5691 68.076 47.4775 69.6251 44.2001 70.6205C42.5911 71.1066 40.9519 71.4578 39.3299 71.4882C37.8663 71.5131 36.0262 71.4461 34.6256 71.0548C33.2274 70.6644 31.5276 69.7464 30.2746 68.9923C29.196 68.3464 28.95 67.044 29.6084 65.8691C29.985 65.223 30.5594 64.6984 31.2491 64.3706C31.9388 64.0428 32.7083 63.9286 33.4471 64.0445L37.6253 64.7757C39.2448 65.061 40.9435 65.223 42.6307 64.7097C42.834 64.6469 43.0452 64.5784 43.2635 64.5025M43.2635 64.5025C43.3301 64.4793 43.3966 64.4556 43.463 64.4316M43.2635 64.5025C42.9533 64.5638 42.6359 64.5504 42.3399 64.4637C41.9787 64.3759 41.6431 64.2185 41.3527 64.0008C41.0624 63.7831 40.8232 63.5095 40.6494 63.1962C40.4756 62.8828 40.3706 62.5361 40.3406 62.1765C40.3106 61.8168 40.3563 61.4515 40.4749 61.1021C40.5886 60.7601 40.7555 60.4344 40.9698 60.1363C44.5181 55.1273 53.0262 53.6133 59.0117 54.4809M43.2635 64.5025C43.3321 64.4856 43.3989 64.4618 43.463 64.4316M43.463 64.4316C44.5526 64.0343 45.6042 63.5371 46.6028 62.9471" stroke="#01BD88" stroke-width="2" stroke-linecap="round"/>
<path d="M58.438 53.2745C57.7986 51.9293 58.4415 50.2868 59.874 49.6059C61.3065 48.925 62.9861 49.4635 63.6255 50.8087L67.4847 58.9277C68.1241 60.2729 67.4812 61.9154 66.0487 62.5963C64.6162 63.2772 62.9366 62.7387 62.2972 61.3935L58.438 53.2745Z" fill="white" stroke="#01BD88" stroke-width="2"/>
<rect width="16.6159" height="7.91202" transform="matrix(-0.903164 0.429296 0.429296 0.903164 59.0527 56.0747)" fill="#01BD88"/>
<rect width="10.9503" height="0.597623" rx="0.298811" transform="matrix(0.428834 0.903383 0.903363 -0.428877 57.7461 55.3477)" fill="white"/>
<path d="M37.9727 65.8205C40.4645 67.2076 46.3953 65.8036 47.2973 65.5783C47.3678 65.5606 47.4136 65.4979 47.4143 65.4258C47.4153 65.3273 47.3259 65.2556 47.229 65.2768C46.565 65.4222 44.2528 65.8976 42.2048 65.9444C39.4476 66.0075 38.3543 65.6925 38.0152 65.5564C37.9273 65.5212 37.8453 65.4772 37.7588 65.439C37.2667 65.2219 35.6451 64.5248 37.9727 65.8205Z" fill="white"/>
</svg>
