<svg width="50" height="50" viewBox="0 0 50 50" fill="none" xmlns="http://www.w3.org/2000/svg">
<rect x="1" y="1" width="48" height="48" rx="9" stroke="url(#paint0_linear_2118_7)" stroke-width="2"/>
<path d="M8.94444 31.3333C9.4207 31.3334 9.88038 31.5082 10.2363 31.8247C10.5922 32.1412 10.8196 32.5773 10.8753 33.0503L10.8889 33.2778V39.1111H18.6667C19.1623 39.1117 19.639 39.3014 19.9993 39.6416C20.3597 39.9819 20.5766 40.4469 20.6056 40.9416C20.6347 41.4363 20.4737 41.9235 20.1556 42.3036C19.8375 42.6836 19.3863 42.9279 18.8942 42.9864L18.6667 43H10.8889C9.90777 43.0003 8.96279 42.6298 8.24338 41.9626C7.52397 41.2955 7.08331 40.3811 7.00972 39.4028L7 39.1111V33.2778C7 32.7621 7.20486 32.2675 7.56951 31.9028C7.93417 31.5382 8.42875 31.3333 8.94444 31.3333ZM40.0556 31.3333C40.5713 31.3333 41.0658 31.5382 41.4305 31.9028C41.7951 32.2675 42 32.7621 42 33.2778V39.1111C42 40.1425 41.5903 41.1317 40.861 41.861C40.1317 42.5903 39.1425 43 38.1111 43H30.3333C29.8176 43 29.3231 42.7951 28.9584 42.4305C28.5937 42.0658 28.3889 41.5713 28.3889 41.0556C28.3889 40.5399 28.5937 40.0453 28.9584 39.6806C29.3231 39.316 29.8176 39.1111 30.3333 39.1111H38.1111V33.2778C38.1111 32.7621 38.316 32.2675 38.6806 31.9028C39.0453 31.5382 39.5399 31.3333 40.0556 31.3333ZM40.0556 23.5556C40.5512 23.5561 41.0278 23.7459 41.3882 24.0861C41.7486 24.4263 41.9655 24.8913 41.9945 25.386C42.0235 25.8808 41.8626 26.368 41.5445 26.748C41.2264 27.1281 40.7752 27.3723 40.2831 27.4308L40.0556 27.4444H8.94444C8.44885 27.4439 7.97216 27.2541 7.61178 26.9139C7.25141 26.5737 7.03454 26.1087 7.0055 25.614C6.97645 25.1192 7.13742 24.632 7.45551 24.252C7.77361 23.8719 8.22481 23.6277 8.71694 23.5692L8.94444 23.5556H40.0556ZM18.6667 8C19.1824 8 19.6769 8.20486 20.0416 8.56951C20.4062 8.93417 20.6111 9.42875 20.6111 9.94444C20.6111 10.4601 20.4062 10.9547 20.0416 11.3194C19.6769 11.684 19.1824 11.8889 18.6667 11.8889H10.8889V17.7222C10.8889 18.2379 10.684 18.7325 10.3194 19.0972C9.95472 19.4618 9.46014 19.6667 8.94444 19.6667C8.42875 19.6667 7.93417 19.4618 7.56951 19.0972C7.20486 18.7325 7 18.2379 7 17.7222V11.8889C7 10.8575 7.40972 9.86834 8.13903 9.13903C8.86834 8.40972 9.85749 8 10.8889 8H18.6667ZM38.1111 8C39.1425 8 40.1317 8.40972 40.861 9.13903C41.5903 9.86834 42 10.8575 42 11.8889V17.7222C42 18.2379 41.7951 18.7325 41.4305 19.0972C41.0658 19.4618 40.5713 19.6667 40.0556 19.6667C39.5399 19.6667 39.0453 19.4618 38.6806 19.0972C38.316 18.7325 38.1111 18.2379 38.1111 17.7222V11.8889H30.3333C29.8176 11.8889 29.3231 11.684 28.9584 11.3194C28.5937 10.9547 28.3889 10.4601 28.3889 9.94444C28.3889 9.42875 28.5937 8.93417 28.9584 8.56951C29.3231 8.20486 29.8176 8 30.3333 8H38.1111Z" fill="url(#paint1_linear_2118_7)"/>
<defs>
<linearGradient id="paint0_linear_2118_7" x1="25" y1="0" x2="25" y2="50" gradientUnits="userSpaceOnUse">
<stop stop-color="#01BD88"/>
</linearGradient>
<linearGradient id="paint1_linear_2118_7" x1="24.5" y1="8" x2="24.5" y2="43" gradientUnits="userSpaceOnUse">
<stop stop-color="#01BD88"/>
</linearGradient>
</defs>
</svg>
