<svg width="30" height="20" viewBox="0 0 30 20" fill="none" xmlns="http://www.w3.org/2000/svg">
<path opacity="0.3" d="M29.9341 9.68846C29.8909 9.58846 28.8332 7.22308 26.4713 4.84103C24.2798 2.63333 20.5145 0 15 0C9.48553 0 5.72022 2.63333 3.52867 4.84103C1.16678 7.22308 0.109138 9.58462 0.065917 9.68846C0.0224576 9.78693 0 9.8935 0 10.0013C0 10.1091 0.0224576 10.2156 0.065917 10.3141C0.109138 10.4128 1.16678 12.7782 3.52867 15.1603C5.72022 17.368 9.48553 20 15 20C20.5145 20 24.2798 17.368 26.4713 15.1603C28.8332 12.7782 29.8909 10.4167 29.9341 10.3141C29.9775 10.2156 30 10.1091 30 10.0013C30 9.8935 29.9775 9.78693 29.9341 9.68846ZM15 18.4615C11.011 18.4615 7.52787 16.9974 4.64606 14.1115C3.438 12.9007 2.41573 11.5149 1.61297 10C2.4155 8.48529 3.4378 7.09993 4.64606 5.88974C7.52787 3.00256 11.011 1.53846 15 1.53846C18.989 1.53846 22.4721 3.00256 25.3539 5.88974C26.5622 7.09993 27.5845 8.48529 28.387 10C27.5773 11.5654 23.5171 18.4615 15 18.4615ZM15 4.10256C13.8435 4.10256 12.7129 4.44844 11.7513 5.09646C10.7897 5.74448 10.0402 6.66553 9.59759 7.74315C9.155 8.82076 9.0392 10.0065 9.26483 11.1505C9.49046 12.2945 10.0474 13.3453 10.8652 14.1701C11.683 14.9949 12.7249 15.5566 13.8592 15.7841C14.9935 16.0117 16.1693 15.8949 17.2378 15.4485C18.3062 15.0022 19.2195 14.2463 19.862 13.2764C20.5046 12.3066 20.8475 11.1664 20.8475 10C20.8455 8.43653 20.2288 6.93767 19.1326 5.83213C18.0364 4.72659 16.5502 4.1046 15 4.10256ZM15 14.359C14.1452 14.359 13.3095 14.1033 12.5988 13.6244C11.888 13.1454 11.334 12.4646 11.0069 11.6681C10.6798 10.8716 10.5942 9.99516 10.761 9.14961C10.9277 8.30405 11.3394 7.52735 11.9438 6.91774C12.5483 6.30813 13.3184 5.89297 14.1568 5.72478C14.9952 5.55659 15.8642 5.64291 16.654 5.97283C17.4437 6.30275 18.1188 6.86145 18.5937 7.57828C19.0686 8.29511 19.3221 9.13788 19.3221 10C19.3221 11.1561 18.8667 12.2648 18.0562 13.0823C17.2456 13.8997 16.1463 14.359 15 14.359Z" fill="black"/>
</svg>
