<svg width="79" height="79" viewBox="0 0 79 79" fill="none" xmlns="http://www.w3.org/2000/svg">
<rect x="0.5" y="0.5" width="78" height="78" rx="9.5" stroke="#01BD88"/>
<path d="M55.1781 30.3863C56.9337 28.6553 56.9337 25.8725 56.9337 20.3011C56.9337 14.7298 56.9337 11.947 55.1781 10.2159M55.1781 30.3863C53.4226 32.1174 50.6005 32.1174 44.9503 32.1174H32.9668C27.3166 32.1174 24.4945 32.1174 22.739 30.3863M55.1781 10.2159C53.4226 8.48486 50.6005 8.48486 44.9503 8.48486H32.9668C27.3166 8.48486 24.4945 8.48486 22.739 10.2159M22.739 10.2159C20.9834 11.947 20.9834 14.7298 20.9834 20.3011C20.9834 25.8725 20.9834 28.6553 22.739 30.3863M41.9544 20.3011C41.9544 21.0846 41.6388 21.836 41.0769 22.39C40.5151 22.944 39.7531 23.2552 38.9586 23.2552C38.164 23.2552 37.402 22.944 36.8402 22.39C36.2783 21.836 35.9627 21.0846 35.9627 20.3011C35.9627 19.5177 36.2783 18.7663 36.8402 18.2123C37.402 17.6583 38.164 17.3471 38.9586 17.3471C39.7531 17.3471 40.5151 17.6583 41.0769 18.2123C41.6388 18.7663 41.9544 19.5177 41.9544 20.3011Z" fill="white"/>
<path d="M55.1781 30.3863C56.9337 28.6553 56.9337 25.8725 56.9337 20.3011C56.9337 14.7298 56.9337 11.947 55.1781 10.2159C53.4226 8.48486 50.6005 8.48486 44.9503 8.48486H32.9668C27.3166 8.48486 24.4945 8.48486 22.739 10.2159C20.9834 11.947 20.9834 14.7298 20.9834 20.3011C20.9834 25.8725 20.9834 28.6553 22.739 30.3863C24.4945 32.1174 27.3166 32.1174 32.9668 32.1174H44.9503C50.6005 32.1174 53.4226 32.1174 55.1781 30.3863ZM41.9544 20.3011C41.9544 21.0846 41.6388 21.836 41.0769 22.39C40.5151 22.944 39.7531 23.2552 38.9586 23.2552C38.164 23.2552 37.402 22.944 36.8402 22.39C36.2783 21.836 35.9627 21.0846 35.9627 20.3011C35.9627 19.5177 36.2783 18.7663 36.8402 18.2123C37.402 17.6583 38.164 17.3471 38.9586 17.3471C39.7531 17.3471 40.5151 17.6583 41.0769 18.2123C41.6388 18.7663 41.9544 19.5177 41.9544 20.3011Z" stroke="#01BD88" stroke-width="3"/>
<path d="M56.9335 17.3471C54.5498 17.3471 52.2638 16.4134 50.5783 14.7514C48.8928 13.0894 47.9459 10.8353 47.9459 8.48486M56.9335 23.2552C54.5498 23.2552 52.2638 24.1889 50.5783 25.8509C48.8928 27.5129 47.9459 29.767 47.9459 32.1174M20.9832 17.3471C23.3668 17.3471 25.6528 16.4134 27.3383 14.7514C29.0238 13.0894 29.9707 10.8353 29.9707 8.48486M20.9832 23.2552C23.3668 23.2552 25.6528 24.1889 27.3383 25.8509C29.0238 27.5129 29.9707 29.767 29.9707 32.1174M17.9873 59.8503H24.7579C27.7838 59.8503 30.8485 60.1634 33.7935 60.7601C39.0512 61.8252 44.461 61.9433 49.7614 61.1087C52.3618 60.6951 54.9143 60.06 57.2271 58.9611C59.3122 57.9656 61.8676 56.5683 63.5843 54.9997C65.2979 53.434 67.0834 50.8728 68.3477 48.87C69.4382 47.1507 68.9109 45.0444 67.1913 43.7653C66.225 43.0723 65.0608 42.6989 63.8659 42.6989C62.671 42.6989 61.5068 43.0723 60.5405 43.7653L55.127 47.7976C53.0299 49.3633 50.738 50.8019 48.0088 51.2303C47.6793 51.2805 47.3347 51.3278 46.9752 51.3691M46.9752 51.3691C46.8655 51.3817 46.7556 51.3935 46.6457 51.4046L46.9752 51.3691ZM46.9752 51.3691C47.4548 51.2412 47.8944 50.9976 48.2545 50.6601C48.7059 50.275 49.0746 49.8047 49.3386 49.2768C49.6027 48.7489 49.7569 48.1743 49.7921 47.5867C49.8273 46.9991 49.7428 46.4105 49.5435 45.8557C49.3442 45.3008 49.0343 44.791 48.6319 44.3562C48.2416 43.9288 47.7869 43.5631 47.2838 43.272C38.9044 38.3417 25.8634 42.0963 17.9873 47.6056M46.9752 51.3691C46.867 51.3924 46.7565 51.4043 46.6457 51.4046L46.9752 51.3691ZM46.6457 51.4046C44.8389 51.5836 43.0187 51.5876 41.2112 51.4164L46.6457 51.4046Z" fill="#01BD88"/>
<path d="M56.9335 17.3471C54.5498 17.3471 52.2638 16.4134 50.5783 14.7514C48.8928 13.0894 47.9459 10.8353 47.9459 8.48486M56.9335 23.2552C54.5498 23.2552 52.2638 24.1889 50.5783 25.8509C48.8928 27.5129 47.9459 29.767 47.9459 32.1174M20.9832 17.3471C23.3668 17.3471 25.6528 16.4134 27.3383 14.7514C29.0238 13.0894 29.9707 10.8353 29.9707 8.48486M20.9832 23.2552C23.3668 23.2552 25.6528 24.1889 27.3383 25.8509C29.0238 27.5129 29.9707 29.767 29.9707 32.1174M17.9873 59.8503H24.7579C27.7838 59.8503 30.8485 60.1634 33.7935 60.7601C39.0512 61.8252 44.461 61.9433 49.7614 61.1087C52.3618 60.6951 54.9143 60.06 57.2271 58.9611C59.3122 57.9656 61.8677 56.5683 63.5843 54.9997C65.2979 53.434 67.0834 50.8728 68.3477 48.87C69.4382 47.1507 68.9109 45.0445 67.1913 43.7653C66.225 43.0723 65.0608 42.6989 63.8659 42.6989C62.671 42.6989 61.5068 43.0723 60.5405 43.7653L55.127 47.7976C53.0299 49.3633 50.738 50.8019 48.0088 51.2303C47.6793 51.2805 47.3347 51.3278 46.9752 51.3691M46.9752 51.3691C46.8655 51.3817 46.7556 51.3935 46.6457 51.4046M46.9752 51.3691C47.4548 51.2412 47.8944 50.9976 48.2545 50.6601C48.7059 50.275 49.0746 49.8047 49.3386 49.2768C49.6027 48.7489 49.7569 48.1743 49.7921 47.5867C49.8273 46.9991 49.7428 46.4105 49.5435 45.8557C49.3442 45.3008 49.0343 44.791 48.6319 44.3562C48.2416 43.9288 47.7869 43.5631 47.2838 43.272C38.9044 38.3417 25.8634 42.0963 17.9873 47.6056M46.9752 51.3691C46.867 51.3924 46.7565 51.4043 46.6457 51.4046M46.6457 51.4046C44.8389 51.5836 43.0187 51.5876 41.2112 51.4164" stroke="#01BD88" stroke-width="3" stroke-linecap="round"/>
<path d="M17.9876 45.4108C17.9876 42.9636 15.9756 40.9797 13.4938 40.9797C11.0119 40.9797 9 42.9636 9 45.4108V60.1812C9 62.6284 11.0119 64.6123 13.4938 64.6123C15.9756 64.6123 17.9876 62.6284 17.9876 60.1812V45.4108Z" fill="white" stroke="#01BD88" stroke-width="3"/>
<rect x="19" y="50" width="26" height="13" fill="#01BD88"/>
<rect x="20.3594" y="47.9998" width="17.9922" height="0.935141" rx="0.467571" transform="rotate(89.9721 20.3594 47.9998)" fill="white"/>
<path d="M55.3379 49.5929C52.7507 53.4052 43.4412 55.5047 42.0014 55.8097C41.8874 55.8338 41.7792 55.7741 41.7302 55.6684C41.6624 55.5224 41.746 55.3506 41.9024 55.3124C42.9527 55.0559 46.5248 54.1321 49.4401 52.7619C53.5865 50.8132 54.8458 49.5434 55.1541 49.1679C55.216 49.0926 55.2699 49.0152 55.3316 48.9398C55.8019 48.3646 57.841 45.9046 55.3379 49.5929Z" fill="white"/>
</svg>
