<svg width="49" height="49" viewBox="0 0 49 49" fill="none" xmlns="http://www.w3.org/2000/svg">
<rect x="1" y="1" width="47" height="47" rx="13" stroke="#F10909" stroke-width="2"/>
<mask id="path-2-outside-1_2014_7468" maskUnits="userSpaceOnUse" x="6" y="15" width="37" height="15" fill="black">
<rect fill="white" x="6" y="15" width="37" height="15"/>
<path d="M14.7877 20.127H14.2177C13.9517 19.0757 13.5971 18.2967 13.1537 17.79C12.7104 17.2833 12.0074 17.0363 11.0447 17.049C10.3987 17.049 9.8984 17.201 9.54373 17.505C9.18907 17.7963 9.01173 18.2397 9.01173 18.835C9.01173 19.3037 9.14473 19.709 9.41073 20.051C9.67673 20.3803 10.0251 20.678 10.4557 20.944C10.8864 21.21 11.3361 21.4823 11.8047 21.761C12.2227 22.0017 12.6407 22.2423 13.0587 22.483C13.4894 22.7237 13.8757 22.996 14.2177 23.3C14.5724 23.604 14.8511 23.9587 15.0537 24.364C15.2691 24.7693 15.3767 25.257 15.3767 25.827C15.3767 26.5617 15.2057 27.1823 14.8637 27.689C14.5344 28.1957 14.0784 28.582 13.4957 28.848C12.9131 29.1013 12.2544 29.228 11.5197 29.228C10.8611 29.228 10.3227 29.1773 9.90473 29.076C9.4994 28.9873 9.1764 28.8987 8.93573 28.81C8.70773 28.7087 8.51773 28.658 8.36573 28.658C8.23907 28.658 8.12507 28.715 8.02373 28.829C7.9224 28.943 7.8654 29.095 7.85273 29.285H7.26373L7.09273 25.181H7.68173C7.90973 26.055 8.17573 26.7263 8.47973 27.195C8.78373 27.651 9.1574 27.9677 9.60073 28.145C10.0567 28.3097 10.6077 28.392 11.2537 28.392C11.9631 28.392 12.5267 28.24 12.9447 27.936C13.3627 27.6193 13.5717 27.1 13.5717 26.378C13.5717 25.8207 13.4134 25.3583 13.0967 24.991C12.7927 24.6237 12.4001 24.3007 11.9187 24.022C11.4374 23.7307 10.9371 23.4393 10.4177 23.148C9.91107 22.8567 9.4234 22.5463 8.95473 22.217C8.48607 21.8877 8.09973 21.495 7.79573 21.039C7.5044 20.583 7.35873 20.0257 7.35873 19.367C7.35873 18.6957 7.5234 18.1383 7.85273 17.695C8.18207 17.239 8.61907 16.8907 9.16373 16.65C9.7084 16.4093 10.3101 16.289 10.9687 16.289C11.5514 16.289 12.0011 16.3397 12.3177 16.441C12.6344 16.5297 12.8814 16.6247 13.0587 16.726C13.2487 16.8273 13.4197 16.878 13.5717 16.878C13.8757 16.878 14.0721 16.6943 14.1607 16.327H14.6547L14.7877 20.127ZM32.152 29H27.098V28.43C27.592 28.43 27.9593 28.3857 28.2 28.297C28.4406 28.2083 28.599 28.0437 28.675 27.803C28.751 27.5497 28.789 27.195 28.789 26.739V18.55H28.713L24.286 29H23.83L19.346 18.569H19.27V26.226C19.27 26.872 19.3143 27.3533 19.403 27.67C19.4916 27.9867 19.6563 28.1957 19.897 28.297C20.1503 28.3857 20.5176 28.43 20.999 28.43V29H16.534V28.43C17.0533 28.43 17.4396 28.3857 17.693 28.297C17.9463 28.1957 18.1173 27.9867 18.206 27.67C18.2946 27.3533 18.339 26.872 18.339 26.226V18.835C18.339 18.3537 18.2946 17.9927 18.206 17.752C18.1173 17.4987 17.9463 17.3277 17.693 17.239C17.4523 17.1377 17.0786 17.087 16.572 17.087V16.517H20.448L24.457 26.074H24.533L28.523 16.517H32.133V17.087C31.6896 17.087 31.3476 17.1377 31.107 17.239C30.8663 17.3277 30.7016 17.4987 30.613 17.752C30.5243 17.9927 30.48 18.3473 30.48 18.816V26.739C30.48 27.195 30.5243 27.5497 30.613 27.803C30.7016 28.0437 30.8663 28.2083 31.107 28.297C31.3476 28.3857 31.696 28.43 32.152 28.43V29ZM41.358 20.127H40.788C40.522 19.0757 40.1674 18.2967 39.724 17.79C39.2807 17.2833 38.5777 17.0363 37.615 17.049C36.969 17.049 36.4687 17.201 36.114 17.505C35.7594 17.7963 35.582 18.2397 35.582 18.835C35.582 19.3037 35.715 19.709 35.981 20.051C36.247 20.3803 36.5954 20.678 37.026 20.944C37.4567 21.21 37.9064 21.4823 38.375 21.761C38.793 22.0017 39.211 22.2423 39.629 22.483C40.0597 22.7237 40.446 22.996 40.788 23.3C41.1427 23.604 41.4214 23.9587 41.624 24.364C41.8394 24.7693 41.947 25.257 41.947 25.827C41.947 26.5617 41.776 27.1823 41.434 27.689C41.1047 28.1957 40.6487 28.582 40.066 28.848C39.4834 29.1013 38.8247 29.228 38.09 29.228C37.4314 29.228 36.893 29.1773 36.475 29.076C36.0697 28.9873 35.7467 28.8987 35.506 28.81C35.278 28.7087 35.088 28.658 34.936 28.658C34.8094 28.658 34.6954 28.715 34.594 28.829C34.4927 28.943 34.4357 29.095 34.423 29.285H33.834L33.663 25.181H34.252C34.48 26.055 34.746 26.7263 35.05 27.195C35.354 27.651 35.7277 27.9677 36.171 28.145C36.627 28.3097 37.178 28.392 37.824 28.392C38.5334 28.392 39.097 28.24 39.515 27.936C39.933 27.6193 40.142 27.1 40.142 26.378C40.142 25.8207 39.9837 25.3583 39.667 24.991C39.363 24.6237 38.9704 24.3007 38.489 24.022C38.0077 23.7307 37.5074 23.4393 36.988 23.148C36.4814 22.8567 35.9937 22.5463 35.525 22.217C35.0564 21.8877 34.67 21.495 34.366 21.039C34.0747 20.583 33.929 20.0257 33.929 19.367C33.929 18.6957 34.0937 18.1383 34.423 17.695C34.7524 17.239 35.1894 16.8907 35.734 16.65C36.2787 16.4093 36.8804 16.289 37.539 16.289C38.1217 16.289 38.5714 16.3397 38.888 16.441C39.2047 16.5297 39.4517 16.6247 39.629 16.726C39.819 16.8273 39.99 16.878 40.142 16.878C40.446 16.878 40.6424 16.6943 40.731 16.327H41.225L41.358 20.127Z"/>
</mask>
<path d="M14.7877 20.127H14.2177C13.9517 19.0757 13.5971 18.2967 13.1537 17.79C12.7104 17.2833 12.0074 17.0363 11.0447 17.049C10.3987 17.049 9.8984 17.201 9.54373 17.505C9.18907 17.7963 9.01173 18.2397 9.01173 18.835C9.01173 19.3037 9.14473 19.709 9.41073 20.051C9.67673 20.3803 10.0251 20.678 10.4557 20.944C10.8864 21.21 11.3361 21.4823 11.8047 21.761C12.2227 22.0017 12.6407 22.2423 13.0587 22.483C13.4894 22.7237 13.8757 22.996 14.2177 23.3C14.5724 23.604 14.8511 23.9587 15.0537 24.364C15.2691 24.7693 15.3767 25.257 15.3767 25.827C15.3767 26.5617 15.2057 27.1823 14.8637 27.689C14.5344 28.1957 14.0784 28.582 13.4957 28.848C12.9131 29.1013 12.2544 29.228 11.5197 29.228C10.8611 29.228 10.3227 29.1773 9.90473 29.076C9.4994 28.9873 9.1764 28.8987 8.93573 28.81C8.70773 28.7087 8.51773 28.658 8.36573 28.658C8.23907 28.658 8.12507 28.715 8.02373 28.829C7.9224 28.943 7.8654 29.095 7.85273 29.285H7.26373L7.09273 25.181H7.68173C7.90973 26.055 8.17573 26.7263 8.47973 27.195C8.78373 27.651 9.1574 27.9677 9.60073 28.145C10.0567 28.3097 10.6077 28.392 11.2537 28.392C11.9631 28.392 12.5267 28.24 12.9447 27.936C13.3627 27.6193 13.5717 27.1 13.5717 26.378C13.5717 25.8207 13.4134 25.3583 13.0967 24.991C12.7927 24.6237 12.4001 24.3007 11.9187 24.022C11.4374 23.7307 10.9371 23.4393 10.4177 23.148C9.91107 22.8567 9.4234 22.5463 8.95473 22.217C8.48607 21.8877 8.09973 21.495 7.79573 21.039C7.5044 20.583 7.35873 20.0257 7.35873 19.367C7.35873 18.6957 7.5234 18.1383 7.85273 17.695C8.18207 17.239 8.61907 16.8907 9.16373 16.65C9.7084 16.4093 10.3101 16.289 10.9687 16.289C11.5514 16.289 12.0011 16.3397 12.3177 16.441C12.6344 16.5297 12.8814 16.6247 13.0587 16.726C13.2487 16.8273 13.4197 16.878 13.5717 16.878C13.8757 16.878 14.0721 16.6943 14.1607 16.327H14.6547L14.7877 20.127ZM32.152 29H27.098V28.43C27.592 28.43 27.9593 28.3857 28.2 28.297C28.4406 28.2083 28.599 28.0437 28.675 27.803C28.751 27.5497 28.789 27.195 28.789 26.739V18.55H28.713L24.286 29H23.83L19.346 18.569H19.27V26.226C19.27 26.872 19.3143 27.3533 19.403 27.67C19.4916 27.9867 19.6563 28.1957 19.897 28.297C20.1503 28.3857 20.5176 28.43 20.999 28.43V29H16.534V28.43C17.0533 28.43 17.4396 28.3857 17.693 28.297C17.9463 28.1957 18.1173 27.9867 18.206 27.67C18.2946 27.3533 18.339 26.872 18.339 26.226V18.835C18.339 18.3537 18.2946 17.9927 18.206 17.752C18.1173 17.4987 17.9463 17.3277 17.693 17.239C17.4523 17.1377 17.0786 17.087 16.572 17.087V16.517H20.448L24.457 26.074H24.533L28.523 16.517H32.133V17.087C31.6896 17.087 31.3476 17.1377 31.107 17.239C30.8663 17.3277 30.7016 17.4987 30.613 17.752C30.5243 17.9927 30.48 18.3473 30.48 18.816V26.739C30.48 27.195 30.5243 27.5497 30.613 27.803C30.7016 28.0437 30.8663 28.2083 31.107 28.297C31.3476 28.3857 31.696 28.43 32.152 28.43V29ZM41.358 20.127H40.788C40.522 19.0757 40.1674 18.2967 39.724 17.79C39.2807 17.2833 38.5777 17.0363 37.615 17.049C36.969 17.049 36.4687 17.201 36.114 17.505C35.7594 17.7963 35.582 18.2397 35.582 18.835C35.582 19.3037 35.715 19.709 35.981 20.051C36.247 20.3803 36.5954 20.678 37.026 20.944C37.4567 21.21 37.9064 21.4823 38.375 21.761C38.793 22.0017 39.211 22.2423 39.629 22.483C40.0597 22.7237 40.446 22.996 40.788 23.3C41.1427 23.604 41.4214 23.9587 41.624 24.364C41.8394 24.7693 41.947 25.257 41.947 25.827C41.947 26.5617 41.776 27.1823 41.434 27.689C41.1047 28.1957 40.6487 28.582 40.066 28.848C39.4834 29.1013 38.8247 29.228 38.09 29.228C37.4314 29.228 36.893 29.1773 36.475 29.076C36.0697 28.9873 35.7467 28.8987 35.506 28.81C35.278 28.7087 35.088 28.658 34.936 28.658C34.8094 28.658 34.6954 28.715 34.594 28.829C34.4927 28.943 34.4357 29.095 34.423 29.285H33.834L33.663 25.181H34.252C34.48 26.055 34.746 26.7263 35.05 27.195C35.354 27.651 35.7277 27.9677 36.171 28.145C36.627 28.3097 37.178 28.392 37.824 28.392C38.5334 28.392 39.097 28.24 39.515 27.936C39.933 27.6193 40.142 27.1 40.142 26.378C40.142 25.8207 39.9837 25.3583 39.667 24.991C39.363 24.6237 38.9704 24.3007 38.489 24.022C38.0077 23.7307 37.5074 23.4393 36.988 23.148C36.4814 22.8567 35.9937 22.5463 35.525 22.217C35.0564 21.8877 34.67 21.495 34.366 21.039C34.0747 20.583 33.929 20.0257 33.929 19.367C33.929 18.6957 34.0937 18.1383 34.423 17.695C34.7524 17.239 35.1894 16.8907 35.734 16.65C36.2787 16.4093 36.8804 16.289 37.539 16.289C38.1217 16.289 38.5714 16.3397 38.888 16.441C39.2047 16.5297 39.4517 16.6247 39.629 16.726C39.819 16.8273 39.99 16.878 40.142 16.878C40.446 16.878 40.6424 16.6943 40.731 16.327H41.225L41.358 20.127Z" fill="#F10909"/>
<path d="M14.7877 20.127V20.627H15.3055L15.2874 20.1095L14.7877 20.127ZM14.2177 20.127L13.733 20.2496L13.8285 20.627H14.2177V20.127ZM13.1537 17.79L12.7774 18.1193V18.1193L13.1537 17.79ZM11.0447 17.049V17.549L11.0513 17.549L11.0447 17.049ZM9.54373 17.505L9.86117 17.8914L9.86913 17.8846L9.54373 17.505ZM9.41073 20.051L9.01599 20.358L9.02176 20.3652L9.41073 20.051ZM10.4557 20.944L10.7185 20.5186L10.4557 20.944ZM11.8047 21.761L11.5492 22.1908L11.5553 22.1943L11.8047 21.761ZM13.0587 22.483L12.8092 22.9163L12.8148 22.9195L13.0587 22.483ZM14.2177 23.3L13.8855 23.6738L13.8923 23.6796L14.2177 23.3ZM15.0537 24.364L14.6064 24.5877L14.6122 24.5986L15.0537 24.364ZM14.8637 27.689L14.4492 27.4092L14.4445 27.4165L14.8637 27.689ZM13.4957 28.848L13.6951 29.3066L13.7034 29.3028L13.4957 28.848ZM9.90473 29.076L10.0226 28.59L10.0116 28.5876L9.90473 29.076ZM8.93573 28.81L8.73267 29.2669L8.74757 29.2735L8.76288 29.2792L8.93573 28.81ZM7.85273 29.285V29.785H8.32051L8.35163 29.3183L7.85273 29.285ZM7.26373 29.285L6.76417 29.3058L6.78413 29.785H7.26373V29.285ZM7.09273 25.181V24.681H6.57147L6.59317 25.2018L7.09273 25.181ZM7.68173 25.181L8.16554 25.0548L8.06803 24.681H7.68173V25.181ZM8.47973 27.195L8.06022 27.4671L8.06371 27.4724L8.47973 27.195ZM9.60073 28.145L9.41504 28.6092L9.42292 28.6124L9.43091 28.6153L9.60073 28.145ZM12.9447 27.936L13.2389 28.3404L13.2467 28.3345L12.9447 27.936ZM13.0967 24.991L12.7115 25.3098L12.718 25.3175L13.0967 24.991ZM11.9187 24.022L11.6598 24.4498L11.6682 24.4547L11.9187 24.022ZM10.4177 23.148L10.1685 23.5815L10.1731 23.5841L10.4177 23.148ZM7.79573 21.039L7.37431 21.3082L7.37971 21.3163L7.79573 21.039ZM7.85273 17.695L8.25414 17.9932L8.25807 17.9877L7.85273 17.695ZM9.16373 16.65L9.36582 17.1073V17.1073L9.16373 16.65ZM12.3177 16.441L12.1653 16.9172L12.1741 16.92L12.1829 16.9225L12.3177 16.441ZM13.0587 16.726L12.8107 17.1601L12.817 17.1637L12.8234 17.1672L13.0587 16.726ZM14.1607 16.327V15.827H13.7671L13.6747 16.2097L14.1607 16.327ZM14.6547 16.327L15.1544 16.3095L15.1375 15.827H14.6547V16.327ZM14.7877 20.127V19.627H14.2177V20.127V20.627H14.7877V20.127ZM14.2177 20.127L14.7025 20.0044C14.4276 18.9182 14.0476 18.0523 13.53 17.4607L13.1537 17.79L12.7774 18.1193C13.1465 18.541 13.4758 19.2332 13.733 20.2496L14.2177 20.127ZM13.1537 17.79L13.53 17.4607C12.9543 16.8028 12.0822 16.5353 11.0382 16.549L11.0447 17.049L11.0513 17.549C11.9326 17.5374 12.4665 17.7638 12.7774 18.1193L13.1537 17.79ZM11.0447 17.049V16.549C10.3249 16.549 9.69308 16.7184 9.21834 17.1254L9.54373 17.505L9.86913 17.8846C10.1037 17.6836 10.4725 17.549 11.0447 17.549V17.049ZM9.54373 17.505L9.22637 17.1186C8.72356 17.5317 8.51173 18.1379 8.51173 18.835H9.01173H9.51173C9.51173 18.3414 9.65458 18.061 9.8611 17.8914L9.54373 17.505ZM9.01173 18.835H8.51173C8.51173 19.4052 8.67608 19.9209 9.01606 20.358L9.41073 20.051L9.80541 19.744C9.61339 19.4971 9.51173 19.2022 9.51173 18.835H9.01173ZM9.41073 20.051L9.02176 20.3652C9.32943 20.7461 9.72341 21.0794 10.193 21.3694L10.4557 20.944L10.7185 20.5186C10.3267 20.2766 10.024 20.0146 9.79971 19.7368L9.41073 20.051ZM10.4557 20.944L10.193 21.3694C10.6262 21.637 11.0783 21.9108 11.5492 22.1908L11.8047 21.761L12.0603 21.3312C11.5938 21.0539 11.1466 20.783 10.7185 20.5186L10.4557 20.944ZM11.8047 21.761L11.5553 22.1943C11.5793 22.2082 11.6879 22.2707 11.712 22.2846C11.7361 22.2984 11.8447 22.3609 11.8688 22.3748C11.8928 22.3887 12.0014 22.4512 12.0255 22.4651C12.0496 22.4789 12.1582 22.5414 12.1823 22.5553C12.1876 22.5584 12.2553 22.5973 12.2606 22.6004C12.266 22.6035 12.3336 22.6425 12.339 22.6456C12.3444 22.6486 12.412 22.6876 12.4174 22.6907C12.4227 22.6938 12.4904 22.7327 12.4958 22.7358C12.5011 22.7389 12.5688 22.7778 12.5741 22.7809C12.5795 22.784 12.6471 22.823 12.6525 22.8261C12.6579 22.8291 12.7255 22.8681 12.7309 22.8712C12.7362 22.8743 12.8039 22.9132 12.8093 22.9163L13.0587 22.483L13.3082 22.0497C13.2841 22.0358 13.1755 21.9733 13.1515 21.9594C13.1274 21.9456 13.0188 21.8831 12.9947 21.8692C12.9706 21.8553 12.862 21.7928 12.838 21.7789C12.8139 21.7651 12.7053 21.7026 12.6812 21.6887C12.6759 21.6856 12.6082 21.6467 12.6028 21.6436C12.5975 21.6405 12.5298 21.6015 12.5245 21.5984C12.5191 21.5953 12.4515 21.5564 12.4461 21.5533C12.4407 21.5502 12.3731 21.5113 12.3677 21.5082C12.3624 21.5051 12.2947 21.4662 12.2893 21.4631C12.284 21.46 12.2163 21.421 12.211 21.4179C12.2056 21.4148 12.138 21.3759 12.1326 21.3728C12.1272 21.3697 12.0596 21.3308 12.0542 21.3277L11.8047 21.761ZM13.0587 22.483L12.8148 22.9195C13.2163 23.1438 13.5726 23.3956 13.8856 23.6737L14.2177 23.3L14.5499 22.9263C14.1788 22.5964 13.7625 22.3035 13.3026 22.0465L13.0587 22.483ZM14.2177 23.3L13.8923 23.6796C14.198 23.9416 14.4346 24.2437 14.6065 24.5876L15.0537 24.364L15.5009 24.1404C15.2676 23.6736 14.9468 23.2664 14.5431 22.9204L14.2177 23.3ZM15.0537 24.364L14.6122 24.5986C14.7809 24.9163 14.8767 25.3193 14.8767 25.827H15.3767H15.8767C15.8767 25.1947 15.7572 24.6224 15.4953 24.1294L15.0537 24.364ZM15.3767 25.827H14.8767C14.8767 26.4824 14.7251 27.0007 14.4493 27.4093L14.8637 27.689L15.2782 27.9687C15.6864 27.364 15.8767 26.6409 15.8767 25.827H15.3767ZM14.8637 27.689L14.4445 27.4165C14.1701 27.8387 13.7898 28.1641 13.2881 28.3932L13.4957 28.848L13.7034 29.3028C14.367 28.9999 14.8987 28.5527 15.283 27.9615L14.8637 27.689ZM13.4957 28.848L13.2964 28.3895C12.7857 28.6115 12.1964 28.728 11.5197 28.728V29.228V29.728C12.3124 29.728 13.0405 29.5912 13.6951 29.3065L13.4957 28.848ZM11.5197 29.228V28.728C10.8822 28.728 10.3873 28.6785 10.0225 28.5901L9.90473 29.076L9.78693 29.5619C10.2581 29.6762 10.84 29.728 11.5197 29.728V29.228ZM9.90473 29.076L10.0116 28.5876C9.6168 28.5012 9.31873 28.4182 9.10859 28.3408L8.93573 28.81L8.76288 29.2792C9.03408 29.3791 9.382 29.4735 9.79789 29.5645L9.90473 29.076ZM8.93573 28.81L9.1388 28.3531C8.88282 28.2393 8.61851 28.158 8.36573 28.158V28.658V29.158C8.41696 29.158 8.53265 29.178 8.73267 29.2669L8.93573 28.81ZM8.36573 28.658V28.158C8.06728 28.158 7.82514 28.2998 7.65003 28.4968L8.02373 28.829L8.39744 29.1612C8.41397 29.1426 8.41874 29.143 8.40884 29.148C8.40391 29.1504 8.39692 29.1532 8.38834 29.1552C8.37976 29.1573 8.37192 29.158 8.36573 29.158V28.658ZM8.02373 28.829L7.65003 28.4968C7.45821 28.7126 7.37202 28.979 7.35384 29.2517L7.85273 29.285L8.35163 29.3183C8.35878 29.211 8.3866 29.1734 8.39744 29.1612L8.02373 28.829ZM7.85273 29.285V28.785H7.26373V29.285V29.785H7.85273V29.285ZM7.26373 29.285L7.7633 29.2642L7.5923 25.1602L7.09273 25.181L6.59317 25.2018L6.76417 29.3058L7.26373 29.285ZM7.09273 25.181V25.681H7.68173V25.181V24.681H7.09273V25.181ZM7.68173 25.181L7.19793 25.3072C7.43218 26.2052 7.71481 26.9345 8.06025 27.4671L8.47973 27.195L8.89921 26.9229C8.63666 26.5181 8.38729 25.9048 8.16554 25.0548L7.68173 25.181ZM8.47973 27.195L8.06371 27.4724C8.41526 27.9997 8.86442 28.389 9.41504 28.6092L9.60073 28.145L9.78643 27.6808C9.45038 27.5463 9.15221 27.3023 8.89576 26.9177L8.47973 27.195ZM9.60073 28.145L9.43091 28.6153C9.95612 28.8049 10.5679 28.892 11.2537 28.892V28.392V27.892C10.6476 27.892 10.1574 27.8144 9.77056 27.6747L9.60073 28.145ZM11.2537 28.392V28.892C12.0302 28.892 12.7087 28.7259 13.2388 28.3404L12.9447 27.936L12.6506 27.5316C12.3447 27.7541 11.8959 27.892 11.2537 27.892V28.392ZM12.9447 27.936L13.2467 28.3345C13.8324 27.8908 14.0717 27.1934 14.0717 26.378H13.5717H13.0717C13.0717 27.0066 12.8931 27.3478 12.6428 27.5375L12.9447 27.936ZM13.5717 26.378H14.0717C14.0717 25.7198 13.8819 25.136 13.4754 24.6645L13.0967 24.991L12.718 25.3175C12.9449 25.5806 13.0717 25.9215 13.0717 26.378H13.5717ZM13.0967 24.991L13.4819 24.6722C13.1344 24.2523 12.6935 23.8928 12.1693 23.5893L11.9187 24.022L11.6682 24.4547C12.1066 24.7085 12.451 24.995 12.7115 25.3098L13.0967 24.991ZM11.9187 24.022L12.1776 23.5942C11.6913 23.2999 11.1862 23.0058 10.6624 22.7119L10.4177 23.148L10.1731 23.5841C10.6879 23.8729 11.1835 24.1614 11.6598 24.4497L11.9187 24.022ZM10.4177 23.148L10.667 22.7145C10.1731 22.4306 9.69825 22.1284 9.24221 21.8079L8.95473 22.217L8.66726 22.6261C9.14855 22.9643 9.64899 23.2827 10.1685 23.5815L10.4177 23.148ZM8.95473 22.217L9.24221 21.8079C8.82185 21.5125 8.47989 21.1638 8.21176 20.7616L7.79573 21.039L7.37971 21.3163C7.71958 21.8262 8.15028 22.2628 8.66726 22.6261L8.95473 22.217ZM7.79573 21.039L8.21708 20.7698C7.98729 20.4101 7.85873 19.9511 7.85873 19.367H7.35873H6.85873C6.85873 20.1002 7.02152 20.7559 7.37439 21.3082L7.79573 21.039ZM7.35873 19.367H7.85873C7.85873 18.7794 8.00163 18.333 8.25411 17.9932L7.85273 17.695L7.45136 17.3968C7.04517 17.9436 6.85873 18.612 6.85873 19.367H7.35873ZM7.85273 17.695L8.25807 17.9877C8.53238 17.6079 8.89736 17.3143 9.36582 17.1073L9.16373 16.65L8.96165 16.1927C8.34077 16.467 7.83175 16.8701 7.44739 17.4023L7.85273 17.695ZM9.16373 16.65L9.36582 17.1073C9.84036 16.8977 10.3722 16.789 10.9687 16.789V16.289V15.789C10.2479 15.789 9.57644 15.921 8.96165 16.1927L9.16373 16.65ZM10.9687 16.289V16.789C11.5324 16.789 11.9216 16.8392 12.1653 16.9172L12.3177 16.441L12.4701 15.9648C12.0805 15.8401 11.5704 15.789 10.9687 15.789V16.289ZM12.3177 16.441L12.1829 16.9225C12.4809 17.0059 12.6839 17.0877 12.8107 17.1601L13.0587 16.726L13.3068 16.2919C13.0789 16.1617 12.7879 16.0534 12.4525 15.9595L12.3177 16.441ZM13.0587 16.726L12.8234 17.1672C13.0575 17.292 13.3106 17.378 13.5717 17.378V16.878V16.378C13.5288 16.378 13.44 16.3627 13.294 16.2848L13.0587 16.726ZM13.5717 16.878V17.378C13.8327 17.378 14.0855 17.2954 14.2886 17.1054C14.4815 16.9249 14.5885 16.6859 14.6468 16.4443L14.1607 16.327L13.6747 16.2097C13.6444 16.3354 13.6088 16.372 13.6054 16.3751C13.6045 16.3759 13.6047 16.3757 13.6058 16.375C13.6068 16.3743 13.6075 16.3741 13.6072 16.3742C13.6071 16.3743 13.5971 16.378 13.5717 16.378V16.878ZM14.1607 16.327V16.827H14.6547V16.327V15.827H14.1607V16.327ZM14.6547 16.327L14.155 16.3445L14.288 20.1445L14.7877 20.127L15.2874 20.1095L15.1544 16.3095L14.6547 16.327ZM32.152 29V29.5H32.652V29H32.152ZM27.098 29H26.598V29.5H27.098V29ZM27.098 28.43V27.93H26.598V28.43H27.098ZM28.2 28.297L28.3728 28.7662L28.2 28.297ZM28.675 27.803L29.1518 27.9536L29.1539 27.9467L28.675 27.803ZM28.789 18.55H29.289V18.05H28.789V18.55ZM28.713 18.55V18.05H28.3818L28.2526 18.355L28.713 18.55ZM24.286 29V29.5H24.6172L24.7463 29.195L24.286 29ZM23.83 29L23.3706 29.1975L23.5007 29.5H23.83V29ZM19.346 18.569L19.8053 18.3715L19.6753 18.069H19.346V18.569ZM19.27 18.569V18.069H18.77V18.569H19.27ZM19.403 27.67L18.9215 27.8048L19.403 27.67ZM19.897 28.297L19.7029 28.7578L19.7172 28.7638L19.7318 28.7689L19.897 28.297ZM20.999 28.43H21.499V27.93H20.999V28.43ZM20.999 29V29.5H21.499V29H20.999ZM16.534 29H16.034V29.5H16.534V29ZM16.534 28.43V27.93H16.034V28.43H16.534ZM17.693 28.297L17.8581 28.7689L17.8685 28.7653L17.8786 28.7612L17.693 28.297ZM18.206 27.67L18.6874 27.8048L18.206 27.67ZM18.206 17.752L17.734 17.9172L17.7368 17.9249L18.206 17.752ZM17.693 17.239L17.4989 17.6998L17.5132 17.7058L17.5278 17.7109L17.693 17.239ZM16.572 17.087H16.072V17.587H16.572V17.087ZM16.572 16.517V16.017H16.072V16.517H16.572ZM20.448 16.517L20.909 16.3236L20.7804 16.017H20.448V16.517ZM24.457 26.074L23.9959 26.2674L24.1245 26.574H24.457V26.074ZM24.533 26.074V26.574H24.866L24.9944 26.2666L24.533 26.074ZM28.523 16.517V16.017H28.1899L28.0616 16.3244L28.523 16.517ZM32.133 16.517H32.633V16.017H32.133V16.517ZM32.133 17.087V17.587H32.633V17.087H32.133ZM31.107 17.239L31.2798 17.7082L31.2905 17.7042L31.301 17.6998L31.107 17.239ZM30.613 17.752L31.0822 17.9249L31.0849 17.9172L30.613 17.752ZM30.613 27.803L30.141 27.9682L30.1438 27.9759L30.613 27.803ZM31.107 28.297L30.9341 28.7662L31.107 28.297ZM32.152 28.43H32.652V27.93H32.152V28.43ZM32.152 29V28.5H27.098V29V29.5H32.152V29ZM27.098 29H27.598V28.43H27.098H26.598V29H27.098ZM27.098 28.43V28.93C27.6067 28.93 28.0466 28.8863 28.3728 28.7662L28.2 28.297L28.0271 27.8278C27.8719 27.885 27.5772 27.93 27.098 27.93V28.43ZM28.2 28.297L28.3728 28.7662C28.7558 28.6251 29.0283 28.3445 29.1517 27.9536L28.675 27.803L28.1982 27.6524C28.1696 27.7428 28.1254 27.7916 28.0271 27.8278L28.2 28.297ZM28.675 27.803L29.1539 27.9467C29.2504 27.6249 29.289 27.2139 29.289 26.739H28.789H28.289C28.289 27.1761 28.2515 27.4744 28.196 27.6593L28.675 27.803ZM28.789 26.739H29.289V18.55H28.789H28.289V26.739H28.789ZM28.789 18.55V18.05H28.713V18.55V19.05H28.789V18.55ZM28.713 18.55L28.2526 18.355L23.8256 28.805L24.286 29L24.7463 29.195L29.1733 18.745L28.713 18.55ZM24.286 29V28.5H23.83V29V29.5H24.286V29ZM23.83 29L24.2893 28.8025L19.8053 18.3715L19.346 18.569L18.8866 18.7665L23.3706 29.1975L23.83 29ZM19.346 18.569V18.069H19.27V18.569V19.069H19.346V18.569ZM19.27 18.569H18.77V26.226H19.27H19.77V18.569H19.27ZM19.27 26.226H18.77C18.77 26.8826 18.8137 27.42 18.9215 27.8048L19.403 27.67L19.8844 27.5352C19.8148 27.2866 19.77 26.8614 19.77 26.226H19.27ZM19.403 27.67L18.9215 27.8048C19.0396 28.2266 19.2862 28.5823 19.7029 28.7578L19.897 28.297L20.091 27.8362C20.0264 27.809 19.9437 27.7467 19.8844 27.5352L19.403 27.67ZM19.897 28.297L19.7318 28.7689C20.0646 28.8854 20.4986 28.93 20.999 28.93V28.43V27.93C20.5366 27.93 20.236 27.8859 20.0621 27.8251L19.897 28.297ZM20.999 28.43H20.499V29H20.999H21.499V28.43H20.999ZM20.999 29V28.5H16.534V29V29.5H20.999V29ZM16.534 29H17.034V28.43H16.534H16.034V29H16.534ZM16.534 28.43V28.93C17.0672 28.93 17.5227 28.8863 17.8581 28.7689L17.693 28.297L17.5278 27.8251C17.3565 27.885 17.0394 27.93 16.534 27.93V28.43ZM17.693 28.297L17.8786 28.7612C18.3067 28.59 18.5664 28.2369 18.6874 27.8048L18.206 27.67L17.7245 27.5352C17.6681 27.7364 17.5859 27.8013 17.5073 27.8328L17.693 28.297ZM18.206 27.67L18.6874 27.8048C18.7952 27.42 18.839 26.8826 18.839 26.226H18.339H17.839C17.839 26.8614 17.7941 27.2866 17.7245 27.5352L18.206 27.67ZM18.339 26.226H18.839V18.835H18.339H17.839V26.226H18.339ZM18.339 18.835H18.839C18.839 18.337 18.795 17.9044 18.6751 17.5791L18.206 17.752L17.7368 17.9249C17.7943 18.0809 17.839 18.3703 17.839 18.835H18.339ZM18.206 17.752L18.6779 17.5868C18.539 17.1899 18.2551 16.906 17.8581 16.7671L17.693 17.239L17.5278 17.7109C17.6375 17.7493 17.6956 17.8074 17.734 17.9172L18.206 17.752ZM17.693 17.239L17.887 16.7782C17.551 16.6367 17.0944 16.587 16.572 16.587V17.087V17.587C17.0628 17.587 17.3536 17.6386 17.4989 17.6998L17.693 17.239ZM16.572 17.087H17.072V16.517H16.572H16.072V17.087H16.572ZM16.572 16.517V17.017H20.448V16.517V16.017H16.572V16.517ZM20.448 16.517L19.9869 16.7104L23.9959 26.2674L24.457 26.074L24.918 25.8806L20.909 16.3236L20.448 16.517ZM24.457 26.074V26.574H24.533V26.074V25.574H24.457V26.074ZM24.533 26.074L24.9944 26.2666L28.9844 16.7096L28.523 16.517L28.0616 16.3244L24.0716 25.8814L24.533 26.074ZM28.523 16.517V17.017H32.133V16.517V16.017H28.523V16.517ZM32.133 16.517H31.633V17.087H32.133H32.633V16.517H32.133ZM32.133 17.087V16.587C31.663 16.587 31.2435 16.639 30.9129 16.7782L31.107 17.239L31.301 17.6998C31.4518 17.6363 31.7162 17.587 32.133 17.587V17.087ZM31.107 17.239L30.9341 16.7698C30.546 16.9128 30.2764 17.2001 30.141 17.5868L30.613 17.752L31.0849 17.9172C31.1269 17.7972 31.1865 17.7425 31.2798 17.7082L31.107 17.239ZM30.613 17.752L30.1438 17.5791C30.0243 17.9034 29.98 18.3288 29.98 18.816H30.48H30.98C30.98 18.3659 31.0243 18.0819 31.0821 17.9249L30.613 17.752ZM30.48 18.816H29.98V26.739H30.48H30.98V18.816H30.48ZM30.48 26.739H29.98C29.98 27.2177 30.0252 27.6373 30.141 27.9682L30.613 27.803L31.0849 27.6378C31.0233 27.462 30.98 27.1723 30.98 26.739H30.48ZM30.613 27.803L30.1438 27.9759C30.2831 28.3539 30.556 28.6269 30.9341 28.7662L31.107 28.297L31.2798 27.8278C31.1765 27.7898 31.1202 27.7334 31.0821 27.6301L30.613 27.803ZM31.107 28.297L30.9341 28.7662C31.2574 28.8853 31.6755 28.93 32.152 28.93V28.43V27.93C31.7164 27.93 31.4379 27.8861 31.2798 27.8278L31.107 28.297ZM32.152 28.43H31.652V29H32.152H32.652V28.43H32.152ZM41.358 20.127V20.627H41.8759L41.8577 20.1095L41.358 20.127ZM40.788 20.127L40.3033 20.2496L40.3988 20.627H40.788V20.127ZM39.724 17.79L39.3478 18.1193V18.1193L39.724 17.79ZM37.615 17.049V17.549L37.6216 17.549L37.615 17.049ZM36.114 17.505L36.4315 17.8914L36.4394 17.8846L36.114 17.505ZM35.981 20.051L35.5863 20.358L35.5921 20.3652L35.981 20.051ZM37.026 20.944L37.2888 20.5186L37.026 20.944ZM38.375 21.761L38.1195 22.1908L38.1256 22.1943L38.375 21.761ZM39.629 22.483L39.3795 22.9163L39.3851 22.9195L39.629 22.483ZM40.788 23.3L40.4558 23.6738L40.4627 23.6796L40.788 23.3ZM41.624 24.364L41.1767 24.5877L41.1825 24.5986L41.624 24.364ZM41.434 27.689L41.0196 27.4092L41.0148 27.4165L41.434 27.689ZM40.066 28.848L40.2654 29.3066L40.2737 29.3028L40.066 28.848ZM36.475 29.076L36.5929 28.59L36.5819 28.5876L36.475 29.076ZM35.506 28.81L35.303 29.2669L35.3179 29.2735L35.3332 29.2792L35.506 28.81ZM34.423 29.285V29.785H34.8908L34.9219 29.3183L34.423 29.285ZM33.834 29.285L33.3345 29.3058L33.3544 29.785H33.834V29.285ZM33.663 25.181V24.681H33.1418L33.1635 25.2018L33.663 25.181ZM34.252 25.181L34.7359 25.0548L34.6383 24.681H34.252V25.181ZM35.05 27.195L34.6305 27.4671L34.634 27.4724L35.05 27.195ZM36.171 28.145L35.9854 28.6092L35.9932 28.6124L36.0012 28.6153L36.171 28.145ZM39.515 27.936L39.8092 28.3404L39.817 28.3345L39.515 27.936ZM39.667 24.991L39.2818 25.3098L39.2883 25.3175L39.667 24.991ZM38.489 24.022L38.2301 24.4498L38.2385 24.4547L38.489 24.022ZM36.988 23.148L36.7388 23.5815L36.7434 23.5841L36.988 23.148ZM34.366 21.039L33.9446 21.3082L33.95 21.3163L34.366 21.039ZM34.423 17.695L34.8245 17.9932L34.8284 17.9877L34.423 17.695ZM35.734 16.65L35.9361 17.1073V17.1073L35.734 16.65ZM38.888 16.441L38.7357 16.9172L38.7444 16.92L38.7532 16.9225L38.888 16.441ZM39.629 16.726L39.381 17.1601L39.3873 17.1637L39.3938 17.1672L39.629 16.726ZM40.731 16.327V15.827H40.3374L40.245 16.2097L40.731 16.327ZM41.225 16.327L41.7247 16.3095L41.7079 15.827H41.225V16.327ZM41.358 20.127V19.627H40.788V20.127V20.627H41.358V20.127ZM40.788 20.127L41.2728 20.0044C40.998 18.9182 40.618 18.0523 40.1003 17.4607L39.724 17.79L39.3478 18.1193C39.7168 18.541 40.0461 19.2332 40.3033 20.2496L40.788 20.127ZM39.724 17.79L40.1003 17.4607C39.5246 16.8028 38.6525 16.5353 37.6085 16.549L37.615 17.049L37.6216 17.549C38.5029 17.5374 39.0368 17.7638 39.3478 18.1193L39.724 17.79ZM37.615 17.049V16.549C36.8953 16.549 36.2634 16.7184 35.7887 17.1254L36.114 17.505L36.4394 17.8846C36.674 17.6836 37.0428 17.549 37.615 17.549V17.049ZM36.114 17.505L35.7967 17.1186C35.2939 17.5317 35.082 18.1379 35.082 18.835H35.582H36.082C36.082 18.3414 36.2249 18.061 36.4314 17.8914L36.114 17.505ZM35.582 18.835H35.082C35.082 19.4052 35.2464 19.9209 35.5864 20.358L35.981 20.051L36.3757 19.744C36.1837 19.4971 36.082 19.2022 36.082 18.835H35.582ZM35.981 20.051L35.5921 20.3652C35.8997 20.7461 36.2937 21.0794 36.7633 21.3694L37.026 20.944L37.2888 20.5186C36.897 20.2766 36.5944 20.0146 36.37 19.7368L35.981 20.051ZM37.026 20.944L36.7633 21.3694C37.1965 21.637 37.6486 21.9108 38.1195 22.1908L38.375 21.761L38.6306 21.3312C38.1642 21.0539 37.7169 20.783 37.2888 20.5186L37.026 20.944ZM38.375 21.761L38.1256 22.1943C38.1496 22.2082 38.2582 22.2707 38.2823 22.2846C38.3064 22.2984 38.415 22.3609 38.4391 22.3748C38.4631 22.3887 38.5717 22.4512 38.5958 22.4651C38.6199 22.4789 38.7285 22.5414 38.7526 22.5553C38.7579 22.5584 38.8256 22.5973 38.8309 22.6004C38.8363 22.6035 38.9039 22.6425 38.9093 22.6456C38.9147 22.6486 38.9823 22.6876 38.9877 22.6907C38.9931 22.6938 39.0607 22.7327 39.0661 22.7358C39.0714 22.7389 39.1391 22.7778 39.1444 22.7809C39.1498 22.784 39.2174 22.823 39.2228 22.8261C39.2282 22.8291 39.2958 22.8681 39.3012 22.8712C39.3066 22.8743 39.3742 22.9132 39.3796 22.9163L39.629 22.483L39.8785 22.0497C39.8545 22.0358 39.7459 21.9733 39.7218 21.9594C39.6977 21.9456 39.5891 21.8831 39.565 21.8692C39.541 21.8553 39.4324 21.7928 39.4083 21.7789C39.3842 21.7651 39.2756 21.7026 39.2515 21.6887C39.2462 21.6856 39.1785 21.6467 39.1732 21.6436C39.1678 21.6405 39.1001 21.6015 39.0948 21.5984C39.0894 21.5953 39.0218 21.5564 39.0164 21.5533C39.011 21.5502 38.9434 21.5113 38.938 21.5082C38.9327 21.5051 38.865 21.4662 38.8597 21.4631C38.8543 21.46 38.7866 21.421 38.7813 21.4179C38.7759 21.4148 38.7083 21.3759 38.7029 21.3728C38.6975 21.3697 38.6299 21.3308 38.6245 21.3277L38.375 21.761ZM39.629 22.483L39.3851 22.9195C39.7866 23.1438 40.1429 23.3956 40.4559 23.6737L40.788 23.3L41.1202 22.9263C40.7491 22.5964 40.3328 22.3035 39.873 22.0465L39.629 22.483ZM40.788 23.3L40.4627 23.6796C40.7683 23.9416 41.0049 24.2437 41.1768 24.5876L41.624 24.364L42.0713 24.1404C41.8379 23.6736 41.5171 23.2664 41.1134 22.9204L40.788 23.3ZM41.624 24.364L41.1825 24.5986C41.3513 24.9163 41.447 25.3193 41.447 25.827H41.947H42.447C42.447 25.1947 42.3275 24.6224 42.0656 24.1294L41.624 24.364ZM41.947 25.827H41.447C41.447 26.4824 41.2954 27.0007 41.0196 27.4093L41.434 27.689L41.8485 27.9687C42.2567 27.364 42.447 26.6409 42.447 25.827H41.947ZM41.434 27.689L41.0148 27.4165C40.7404 27.8387 40.3601 28.1641 39.8584 28.3932L40.066 28.848L40.2737 29.3028C40.9374 28.9999 41.469 28.5527 41.8533 27.9615L41.434 27.689ZM40.066 28.848L39.8667 28.3895C39.356 28.6115 38.7668 28.728 38.09 28.728V29.228V29.728C38.8827 29.728 39.6108 29.5912 40.2654 29.3065L40.066 28.848ZM38.09 29.228V28.728C37.4525 28.728 36.9576 28.6785 36.5928 28.5901L36.475 29.076L36.3572 29.5619C36.8285 29.6762 37.4103 29.728 38.09 29.728V29.228ZM36.475 29.076L36.5819 28.5876C36.1871 28.5012 35.889 28.4182 35.6789 28.3408L35.506 28.81L35.3332 29.2792C35.6044 29.3791 35.9523 29.4735 36.3682 29.5645L36.475 29.076ZM35.506 28.81L35.7091 28.3531C35.4531 28.2393 35.1888 28.158 34.936 28.158V28.658V29.158C34.9873 29.158 35.103 29.178 35.303 29.2669L35.506 28.81ZM34.936 28.658V28.158C34.6376 28.158 34.3954 28.2998 34.2203 28.4968L34.594 28.829L34.9678 29.1612C34.9843 29.1426 34.989 29.143 34.9792 29.148C34.9742 29.1504 34.9672 29.1532 34.9587 29.1552C34.9501 29.1573 34.9422 29.158 34.936 29.158V28.658ZM34.594 28.829L34.2203 28.4968C34.0285 28.7126 33.9423 28.979 33.9242 29.2517L34.423 29.285L34.9219 29.3183C34.9291 29.211 34.9569 29.1734 34.9678 29.1612L34.594 28.829ZM34.423 29.285V28.785H33.834V29.285V29.785H34.423V29.285ZM33.834 29.285L34.3336 29.2642L34.1626 25.1602L33.663 25.181L33.1635 25.2018L33.3345 29.3058L33.834 29.285ZM33.663 25.181V25.681H34.252V25.181V24.681H33.663V25.181ZM34.252 25.181L33.7682 25.3072C34.0025 26.2052 34.2851 26.9345 34.6306 27.4671L35.05 27.195L35.4695 26.9229C35.207 26.5181 34.9576 25.9048 34.7359 25.0548L34.252 25.181ZM35.05 27.195L34.634 27.4724C34.9856 27.9997 35.4347 28.389 35.9854 28.6092L36.171 28.145L36.3567 27.6808C36.0207 27.5463 35.7225 27.3023 35.4661 26.9177L35.05 27.195ZM36.171 28.145L36.0012 28.6153C36.5264 28.8049 37.1382 28.892 37.824 28.892V28.392V27.892C37.2179 27.892 36.7277 27.8144 36.3409 27.6747L36.171 28.145ZM37.824 28.392V28.892C38.6005 28.892 39.279 28.7259 39.8091 28.3404L39.515 27.936L39.221 27.5316C38.9151 27.7541 38.4662 27.892 37.824 27.892V28.392ZM39.515 27.936L39.817 28.3345C40.4027 27.8908 40.642 27.1934 40.642 26.378H40.142H39.642C39.642 27.0066 39.4634 27.3478 39.2131 27.5375L39.515 27.936ZM40.142 26.378H40.642C40.642 25.7198 40.4522 25.136 40.0458 24.6645L39.667 24.991L39.2883 25.3175C39.5152 25.5806 39.642 25.9215 39.642 26.378H40.142ZM39.667 24.991L40.0522 24.6722C39.7047 24.2523 39.2638 23.8928 38.7396 23.5893L38.489 24.022L38.2385 24.4547C38.677 24.7085 39.0214 24.995 39.2818 25.3098L39.667 24.991ZM38.489 24.022L38.7479 23.5942C38.2616 23.2999 37.7565 23.0058 37.2327 22.7119L36.988 23.148L36.7434 23.5841C37.2582 23.8729 37.7538 24.1614 38.2301 24.4497L38.489 24.022ZM36.988 23.148L37.2373 22.7145C36.7435 22.4306 36.2686 22.1284 35.8125 21.8079L35.525 22.217L35.2376 22.6261C35.7189 22.9643 36.2193 23.2827 36.7388 23.5815L36.988 23.148ZM35.525 22.217L35.8125 21.8079C35.3922 21.5125 35.0502 21.1638 34.7821 20.7616L34.366 21.039L33.95 21.3163C34.2899 21.8262 34.7206 22.2628 35.2376 22.6261L35.525 22.217ZM34.366 21.039L34.7874 20.7698C34.5576 20.4101 34.429 19.9511 34.429 19.367H33.929H33.429C33.429 20.1002 33.5918 20.7559 33.9447 21.3082L34.366 21.039ZM33.929 19.367H34.429C34.429 18.7794 34.5719 18.333 34.8244 17.9932L34.423 17.695L34.0217 17.3968C33.6155 17.9436 33.429 18.612 33.429 19.367H33.929ZM34.423 17.695L34.8284 17.9877C35.1027 17.6079 35.4677 17.3143 35.9361 17.1073L35.734 16.65L35.532 16.1927C34.9111 16.467 34.4021 16.8701 34.0177 17.4023L34.423 17.695ZM35.734 16.65L35.9361 17.1073C36.4107 16.8977 36.9425 16.789 37.539 16.789V16.289V15.789C36.8182 15.789 36.1468 15.921 35.532 16.1927L35.734 16.65ZM37.539 16.289V16.789C38.1027 16.789 38.4919 16.8392 38.7357 16.9172L38.888 16.441L39.0404 15.9648C38.6509 15.8401 38.1407 15.789 37.539 15.789V16.289ZM38.888 16.441L38.7532 16.9225C39.0512 17.0059 39.2542 17.0877 39.381 17.1601L39.629 16.726L39.8771 16.2919C39.6492 16.1617 39.3582 16.0534 39.0229 15.9595L38.888 16.441ZM39.629 16.726L39.3938 17.1672C39.6278 17.292 39.8809 17.378 40.142 17.378V16.878V16.378C40.0992 16.378 40.0103 16.3627 39.8643 16.2848L39.629 16.726ZM40.142 16.878V17.378C40.403 17.378 40.6558 17.2954 40.8589 17.1054C41.0518 16.9249 41.1588 16.6859 41.2171 16.4443L40.731 16.327L40.245 16.2097C40.2147 16.3354 40.1791 16.372 40.1757 16.3751C40.1748 16.3759 40.175 16.3757 40.1761 16.375C40.1772 16.3743 40.1779 16.3741 40.1776 16.3742C40.1774 16.3743 40.1674 16.378 40.142 16.378V16.878ZM40.731 16.327V16.827H41.225V16.327V15.827H40.731V16.327ZM41.225 16.327L40.7254 16.3445L40.8584 20.1445L41.358 20.127L41.8577 20.1095L41.7247 16.3095L41.225 16.327Z" fill="#F10909" mask="url(#path-2-outside-1_2014_7468)"/>
</svg>
