<svg width="79" height="79" viewBox="0 0 79 79" fill="none" xmlns="http://www.w3.org/2000/svg">
<rect x="0.5" y="0.5" width="78" height="78" rx="9.5" stroke="#01BD88"/>
<path d="M45.7964 8.3716C45.8586 8.1416 45.9662 7.92595 46.1129 7.73697C46.2597 7.54799 46.4428 7.38939 46.6518 7.27024C46.8607 7.15109 47.0915 7.07373 47.3308 7.04257C47.5701 7.01142 47.8133 7.02708 48.0464 7.08867C52.4828 8.22978 56.5304 10.5165 59.7724 13.7133C63.0143 16.9101 65.3333 20.9014 66.4906 25.276C66.553 25.5059 66.5689 25.7457 66.5373 25.9817C66.5057 26.2177 66.4273 26.4452 66.3064 26.6513C66.1856 26.8573 66.0248 27.0379 65.8331 27.1826C65.6415 27.3273 65.4228 27.4334 65.1895 27.4947C65.0348 27.5353 64.8752 27.5556 64.715 27.5551C64.3103 27.5553 63.9169 27.4238 63.5958 27.1809C63.2748 26.9379 63.044 26.5973 62.9395 26.2118C61.946 22.4541 59.9543 19.0257 57.1696 16.2798C54.385 13.534 50.9082 11.57 47.0975 10.5903C46.8642 10.529 46.6455 10.4229 46.4539 10.2782C46.2622 10.1335 46.1014 9.95293 45.9806 9.74687C45.8597 9.54081 45.7813 9.31329 45.7497 9.07731C45.7181 8.84133 45.734 8.60152 45.7964 8.3716ZM44.6484 20.25C49.1026 21.4212 51.9557 24.2346 53.1435 28.6267C53.248 29.0122 53.4787 29.3529 53.7998 29.5958C54.1209 29.8387 54.5143 29.9702 54.919 29.97C55.0792 29.9706 55.2387 29.9503 55.3935 29.9096C55.6267 29.8483 55.8454 29.7422 56.0371 29.5975C56.2287 29.4528 56.3896 29.2722 56.5104 29.0662C56.6312 28.8601 56.7097 28.6326 56.7413 28.3966C56.7729 28.1606 56.757 27.9208 56.6945 27.6909C55.1639 22.043 51.3251 18.2577 45.5974 16.7483C45.3643 16.6869 45.1211 16.6713 44.8819 16.7025C44.6426 16.7338 44.4119 16.8112 44.203 16.9303C43.781 17.1709 43.4733 17.5669 43.3474 18.0313C43.2216 18.4956 43.2879 18.9902 43.5319 19.4063C43.7759 19.8224 44.1775 20.1259 44.6484 20.25ZM68.9671 49.5308C68.4426 53.4769 66.4788 57.0995 63.4427 59.7217C60.4066 62.3439 56.506 63.7861 52.47 63.7788C28.5003 63.7788 9.00003 44.55 9.00003 20.9141C8.9923 16.9356 10.4536 13.0904 13.1109 10.0968C15.7683 7.10317 19.4399 5.1658 23.44 4.64659C24.3608 4.53625 25.2931 4.72347 26.0968 5.18015C26.9005 5.63683 27.5323 6.33831 27.8972 7.17923L34.3565 21.397C34.6417 22.0407 34.7597 22.7443 34.6998 23.4442C34.64 24.1442 34.4041 24.8183 34.0136 25.4058C33.9742 25.4656 33.9313 25.5231 33.885 25.5779L27.435 33.1426C27.3958 33.221 27.3754 33.3072 27.3754 33.3946C27.3754 33.482 27.3958 33.5683 27.435 33.6467C29.7799 38.3799 34.8126 43.3064 39.68 45.6156C39.7613 45.6522 39.8501 45.6695 39.9393 45.6664C40.0286 45.6632 40.1159 45.6397 40.1943 45.5975L47.7526 39.2584C47.8065 39.212 47.8638 39.1697 47.924 39.1316C48.5171 38.7416 49.1995 38.5037 49.9094 38.4394C50.6192 38.3751 51.3341 38.4865 51.9894 38.7633L66.4508 45.1538C67.2922 45.5215 67.9913 46.1466 68.4445 46.9365C68.8976 47.7264 69.0809 48.6392 68.9671 49.5398V49.5308Z" fill="#01BD88"/>
</svg>
