<svg width="79" height="79" viewBox="0 0 79 79" fill="none" xmlns="http://www.w3.org/2000/svg">
<path d="M10 0.5H69C74.2467 0.5 78.5 4.7533 78.5 10V69C78.5 74.2467 74.2467 78.5 69 78.5H10C4.75329 78.5 0.5 74.2467 0.5 69V10C0.5 4.75329 4.7533 0.5 10 0.5Z" stroke="#157844"/>
<path d="M49.3496 6.55469H20.0996C18.3757 6.55469 16.7224 7.22995 15.5034 8.43194C14.2844 9.63392 13.5996 11.2642 13.5996 12.964V64.2387C13.5996 65.9386 14.2844 67.5688 15.5034 68.7708C16.7224 69.9728 18.3757 70.648 20.0996 70.648H59.0996C60.8235 70.648 62.4768 69.9728 63.6958 68.7708C64.9148 67.5688 65.5996 65.9386 65.5996 64.2387V22.578L49.3496 6.55469Z" fill="#157844" stroke="white" stroke-width="4" stroke-linecap="round" stroke-linejoin="round"/>
<path d="M46.0996 6.55469V19.3734C46.0996 21.0732 46.7844 22.7035 48.0034 23.9054C49.2224 25.1074 50.8757 25.7827 52.5996 25.7827H65.5996M33.0996 28.9874H26.5996H33.0996ZM52.5996 41.806H26.5996H52.5996ZM52.5996 54.6247H26.5996H52.5996Z" fill="#157844"/>
<path d="M46.0996 6.55469V19.3734C46.0996 21.0732 46.7844 22.7035 48.0034 23.9054C49.2224 25.1074 50.8757 25.7827 52.5996 25.7827H65.5996M33.0996 28.9874H26.5996M52.5996 41.806H26.5996M52.5996 54.6247H26.5996" stroke="white" stroke-width="4" stroke-linecap="round" stroke-linejoin="round"/>
</svg>
